<svg xmlns="http://www.w3.org/2000/svg" xmlns:xlink="http://www.w3.org/1999/xlink" xmlns:lucid="lucid" width="1300" height="920"><g transform="translate(1800 1250)" lucid:page-tab-id="0_0"><path d="M-1290-1230h320v40h-320z" stroke="#000" stroke-width="2" fill="#c5cfe4"/><use xlink:href="#a" transform="matrix(1,0,0,1,-1290,-1230) translate(116.17777777777778 28.61111111111111)"/><path d="M-1290-1190h320v220h-320z" stroke="#000" stroke-width="2" fill="#f7f9fd"/><use xlink:href="#b" transform="matrix(1,0,0,1,-1285,-1185) translate(3 47.361111111111114)"/><use xlink:href="#c" transform="matrix(1,0,0,1,-1285,-1185) translate(91.24444444444445 47.361111111111114)"/><use xlink:href="#d" transform="matrix(1,0,0,1,-1285,-1185) translate(103.20000000000002 47.361111111111114)"/><use xlink:href="#e" transform="matrix(1,0,0,1,-1285,-1185) translate(3 79.36111111111111)"/><use xlink:href="#f" transform="matrix(1,0,0,1,-1285,-1185) translate(67.02222222222223 79.36111111111111)"/><use xlink:href="#g" transform="matrix(1,0,0,1,-1285,-1185) translate(78.97777777777779 79.36111111111111)"/><use xlink:href="#h" transform="matrix(1,0,0,1,-1285,-1185) translate(181.31111111111113 79.36111111111111)"/><use xlink:href="#i" transform="matrix(1,0,0,1,-1285,-1185) translate(3 111.36111111111111)"/><use xlink:href="#j" transform="matrix(1,0,0,1,-1285,-1185) translate(114.24444444444445 111.36111111111111)"/><use xlink:href="#c" transform="matrix(1,0,0,1,-1285,-1185) translate(193.55555555555557 111.36111111111111)"/><use xlink:href="#k" transform="matrix(1,0,0,1,-1285,-1185) translate(205.51111111111112 111.36111111111111)"/><use xlink:href="#l" transform="matrix(1,0,0,1,-1285,-1185) translate(3 143.36111111111111)"/><use xlink:href="#f" transform="matrix(1,0,0,1,-1285,-1185) translate(55.77777777777778 143.36111111111111)"/><use xlink:href="#m" transform="matrix(1,0,0,1,-1285,-1185) translate(67.73333333333333 143.36111111111111)"/><use xlink:href="#n" transform="matrix(1,0,0,1,-1285,-1185) translate(3 175.36111111111111)"/><use xlink:href="#f" transform="matrix(1,0,0,1,-1285,-1185) translate(59.911111111111104 175.36111111111111)"/><use xlink:href="#o" transform="matrix(1,0,0,1,-1285,-1185) translate(71.86666666666666 175.36111111111111)"/><path d="M-1720-990h380v40h-380z" stroke="#000" stroke-width="2" fill="#c5cfe4"/><use xlink:href="#p" transform="matrix(1,0,0,1,-1720,-990) translate(129.1 28.61111111111111)"/><path d="M-1720-950h380v140h-380z" stroke="#000" stroke-width="2" fill="#f7f9fd"/><use xlink:href="#q" transform="matrix(1,0,0,1,-1715,-945) translate(3 41.423611111111114)"/><use xlink:href="#f" transform="matrix(1,0,0,1,-1715,-945) translate(98.95555555555556 41.423611111111114)"/><use xlink:href="#r" transform="matrix(1,0,0,1,-1715,-945) translate(110.91111111111113 41.423611111111114)"/><use xlink:href="#s" transform="matrix(1,0,0,1,-1715,-945) translate(3 73.42361111111111)"/><use xlink:href="#f" transform="matrix(1,0,0,1,-1715,-945) translate(112.66666666666669 73.42361111111111)"/><use xlink:href="#t" transform="matrix(1,0,0,1,-1715,-945) translate(124.62222222222223 73.42361111111111)"/><use xlink:href="#u" transform="matrix(1,0,0,1,-1715,-945) translate(177.7111111111111 73.42361111111111)"/><use xlink:href="#v" transform="matrix(1,0,0,1,-1715,-945) translate(3 105.42361111111111)"/><use xlink:href="#f" transform="matrix(1,0,0,1,-1715,-945) translate(109.15555555555557 105.42361111111111)"/><use xlink:href="#w" transform="matrix(1,0,0,1,-1715,-945) translate(121.11111111111111 105.42361111111111)"/><use xlink:href="#x" transform="matrix(1,0,0,1,-1715,-945) translate(298.8 105.42361111111111)"/><path d="M-920-990h360v40h-360z" stroke="#000" stroke-width="2" fill="#c5cfe4"/><use xlink:href="#y" transform="matrix(1,0,0,1,-920,-990) translate(120.5 28.61111111111111)"/><path d="M-920-950h360v140h-360z" stroke="#000" stroke-width="2" fill="#f7f9fd"/><use xlink:href="#z" transform="matrix(1,0,0,1,-915,-945) translate(3 41.423611111111114)"/><use xlink:href="#f" transform="matrix(1,0,0,1,-915,-945) translate(225.95555555555552 41.423611111111114)"/><use xlink:href="#A" transform="matrix(1,0,0,1,-915,-945) translate(237.91111111111107 41.423611111111114)"/><use xlink:href="#B" transform="matrix(1,0,0,1,-915,-945) translate(3 73.42361111111111)"/><use xlink:href="#f" transform="matrix(1,0,0,1,-915,-945) translate(170.66666666666669 73.42361111111111)"/><use xlink:href="#C" transform="matrix(1,0,0,1,-915,-945) translate(182.62222222222223 73.42361111111111)"/><use xlink:href="#u" transform="matrix(1,0,0,1,-915,-945) translate(246.62222222222223 73.42361111111111)"/><use xlink:href="#D" transform="matrix(1,0,0,1,-915,-945) translate(3 105.42361111111111)"/><use xlink:href="#f" transform="matrix(1,0,0,1,-915,-945) translate(141.73333333333332 105.42361111111111)"/><use xlink:href="#C" transform="matrix(1,0,0,1,-915,-945) translate(153.68888888888887 105.42361111111111)"/><use xlink:href="#x" transform="matrix(1,0,0,1,-915,-945) translate(217.68888888888887 105.42361111111111)"/><path d="M-1260-630h320v40h-320z" stroke="#000" stroke-width="2" fill="#c5cfe4"/><g><use xlink:href="#E" transform="matrix(1,0,0,1,-1260,-630) translate(135.61111111111111 28.61111111111111)"/></g><path d="M-1260-590h320v120h-320z" stroke="#000" stroke-width="2" fill="#f7f9fd"/><g><use xlink:href="#F" transform="matrix(1,0,0,1,-1255,-585) translate(3 45.173611111111114)"/><use xlink:href="#f" transform="matrix(1,0,0,1,-1255,-585) translate(183.15555555555554 45.173611111111114)"/><use xlink:href="#G" transform="matrix(1,0,0,1,-1255,-585) translate(195.1111111111111 45.173611111111114)"/><use xlink:href="#H" transform="matrix(1,0,0,1,-1255,-585) translate(3 77.17361111111111)"/><use xlink:href="#f" transform="matrix(1,0,0,1,-1255,-585) translate(88.93333333333335 77.17361111111111)"/><use xlink:href="#I" transform="matrix(1,0,0,1,-1255,-585) translate(100.88888888888891 77.17361111111111)"/></g><path d="M-840-630h320v40h-320z" stroke="#000" stroke-width="2" fill="#c5cfe4"/><g><use xlink:href="#J" transform="matrix(1,0,0,1,-840,-630) translate(74.08888888888889 28.61111111111111)"/></g><path d="M-840-590h320v140h-320z" stroke="#000" stroke-width="2" fill="#f7f9fd"/><g><use xlink:href="#F" transform="matrix(1,0,0,1,-835,-585) translate(3 41.423611111111114)"/><use xlink:href="#f" transform="matrix(1,0,0,1,-835,-585) translate(183.15555555555554 41.423611111111114)"/><use xlink:href="#G" transform="matrix(1,0,0,1,-835,-585) translate(195.1111111111111 41.423611111111114)"/><use xlink:href="#H" transform="matrix(1,0,0,1,-835,-585) translate(3 73.42361111111111)"/><use xlink:href="#f" transform="matrix(1,0,0,1,-835,-585) translate(88.93333333333335 73.42361111111111)"/><use xlink:href="#K" transform="matrix(1,0,0,1,-835,-585) translate(100.88888888888891 73.42361111111111)"/><use xlink:href="#L" transform="matrix(1,0,0,1,-835,-585) translate(3 105.42361111111111)"/><use xlink:href="#f" transform="matrix(1,0,0,1,-835,-585) translate(148.91111111111113 105.42361111111111)"/><use xlink:href="#M" transform="matrix(1,0,0,1,-835,-585) translate(160.86666666666667 105.42361111111111)"/></g><path d="M-1780-630h420v40h-420z" stroke="#000" stroke-width="2" fill="#c5cfe4"/><g><use xlink:href="#N" transform="matrix(1,0,0,1,-1780,-630) translate(129.2 28.61111111111111)"/></g><path d="M-1780-590h420v240h-420z" stroke="#000" stroke-width="2" fill="#f7f9fd"/><g><use xlink:href="#O" transform="matrix(1,0,0,1,-1775,-585) translate(3 42.767361111111114)"/><use xlink:href="#f" transform="matrix(1,0,0,1,-1775,-585) translate(112.53333333333333 42.767361111111114)"/><use xlink:href="#P" transform="matrix(1,0,0,1,-1775,-585) translate(124.48888888888888 42.767361111111114)"/><use xlink:href="#Q" transform="matrix(1,0,0,1,-1775,-585) translate(3 74.76736111111111)"/><use xlink:href="#f" transform="matrix(1,0,0,1,-1775,-585) translate(135.9777777777778 74.76736111111111)"/><use xlink:href="#R" transform="matrix(1,0,0,1,-1775,-585) translate(147.93333333333334 74.76736111111111)"/><use xlink:href="#u" transform="matrix(1,0,0,1,-1775,-585) translate(220.73333333333335 74.76736111111111)"/><use xlink:href="#S" transform="matrix(1,0,0,1,-1775,-585) translate(3 106.76736111111111)"/><use xlink:href="#f" transform="matrix(1,0,0,1,-1775,-585) translate(274.24444444444447 106.76736111111111)"/><use xlink:href="#A" transform="matrix(1,0,0,1,-1775,-585) translate(286.20000000000005 106.76736111111111)"/><use xlink:href="#T" transform="matrix(1,0,0,1,-1775,-585) translate(3 138.76736111111111)"/><use xlink:href="#f" transform="matrix(1,0,0,1,-1775,-585) translate(188.3777777777778 138.76736111111111)"/><use xlink:href="#A" transform="matrix(1,0,0,1,-1775,-585) translate(200.33333333333334 138.76736111111111)"/><use xlink:href="#U" transform="matrix(1,0,0,1,-1775,-585) translate(3 170.76736111111111)"/><use xlink:href="#f" transform="matrix(1,0,0,1,-1775,-585) translate(105.28888888888889 170.76736111111111)"/><use xlink:href="#V" transform="matrix(1,0,0,1,-1775,-585) translate(117.24444444444444 170.76736111111111)"/><use xlink:href="#W" transform="matrix(1,0,0,1,-1775,-585) translate(3 202.76736111111111)"/><use xlink:href="#f" transform="matrix(1,0,0,1,-1775,-585) translate(208.55555555555557 202.76736111111111)"/><use xlink:href="#I" transform="matrix(1,0,0,1,-1775,-585) translate(220.51111111111112 202.76736111111111)"/></g><path d="M-1530-992v-88h208.25" stroke="#000" stroke-width="2" fill="none"/><path d="M-1529-991h-2v-1.03h2z"/><path d="M-1292.4-1080l-14.86 14.85-15.15-14.85 15.14-14.85z" stroke="#000" stroke-width="2"/><path d="M-740-992v-88h-198.25" stroke="#000" stroke-width="2" fill="none"/><path d="M-739-991h-2v-1.03h2z"/><path d="M-967.6-1080l14.86-14.85 15.15 14.85-15.14 14.85z" stroke="#000" stroke-width="2"/><path d="M-1599.1-632v-146.25" stroke="#000" stroke-width="2" fill="none"/><path d="M-1598.1-631h-2v-1.03h2z"/><path d="M-1599.1-807.58l14.84 14.84-14.85 15.16-14.86-15.16z" stroke="#000" stroke-width="2"/><path d="M-1100-632v-48h-430v-98.25" stroke="#000" stroke-width="2" fill="none"/><path d="M-1099-631h-2v-1.03h2z"/><path d="M-1530-807.6l14.85 14.86-14.85 15.15-14.85-15.14z" stroke="#000" stroke-width="2"/><path d="M-680-632v-88h-780.44v-58.25" stroke="#000" stroke-width="2" fill="none"/><path d="M-679-631h-2v-1.03h2z"/><path d="M-1460.44-807.6l14.84 14.86-14.84 15.15-14.85-15.14z" stroke="#000" stroke-width="2"/><defs><path d="M451-700L692-10V0H518l-41-133H217L176 0H10v-10l240-690h201zM260-271h174l-85-272h-4" id="X"/><path d="M288 9C121 9 25-103 25-262c0-158 92-270 259-270 155 0 235 94 242 215H371c-5-46-37-80-87-80-65 0-102 41-102 135 0 95 37 136 102 136 50 0 82-34 87-80h155C519-85 440 9 288 9" id="Y"/><path d="M286 9C116 9 25-104 25-261s93-271 261-271 261 114 261 271C547-105 456 9 286 9zm0-135c64 0 104-40 104-135s-40-136-104-136-104 42-104 136c0 95 41 135 104 135" id="Z"/><path d="M375-523h154v314C529-98 461 9 289 9 118 9 50-98 50-209v-314h154v291c0 60 25 96 86 96 60 0 85-36 85-96v-291" id="aa"/><path d="M50 0v-523h138l12 50h4c29-34 75-59 143-59 116 0 194 72 194 188V0H387v-296c0-60-27-96-88-96-55 0-95 39-95 102V0H50" id="ab"/><path d="M280 9C159 9 105-63 105-158v-234H20v-131h92v-109c50-9 95-22 147-28v137h125v131H259v197c-7 71 62 81 117 61h10V-6C370 0 329 9 280 9" id="ac"/><g id="a"><use transform="matrix(0.022222222222222223,0,0,0.022222222222222223,0,0)" xlink:href="#X"/><use transform="matrix(0.022222222222222223,0,0,0.022222222222222223,15.08888888888889,0)" xlink:href="#Y"/><use transform="matrix(0.022222222222222223,0,0,0.022222222222222223,27.333333333333336,0)" xlink:href="#Y"/><use transform="matrix(0.022222222222222223,0,0,0.022222222222222223,39.57777777777778,0)" xlink:href="#Z"/><use transform="matrix(0.022222222222222223,0,0,0.022222222222222223,52.28888888888889,0)" xlink:href="#aa"/><use transform="matrix(0.022222222222222223,0,0,0.022222222222222223,65.15555555555557,0)" xlink:href="#ab"/><use transform="matrix(0.022222222222222223,0,0,0.022222222222222223,78.06666666666668,0)" xlink:href="#ac"/></g><path fill="#666" d="M228 9C117 9 50-60 50-149c0-86 61-160 211-160 54 0 94 9 126 18 7-94-13-152-118-157-75 0-112 42-113 91H75c0-98 82-163 194-163 131 0 200 79 200 176V0h-71l-6-72h-4C357-20 300 9 228 9zm15-70c96-3 152-69 144-163-42-13-81-18-126-18-83 0-126 32-126 92 0 51 34 89 108 89" id="ad"/><path fill="#666" d="M267 9C133 9 51-91 50-256c1-151 73-264 217-264 76 0 127 35 154 80h4v-300h84V0h-73l-11-71h-4C394-26 343 9 267 9zm14-75c102 0 146-88 146-190 0-101-44-189-146-189-106 0-146 87-146 189 0 103 40 190 146 190" id="ae"/><path fill="#666" d="M90 0v-511h73l7 86h4c28-71 87-100 181-92v81c-128-12-181 52-181 188V0H90" id="af"/><path fill="#666" d="M282 9C131 9 50-105 50-255c0-148 73-265 231-265 158 2 232 123 221 290H138c0 97 49 164 144 164 67 0 115-28 129-82h84C481-54 391 9 282 9zM139-300h276c0-81-43-145-134-145-96 0-139 65-142 145" id="ag"/><path fill="#666" d="M259 9C138 9 53-57 50-169h84c0 68 52 103 125 103 72 0 117-24 117-73 0-69-115-80-180-92-84-16-130-68-130-143 0-85 73-146 186-146 115 0 197 63 197 165h-82c-3-65-51-94-115-94-62 0-105 25-105 75 0 68 106 73 169 87 96 21 145 60 145 148C461-45 369 9 259 9" id="ah"/><g id="b"><use transform="matrix(0.022222222222222223,0,0,0.022222222222222223,0,0)" xlink:href="#ad"/><use transform="matrix(0.022222222222222223,0,0,0.022222222222222223,12.200000000000001,0)" xlink:href="#ae"/><use transform="matrix(0.022222222222222223,0,0,0.022222222222222223,25.28888888888889,0)" xlink:href="#ae"/><use transform="matrix(0.022222222222222223,0,0,0.022222222222222223,38.37777777777778,0)" xlink:href="#af"/><use transform="matrix(0.022222222222222223,0,0,0.022222222222222223,46.60000000000001,0)" xlink:href="#ag"/><use transform="matrix(0.022222222222222223,0,0,0.022222222222222223,58.86666666666668,0)" xlink:href="#ah"/><use transform="matrix(0.022222222222222223,0,0,0.022222222222222223,70.22222222222223,0)" xlink:href="#ah"/></g><path fill="#666" d="M119-351c-39 0-59-25-59-61 0-35 20-60 59-60 38 0 59 25 59 60 0 36-21 61-59 61zm0 360C80 9 60-16 60-52c0-35 20-60 59-60 38 0 59 25 59 60 0 36-21 61-59 61" id="ai"/><use transform="matrix(0.022222222222222223,0,0,0.022222222222222223,0,0)" xlink:href="#ai" id="c"/><path fill="#666" d="M332 9c-76 0-127-35-154-80h-4L163 0H90v-740h84v300h4c27-45 78-80 154-80 144 0 216 113 217 264C548-91 466 9 332 9zm-14-75c106 0 146-87 146-190 0-102-40-189-146-189-102 0-146 88-146 189 0 102 44 190 146 190" id="aj"/><path fill="#666" d="M139 229v-10c28-75 61-150 86-225L20-501v-10h90l155 401h4l150-401h88v10L224 229h-85" id="ak"/><path fill="#666" d="M260 9C159 9 125-43 125-128v-312H40v-71h87v-109c28-9 49-24 82-28v137h125v71H209v305c0 49 21 70 67 70 30 1 39-6 60-6V1c-16 4-44 8-76 8" id="al"/><g id="d"><use transform="matrix(0.022222222222222223,0,0,0.022222222222222223,0,0)" xlink:href="#aj"/><use transform="matrix(0.022222222222222223,0,0,0.022222222222222223,13.088888888888889,0)" xlink:href="#ak"/><use transform="matrix(0.022222222222222223,0,0,0.022222222222222223,25.244444444444447,0)" xlink:href="#al"/><use transform="matrix(0.022222222222222223,0,0,0.022222222222222223,33.711111111111116,0)" xlink:href="#ag"/><use transform="matrix(0.022222222222222223,0,0,0.022222222222222223,45.97777777777778,0)" xlink:href="#ah"/></g><path fill="#666" d="M281 9C121 9 50-108 50-255s73-265 231-265 231 118 231 265C512-109 441 9 281 9zm0-75c104 0 146-79 146-189s-42-190-146-190-146 81-146 190c0 110 43 189 146 189" id="am"/><path fill="#666" d="M90-740h84V0H90v-740zm192 453L495-10V0h-97L174-287l216-224h99v10" id="an"/><path fill="#666" d="M90 0v-511h73l7 80h4c27-52 79-89 158-89 113 0 179 71 179 188V0h-84v-319c0-80-37-126-118-126-85 0-135 60-135 163V0H90" id="ao"/><g id="e"><use transform="matrix(0.022222222222222223,0,0,0.022222222222222223,0,0)" xlink:href="#al"/><use transform="matrix(0.022222222222222223,0,0,0.022222222222222223,8.466666666666667,0)" xlink:href="#am"/><use transform="matrix(0.022222222222222223,0,0,0.022222222222222223,20.955555555555556,0)" xlink:href="#an"/><use transform="matrix(0.022222222222222223,0,0,0.022222222222222223,31.955555555555556,0)" xlink:href="#ag"/><use transform="matrix(0.022222222222222223,0,0,0.022222222222222223,44.22222222222222,0)" xlink:href="#ao"/></g><use transform="matrix(0.022222222222222223,0,0,0.022222222222222223,0,0)" xlink:href="#ai" id="f"/><path fill="#666" d="M127-298v4c59 8 90 46 90 112v170c-3 81 35 110 123 105v65c-138 7-197-44-197-167v-157c0-64-40-88-93-90v-80c53-2 93-26 93-90v-157c-3-123 59-174 197-167v65c-88-5-123 24-123 105v170c0 66-31 104-90 112" id="ap"/><path fill="#666" d="M90 0v-740h84V0H90" id="aq"/><path fill="#666" d="M282 9C129 9 50-94 50-255c0-159 79-265 231-265 137 0 203 81 210 184h-84c-5-68-52-109-126-109-105 0-146 85-146 190 0 107 41 190 146 190 76 0 121-39 128-107h84C483-64 415 9 282 9" id="ar"/><g id="g"><use transform="matrix(0.022222222222222223,0,0,0.022222222222222223,0,0)" xlink:href="#ap"/><use transform="matrix(0.022222222222222223,0,0,0.022222222222222223,9.555555555555555,0)" xlink:href="#aj"/><use transform="matrix(0.022222222222222223,0,0,0.022222222222222223,22.866666666666667,0)" xlink:href="#ad"/><use transform="matrix(0.022222222222222223,0,0,0.022222222222222223,35.06666666666667,0)" xlink:href="#aq"/><use transform="matrix(0.022222222222222223,0,0,0.022222222222222223,40.711111111111116,0)" xlink:href="#ad"/><use transform="matrix(0.022222222222222223,0,0,0.022222222222222223,52.911111111111126,0)" xlink:href="#ao"/><use transform="matrix(0.022222222222222223,0,0,0.022222222222222223,66.04444444444445,0)" xlink:href="#ar"/><use transform="matrix(0.022222222222222223,0,0,0.022222222222222223,78.11111111111111,0)" xlink:href="#ag"/><use transform="matrix(0.022222222222222223,0,0,0.022222222222222223,90.37777777777778,0)" xlink:href="#ai"/></g><path fill="#666" d="M414-511h84v325C498-69 413 8 289 8S80-69 80-186v-325h84v311c0 81 36 133 125 133s125-52 125-133v-311" id="as"/><path fill="#666" d="M132-609c-39 0-58-23-58-59 0-35 19-58 58-58 38 0 58 23 58 58 0 36-20 59-58 59zM90 0v-511h84V0H90" id="at"/><path fill="#666" d="M317 9C137 9 70-141 70-339c0-196 68-373 257-373 121 0 204 73 217 181h-87c-7-64-58-104-130-104-127 0-172 128-172 274h4c30-57 84-96 170-96 144 0 223 103 223 230C552-94 464 9 317 9zm1-76c96 0 147-71 147-158 0-88-50-157-147-157-99 0-148 69-148 156S222-67 318-67" id="au"/><path fill="#666" d="M364 0v-148H45v-88l283-464h121v476h94v76h-94V0h-85zM127-224h237v-391h-4L127-228v4" id="av"/><path fill="#666" d="M287-426c0 64 40 88 93 90v80c-53 2-93 26-93 90V-9c3 123-59 174-197 167V93c88 5 123-24 123-105v-170c0-66 31-104 90-112v-4c-59-8-90-46-90-112v-170c3-81-35-110-123-105v-65c138-7 197 44 197 167v157" id="aw"/><g id="h"><use transform="matrix(0.022222222222222223,0,0,0.022222222222222223,0,0)" xlink:href="#as"/><use transform="matrix(0.022222222222222223,0,0,0.022222222222222223,12.844444444444445,0)" xlink:href="#at"/><use transform="matrix(0.022222222222222223,0,0,0.022222222222222223,18.48888888888889,0)" xlink:href="#ao"/><use transform="matrix(0.022222222222222223,0,0,0.022222222222222223,31.622222222222227,0)" xlink:href="#al"/><use transform="matrix(0.022222222222222223,0,0,0.022222222222222223,40.088888888888896,0)" xlink:href="#au"/><use transform="matrix(0.022222222222222223,0,0,0.022222222222222223,53.911111111111126,0)" xlink:href="#av"/><use transform="matrix(0.022222222222222223,0,0,0.022222222222222223,66.97777777777779,0)" xlink:href="#aw"/></g><path fill="#666" d="M425 229V-71h-4C394-26 343 9 267 9 123 9 51-104 50-255c1-165 83-265 217-265 76 0 127 35 154 80h4l11-71h73v740h-84zM281-66c102 0 146-88 146-189 0-102-44-190-146-190-106 0-146 87-146 190 0 102 40 189 146 189" id="ax"/><g id="i"><use transform="matrix(0.022222222222222223,0,0,0.022222222222222223,0,0)" xlink:href="#ah"/><use transform="matrix(0.022222222222222223,0,0,0.022222222222222223,11.355555555555556,0)" xlink:href="#ag"/><use transform="matrix(0.022222222222222223,0,0,0.022222222222222223,23.622222222222224,0)" xlink:href="#ax"/><use transform="matrix(0.022222222222222223,0,0,0.022222222222222223,36.71111111111111,0)" xlink:href="#as"/><use transform="matrix(0.022222222222222223,0,0,0.022222222222222223,49.55555555555556,0)" xlink:href="#ag"/><use transform="matrix(0.022222222222222223,0,0,0.022222222222222223,61.82222222222222,0)" xlink:href="#ao"/><use transform="matrix(0.022222222222222223,0,0,0.022222222222222223,74.95555555555556,0)" xlink:href="#ar"/><use transform="matrix(0.022222222222222223,0,0,0.022222222222222223,87.02222222222223,0)" xlink:href="#ag"/><use transform="matrix(0.022222222222222223,0,0,0.022222222222222223,99.28888888888889,0)" xlink:href="#ai"/></g><g id="j"><use transform="matrix(0.022222222222222223,0,0,0.022222222222222223,0,0)" xlink:href="#ap"/><use transform="matrix(0.022222222222222223,0,0,0.022222222222222223,9.555555555555555,0)" xlink:href="#ao"/><use transform="matrix(0.022222222222222223,0,0,0.022222222222222223,22.68888888888889,0)" xlink:href="#am"/><use transform="matrix(0.022222222222222223,0,0,0.022222222222222223,35.17777777777778,0)" xlink:href="#ao"/><use transform="matrix(0.022222222222222223,0,0,0.022222222222222223,48.31111111111111,0)" xlink:href="#ar"/><use transform="matrix(0.022222222222222223,0,0,0.022222222222222223,60.37777777777778,0)" xlink:href="#ag"/></g><g id="k"><use transform="matrix(0.022222222222222223,0,0,0.022222222222222223,0,0)" xlink:href="#as"/><use transform="matrix(0.022222222222222223,0,0,0.022222222222222223,12.844444444444445,0)" xlink:href="#at"/><use transform="matrix(0.022222222222222223,0,0,0.022222222222222223,18.48888888888889,0)" xlink:href="#ao"/><use transform="matrix(0.022222222222222223,0,0,0.022222222222222223,31.622222222222227,0)" xlink:href="#al"/><use transform="matrix(0.022222222222222223,0,0,0.022222222222222223,40.088888888888896,0)" xlink:href="#au"/><use transform="matrix(0.022222222222222223,0,0,0.022222222222222223,53.911111111111126,0)" xlink:href="#av"/><use transform="matrix(0.022222222222222223,0,0,0.022222222222222223,66.97777777777779,0)" xlink:href="#aw"/></g><g id="l"><use transform="matrix(0.022222222222222223,0,0,0.022222222222222223,0,0)" xlink:href="#an"/><use transform="matrix(0.022222222222222223,0,0,0.022222222222222223,11,0)" xlink:href="#ag"/><use transform="matrix(0.022222222222222223,0,0,0.022222222222222223,23.044444444444444,0)" xlink:href="#ak"/><use transform="matrix(0.022222222222222223,0,0,0.022222222222222223,34.75555555555556,0)" xlink:href="#ah"/></g><path fill="#666" d="M297-369L621-10V0H516L187-364V0h-87v-700h87v326l320-326h104v10" id="ay"/><path fill="#666" d="M370 9C154 9 60-150 60-350c0-201 94-359 310-359 215 0 310 158 310 359C680-150 585 9 370 9zm0-82c166 0 220-136 220-277s-54-277-220-277c-167 0-220 136-220 277S204-73 370-73" id="az"/><path fill="#666" d="M146-609c-39 0-58-23-58-59 0-35 19-58 58-58 38 0 58 23 58 58 0 36-20 59-58 59zm42 699c7 112-74 165-188 142v-71c61 12 104-7 104-70v-602h84V90" id="aA"/><g id="m"><use transform="matrix(0.022222222222222223,0,0,0.022222222222222223,0,0)" xlink:href="#ay"/><use transform="matrix(0.022222222222222223,0,0,0.022222222222222223,13.577777777777778,0)" xlink:href="#ag"/><use transform="matrix(0.022222222222222223,0,0,0.022222222222222223,25.622222222222224,0)" xlink:href="#ak"/><use transform="matrix(0.022222222222222223,0,0,0.022222222222222223,37.333333333333336,0)" xlink:href="#ah"/><use transform="matrix(0.022222222222222223,0,0,0.022222222222222223,48.68888888888889,0)" xlink:href="#az"/><use transform="matrix(0.022222222222222223,0,0,0.022222222222222223,65.13333333333334,0)" xlink:href="#aj"/><use transform="matrix(0.022222222222222223,0,0,0.022222222222222223,78.44444444444446,0)" xlink:href="#aA"/><use transform="matrix(0.022222222222222223,0,0,0.022222222222222223,84.4,0)" xlink:href="#ag"/><use transform="matrix(0.022222222222222223,0,0,0.022222222222222223,96.66666666666667,0)" xlink:href="#ar"/><use transform="matrix(0.022222222222222223,0,0,0.022222222222222223,108.73333333333333,0)" xlink:href="#al"/></g><path fill="#666" d="M90 229v-740h73l11 71h4c27-45 78-80 154-80 134 0 216 100 217 265C548-104 476 9 332 9c-76 0-127-35-154-80h-4v300H90zM318-66c106 0 146-87 146-189 0-103-40-190-146-190-102 0-146 88-146 190 0 101 44 189 146 189" id="aB"/><g id="n"><use transform="matrix(0.022222222222222223,0,0,0.022222222222222223,0,0)" xlink:href="#ae"/><use transform="matrix(0.022222222222222223,0,0,0.022222222222222223,13.088888888888889,0)" xlink:href="#aB"/><use transform="matrix(0.022222222222222223,0,0,0.022222222222222223,26.400000000000002,0)" xlink:href="#am"/><use transform="matrix(0.022222222222222223,0,0,0.022222222222222223,38.888888888888886,0)" xlink:href="#ah"/></g><path fill="#666" d="M100 0v-700h232c199 0 312 140 312 350C644-155 541 0 332 0H100zm87-79h136c161 0 231-125 231-271 0-145-70-270-231-270H187v541" id="aC"/><g id="o"><use transform="matrix(0.022222222222222223,0,0,0.022222222222222223,0,0)" xlink:href="#aC"/><use transform="matrix(0.022222222222222223,0,0,0.022222222222222223,15.644444444444446,0)" xlink:href="#aB"/><use transform="matrix(0.022222222222222223,0,0,0.022222222222222223,28.955555555555556,0)" xlink:href="#am"/><use transform="matrix(0.022222222222222223,0,0,0.022222222222222223,41.44444444444444,0)" xlink:href="#ah"/><use transform="matrix(0.022222222222222223,0,0,0.022222222222222223,52.800000000000004,0)" xlink:href="#az"/><use transform="matrix(0.022222222222222223,0,0,0.022222222222222223,69.24444444444444,0)" xlink:href="#aj"/><use transform="matrix(0.022222222222222223,0,0,0.022222222222222223,82.55555555555556,0)" xlink:href="#aA"/><use transform="matrix(0.022222222222222223,0,0,0.022222222222222223,88.51111111111112,0)" xlink:href="#ag"/><use transform="matrix(0.022222222222222223,0,0,0.022222222222222223,100.77777777777779,0)" xlink:href="#ar"/><use transform="matrix(0.022222222222222223,0,0,0.022222222222222223,112.84444444444445,0)" xlink:href="#al"/></g><path d="M70 0v-700h242c209 0 362 140 362 350C674-155 531 0 312 0H70zm147-139h86c131 0 211-65 211-211 0-145-80-210-211-210h-86v421" id="aD"/><path d="M50 229v-752h138l16 50h4c25-30 65-59 139-59 130 0 212 114 212 271C559-105 479 9 347 9c-74 0-114-29-139-59h-4v279H50zm250-355c78 0 103-62 103-135s-27-136-103-136-103 63-103 136 25 135 103 135" id="aE"/><path d="M257 9C94 9 28-70 25-177h154c0 29 23 58 78 58 96 2 96-67 21-79-116-18-235-41-237-179 0-85 75-155 215-155 136 0 218 78 218 175H322c1-24-17-54-69-54-69-5-82 61-22 72 122 22 252 27 255 181C486-50 390 9 257 9" id="aF"/><path d="M370 9C144 9 30-150 30-350c0-201 114-359 340-359 225 0 340 158 340 359C710-150 595 9 370 9zm0-142c116 0 180-76 180-217s-64-217-180-217c-117 0-180 76-180 217s64 217 180 217" id="aG"/><path d="M347 9c-74 0-114-29-139-59h-4L188 0H50v-740h154v267h4c25-30 65-59 139-59 132 0 212 114 212 270C559-105 479 9 347 9zm-47-135c76 0 103-63 103-136s-25-135-103-135-103 62-103 135 27 136 103 136" id="aH"/><path d="M133-576c-61 0-93-34-93-90 0-55 32-89 93-89 59 0 93 34 93 89 0 56-34 90-93 90zm75 636c0 143-124 201-258 170V91c61 12 104-7 104-70v-544h154V60" id="aI"/><path d="M284 9C119 9 25-111 25-261c0-148 86-271 256-271 180 0 265 131 250 312H182c1 61 32 104 102 104 57 0 82-28 91-52h149C510-74 427 9 284 9zM183-317h191c-3-50-32-89-93-89-66 0-95 39-98 89" id="aJ"/><g id="p"><use transform="matrix(0.022222222222222223,0,0,0.022222222222222223,0,0)" xlink:href="#aD"/><use transform="matrix(0.022222222222222223,0,0,0.022222222222222223,15.644444444444446,0)" xlink:href="#aE"/><use transform="matrix(0.022222222222222223,0,0,0.022222222222222223,28.622222222222224,0)" xlink:href="#Z"/><use transform="matrix(0.022222222222222223,0,0,0.022222222222222223,41.333333333333336,0)" xlink:href="#aF"/><use transform="matrix(0.022222222222222223,0,0,0.022222222222222223,52.68888888888889,0)" xlink:href="#aG"/><use transform="matrix(0.022222222222222223,0,0,0.022222222222222223,69.13333333333334,0)" xlink:href="#aH"/><use transform="matrix(0.022222222222222223,0,0,0.022222222222222223,82.11111111111111,0)" xlink:href="#aI"/><use transform="matrix(0.022222222222222223,0,0,0.022222222222222223,87.62222222222222,0)" xlink:href="#aJ"/><use transform="matrix(0.022222222222222223,0,0,0.022222222222222223,99.97777777777779,0)" xlink:href="#Y"/><use transform="matrix(0.022222222222222223,0,0,0.022222222222222223,112.2222222222222,0)" xlink:href="#ac"/></g><path fill="#666" d="M283 238C152 238 68 163 65 65h81c4 49 43 101 137 101 98 0 142-61 142-138v-99h-4C394-26 343 9 267 9 123 9 51-104 50-255c1-165 83-265 217-265 76 0 127 35 154 80h4l11-71h73V30c0 117-80 208-226 208zm-2-304c102 0 146-88 146-189 0-102-44-190-146-190-106 0-146 87-146 190 0 102 40 189 146 189" id="aK"/><g id="q"><use transform="matrix(0.022222222222222223,0,0,0.022222222222222223,0,0)" xlink:href="#ae"/><use transform="matrix(0.022222222222222223,0,0,0.022222222222222223,13.088888888888889,0)" xlink:href="#ag"/><use transform="matrix(0.022222222222222223,0,0,0.022222222222222223,25.355555555555558,0)" xlink:href="#aq"/><use transform="matrix(0.022222222222222223,0,0,0.022222222222222223,31,0)" xlink:href="#ag"/><use transform="matrix(0.022222222222222223,0,0,0.022222222222222223,43.266666666666666,0)" xlink:href="#aK"/><use transform="matrix(0.022222222222222223,0,0,0.022222222222222223,56.355555555555554,0)" xlink:href="#ad"/><use transform="matrix(0.022222222222222223,0,0,0.022222222222222223,68.55555555555556,0)" xlink:href="#al"/><use transform="matrix(0.022222222222222223,0,0,0.022222222222222223,77.02222222222223,0)" xlink:href="#ag"/></g><g id="r"><use transform="matrix(0.022222222222222223,0,0,0.022222222222222223,0,0)" xlink:href="#aC"/><use transform="matrix(0.022222222222222223,0,0,0.022222222222222223,15.644444444444446,0)" xlink:href="#ag"/><use transform="matrix(0.022222222222222223,0,0,0.022222222222222223,27.91111111111111,0)" xlink:href="#aq"/><use transform="matrix(0.022222222222222223,0,0,0.022222222222222223,33.55555555555556,0)" xlink:href="#ag"/><use transform="matrix(0.022222222222222223,0,0,0.022222222222222223,45.82222222222222,0)" xlink:href="#aK"/><use transform="matrix(0.022222222222222223,0,0,0.022222222222222223,58.91111111111111,0)" xlink:href="#ad"/><use transform="matrix(0.022222222222222223,0,0,0.022222222222222223,71.11111111111111,0)" xlink:href="#al"/><use transform="matrix(0.022222222222222223,0,0,0.022222222222222223,79.57777777777778,0)" xlink:href="#ag"/><use transform="matrix(0.022222222222222223,0,0,0.022222222222222223,91.84444444444445,0)" xlink:href="#az"/><use transform="matrix(0.022222222222222223,0,0,0.022222222222222223,108.28888888888889,0)" xlink:href="#aj"/><use transform="matrix(0.022222222222222223,0,0,0.022222222222222223,121.60000000000001,0)" xlink:href="#aA"/><use transform="matrix(0.022222222222222223,0,0,0.022222222222222223,127.55555555555559,0)" xlink:href="#ag"/><use transform="matrix(0.022222222222222223,0,0,0.022222222222222223,139.82222222222225,0)" xlink:href="#ar"/><use transform="matrix(0.022222222222222223,0,0,0.022222222222222223,151.8888888888889,0)" xlink:href="#al"/></g><path fill="#666" d="M287 0L30-690v-10h91l210 583h4l207-583h92v10L376 0h-89" id="aL"/><g id="s"><use transform="matrix(0.022222222222222223,0,0,0.022222222222222223,0,0)" xlink:href="#ah"/><use transform="matrix(0.022222222222222223,0,0,0.022222222222222223,11.355555555555556,0)" xlink:href="#ag"/><use transform="matrix(0.022222222222222223,0,0,0.022222222222222223,23.622222222222224,0)" xlink:href="#ao"/><use transform="matrix(0.022222222222222223,0,0,0.022222222222222223,36.75555555555556,0)" xlink:href="#al"/><use transform="matrix(0.022222222222222223,0,0,0.022222222222222223,45.22222222222223,0)" xlink:href="#aL"/><use transform="matrix(0.022222222222222223,0,0,0.022222222222222223,58.42222222222223,0)" xlink:href="#am"/><use transform="matrix(0.022222222222222223,0,0,0.022222222222222223,70.91111111111113,0)" xlink:href="#al"/><use transform="matrix(0.022222222222222223,0,0,0.022222222222222223,79.3777777777778,0)" xlink:href="#ag"/><use transform="matrix(0.022222222222222223,0,0,0.022222222222222223,91.64444444444447,0)" xlink:href="#ah"/></g><g id="t"><use transform="matrix(0.022222222222222223,0,0,0.022222222222222223,0,0)" xlink:href="#aL"/><use transform="matrix(0.022222222222222223,0,0,0.022222222222222223,13.200000000000001,0)" xlink:href="#am"/><use transform="matrix(0.022222222222222223,0,0,0.022222222222222223,25.68888888888889,0)" xlink:href="#al"/><use transform="matrix(0.022222222222222223,0,0,0.022222222222222223,34.15555555555556,0)" xlink:href="#ag"/></g><path fill="#666" d="M50 158v-908h202v64H124V95h131v63H50" id="aM"/><path fill="#666" d="M90 158V95h131v-781H93v-64h202v908H90" id="aN"/><g id="u"><use transform="matrix(0.022222222222222223,0,0,0.022222222222222223,0,0)" xlink:href="#aM"/><use transform="matrix(0.022222222222222223,0,0,0.022222222222222223,7.666666666666667,0)" xlink:href="#aN"/></g><g id="v"><use transform="matrix(0.022222222222222223,0,0,0.022222222222222223,0,0)" xlink:href="#as"/><use transform="matrix(0.022222222222222223,0,0,0.022222222222222223,12.844444444444445,0)" xlink:href="#ao"/><use transform="matrix(0.022222222222222223,0,0,0.022222222222222223,25.977777777777785,0)" xlink:href="#aq"/><use transform="matrix(0.022222222222222223,0,0,0.022222222222222223,31.622222222222227,0)" xlink:href="#am"/><use transform="matrix(0.022222222222222223,0,0,0.022222222222222223,44.111111111111114,0)" xlink:href="#ar"/><use transform="matrix(0.022222222222222223,0,0,0.022222222222222223,56.17777777777778,0)" xlink:href="#an"/><use transform="matrix(0.022222222222222223,0,0,0.022222222222222223,67.62222222222222,0)" xlink:href="#at"/><use transform="matrix(0.022222222222222223,0,0,0.022222222222222223,73.26666666666667,0)" xlink:href="#ao"/><use transform="matrix(0.022222222222222223,0,0,0.022222222222222223,86.4,0)" xlink:href="#aK"/></g><path fill="#666" d="M356 9C192 9 90-86 90-247v-453h87v451c0 108 59 178 179 178 122 0 180-70 180-178v-451h88v453C624-86 523 9 356 9" id="aO"/><g id="w"><use transform="matrix(0.022222222222222223,0,0,0.022222222222222223,0,0)" xlink:href="#aO"/><use transform="matrix(0.022222222222222223,0,0,0.022222222222222223,15.866666666666667,0)" xlink:href="#ao"/><use transform="matrix(0.022222222222222223,0,0,0.022222222222222223,29,0)" xlink:href="#aq"/><use transform="matrix(0.022222222222222223,0,0,0.022222222222222223,34.644444444444446,0)" xlink:href="#am"/><use transform="matrix(0.022222222222222223,0,0,0.022222222222222223,47.13333333333333,0)" xlink:href="#ar"/><use transform="matrix(0.022222222222222223,0,0,0.022222222222222223,59.2,0)" xlink:href="#an"/><use transform="matrix(0.022222222222222223,0,0,0.022222222222222223,70.64444444444445,0)" xlink:href="#at"/><use transform="matrix(0.022222222222222223,0,0,0.022222222222222223,76.28888888888889,0)" xlink:href="#ao"/><use transform="matrix(0.022222222222222223,0,0,0.022222222222222223,89.42222222222223,0)" xlink:href="#aK"/><use transform="matrix(0.022222222222222223,0,0,0.022222222222222223,102.51111111111112,0)" xlink:href="#az"/><use transform="matrix(0.022222222222222223,0,0,0.022222222222222223,118.95555555555556,0)" xlink:href="#aj"/><use transform="matrix(0.022222222222222223,0,0,0.022222222222222223,132.26666666666668,0)" xlink:href="#aA"/><use transform="matrix(0.022222222222222223,0,0,0.022222222222222223,138.22222222222223,0)" xlink:href="#ag"/><use transform="matrix(0.022222222222222223,0,0,0.022222222222222223,150.4888888888889,0)" xlink:href="#ar"/><use transform="matrix(0.022222222222222223,0,0,0.022222222222222223,162.55555555555557,0)" xlink:href="#al"/></g><g id="x"><use transform="matrix(0.022222222222222223,0,0,0.022222222222222223,0,0)" xlink:href="#aM"/><use transform="matrix(0.022222222222222223,0,0,0.022222222222222223,7.666666666666667,0)" xlink:href="#aN"/></g><path d="M353-364L666-10V0H480L227-290V0H70v-700h157v265l243-265h184v10" id="aP"/><path d="M127 229v-10L202 0h-26L10-513v-10h158l106 371h4l113-371h166v10L294 229H127" id="aQ"/><g id="y"><use transform="matrix(0.022222222222222223,0,0,0.022222222222222223,0,0)" xlink:href="#aP"/><use transform="matrix(0.022222222222222223,0,0,0.022222222222222223,14.133333333333335,0)" xlink:href="#aJ"/><use transform="matrix(0.022222222222222223,0,0,0.022222222222222223,26.155555555555555,0)" xlink:href="#aQ"/><use transform="matrix(0.022222222222222223,0,0,0.022222222222222223,38.53333333333333,0)" xlink:href="#aF"/><use transform="matrix(0.022222222222222223,0,0,0.022222222222222223,49.88888888888888,0)" xlink:href="#aG"/><use transform="matrix(0.022222222222222223,0,0,0.022222222222222223,66.33333333333333,0)" xlink:href="#aH"/><use transform="matrix(0.022222222222222223,0,0,0.022222222222222223,79.3111111111111,0)" xlink:href="#aI"/><use transform="matrix(0.022222222222222223,0,0,0.022222222222222223,84.82222222222221,0)" xlink:href="#aJ"/><use transform="matrix(0.022222222222222223,0,0,0.022222222222222223,97.17777777777776,0)" xlink:href="#Y"/><use transform="matrix(0.022222222222222223,0,0,0.022222222222222223,109.4222222222222,0)" xlink:href="#ac"/></g><path fill="#666" d="M650-520c113 0 176 73 176 188V0h-84v-319c0-78-35-126-113-126-80 0-128 60-128 163V0h-84v-319c0-78-35-126-113-126-80 0-130 60-130 163V0H90v-511h73l7 80h4c27-52 74-89 153-89 74 0 127 33 154 89h4c27-52 79-89 165-89" id="aR"/><path fill="#666" d="M122 0v-441H31v-70h91v-89c-5-111 97-173 213-143v70c-66-16-129 3-129 73v89h124v70H206V0h-84" id="aS"/><path fill="#666" d="M315 9C145 9 54-78 50-210h89c5 87 66 140 176 140 111 0 171-40 171-122 0-105-134-115-227-136-121-27-186-82-186-189 0-118 88-192 243-192 150 0 248 84 249 208h-89c-4-76-54-128-162-128-90 0-150 33-150 112 0 90 129 107 214 124 130 27 199 94 199 201C577-67 477 9 315 9" id="aT"/><g id="z"><use transform="matrix(0.022222222222222223,0,0,0.022222222222222223,0,0)" xlink:href="#ao"/><use transform="matrix(0.022222222222222223,0,0,0.022222222222222223,13.133333333333335,0)" xlink:href="#as"/><use transform="matrix(0.022222222222222223,0,0,0.022222222222222223,25.977777777777785,0)" xlink:href="#aR"/><use transform="matrix(0.022222222222222223,0,0,0.022222222222222223,46.111111111111114,0)" xlink:href="#aj"/><use transform="matrix(0.022222222222222223,0,0,0.022222222222222223,59.422222222222224,0)" xlink:href="#ag"/><use transform="matrix(0.022222222222222223,0,0,0.022222222222222223,71.6888888888889,0)" xlink:href="#af"/><use transform="matrix(0.022222222222222223,0,0,0.022222222222222223,80.35555555555557,0)" xlink:href="#az"/><use transform="matrix(0.022222222222222223,0,0,0.022222222222222223,96.8,0)" xlink:href="#aS"/><use transform="matrix(0.022222222222222223,0,0,0.022222222222222223,105.02222222222224,0)" xlink:href="#aT"/><use transform="matrix(0.022222222222222223,0,0,0.022222222222222223,119.06666666666669,0)" xlink:href="#at"/><use transform="matrix(0.022222222222222223,0,0,0.022222222222222223,124.71111111111114,0)" xlink:href="#aK"/><use transform="matrix(0.022222222222222223,0,0,0.022222222222222223,137.8,0)" xlink:href="#ao"/><use transform="matrix(0.022222222222222223,0,0,0.022222222222222223,150.93333333333334,0)" xlink:href="#ad"/><use transform="matrix(0.022222222222222223,0,0,0.022222222222222223,163.13333333333333,0)" xlink:href="#al"/><use transform="matrix(0.022222222222222223,0,0,0.022222222222222223,171.6,0)" xlink:href="#as"/><use transform="matrix(0.022222222222222223,0,0,0.022222222222222223,184.4444444444444,0)" xlink:href="#af"/><use transform="matrix(0.022222222222222223,0,0,0.022222222222222223,192.66666666666663,0)" xlink:href="#ag"/><use transform="matrix(0.022222222222222223,0,0,0.022222222222222223,204.9333333333333,0)" xlink:href="#ah"/></g><path fill="#666" d="M301 9C161 9 70-72 70-194h84c1 72 51 128 146 128 93 0 145-52 145-130 4-106-92-142-216-131v-75c110 12 194-27 194-120 0-63-38-115-125-115-89 0-131 50-134 122H79c6-123 86-197 222-197 120 0 210 71 210 184 0 78-35 126-105 153v4c82 26 127 90 127 174C533-81 450 9 301 9" id="aU"/><path fill="#666" d="M67 0v-66l239-279c72-84 100-116 100-175 0-68-41-116-125-116-82 0-131 47-131 132H65c0-122 79-208 216-208 133 0 212 82 212 189 0 78-42 130-129 231L183-82v4h321V0H67" id="aV"/><g id="A"><use transform="matrix(0.022222222222222223,0,0,0.022222222222222223,0,0)" xlink:href="#as"/><use transform="matrix(0.022222222222222223,0,0,0.022222222222222223,12.844444444444445,0)" xlink:href="#at"/><use transform="matrix(0.022222222222222223,0,0,0.022222222222222223,18.48888888888889,0)" xlink:href="#ao"/><use transform="matrix(0.022222222222222223,0,0,0.022222222222222223,31.622222222222227,0)" xlink:href="#al"/><use transform="matrix(0.022222222222222223,0,0,0.022222222222222223,40.088888888888896,0)" xlink:href="#aU"/><use transform="matrix(0.022222222222222223,0,0,0.022222222222222223,53.488888888888894,0)" xlink:href="#aV"/></g><g id="B"><use transform="matrix(0.022222222222222223,0,0,0.022222222222222223,0,0)" xlink:href="#aR"/><use transform="matrix(0.022222222222222223,0,0,0.022222222222222223,20.133333333333333,0)" xlink:href="#ad"/><use transform="matrix(0.022222222222222223,0,0,0.022222222222222223,32.333333333333336,0)" xlink:href="#ao"/><use transform="matrix(0.022222222222222223,0,0,0.022222222222222223,45.46666666666667,0)" xlink:href="#ae"/><use transform="matrix(0.022222222222222223,0,0,0.022222222222222223,58.55555555555556,0)" xlink:href="#ad"/><use transform="matrix(0.022222222222222223,0,0,0.022222222222222223,70.75555555555556,0)" xlink:href="#al"/><use transform="matrix(0.022222222222222223,0,0,0.022222222222222223,79.22222222222223,0)" xlink:href="#am"/><use transform="matrix(0.022222222222222223,0,0,0.022222222222222223,91.71111111111111,0)" xlink:href="#af"/><use transform="matrix(0.022222222222222223,0,0,0.022222222222222223,100.60000000000002,0)" xlink:href="#ak"/><use transform="matrix(0.022222222222222223,0,0,0.022222222222222223,112.31111111111113,0)" xlink:href="#ay"/><use transform="matrix(0.022222222222222223,0,0,0.022222222222222223,125.88888888888891,0)" xlink:href="#ag"/><use transform="matrix(0.022222222222222223,0,0,0.022222222222222223,137.93333333333337,0)" xlink:href="#ak"/><use transform="matrix(0.022222222222222223,0,0,0.022222222222222223,149.64444444444447,0)" xlink:href="#ah"/></g><g id="C"><use transform="matrix(0.022222222222222223,0,0,0.022222222222222223,0,0)" xlink:href="#aj"/><use transform="matrix(0.022222222222222223,0,0,0.022222222222222223,13.088888888888889,0)" xlink:href="#ak"/><use transform="matrix(0.022222222222222223,0,0,0.022222222222222223,25.244444444444447,0)" xlink:href="#al"/><use transform="matrix(0.022222222222222223,0,0,0.022222222222222223,33.711111111111116,0)" xlink:href="#ag"/><use transform="matrix(0.022222222222222223,0,0,0.022222222222222223,45.97777777777778,0)" xlink:href="#ah"/></g><g id="D"><use transform="matrix(0.022222222222222223,0,0,0.022222222222222223,0,0)" xlink:href="#am"/><use transform="matrix(0.022222222222222223,0,0,0.022222222222222223,12.488888888888889,0)" xlink:href="#aB"/><use transform="matrix(0.022222222222222223,0,0,0.022222222222222223,25.8,0)" xlink:href="#al"/><use transform="matrix(0.022222222222222223,0,0,0.022222222222222223,34.266666666666666,0)" xlink:href="#at"/><use transform="matrix(0.022222222222222223,0,0,0.022222222222222223,39.91111111111111,0)" xlink:href="#am"/><use transform="matrix(0.022222222222222223,0,0,0.022222222222222223,52.4,0)" xlink:href="#ao"/><use transform="matrix(0.022222222222222223,0,0,0.022222222222222223,65.53333333333333,0)" xlink:href="#ad"/><use transform="matrix(0.022222222222222223,0,0,0.022222222222222223,77.73333333333333,0)" xlink:href="#aq"/><use transform="matrix(0.022222222222222223,0,0,0.022222222222222223,83.37777777777778,0)" xlink:href="#ay"/><use transform="matrix(0.022222222222222223,0,0,0.022222222222222223,96.95555555555556,0)" xlink:href="#ag"/><use transform="matrix(0.022222222222222223,0,0,0.022222222222222223,109,0)" xlink:href="#ak"/><use transform="matrix(0.022222222222222223,0,0,0.022222222222222223,120.71111111111112,0)" xlink:href="#ah"/></g><path d="M260 0L10-690v-10h179l162 513h4l159-513h182v10L449 0H260" id="aW"/><g id="E"><use transform="matrix(0.022222222222222223,0,0,0.022222222222222223,0,0)" xlink:href="#aW"/><use transform="matrix(0.022222222222222223,0,0,0.022222222222222223,14.133333333333335,0)" xlink:href="#Z"/><use transform="matrix(0.022222222222222223,0,0,0.022222222222222223,26.844444444444452,0)" xlink:href="#ac"/><use transform="matrix(0.022222222222222223,0,0,0.022222222222222223,36.422222222222224,0)" xlink:href="#aJ"/></g><path fill="#666" d="M394-700L652-10V0h-93l-66-183H187L121 0H30v-10l257-690h107zM215-261h250L342-603h-4" id="aX"/><g id="F"><use transform="matrix(0.022222222222222223,0,0,0.022222222222222223,0,0)" xlink:href="#ae"/><use transform="matrix(0.022222222222222223,0,0,0.022222222222222223,13.088888888888889,0)" xlink:href="#ag"/><use transform="matrix(0.022222222222222223,0,0,0.022222222222222223,25.355555555555558,0)" xlink:href="#aq"/><use transform="matrix(0.022222222222222223,0,0,0.022222222222222223,31,0)" xlink:href="#ag"/><use transform="matrix(0.022222222222222223,0,0,0.022222222222222223,43.266666666666666,0)" xlink:href="#aK"/><use transform="matrix(0.022222222222222223,0,0,0.022222222222222223,56.355555555555554,0)" xlink:href="#ad"/><use transform="matrix(0.022222222222222223,0,0,0.022222222222222223,68.55555555555556,0)" xlink:href="#al"/><use transform="matrix(0.022222222222222223,0,0,0.022222222222222223,77.02222222222223,0)" xlink:href="#ag"/><use transform="matrix(0.022222222222222223,0,0,0.022222222222222223,89.28888888888889,0)" xlink:href="#aX"/><use transform="matrix(0.022222222222222223,0,0,0.022222222222222223,104.11111111111111,0)" xlink:href="#ae"/><use transform="matrix(0.022222222222222223,0,0,0.022222222222222223,117.2,0)" xlink:href="#ae"/><use transform="matrix(0.022222222222222223,0,0,0.022222222222222223,130.2888888888889,0)" xlink:href="#af"/><use transform="matrix(0.022222222222222223,0,0,0.022222222222222223,138.5111111111111,0)" xlink:href="#ag"/><use transform="matrix(0.022222222222222223,0,0,0.022222222222222223,150.77777777777777,0)" xlink:href="#ah"/><use transform="matrix(0.022222222222222223,0,0,0.022222222222222223,162.13333333333333,0)" xlink:href="#ah"/></g><g id="G"><use transform="matrix(0.022222222222222223,0,0,0.022222222222222223,0,0)" xlink:href="#aj"/><use transform="matrix(0.022222222222222223,0,0,0.022222222222222223,13.088888888888889,0)" xlink:href="#ak"/><use transform="matrix(0.022222222222222223,0,0,0.022222222222222223,25.244444444444447,0)" xlink:href="#al"/><use transform="matrix(0.022222222222222223,0,0,0.022222222222222223,33.711111111111116,0)" xlink:href="#ag"/><use transform="matrix(0.022222222222222223,0,0,0.022222222222222223,45.97777777777778,0)" xlink:href="#ah"/></g><g id="H"><use transform="matrix(0.022222222222222223,0,0,0.022222222222222223,0,0)" xlink:href="#ad"/><use transform="matrix(0.022222222222222223,0,0,0.022222222222222223,12.200000000000001,0)" xlink:href="#aR"/><use transform="matrix(0.022222222222222223,0,0,0.022222222222222223,32.333333333333336,0)" xlink:href="#am"/><use transform="matrix(0.022222222222222223,0,0,0.022222222222222223,44.82222222222222,0)" xlink:href="#as"/><use transform="matrix(0.022222222222222223,0,0,0.022222222222222223,57.66666666666667,0)" xlink:href="#ao"/><use transform="matrix(0.022222222222222223,0,0,0.022222222222222223,70.80000000000001,0)" xlink:href="#al"/></g><g id="I"><use transform="matrix(0.022222222222222223,0,0,0.022222222222222223,0,0)" xlink:href="#as"/><use transform="matrix(0.022222222222222223,0,0,0.022222222222222223,12.844444444444445,0)" xlink:href="#at"/><use transform="matrix(0.022222222222222223,0,0,0.022222222222222223,18.48888888888889,0)" xlink:href="#ao"/><use transform="matrix(0.022222222222222223,0,0,0.022222222222222223,31.622222222222227,0)" xlink:href="#al"/><use transform="matrix(0.022222222222222223,0,0,0.022222222222222223,40.088888888888896,0)" xlink:href="#au"/><use transform="matrix(0.022222222222222223,0,0,0.022222222222222223,53.911111111111126,0)" xlink:href="#av"/></g><path d="M356 9C192 9 60-86 60-277v-423h157v421c0 78 29 148 139 148 112 0 140-70 140-148v-421h158v423C654-86 523 9 356 9" id="aY"/><path d="M50 0v-740h154V0H50" id="aZ"/><path d="M328-276L551-10V0H365L194-214V0H50v-740h144v407l166-190h180v10" id="ba"/><path d="M128-576c-61 0-93-34-93-90 0-55 32-89 93-89 59 0 93 34 93 89 0 56-34 90-93 90zM50 0v-523h154V0H50" id="bb"/><path d="M278 238C137 238 43 163 40 45h151c4 35 39 61 87 61 101-2 108-62 102-156h-4C351-20 311 9 237 9 105 9 25-105 25-261c0-157 80-271 212-271 74 0 114 29 139 59h4l16-50h138V25c0 131-110 213-256 213zm6-364c78 0 103-62 103-135s-27-136-103-136-103 63-103 136 25 135 103 135" id="bc"/><g id="J"><use transform="matrix(0.022222222222222223,0,0,0.022222222222222223,0,0)" xlink:href="#aY"/><use transform="matrix(0.022222222222222223,0,0,0.022222222222222223,15.866666666666667,0)" xlink:href="#ab"/><use transform="matrix(0.022222222222222223,0,0,0.022222222222222223,28.77777777777778,0)" xlink:href="#aZ"/><use transform="matrix(0.022222222222222223,0,0,0.022222222222222223,34.2,0)" xlink:href="#Z"/><use transform="matrix(0.022222222222222223,0,0,0.022222222222222223,46.91111111111111,0)" xlink:href="#Y"/><use transform="matrix(0.022222222222222223,0,0,0.022222222222222223,59.15555555555556,0)" xlink:href="#ba"/><use transform="matrix(0.022222222222222223,0,0,0.022222222222222223,71.62222222222222,0)" xlink:href="#bb"/><use transform="matrix(0.022222222222222223,0,0,0.022222222222222223,77.04444444444444,0)" xlink:href="#ab"/><use transform="matrix(0.022222222222222223,0,0,0.022222222222222223,89.95555555555555,0)" xlink:href="#bc"/><use transform="matrix(0.022222222222222223,0,0,0.022222222222222223,102.71111111111111,0)" xlink:href="#aG"/><use transform="matrix(0.022222222222222223,0,0,0.022222222222222223,119.15555555555557,0)" xlink:href="#aH"/><use transform="matrix(0.022222222222222223,0,0,0.022222222222222223,132.13333333333333,0)" xlink:href="#aI"/><use transform="matrix(0.022222222222222223,0,0,0.022222222222222223,137.64444444444445,0)" xlink:href="#aJ"/><use transform="matrix(0.022222222222222223,0,0,0.022222222222222223,150,0)" xlink:href="#Y"/><use transform="matrix(0.022222222222222223,0,0,0.022222222222222223,162.24444444444444,0)" xlink:href="#ac"/></g><g id="K"><use transform="matrix(0.022222222222222223,0,0,0.022222222222222223,0,0)" xlink:href="#as"/><use transform="matrix(0.022222222222222223,0,0,0.022222222222222223,12.844444444444445,0)" xlink:href="#at"/><use transform="matrix(0.022222222222222223,0,0,0.022222222222222223,18.48888888888889,0)" xlink:href="#ao"/><use transform="matrix(0.022222222222222223,0,0,0.022222222222222223,31.622222222222227,0)" xlink:href="#al"/><use transform="matrix(0.022222222222222223,0,0,0.022222222222222223,40.088888888888896,0)" xlink:href="#au"/><use transform="matrix(0.022222222222222223,0,0,0.022222222222222223,53.911111111111126,0)" xlink:href="#av"/></g><path fill="#666" d="M221 0L20-501v-10h87L264-98h4l151-413h87v10L308 0h-87" id="bd"/><path fill="#666" d="M548-700h87V0h-87v-321H187V0h-87v-700h87v298h361v-298" id="be"/><path fill="#666" d="M90 0v-740h84v309h4c27-52 77-89 156-89 113 0 181 71 181 188V0h-84v-319c0-80-39-126-120-126-83 0-137 62-137 165V0H90" id="bf"/><g id="L"><use transform="matrix(0.022222222222222223,0,0,0.022222222222222223,0,0)" xlink:href="#as"/><use transform="matrix(0.022222222222222223,0,0,0.022222222222222223,12.844444444444445,0)" xlink:href="#ao"/><use transform="matrix(0.022222222222222223,0,0,0.022222222222222223,25.644444444444446,0)" xlink:href="#bd"/><use transform="matrix(0.022222222222222223,0,0,0.022222222222222223,37,0)" xlink:href="#am"/><use transform="matrix(0.022222222222222223,0,0,0.022222222222222223,49.488888888888894,0)" xlink:href="#al"/><use transform="matrix(0.022222222222222223,0,0,0.022222222222222223,57.955555555555556,0)" xlink:href="#ag"/><use transform="matrix(0.022222222222222223,0,0,0.022222222222222223,70.22222222222223,0)" xlink:href="#be"/><use transform="matrix(0.022222222222222223,0,0,0.022222222222222223,86.55555555555557,0)" xlink:href="#ag"/><use transform="matrix(0.022222222222222223,0,0,0.022222222222222223,98.82222222222225,0)" xlink:href="#at"/><use transform="matrix(0.022222222222222223,0,0,0.022222222222222223,104.4666666666667,0)" xlink:href="#aK"/><use transform="matrix(0.022222222222222223,0,0,0.022222222222222223,117.55555555555559,0)" xlink:href="#bf"/><use transform="matrix(0.022222222222222223,0,0,0.022222222222222223,130.7777777777778,0)" xlink:href="#al"/></g><g id="M"><use transform="matrix(0.022222222222222223,0,0,0.022222222222222223,0,0)" xlink:href="#as"/><use transform="matrix(0.022222222222222223,0,0,0.022222222222222223,12.844444444444445,0)" xlink:href="#at"/><use transform="matrix(0.022222222222222223,0,0,0.022222222222222223,18.48888888888889,0)" xlink:href="#ao"/><use transform="matrix(0.022222222222222223,0,0,0.022222222222222223,31.622222222222227,0)" xlink:href="#al"/><use transform="matrix(0.022222222222222223,0,0,0.022222222222222223,40.088888888888896,0)" xlink:href="#aU"/><use transform="matrix(0.022222222222222223,0,0,0.022222222222222223,53.488888888888894,0)" xlink:href="#aV"/></g><path d="M208 9C90 9 25-62 25-155c0-97 66-161 210-161 39 0 91 8 112 15 4-67-3-104-80-107-48 0-76 26-76 58H47c0-98 71-182 225-182 143 0 229 79 229 188V0H363l-11-47h-4C319-14 273 9 208 9zm39-120c65-1 102-37 100-85-54-26-171-27-170 33 0 30 24 52 70 52" id="bg"/><g id="N"><use transform="matrix(0.022222222222222223,0,0,0.022222222222222223,0,0)" xlink:href="#aD"/><use transform="matrix(0.022222222222222223,0,0,0.022222222222222223,15.644444444444446,0)" xlink:href="#aJ"/><use transform="matrix(0.022222222222222223,0,0,0.022222222222222223,28,0)" xlink:href="#aZ"/><use transform="matrix(0.022222222222222223,0,0,0.022222222222222223,33.422222222222224,0)" xlink:href="#aJ"/><use transform="matrix(0.022222222222222223,0,0,0.022222222222222223,45.77777777777778,0)" xlink:href="#bc"/><use transform="matrix(0.022222222222222223,0,0,0.022222222222222223,58.53333333333334,0)" xlink:href="#bg"/><use transform="matrix(0.022222222222222223,0,0,0.022222222222222223,70.55555555555556,0)" xlink:href="#ac"/><use transform="matrix(0.022222222222222223,0,0,0.022222222222222223,80.13333333333334,0)" xlink:href="#aJ"/><use transform="matrix(0.022222222222222223,0,0,0.022222222222222223,92.4888888888889,0)" xlink:href="#aG"/><use transform="matrix(0.022222222222222223,0,0,0.022222222222222223,108.93333333333334,0)" xlink:href="#aH"/><use transform="matrix(0.022222222222222223,0,0,0.022222222222222223,121.91111111111111,0)" xlink:href="#aI"/><use transform="matrix(0.022222222222222223,0,0,0.022222222222222223,127.42222222222223,0)" xlink:href="#aJ"/><use transform="matrix(0.022222222222222223,0,0,0.022222222222222223,139.77777777777777,0)" xlink:href="#Y"/><use transform="matrix(0.022222222222222223,0,0,0.022222222222222223,152.0222222222222,0)" xlink:href="#ac"/></g><g id="O"><use transform="matrix(0.022222222222222223,0,0,0.022222222222222223,0,0)" xlink:href="#as"/><use transform="matrix(0.022222222222222223,0,0,0.022222222222222223,12.844444444444445,0)" xlink:href="#ah"/><use transform="matrix(0.022222222222222223,0,0,0.022222222222222223,24.2,0)" xlink:href="#ag"/><use transform="matrix(0.022222222222222223,0,0,0.022222222222222223,36.46666666666667,0)" xlink:href="#af"/><use transform="matrix(0.022222222222222223,0,0,0.022222222222222223,45.13333333333334,0)" xlink:href="#ao"/><use transform="matrix(0.022222222222222223,0,0,0.022222222222222223,58.266666666666666,0)" xlink:href="#ad"/><use transform="matrix(0.022222222222222223,0,0,0.022222222222222223,70.46666666666667,0)" xlink:href="#aR"/><use transform="matrix(0.022222222222222223,0,0,0.022222222222222223,90.6,0)" xlink:href="#ag"/></g><g id="P"><use transform="matrix(0.022222222222222223,0,0,0.022222222222222223,0,0)" xlink:href="#ah"/><use transform="matrix(0.022222222222222223,0,0,0.022222222222222223,11.355555555555556,0)" xlink:href="#al"/><use transform="matrix(0.022222222222222223,0,0,0.022222222222222223,19.822222222222223,0)" xlink:href="#af"/><use transform="matrix(0.022222222222222223,0,0,0.022222222222222223,28.48888888888889,0)" xlink:href="#at"/><use transform="matrix(0.022222222222222223,0,0,0.022222222222222223,34.13333333333333,0)" xlink:href="#ao"/><use transform="matrix(0.022222222222222223,0,0,0.022222222222222223,47.266666666666666,0)" xlink:href="#aK"/></g><g id="Q"><use transform="matrix(0.022222222222222223,0,0,0.022222222222222223,0,0)" xlink:href="#aB"/><use transform="matrix(0.022222222222222223,0,0,0.022222222222222223,13.311111111111112,0)" xlink:href="#am"/><use transform="matrix(0.022222222222222223,0,0,0.022222222222222223,25.8,0)" xlink:href="#aR"/><use transform="matrix(0.022222222222222223,0,0,0.022222222222222223,45.93333333333334,0)" xlink:href="#be"/><use transform="matrix(0.022222222222222223,0,0,0.022222222222222223,62.266666666666666,0)" xlink:href="#ag"/><use transform="matrix(0.022222222222222223,0,0,0.022222222222222223,74.53333333333335,0)" xlink:href="#at"/><use transform="matrix(0.022222222222222223,0,0,0.022222222222222223,80.17777777777779,0)" xlink:href="#aK"/><use transform="matrix(0.022222222222222223,0,0,0.022222222222222223,93.26666666666667,0)" xlink:href="#bf"/><use transform="matrix(0.022222222222222223,0,0,0.022222222222222223,106.48888888888891,0)" xlink:href="#al"/><use transform="matrix(0.022222222222222223,0,0,0.022222222222222223,114.95555555555558,0)" xlink:href="#ah"/></g><g id="R"><use transform="matrix(0.022222222222222223,0,0,0.022222222222222223,0,0)" xlink:href="#as"/><use transform="matrix(0.022222222222222223,0,0,0.022222222222222223,12.844444444444445,0)" xlink:href="#at"/><use transform="matrix(0.022222222222222223,0,0,0.022222222222222223,18.48888888888889,0)" xlink:href="#ao"/><use transform="matrix(0.022222222222222223,0,0,0.022222222222222223,31.622222222222227,0)" xlink:href="#al"/><use transform="matrix(0.022222222222222223,0,0,0.022222222222222223,40.088888888888896,0)" xlink:href="#aU"/><use transform="matrix(0.022222222222222223,0,0,0.022222222222222223,53.488888888888894,0)" xlink:href="#aV"/></g><path fill="#666" d="M100 0v-700h103l236 427h4l236-427h101V0h-83v-561h-4L445-120h-10L187-564h-4V0h-83" id="bh"/><path fill="#666" d="M100 0v-700h281c118 0 204 67 204 182 0 76-36 120-88 143v4c54 22 114 70 114 169C611-74 525 0 388 0H100zm86-400c139-3 315 31 310-118 0-66-45-104-125-104H186v222zm0 321h192c83 0 143-43 143-123 0-82-54-122-143-122H186v245" id="bi"/><g id="S"><use transform="matrix(0.022222222222222223,0,0,0.022222222222222223,0,0)" xlink:href="#ar"/><use transform="matrix(0.022222222222222223,0,0,0.022222222222222223,12.066666666666666,0)" xlink:href="#am"/><use transform="matrix(0.022222222222222223,0,0,0.022222222222222223,24.555555555555557,0)" xlink:href="#ao"/><use transform="matrix(0.022222222222222223,0,0,0.022222222222222223,37.68888888888889,0)" xlink:href="#ah"/><use transform="matrix(0.022222222222222223,0,0,0.022222222222222223,49.044444444444444,0)" xlink:href="#ag"/><use transform="matrix(0.022222222222222223,0,0,0.022222222222222223,61.31111111111111,0)" xlink:href="#ar"/><use transform="matrix(0.022222222222222223,0,0,0.022222222222222223,73.37777777777778,0)" xlink:href="#as"/><use transform="matrix(0.022222222222222223,0,0,0.022222222222222223,86.22222222222223,0)" xlink:href="#al"/><use transform="matrix(0.022222222222222223,0,0,0.022222222222222223,94.6888888888889,0)" xlink:href="#at"/><use transform="matrix(0.022222222222222223,0,0,0.022222222222222223,100.33333333333334,0)" xlink:href="#bd"/><use transform="matrix(0.022222222222222223,0,0,0.022222222222222223,111.6888888888889,0)" xlink:href="#ag"/><use transform="matrix(0.022222222222222223,0,0,0.022222222222222223,123.95555555555556,0)" xlink:href="#bh"/><use transform="matrix(0.022222222222222223,0,0,0.022222222222222223,143.51111111111112,0)" xlink:href="#at"/><use transform="matrix(0.022222222222222223,0,0,0.022222222222222223,149.15555555555557,0)" xlink:href="#ah"/><use transform="matrix(0.022222222222222223,0,0,0.022222222222222223,160.51111111111112,0)" xlink:href="#ah"/><use transform="matrix(0.022222222222222223,0,0,0.022222222222222223,171.86666666666667,0)" xlink:href="#ag"/><use transform="matrix(0.022222222222222223,0,0,0.022222222222222223,184.13333333333335,0)" xlink:href="#ae"/><use transform="matrix(0.022222222222222223,0,0,0.022222222222222223,197.22222222222223,0)" xlink:href="#bi"/><use transform="matrix(0.022222222222222223,0,0,0.022222222222222223,212.02222222222224,0)" xlink:href="#aq"/><use transform="matrix(0.022222222222222223,0,0,0.022222222222222223,217.66666666666669,0)" xlink:href="#am"/><use transform="matrix(0.022222222222222223,0,0,0.022222222222222223,230.15555555555557,0)" xlink:href="#ar"/><use transform="matrix(0.022222222222222223,0,0,0.022222222222222223,242.22222222222223,0)" xlink:href="#an"/><use transform="matrix(0.022222222222222223,0,0,0.022222222222222223,253.22222222222223,0)" xlink:href="#ah"/></g><path fill="#666" d="M100 0v-700h439v80H187v235h318v80H187V0h-87" id="bj"/><g id="T"><use transform="matrix(0.022222222222222223,0,0,0.022222222222222223,0,0)" xlink:href="#aq"/><use transform="matrix(0.022222222222222223,0,0,0.022222222222222223,5.644444444444445,0)" xlink:href="#ad"/><use transform="matrix(0.022222222222222223,0,0,0.022222222222222223,17.844444444444445,0)" xlink:href="#ah"/><use transform="matrix(0.022222222222222223,0,0,0.022222222222222223,29.200000000000003,0)" xlink:href="#al"/><use transform="matrix(0.022222222222222223,0,0,0.022222222222222223,37.66666666666667,0)" xlink:href="#bj"/><use transform="matrix(0.022222222222222223,0,0,0.022222222222222223,50.53333333333334,0)" xlink:href="#am"/><use transform="matrix(0.022222222222222223,0,0,0.022222222222222223,63.022222222222226,0)" xlink:href="#af"/><use transform="matrix(0.022222222222222223,0,0,0.022222222222222223,71.24444444444445,0)" xlink:href="#aK"/><use transform="matrix(0.022222222222222223,0,0,0.022222222222222223,84.33333333333334,0)" xlink:href="#ag"/><use transform="matrix(0.022222222222222223,0,0,0.022222222222222223,96.60000000000001,0)" xlink:href="#ae"/><use transform="matrix(0.022222222222222223,0,0,0.022222222222222223,109.6888888888889,0)" xlink:href="#be"/><use transform="matrix(0.022222222222222223,0,0,0.022222222222222223,126.02222222222225,0)" xlink:href="#ag"/><use transform="matrix(0.022222222222222223,0,0,0.022222222222222223,138.28888888888892,0)" xlink:href="#at"/><use transform="matrix(0.022222222222222223,0,0,0.022222222222222223,143.93333333333337,0)" xlink:href="#aK"/><use transform="matrix(0.022222222222222223,0,0,0.022222222222222223,157.02222222222224,0)" xlink:href="#bf"/><use transform="matrix(0.022222222222222223,0,0,0.022222222222222223,170.24444444444447,0)" xlink:href="#al"/></g><g id="U"><use transform="matrix(0.022222222222222223,0,0,0.022222222222222223,0,0)" xlink:href="#at"/><use transform="matrix(0.022222222222222223,0,0,0.022222222222222223,5.644444444444445,0)" xlink:href="#ah"/><use transform="matrix(0.022222222222222223,0,0,0.022222222222222223,17,0)" xlink:href="#bi"/><use transform="matrix(0.022222222222222223,0,0,0.022222222222222223,31.8,0)" xlink:href="#ad"/><use transform="matrix(0.022222222222222223,0,0,0.022222222222222223,44,0)" xlink:href="#ao"/><use transform="matrix(0.022222222222222223,0,0,0.022222222222222223,57.13333333333333,0)" xlink:href="#ao"/><use transform="matrix(0.022222222222222223,0,0,0.022222222222222223,70.26666666666667,0)" xlink:href="#ag"/><use transform="matrix(0.022222222222222223,0,0,0.022222222222222223,82.53333333333333,0)" xlink:href="#ae"/></g><g id="V"><use transform="matrix(0.022222222222222223,0,0,0.022222222222222223,0,0)" xlink:href="#aj"/><use transform="matrix(0.022222222222222223,0,0,0.022222222222222223,13.311111111111112,0)" xlink:href="#am"/><use transform="matrix(0.022222222222222223,0,0,0.022222222222222223,25.8,0)" xlink:href="#am"/><use transform="matrix(0.022222222222222223,0,0,0.022222222222222223,38.28888888888889,0)" xlink:href="#aq"/><use transform="matrix(0.022222222222222223,0,0,0.022222222222222223,43.93333333333334,0)" xlink:href="#ag"/><use transform="matrix(0.022222222222222223,0,0,0.022222222222222223,56.2,0)" xlink:href="#ad"/><use transform="matrix(0.022222222222222223,0,0,0.022222222222222223,68.4,0)" xlink:href="#ao"/></g><path fill="#666" d="M448-288L636-10V0h-95L357-277H187V0h-87v-700h277c143 0 222 91 222 210 0 104-60 176-151 202zM187-620v263h185c88 0 136-48 136-132 0-82-48-131-136-131H187" id="bk"/><g id="W"><use transform="matrix(0.022222222222222223,0,0,0.022222222222222223,0,0)" xlink:href="#al"/><use transform="matrix(0.022222222222222223,0,0,0.022222222222222223,8.466666666666667,0)" xlink:href="#am"/><use transform="matrix(0.022222222222222223,0,0,0.022222222222222223,20.955555555555556,0)" xlink:href="#al"/><use transform="matrix(0.022222222222222223,0,0,0.022222222222222223,29.422222222222224,0)" xlink:href="#ad"/><use transform="matrix(0.022222222222222223,0,0,0.022222222222222223,41.62222222222223,0)" xlink:href="#aq"/><use transform="matrix(0.022222222222222223,0,0,0.022222222222222223,47.266666666666666,0)" xlink:href="#aL"/><use transform="matrix(0.022222222222222223,0,0,0.022222222222222223,60.46666666666667,0)" xlink:href="#am"/><use transform="matrix(0.022222222222222223,0,0,0.022222222222222223,72.95555555555556,0)" xlink:href="#al"/><use transform="matrix(0.022222222222222223,0,0,0.022222222222222223,81.42222222222223,0)" xlink:href="#ag"/><use transform="matrix(0.022222222222222223,0,0,0.022222222222222223,93.6888888888889,0)" xlink:href="#ah"/><use transform="matrix(0.022222222222222223,0,0,0.022222222222222223,105.04444444444445,0)" xlink:href="#bk"/><use transform="matrix(0.022222222222222223,0,0,0.022222222222222223,119.93333333333334,0)" xlink:href="#ag"/><use transform="matrix(0.022222222222222223,0,0,0.022222222222222223,132.20000000000002,0)" xlink:href="#ar"/><use transform="matrix(0.022222222222222223,0,0,0.022222222222222223,144.26666666666668,0)" xlink:href="#ag"/><use transform="matrix(0.022222222222222223,0,0,0.022222222222222223,156.53333333333336,0)" xlink:href="#at"/><use transform="matrix(0.022222222222222223,0,0,0.022222222222222223,162.1777777777778,0)" xlink:href="#bd"/><use transform="matrix(0.022222222222222223,0,0,0.022222222222222223,173.53333333333336,0)" xlink:href="#ag"/><use transform="matrix(0.022222222222222223,0,0,0.022222222222222223,185.80000000000004,0)" xlink:href="#ae"/></g></defs></g></svg>