<svg xmlns="http://www.w3.org/2000/svg" xmlns:xlink="http://www.w3.org/1999/xlink" xmlns:lucid="lucid" width="1600" height="220"><g transform="translate(-20 -20)" lucid:page-tab-id="0_0"><path d="M40 60h180v140H40z" stroke="#000" stroke-width="2" fill="#f7f9fd"/><use xlink:href="#a" transform="matrix(1,0,0,1,60,60) translate(10.044444444444444 77.77777777777779)"/><path d="M480 130c0 49.7-40.3 90-90 90s-90-40.3-90-90 40.3-90 90-90 90 40.3 90 90z" stroke="#000" stroke-width="2" fill="#f7f9fd"/><use xlink:href="#b" transform="matrix(1,0,0,1,320,40) translate(22.22222222222222 97.77777777777779)"/><path d="M222 130h58.5" stroke="#000" stroke-width="2" fill="none"/><path d="M222.03 131H221v-2h1.03z"/><path d="M295.76 130l-14.26 4.64v-9.28z" stroke="#000" stroke-width="2"/><path d="M481 130h58M481.03 130H480" stroke="#000" stroke-width="2" fill="none"/><path d="M540 131h-1.03v-2H540z"/><path d="M877.64 130c0 49.7-40.3 90-90 90s-90-40.3-90-90 40.3-90 90-90 90 40.3 90 90z" stroke="#000" stroke-width="2" fill="#f7f9fd"/><use xlink:href="#c" transform="matrix(1,0,0,1,717.635529412467,40) translate(25.52222222222222 97.77777777777779)"/><path d="M638.64 130h39.5" stroke="#000" stroke-width="2" fill="none"/><path d="M638.66 131h-1.02v-2h1.02z"/><path d="M693.4 130l-14.27 4.64v-9.28z" stroke="#000" stroke-width="2"/><path d="M1342 130h58.5" stroke="#000" stroke-width="2" fill="none"/><path d="M1342.03 131H1341v-2h1.03z"/><path d="M1415.76 130l-14.26 4.64v-9.28z" stroke="#000" stroke-width="2"/><path d="M540 105c0-2.76 2.24-5 5-5h87.64c2.76 0 5 2.24 5 5v50c0 2.76-2.24 5-5 5H545c-2.76 0-5-2.24-5-5z" stroke="#000" stroke-opacity="0" stroke-width="2" fill="#fff" fill-opacity="0"/><use xlink:href="#d" transform="matrix(1,0,0,1,544.9999999999998,105) translate(18.166666666666668 33.611111111111114)"/><path d="M937.64 105c0-2.76 2.23-5 5-5h141.18c2.76 0 5 2.24 5 5v50c0 2.76-2.24 5-5 5H942.64c-2.77 0-5-2.24-5-5z" stroke="#000" stroke-opacity="0" stroke-width="2" fill="#fff" fill-opacity="0"/><use xlink:href="#e" transform="matrix(1,0,0,1,942.6355294124669,105) translate(12.433333333333323 33.611111111111114)"/><use xlink:href="#f" transform="matrix(1,0,0,1,942.6355294124669,105) translate(92.23333333333333 33.611111111111114)"/><path d="M879.64 130h57" stroke="#000" stroke-width="2" fill="none"/><path d="M879.66 131h-1.05l.04-1v-1h1.02zM937.64 131h-1.03v-2h1.04z"/><path d="M1089.82 130h50.68" stroke="#000" stroke-width="2" fill="none"/><path d="M1089.84 131h-1.02v-2h1.02z"/><path d="M1155.76 130l-14.26 4.64v-9.28z" stroke="#000" stroke-width="2"/><path d="M1160 60h180v140h-180z" stroke="#000" stroke-width="2" fill="#f7f9fd"/><use xlink:href="#g" transform="matrix(1,0,0,1,1180,60) translate(16.255555555555546 77.77777777777779)"/><use xlink:href="#f" transform="matrix(1,0,0,1,1180,60) translate(86.41111111111111 77.77777777777779)"/><path d="M1420 60h180v140h-180z" stroke="#000" stroke-width="2" fill="#f7f9fd"/><g><use xlink:href="#h" transform="matrix(1,0,0,1,1440,60) translate(27.9 77.77777777777779)"/></g><defs><path d="M100 0v-700h258c143 0 231 91 231 221 0 134-90 225-231 225H187V0h-87zm87-334h160c97 0 152-51 152-145 0-90-58-142-152-142H187v287" id="i"/><path d="M228 9C117 9 50-60 50-149c0-86 61-160 211-160 54 0 94 9 126 18 7-94-13-152-118-157-75 0-112 42-113 91H75c0-98 82-163 194-163 131 0 200 79 200 176V0h-71l-6-72h-4C357-20 300 9 228 9zm15-70c96-3 152-69 144-163-42-13-81-18-126-18-83 0-126 32-126 92 0 51 34 89 108 89" id="j"/><path d="M259 9C138 9 53-57 50-169h84c0 68 52 103 125 103 72 0 117-24 117-73 0-69-115-80-180-92-84-16-130-68-130-143 0-85 73-146 186-146 115 0 197 63 197 165h-82c-3-65-51-94-115-94-62 0-105 25-105 75 0 68 106 73 169 87 96 21 145 60 145 148C461-45 369 9 259 9" id="k"/><path d="M90 229v-740h73l11 71h4c27-45 78-80 154-80 134 0 216 100 217 265C548-104 476 9 332 9c-76 0-127-35-154-80h-4v300H90zM318-66c106 0 146-87 146-189 0-103-40-190-146-190-102 0-146 88-146 190 0 101 44 189 146 189" id="l"/><path d="M90 0v-740h84v309h4c27-52 77-89 156-89 113 0 181 71 181 188V0h-84v-319c0-80-39-126-120-126-83 0-137 62-137 165V0H90" id="m"/><path d="M90 0v-511h73l7 86h4c28-71 87-100 181-92v81c-128-12-181 52-181 188V0H90" id="n"/><path d="M282 9C131 9 50-105 50-255c0-148 73-265 231-265 158 2 232 123 221 290H138c0 97 49 164 144 164 67 0 115-28 129-82h84C481-54 391 9 282 9zM139-300h276c0-81-43-145-134-145-96 0-139 65-142 145" id="o"/><g id="a"><use transform="matrix(0.022222222222222223,0,0,0.022222222222222223,0,0)" xlink:href="#i"/><use transform="matrix(0.022222222222222223,0,0,0.022222222222222223,13.977777777777778,0)" xlink:href="#j"/><use transform="matrix(0.022222222222222223,0,0,0.022222222222222223,26.177777777777777,0)" xlink:href="#k"/><use transform="matrix(0.022222222222222223,0,0,0.022222222222222223,37.53333333333333,0)" xlink:href="#k"/><use transform="matrix(0.022222222222222223,0,0,0.022222222222222223,48.88888888888889,0)" xlink:href="#l"/><use transform="matrix(0.022222222222222223,0,0,0.022222222222222223,62.199999999999996,0)" xlink:href="#m"/><use transform="matrix(0.022222222222222223,0,0,0.022222222222222223,75.42222222222222,0)" xlink:href="#n"/><use transform="matrix(0.022222222222222223,0,0,0.022222222222222223,84.08888888888889,0)" xlink:href="#j"/><use transform="matrix(0.022222222222222223,0,0,0.022222222222222223,96.28888888888889,0)" xlink:href="#k"/><use transform="matrix(0.022222222222222223,0,0,0.022222222222222223,107.64444444444445,0)" xlink:href="#o"/></g><path d="M315 9C145 9 54-78 50-210h89c5 87 66 140 176 140 111 0 171-40 171-122 0-105-134-115-227-136-121-27-186-82-186-189 0-118 88-192 243-192 150 0 248 84 249 208h-89c-4-76-54-128-162-128-90 0-150 33-150 112 0 90 129 107 214 124 130 27 199 94 199 201C577-67 477 9 315 9" id="p"/><path d="M548-700h87V0h-87v-321H187V0h-87v-700h87v298h361v-298" id="q"/><path d="M394-700L652-10V0h-93l-66-183H187L121 0H30v-10l257-690h107zM215-261h250L342-603h-4" id="r"/><path d="M80-254v-78h306v78H80" id="s"/><path d="M67 0v-66l239-279c72-84 100-116 100-175 0-68-41-116-125-116-82 0-131 47-131 132H65c0-122 79-208 216-208 133 0 212 82 212 189 0 78-42 130-129 231L183-82v4h321V0H67" id="t"/><path d="M296 9C153 9 65-81 65-198h85c0 72 53 131 146 131 106 0 147-68 147-159 0-88-45-156-146-156-67 0-105 32-132 69H77l27-387h392v77H178l-16 223h4c26-28 70-57 144-57 141 0 219 98 219 228C529-88 453 9 296 9" id="u"/><path d="M317 9C137 9 70-141 70-339c0-196 68-373 257-373 121 0 204 73 217 181h-87c-7-64-58-104-130-104-127 0-172 128-172 274h4c30-57 84-96 170-96 144 0 223 103 223 230C552-94 464 9 317 9zm1-76c96 0 147-71 147-158 0-88-50-157-147-157-99 0-148 69-148 156S222-67 318-67" id="v"/><g id="b"><use transform="matrix(0.022222222222222223,0,0,0.022222222222222223,0,0)" xlink:href="#p"/><use transform="matrix(0.022222222222222223,0,0,0.022222222222222223,14.044444444444444,0)" xlink:href="#q"/><use transform="matrix(0.022222222222222223,0,0,0.022222222222222223,30.37777777777778,0)" xlink:href="#r"/><use transform="matrix(0.022222222222222223,0,0,0.022222222222222223,45.53333333333334,0)" xlink:href="#s"/><use transform="matrix(0.022222222222222223,0,0,0.022222222222222223,55.88888888888889,0)" xlink:href="#t"/><use transform="matrix(0.022222222222222223,0,0,0.022222222222222223,68.53333333333333,0)" xlink:href="#u"/><use transform="matrix(0.022222222222222223,0,0,0.022222222222222223,81.73333333333333,0)" xlink:href="#v"/></g><path d="M100 0v-700h450v80H187v219h332v80H187v242h363V0H100" id="w"/><path d="M267 9C133 9 51-91 50-256c1-151 73-264 217-264 76 0 127 35 154 80h4v-300h84V0h-73l-11-71h-4C394-26 343 9 267 9zm14-75c102 0 146-88 146-190 0-101-44-189-146-189-106 0-146 87-146 189 0 103 40 190 146 190" id="x"/><path d="M230 0v-605h-4L65-479H55v-86l174-135h86V0h-85" id="y"/><path d="M295 9C174 9 91-64 78-172h87c7 64 58 104 130 104 127 0 172-128 172-274h-4c-30 57-84 96-170 96-144 0-223-103-223-230 0-133 88-236 235-236 180 0 247 150 247 348C552-168 484 9 295 9zm9-330c99 0 148-69 148-156s-52-159-148-159-147 71-147 158c0 88 50 157 147 157" id="z"/><g id="c"><use transform="matrix(0.022222222222222223,0,0,0.022222222222222223,0,0)" xlink:href="#w"/><use transform="matrix(0.022222222222222223,0,0,0.022222222222222223,13.555555555555555,0)" xlink:href="#x"/><use transform="matrix(0.022222222222222223,0,0,0.022222222222222223,26.644444444444446,0)" xlink:href="#t"/><use transform="matrix(0.022222222222222223,0,0,0.022222222222222223,39.28888888888889,0)" xlink:href="#u"/><use transform="matrix(0.022222222222222223,0,0,0.022222222222222223,52.488888888888894,0)" xlink:href="#u"/><use transform="matrix(0.022222222222222223,0,0,0.022222222222222223,65.6888888888889,0)" xlink:href="#y"/><use transform="matrix(0.022222222222222223,0,0,0.022222222222222223,75.13333333333334,0)" xlink:href="#z"/></g><g id="d"><use transform="matrix(0.022222222222222223,0,0,0.022222222222222223,0,0)" xlink:href="#p"/><use transform="matrix(0.022222222222222223,0,0,0.022222222222222223,14.044444444444444,0)" xlink:href="#o"/><use transform="matrix(0.022222222222222223,0,0,0.022222222222222223,26.311111111111114,0)" xlink:href="#o"/><use transform="matrix(0.022222222222222223,0,0,0.022222222222222223,38.577777777777776,0)" xlink:href="#x"/></g><path d="M132-609c-39 0-58-23-58-59 0-35 19-58 58-58 38 0 58 23 58 58 0 36-20 59-58 59zM90 0v-511h84V0H90" id="A"/><path d="M221 0L20-501v-10h87L264-98h4l151-413h87v10L308 0h-87" id="B"/><path d="M260 9C159 9 125-43 125-128v-312H40v-71h87v-109c28-9 49-24 82-28v137h125v71H209v305c0 49 21 70 67 70 30 1 39-6 60-6V1c-16 4-44 8-76 8" id="C"/><g id="e"><use transform="matrix(0.022222222222222223,0,0,0.022222222222222223,0,0)" xlink:href="#i"/><use transform="matrix(0.022222222222222223,0,0,0.022222222222222223,14.422222222222222,0)" xlink:href="#n"/><use transform="matrix(0.022222222222222223,0,0,0.022222222222222223,23.08888888888889,0)" xlink:href="#A"/><use transform="matrix(0.022222222222222223,0,0,0.022222222222222223,28.733333333333334,0)" xlink:href="#B"/><use transform="matrix(0.022222222222222223,0,0,0.022222222222222223,40.2,0)" xlink:href="#j"/><use transform="matrix(0.022222222222222223,0,0,0.022222222222222223,52.4,0)" xlink:href="#C"/><use transform="matrix(0.022222222222222223,0,0,0.022222222222222223,60.86666666666668,0)" xlink:href="#o"/></g><path d="M297-369L621-10V0H516L187-364V0h-87v-700h87v326l320-326h104v10" id="D"/><path d="M139 229v-10c28-75 61-150 86-225L20-501v-10h90l155 401h4l150-401h88v10L224 229h-85" id="E"/><g id="f"><use transform="matrix(0.022222222222222223,0,0,0.022222222222222223,0,0)" xlink:href="#D"/><use transform="matrix(0.022222222222222223,0,0,0.022222222222222223,13.577777777777778,0)" xlink:href="#o"/><use transform="matrix(0.022222222222222223,0,0,0.022222222222222223,25.622222222222224,0)" xlink:href="#E"/></g><path d="M414-511h84v325C498-69 413 8 289 8S80-69 80-186v-325h84v311c0 81 36 133 125 133s125-52 125-133v-311" id="F"/><path d="M332 9c-76 0-127-35-154-80h-4L163 0H90v-740h84v300h4c27-45 78-80 154-80 144 0 216 113 217 264C548-91 466 9 332 9zm-14-75c106 0 146-87 146-190 0-102-40-189-146-189-102 0-146 88-146 189 0 102 44 190 146 190" id="G"/><path d="M90 0v-740h84V0H90" id="H"/><path d="M282 9C129 9 50-94 50-255c0-159 79-265 231-265 137 0 203 81 210 184h-84c-5-68-52-109-126-109-105 0-146 85-146 190 0 107 41 190 146 190 76 0 121-39 128-107h84C483-64 415 9 282 9" id="I"/><g id="g"><use transform="matrix(0.022222222222222223,0,0,0.022222222222222223,0,0)" xlink:href="#i"/><use transform="matrix(0.022222222222222223,0,0,0.022222222222222223,13.977777777777778,0)" xlink:href="#F"/><use transform="matrix(0.022222222222222223,0,0,0.022222222222222223,26.822222222222223,0)" xlink:href="#G"/><use transform="matrix(0.022222222222222223,0,0,0.022222222222222223,40.13333333333333,0)" xlink:href="#H"/><use transform="matrix(0.022222222222222223,0,0,0.022222222222222223,45.77777777777778,0)" xlink:href="#A"/><use transform="matrix(0.022222222222222223,0,0,0.022222222222222223,51.422222222222224,0)" xlink:href="#I"/></g><g id="h"><use transform="matrix(0.022222222222222223,0,0,0.022222222222222223,0,0)" xlink:href="#r"/><use transform="matrix(0.022222222222222223,0,0,0.022222222222222223,14.822222222222223,0)" xlink:href="#x"/><use transform="matrix(0.022222222222222223,0,0,0.022222222222222223,27.91111111111111,0)" xlink:href="#x"/><use transform="matrix(0.022222222222222223,0,0,0.022222222222222223,41,0)" xlink:href="#n"/><use transform="matrix(0.022222222222222223,0,0,0.022222222222222223,49.22222222222222,0)" xlink:href="#o"/><use transform="matrix(0.022222222222222223,0,0,0.022222222222222223,61.488888888888894,0)" xlink:href="#k"/><use transform="matrix(0.022222222222222223,0,0,0.022222222222222223,72.84444444444445,0)" xlink:href="#k"/></g></defs></g></svg>