<svg xmlns="http://www.w3.org/2000/svg" xmlns:xlink="http://www.w3.org/1999/xlink" xmlns:lucid="lucid" width="1410.67" height="469.33"><g transform="translate(0 0)" lucid:page-tab-id="0_0"><path d="M318.02 399.1H546.1v60H318.02z" stroke="#000" stroke-opacity="0" stroke-width="2" fill="#fff" fill-opacity="0"/><use xlink:href="#a" transform="matrix(1,0,0,1,323.0188649224709,404.08794788273616) translate(4.933333333333337 33.611111111111114)"/><use xlink:href="#b" transform="matrix(1,0,0,1,323.0188649224709,404.08794788273616) translate(21.044444444444448 33.611111111111114)"/><use xlink:href="#c" transform="matrix(1,0,0,1,323.0188649224709,404.08794788273616) translate(87.4888888888889 33.611111111111114)"/><use xlink:href="#d" transform="matrix(1,0,0,1,323.0188649224709,404.08794788273616) translate(104.73333333333333 33.611111111111114)"/><use xlink:href="#e" transform="matrix(1,0,0,1,323.0188649224709,404.08794788273616) translate(148.2 33.611111111111114)"/><path d="M21.47 298.1h60v60h-60zM261.47 298.1h62.13v60h-62.13z" stroke="#000" stroke-width="2" fill="#fff"/><path d="M226.8 328.1c0 27.6-22.4 50-50 50-27.62 0-50-22.4-50-50 0-27.63 22.38-50 50-50 27.6 0 50 22.37 50 50z" stroke="#000" stroke-width="2" fill="#f7f9fd"/><use xlink:href="#f" transform="matrix(1,0,0,1,146.79133194173028,278.0879478827362) translate(7.777777777777779 44.44444444444444)"/><use xlink:href="#g" transform="matrix(1,0,0,1,146.79133194173028,278.0879478827362) translate(0.6111111111111107 71.11111111111111)"/><path d="M125.3 328.1H98.85" stroke="#333" fill="none"/><path d="M125.8 328.08v.5h-.52v-1h.54z" fill="#333"/><path d="M84.1 328.1l14.26-4.65v9.27z" stroke="#333" fill="#333"/><path d="M364.18 328.1h-23.2" stroke="#333" fill="none"/><path d="M364.68 328.6h-.5v-1h.5z" fill="#333"/><path d="M326.22 328.1l14.26-4.65v9.27z" stroke="#333" fill="#333"/><path d="M364.68 298.1H492.1v60H364.7z" stroke="#000" stroke-opacity="0" stroke-width="2" fill="#fff" fill-opacity="0"/><use xlink:href="#h" transform="matrix(1,0,0,1,369.68192106141095,303.0879478827362) translate(0 30.025)"/><use xlink:href="#i" transform="matrix(1,0,0,1,369.68192106141095,303.0879478827362) translate(25 30.025)"/><use xlink:href="#j" transform="matrix(1,0,0,1,369.68192106141095,303.0879478827362) translate(35 30.025)"/><use xlink:href="#j" transform="matrix(1,0,0,1,369.68192106141095,303.0879478827362) translate(45 30.025)"/><use xlink:href="#j" transform="matrix(1,0,0,1,369.68192106141095,303.0879478827362) translate(55 30.025)"/><use xlink:href="#j" transform="matrix(1,0,0,1,369.68192106141095,303.0879478827362) translate(65 30.025)"/><use xlink:href="#j" transform="matrix(1,0,0,1,369.68192106141095,303.0879478827362) translate(75 30.025)"/><use xlink:href="#k" transform="matrix(1,0,0,1,369.68192106141095,303.0879478827362) translate(85 30.025)"/><path d="M544.6 328.1h-36.1" stroke="#333" fill="none"/><path d="M545.1 328.6h-.5v-1h.5z" fill="#333"/><path d="M493.73 328.1l14.26-4.65v9.27z" stroke="#333" fill="#333"/><path d="M546.1 298.1h59.15v60H546.1zM781.72 298.1h58.83v60h-58.83z" stroke="#000" stroke-width="2" fill="#fff"/><path d="M746.46 328.1c0 27.6-21.94 50-49.02 50-27.07 0-49.02-22.4-49.02-50 0-27.63 21.95-50 49.02-50 27.08 0 49.02 22.37 49.02 50z" stroke="#000" stroke-width="2" fill="#f7f9fd"/><use xlink:href="#f" transform="matrix(1,0,0,1,668.4232524544908,278.0879478827362) translate(6.777777777777779 44.44444444444444)"/><use xlink:href="#g" transform="matrix(1,0,0,1,668.4232524544908,278.0879478827362) translate(-0.3888888888888893 71.11111111111111)"/><path d="M646.92 328.1h-24.3" stroke="#333" fill="none"/><path d="M647.42 328.08l.02.5h-.53v-1h.55z" fill="#333"/><path d="M607.87 328.1l14.26-4.65v9.27z" stroke="#333" fill="#333"/><path d="M879.1 328.1h-21.17" stroke="#333" fill="none"/><path d="M879.6 328.6h-.5v-1h.5z" fill="#333"/><path d="M843.16 328.1l14.27-4.65v9.27z" stroke="#333" fill="#333"/><path d="M1062.66 328.1h-34.17" stroke="#333" fill="none"/><path d="M1063.16 328.6h-.5v-1h.5z" fill="#333"/><path d="M1013.73 328.1l14.26-4.65v9.27z" stroke="#333" fill="#333"/><path d="M1064.16 298.1H1123v60h-58.84zM1306.86 298.1h58.82v60h-58.82z" stroke="#000" stroke-width="2" fill="#fff"/><path d="M1267.9 328.1c0 27.6-21.94 50-49 50-27.1 0-49.03-22.4-49.03-50 0-27.63 21.94-50 49.02-50 27.06 0 49 22.37 49 50z" stroke="#000" stroke-width="2" fill="#f7f9fd"/><use xlink:href="#f" transform="matrix(1,0,0,1,1189.8665473322828,278.0879478827362) translate(6.777777777777779 44.44444444444444)"/><use xlink:href="#g" transform="matrix(1,0,0,1,1189.8665473322828,278.0879478827362) translate(-0.3888888888888893 71.11111111111111)"/><path d="M1168.37 328.1h-28" stroke="#333" fill="none"/><path d="M1168.87 328.08v.5h-.52v-1h.54z" fill="#333"/><path d="M1125.6 328.1l14.27-4.65v9.27z" stroke="#333" fill="#333"/><path d="M546.6 429.1h145.5" stroke="#333" fill="none"/><path d="M546.62 429.6h-.52v-1h.52z" fill="#333"/><path d="M691.6 444.1v-30M317.52 429.1h-145.4" stroke="#333" fill="none"/><path d="M318.02 429.6h-.5v-1h.5z" fill="#333"/><path d="M172.6 414.1v30" stroke="#333" fill="none"/><path d="M533.2 45.75h340.37v164.67H533.2z" fill="#fff" fill-opacity="0"/><use xlink:href="#l" transform="matrix(1,0,0,1,538.1912787155745,50.7546145494029) translate(5 35.642361111111114)"/><use xlink:href="#m" transform="matrix(1,0,0,1,538.1912787155745,50.7546145494029) translate(106.93333333333334 35.642361111111114)"/><use xlink:href="#n" transform="matrix(1,0,0,1,538.1912787155745,50.7546145494029) translate(147.55555555555554 35.642361111111114)"/><use xlink:href="#o" transform="matrix(1,0,0,1,538.1912787155745,50.7546145494029) translate(217.0888888888889 35.642361111111114)"/><use xlink:href="#p" transform="matrix(1,0,0,1,538.1912787155745,50.7546145494029) translate(286.48888888888894 35.642361111111114)"/><use xlink:href="#q" transform="matrix(1,0,0,1,538.1912787155745,50.7546145494029) translate(5 67.64236111111111)"/><use xlink:href="#m" transform="matrix(1,0,0,1,538.1912787155745,50.7546145494029) translate(105.60000000000002 67.64236111111111)"/><use xlink:href="#r" transform="matrix(1,0,0,1,538.1912787155745,50.7546145494029) translate(146.22222222222223 67.64236111111111)"/><use xlink:href="#s" transform="matrix(1,0,0,1,538.1912787155745,50.7546145494029) translate(187.15555555555557 67.64236111111111)"/><use xlink:href="#t" transform="matrix(1,0,0,1,538.1912787155745,50.7546145494029) translate(226.66666666666669 67.64236111111111)"/><use xlink:href="#u" transform="matrix(1,0,0,1,538.1912787155745,50.7546145494029) translate(5 99.64236111111111)"/><use xlink:href="#v" transform="matrix(1,0,0,1,538.1912787155745,50.7546145494029) translate(36.46666666666667 99.64236111111111)"/><use xlink:href="#w" transform="matrix(1,0,0,1,538.1912787155745,50.7546145494029) translate(132.42222222222222 99.64236111111111)"/><use xlink:href="#x" transform="matrix(1,0,0,1,538.1912787155745,50.7546145494029) translate(208.44444444444446 99.64236111111111)"/><use xlink:href="#y" transform="matrix(1,0,0,1,538.1912787155745,50.7546145494029) translate(253.53333333333336 99.64236111111111)"/><use xlink:href="#z" transform="matrix(1,0,0,1,538.1912787155745,50.7546145494029) translate(5 131.64236111111111)"/><use xlink:href="#A" transform="matrix(1,0,0,1,538.1912787155745,50.7546145494029) translate(91.37777777777778 131.64236111111111)"/><use xlink:href="#B" transform="matrix(1,0,0,1,538.1912787155745,50.7546145494029) translate(181.0888888888889 131.64236111111111)"/><path d="M176.8 276.6v-55.5" stroke="#333" fill="none"/><path d="M177.3 277.1h-1v-.53h1z" fill="#333"/><path d="M176.8 199.07l12.72 21.52h-25.45z" stroke="#333" fill="#fff"/><path d="M21.47 20H332.1v39.1H21.48z" stroke="#000" stroke-width="2" fill="#c5cfe4"/><use xlink:href="#C" transform="matrix(1,0,0,1,26.47298340787833,25) translate(58.69999999999999 22.98611111111111)"/><use xlink:href="#D" transform="matrix(1,0,0,1,26.47298340787833,25) translate(157.4111111111111 22.98611111111111)"/><path d="M21.47 59.1H332.1v138H21.48z" stroke="#000" stroke-width="2" fill="#f7f9fd"/><g><use xlink:href="#E" transform="matrix(1,0,0,1,26.47298340787833,64.08794788273622) translate(3 41.111111111111114)"/><use xlink:href="#F" transform="matrix(1,0,0,1,26.47298340787833,64.08794788273622) translate(24.822222222222223 41.111111111111114)"/><use xlink:href="#G" transform="matrix(1,0,0,1,26.47298340787833,64.08794788273622) translate(62.6 41.111111111111114)"/><use xlink:href="#H" transform="matrix(1,0,0,1,26.47298340787833,64.08794788273622) translate(89.97777777777779 41.111111111111114)"/><use xlink:href="#I" transform="matrix(1,0,0,1,26.47298340787833,64.08794788273622) translate(120.13333333333335 41.111111111111114)"/><use xlink:href="#J" transform="matrix(1,0,0,1,26.47298340787833,64.08794788273622) translate(227.44444444444446 41.111111111111114)"/><use xlink:href="#K" transform="matrix(1,0,0,1,26.47298340787833,64.08794788273622) translate(3 73.11111111111111)"/><use xlink:href="#L" transform="matrix(1,0,0,1,26.47298340787833,64.08794788273622) translate(57.93333333333333 73.11111111111111)"/><use xlink:href="#M" transform="matrix(1,0,0,1,26.47298340787833,64.08794788273622) translate(145.3111111111111 73.11111111111111)"/><use xlink:href="#N" transform="matrix(1,0,0,1,26.47298340787833,64.08794788273622) translate(172.64444444444445 73.11111111111111)"/><use xlink:href="#O" transform="matrix(1,0,0,1,26.47298340787833,64.08794788273622) translate(213.26666666666665 73.11111111111111)"/><use xlink:href="#P" transform="matrix(1,0,0,1,26.47298340787833,64.08794788273622) translate(258.4222222222222 73.11111111111111)"/><use xlink:href="#N" transform="matrix(1,0,0,1,26.47298340787833,64.08794788273622) translate(3 105.11111111111111)"/><use xlink:href="#Q" transform="matrix(1,0,0,1,26.47298340787833,64.08794788273622) translate(43.62222222222222 105.11111111111111)"/></g><path d="M333.6 128.1H532.7" stroke="#333" fill="none"/><path d="M333.62 128.6h-.5v-1h.5zM533.2 128.6h-.52v-1h.5z" fill="#333"/><path d="M1083.77 20H1354v39.1h-270.23z" stroke="#000" stroke-width="2" fill="#c5cfe4"/><g><use xlink:href="#R" transform="matrix(1,0,0,1,1088.7722691761157,25) translate(73.71111111111111 22.98611111111111)"/><use xlink:href="#S" transform="matrix(1,0,0,1,1088.7722691761157,25) translate(148.60000000000002 22.98611111111111)"/></g><path d="M1083.77 59.1H1354v138h-270.23z" stroke="#000" stroke-width="2" fill="#f7f9fd"/><g><use xlink:href="#T" transform="matrix(1,0,0,1,1088.7722691761157,64.08794788273622) translate(3 41.111111111111114)"/><use xlink:href="#U" transform="matrix(1,0,0,1,1088.7722691761157,64.08794788273622) translate(37.733333333333334 41.111111111111114)"/><use xlink:href="#F" transform="matrix(1,0,0,1,1088.7722691761157,64.08794788273622) translate(124.04444444444445 41.111111111111114)"/><use xlink:href="#G" transform="matrix(1,0,0,1,1088.7722691761157,64.08794788273622) translate(161.82222222222222 41.111111111111114)"/><use xlink:href="#V" transform="matrix(1,0,0,1,1088.7722691761157,64.08794788273622) translate(189.2 41.111111111111114)"/><use xlink:href="#W" transform="matrix(1,0,0,1,1088.7722691761157,64.08794788273622) translate(3 73.11111111111111)"/><use xlink:href="#I" transform="matrix(1,0,0,1,1088.7722691761157,64.08794788273622) translate(83.33333333333334 73.11111111111111)"/><use xlink:href="#X" transform="matrix(1,0,0,1,1088.7722691761157,64.08794788273622) translate(190.64444444444445 73.11111111111111)"/><use xlink:href="#Y" transform="matrix(1,0,0,1,1088.7722691761157,64.08794788273622) translate(3 105.11111111111111)"/><use xlink:href="#Q" transform="matrix(1,0,0,1,1088.7722691761157,64.08794788273622) translate(48.355555555555554 105.11111111111111)"/></g><path d="M874.07 128.1h185.7" stroke="#333" fill="none"/><path d="M874.08 128.6h-.5v-1h.5z" fill="#333"/><path d="M1081.8 128.1l-21.53 12.7v-25.44z" stroke="#333" fill="#fff"/><path d="M1218.9 198.6v55.5" stroke="#333" fill="none"/><path d="M1219.4 198.6h-1v-.5h1z" fill="#333"/><path d="M1218.9 276.1l-12.74-21.5h25.45z" stroke="#333" fill="#fff"/><path d="M1404.4 328.1h-21.34M1404.38 328.1h.52" stroke="#333" fill="none"/><path d="M1368.3 328.1l14.26-4.65v9.27z" stroke="#333" fill="#333"/><path d="M19.97 328.1h-18" stroke="#333" fill="none"/><path d="M20.47 328.6h-.5v-1h.5z" fill="#333"/><path d="M2 328.1h-.53" stroke="#333" fill="none"/><path d="M879.6 298.1h132.5v60H879.6z" stroke="#000" stroke-opacity="0" stroke-width="2" fill="#fff" fill-opacity="0"/><g><use xlink:href="#h" transform="matrix(1,0,0,1,884.6019330021754,303.0879478827362) translate(0 30.025)"/><use xlink:href="#i" transform="matrix(1,0,0,1,884.6019330021754,303.0879478827362) translate(25 30.025)"/><use xlink:href="#j" transform="matrix(1,0,0,1,884.6019330021754,303.0879478827362) translate(35 30.025)"/><use xlink:href="#j" transform="matrix(1,0,0,1,884.6019330021754,303.0879478827362) translate(45 30.025)"/><use xlink:href="#j" transform="matrix(1,0,0,1,884.6019330021754,303.0879478827362) translate(55 30.025)"/><use xlink:href="#j" transform="matrix(1,0,0,1,884.6019330021754,303.0879478827362) translate(65 30.025)"/><use xlink:href="#j" transform="matrix(1,0,0,1,884.6019330021754,303.0879478827362) translate(75 30.025)"/><use xlink:href="#k" transform="matrix(1,0,0,1,884.6019330021754,303.0879478827362) translate(85 30.025)"/></g><path d="M228.3 328.1h31.67" stroke="#333" fill="none"/><path d="M228.3 328.6h-.5v-1h.5zM260.47 328.6h-.5v-1h.5z" fill="#333"/><path d="M747.94 328.1h32.28" stroke="#333" fill="none"/><path d="M747.96 328.6h-.52v-.1l.02-.4v-.5h.5zM780.72 328.6h-.5v-1h.5z" fill="#333"/><path d="M1269.4 328.1h35.96" stroke="#333" fill="none"/><path d="M1269.4 328.6h-.5v-1h.5zM1305.86 328.6h-.52v-1h.52z" fill="#333"/><defs><path d="M230 0v-605h-4L65-479H55v-86l174-135h86V0h-85" id="Z"/><use transform="matrix(0.022222222222222223,0,0,0.022222222222222223,0,0)" xlink:href="#Z" id="a"/><path d="M90 0v-511h73l7 86h4c28-71 87-100 181-92v81c-128-12-181 52-181 188V0H90" id="aa"/><path d="M281 9C121 9 50-108 50-255s73-265 231-265 231 118 231 265C512-109 441 9 281 9zm0-75c104 0 146-79 146-189s-42-190-146-190-146 81-146 190c0 110 43 189 146 189" id="ab"/><path d="M414-511h84v325C498-69 413 8 289 8S80-69 80-186v-325h84v311c0 81 36 133 125 133s125-52 125-133v-311" id="ac"/><path d="M90 0v-511h73l7 80h4c27-52 79-89 158-89 113 0 179 71 179 188V0h-84v-319c0-80-37-126-118-126-85 0-135 60-135 163V0H90" id="ad"/><path d="M267 9C133 9 51-91 50-256c1-151 73-264 217-264 76 0 127 35 154 80h4v-300h84V0h-73l-11-71h-4C394-26 343 9 267 9zm14-75c102 0 146-88 146-190 0-101-44-189-146-189-106 0-146 87-146 189 0 103 40 190 146 190" id="ae"/><g id="b"><use transform="matrix(0.022222222222222223,0,0,0.022222222222222223,0,0)" xlink:href="#aa"/><use transform="matrix(0.022222222222222223,0,0,0.022222222222222223,8.222222222222223,0)" xlink:href="#ab"/><use transform="matrix(0.022222222222222223,0,0,0.022222222222222223,20.711111111111112,0)" xlink:href="#ac"/><use transform="matrix(0.022222222222222223,0,0,0.022222222222222223,33.55555555555556,0)" xlink:href="#ad"/><use transform="matrix(0.022222222222222223,0,0,0.022222222222222223,46.68888888888889,0)" xlink:href="#ae"/></g><path d="M5-370v-72h466v72H5zm0 190v-72h466v72H5" id="af"/><use transform="matrix(0.022222222222222223,0,0,0.022222222222222223,0,0)" xlink:href="#af" id="c"/><path d="M314 9C133 9 70-143 70-352c0-208 63-360 244-360s244 152 244 360C558-143 495 9 314 9zm0-76c127 0 157-132 157-285 0-152-31-284-157-284S157-504 157-352c0 153 30 285 157 285" id="ag"/><path d="M301 9C161 9 70-72 70-194h84c1 72 51 128 146 128 93 0 145-52 145-130 4-106-92-142-216-131v-75c110 12 194-27 194-120 0-63-38-115-125-115-89 0-131 50-134 122H79c6-123 86-197 222-197 120 0 210 71 210 184 0 78-35 126-105 153v4c82 26 127 90 127 174C533-81 450 9 301 9" id="ah"/><g id="d"><use transform="matrix(0.022222222222222223,0,0,0.022222222222222223,0,0)" xlink:href="#Z"/><use transform="matrix(0.022222222222222223,0,0,0.022222222222222223,9.444444444444445,0)" xlink:href="#ag"/><use transform="matrix(0.022222222222222223,0,0,0.022222222222222223,23.400000000000002,0)" xlink:href="#ah"/></g><path d="M332 9c-76 0-127-35-154-80h-4L163 0H90v-740h84v300h4c27-45 78-80 154-80 144 0 216 113 217 264C548-91 466 9 332 9zm-14-75c106 0 146-87 146-190 0-102-40-189-146-189-102 0-146 88-146 189 0 102 44 190 146 190" id="ai"/><path d="M90 0v-740h84V0H90" id="aj"/><path d="M282 9C129 9 50-94 50-255c0-159 79-265 231-265 137 0 203 81 210 184h-84c-5-68-52-109-126-109-105 0-146 85-146 190 0 107 41 190 146 190 76 0 121-39 128-107h84C483-64 415 9 282 9" id="ak"/><path d="M90-740h84V0H90v-740zm192 453L495-10V0h-97L174-287l216-224h99v10" id="al"/><path d="M259 9C138 9 53-57 50-169h84c0 68 52 103 125 103 72 0 117-24 117-73 0-69-115-80-180-92-84-16-130-68-130-143 0-85 73-146 186-146 115 0 197 63 197 165h-82c-3-65-51-94-115-94-62 0-105 25-105 75 0 68 106 73 169 87 96 21 145 60 145 148C461-45 369 9 259 9" id="am"/><g id="e"><use transform="matrix(0.022222222222222223,0,0,0.022222222222222223,0,0)" xlink:href="#ai"/><use transform="matrix(0.022222222222222223,0,0,0.022222222222222223,13.311111111111112,0)" xlink:href="#aj"/><use transform="matrix(0.022222222222222223,0,0,0.022222222222222223,18.955555555555556,0)" xlink:href="#ab"/><use transform="matrix(0.022222222222222223,0,0,0.022222222222222223,31.44444444444444,0)" xlink:href="#ak"/><use transform="matrix(0.022222222222222223,0,0,0.022222222222222223,43.511111111111106,0)" xlink:href="#al"/><use transform="matrix(0.022222222222222223,0,0,0.022222222222222223,54.511111111111106,0)" xlink:href="#am"/></g><path d="M100 0v-700h95l358 557h4v-557h86V0h-96L189-554h-4V0h-85" id="an"/><path d="M282 9C131 9 50-105 50-255c0-148 73-265 231-265 158 2 232 123 221 290H138c0 97 49 164 144 164 67 0 115-28 129-82h84C481-54 391 9 282 9zM139-300h276c0-81-43-145-134-145-96 0-139 65-142 145" id="ao"/><path d="M165 0L20-501v-10h87l102 397h4l120-397h86l120 397h4l102-397h85v10L586 0h-87L379-397h-4L252 0h-87" id="ap"/><g id="f"><use transform="matrix(0.022222222222222223,0,0,0.022222222222222223,0,0)" xlink:href="#an"/><use transform="matrix(0.022222222222222223,0,0,0.022222222222222223,16.511111111111113,0)" xlink:href="#ao"/><use transform="matrix(0.022222222222222223,0,0,0.022222222222222223,28.77777777777778,0)" xlink:href="#ap"/></g><g id="g"><use transform="matrix(0.022222222222222223,0,0,0.022222222222222223,0,0)" xlink:href="#aa"/><use transform="matrix(0.022222222222222223,0,0,0.022222222222222223,8.222222222222223,0)" xlink:href="#ab"/><use transform="matrix(0.022222222222222223,0,0,0.022222222222222223,20.711111111111112,0)" xlink:href="#ac"/><use transform="matrix(0.022222222222222223,0,0,0.022222222222222223,33.55555555555556,0)" xlink:href="#ad"/><use transform="matrix(0.022222222222222223,0,0,0.022222222222222223,46.68888888888889,0)" xlink:href="#ae"/></g><path fill="#333" d="M24 0v-54h51V0H24" id="aq"/><use transform="matrix(0.05,0,0,0.05,0,0)" xlink:href="#aq" id="i"/><use transform="matrix(0.05,0,0,0.05,0,0)" xlink:href="#aq" id="j"/><use transform="matrix(0.05,0,0,0.05,0,0)" xlink:href="#aq" id="k"/><path d="M369 9C167 9 60-136 60-349c0-216 109-360 309-360 169 0 265 95 280 243h-90c-11-97-72-161-190-161-163 0-219 137-219 278S206-72 369-72c114 0 174-59 191-155h89C630-83 537 9 369 9" id="ar"/><path d="M650-520c113 0 176 73 176 188V0h-84v-319c0-78-35-126-113-126-80 0-128 60-128 163V0h-84v-319c0-78-35-126-113-126-80 0-130 60-130 163V0H90v-511h73l7 80h4c27-52 74-89 153-89 74 0 127 33 154 89h4c27-52 79-89 165-89" id="as"/><path d="M90 229v-740h73l11 71h4c27-45 78-80 154-80 134 0 216 100 217 265C548-104 476 9 332 9c-76 0-127-35-154-80h-4v300H90zM318-66c106 0 146-87 146-189 0-103-40-190-146-190-102 0-146 88-146 190 0 101 44 189 146 189" id="at"/><path d="M260 9C159 9 125-43 125-128v-312H40v-71h87v-109c28-9 49-24 82-28v137h125v71H209v305c0 49 21 70 67 70 30 1 39-6 60-6V1c-16 4-44 8-76 8" id="au"/><g id="l"><use transform="matrix(0.022222222222222223,0,0,0.022222222222222223,0,0)" xlink:href="#ar"/><use transform="matrix(0.022222222222222223,0,0,0.022222222222222223,15.755555555555556,0)" xlink:href="#ab"/><use transform="matrix(0.022222222222222223,0,0,0.022222222222222223,28.244444444444447,0)" xlink:href="#as"/><use transform="matrix(0.022222222222222223,0,0,0.022222222222222223,48.37777777777778,0)" xlink:href="#at"/><use transform="matrix(0.022222222222222223,0,0,0.022222222222222223,61.68888888888889,0)" xlink:href="#ac"/><use transform="matrix(0.022222222222222223,0,0,0.022222222222222223,74.53333333333333,0)" xlink:href="#au"/><use transform="matrix(0.022222222222222223,0,0,0.022222222222222223,83,0)" xlink:href="#ao"/></g><path d="M90 0v-740h84v309h4c27-52 77-89 156-89 113 0 181 71 181 188V0h-84v-319c0-80-39-126-120-126-83 0-137 62-137 165V0H90" id="av"/><g id="m"><use transform="matrix(0.022222222222222223,0,0,0.022222222222222223,0,0)" xlink:href="#au"/><use transform="matrix(0.022222222222222223,0,0,0.022222222222222223,8.466666666666667,0)" xlink:href="#av"/><use transform="matrix(0.022222222222222223,0,0,0.022222222222222223,21.68888888888889,0)" xlink:href="#ao"/></g><path d="M122 0v-441H31v-70h91v-89c-5-111 97-173 213-143v70c-66-16-129 3-129 73v89h124v70H206V0h-84" id="aw"/><g id="n"><use transform="matrix(0.022222222222222223,0,0,0.022222222222222223,0,0)" xlink:href="#aw"/><use transform="matrix(0.022222222222222223,0,0,0.022222222222222223,8.222222222222223,0)" xlink:href="#ac"/><use transform="matrix(0.022222222222222223,0,0,0.022222222222222223,21.06666666666667,0)" xlink:href="#au"/><use transform="matrix(0.022222222222222223,0,0,0.022222222222222223,29.53333333333334,0)" xlink:href="#ac"/><use transform="matrix(0.022222222222222223,0,0,0.022222222222222223,42.37777777777778,0)" xlink:href="#aa"/><use transform="matrix(0.022222222222222223,0,0,0.022222222222222223,50.60000000000001,0)" xlink:href="#ao"/></g><path d="M283 238C152 238 68 163 65 65h81c4 49 43 101 137 101 98 0 142-61 142-138v-99h-4C394-26 343 9 267 9 123 9 51-104 50-255c1-165 83-265 217-265 76 0 127 35 154 80h4l11-71h73V30c0 117-80 208-226 208zm-2-304c102 0 146-88 146-189 0-102-44-190-146-190-106 0-146 87-146 190 0 102 40 189 146 189" id="ax"/><g id="o"><use transform="matrix(0.022222222222222223,0,0,0.022222222222222223,0,0)" xlink:href="#aw"/><use transform="matrix(0.022222222222222223,0,0,0.022222222222222223,8.000000000000002,0)" xlink:href="#ab"/><use transform="matrix(0.022222222222222223,0,0,0.022222222222222223,20.48888888888889,0)" xlink:href="#aa"/><use transform="matrix(0.022222222222222223,0,0,0.022222222222222223,28.711111111111116,0)" xlink:href="#ax"/><use transform="matrix(0.022222222222222223,0,0,0.022222222222222223,41.800000000000004,0)" xlink:href="#ao"/><use transform="matrix(0.022222222222222223,0,0,0.022222222222222223,54.06666666666667,0)" xlink:href="#aa"/></g><path d="M132-609c-39 0-58-23-58-59 0-35 19-58 58-58 38 0 58 23 58 58 0 36-20 59-58 59zM90 0v-511h84V0H90" id="ay"/><g id="p"><use transform="matrix(0.022222222222222223,0,0,0.022222222222222223,0,0)" xlink:href="#aj"/><use transform="matrix(0.022222222222222223,0,0,0.022222222222222223,5.644444444444445,0)" xlink:href="#ay"/><use transform="matrix(0.022222222222222223,0,0,0.022222222222222223,11.28888888888889,0)" xlink:href="#am"/><use transform="matrix(0.022222222222222223,0,0,0.022222222222222223,22.644444444444446,0)" xlink:href="#au"/></g><g id="q"><use transform="matrix(0.022222222222222223,0,0,0.022222222222222223,0,0)" xlink:href="#am"/><use transform="matrix(0.022222222222222223,0,0,0.022222222222222223,11.355555555555556,0)" xlink:href="#ao"/><use transform="matrix(0.022222222222222223,0,0,0.022222222222222223,23.622222222222224,0)" xlink:href="#aj"/><use transform="matrix(0.022222222222222223,0,0,0.022222222222222223,29.26666666666667,0)" xlink:href="#ao"/><use transform="matrix(0.022222222222222223,0,0,0.022222222222222223,41.53333333333334,0)" xlink:href="#ak"/><use transform="matrix(0.022222222222222223,0,0,0.022222222222222223,53.600000000000016,0)" xlink:href="#au"/><use transform="matrix(0.022222222222222223,0,0,0.022222222222222223,62.06666666666668,0)" xlink:href="#ay"/><use transform="matrix(0.022222222222222223,0,0,0.022222222222222223,67.71111111111112,0)" xlink:href="#ad"/><use transform="matrix(0.022222222222222223,0,0,0.022222222222222223,80.84444444444446,0)" xlink:href="#ax"/></g><g id="r"><use transform="matrix(0.022222222222222223,0,0,0.022222222222222223,0,0)" xlink:href="#au"/><use transform="matrix(0.022222222222222223,0,0,0.022222222222222223,8.466666666666667,0)" xlink:href="#ab"/><use transform="matrix(0.022222222222222223,0,0,0.022222222222222223,20.955555555555556,0)" xlink:href="#at"/></g><g id="s"><use transform="matrix(0.022222222222222223,0,0,0.022222222222222223,0,0)" xlink:href="#Z"/><use transform="matrix(0.022222222222222223,0,0,0.022222222222222223,9.444444444444445,0)" xlink:href="#ag"/><use transform="matrix(0.022222222222222223,0,0,0.022222222222222223,23.400000000000002,0)" xlink:href="#Z"/></g><path d="M228 9C117 9 50-60 50-149c0-86 61-160 211-160 54 0 94 9 126 18 7-94-13-152-118-157-75 0-112 42-113 91H75c0-98 82-163 194-163 131 0 200 79 200 176V0h-71l-6-72h-4C357-20 300 9 228 9zm15-70c96-3 152-69 144-163-42-13-81-18-126-18-83 0-126 32-126 92 0 51 34 89 108 89" id="az"/><g id="t"><use transform="matrix(0.022222222222222223,0,0,0.022222222222222223,0,0)" xlink:href="#ae"/><use transform="matrix(0.022222222222222223,0,0,0.022222222222222223,13.088888888888889,0)" xlink:href="#ao"/><use transform="matrix(0.022222222222222223,0,0,0.022222222222222223,25.355555555555558,0)" xlink:href="#aj"/><use transform="matrix(0.022222222222222223,0,0,0.022222222222222223,31,0)" xlink:href="#ao"/><use transform="matrix(0.022222222222222223,0,0,0.022222222222222223,43.266666666666666,0)" xlink:href="#ax"/><use transform="matrix(0.022222222222222223,0,0,0.022222222222222223,56.355555555555554,0)" xlink:href="#az"/><use transform="matrix(0.022222222222222223,0,0,0.022222222222222223,68.55555555555556,0)" xlink:href="#au"/><use transform="matrix(0.022222222222222223,0,0,0.022222222222222223,77.02222222222223,0)" xlink:href="#ao"/><use transform="matrix(0.022222222222222223,0,0,0.022222222222222223,89.28888888888889,0)" xlink:href="#am"/></g><path d="M139 229v-10c28-75 61-150 86-225L20-501v-10h90l155 401h4l150-401h88v10L224 229h-85" id="aA"/><g id="u"><use transform="matrix(0.022222222222222223,0,0,0.022222222222222223,0,0)" xlink:href="#ai"/><use transform="matrix(0.022222222222222223,0,0,0.022222222222222223,13.088888888888889,0)" xlink:href="#aA"/></g><g id="v"><use transform="matrix(0.022222222222222223,0,0,0.022222222222222223,0,0)" xlink:href="#ae"/><use transform="matrix(0.022222222222222223,0,0,0.022222222222222223,13.088888888888889,0)" xlink:href="#ao"/><use transform="matrix(0.022222222222222223,0,0,0.022222222222222223,25.355555555555558,0)" xlink:href="#aj"/><use transform="matrix(0.022222222222222223,0,0,0.022222222222222223,31,0)" xlink:href="#ao"/><use transform="matrix(0.022222222222222223,0,0,0.022222222222222223,43.266666666666666,0)" xlink:href="#ax"/><use transform="matrix(0.022222222222222223,0,0,0.022222222222222223,56.355555555555554,0)" xlink:href="#az"/><use transform="matrix(0.022222222222222223,0,0,0.022222222222222223,68.55555555555556,0)" xlink:href="#au"/><use transform="matrix(0.022222222222222223,0,0,0.022222222222222223,77.02222222222223,0)" xlink:href="#ao"/></g><g id="w"><use transform="matrix(0.022222222222222223,0,0,0.022222222222222223,0,0)" xlink:href="#ap"/><use transform="matrix(0.022222222222222223,0,0,0.022222222222222223,16.666666666666668,0)" xlink:href="#ao"/><use transform="matrix(0.022222222222222223,0,0,0.022222222222222223,28.93333333333334,0)" xlink:href="#ay"/><use transform="matrix(0.022222222222222223,0,0,0.022222222222222223,34.57777777777778,0)" xlink:href="#ax"/><use transform="matrix(0.022222222222222223,0,0,0.022222222222222223,47.66666666666667,0)" xlink:href="#av"/><use transform="matrix(0.022222222222222223,0,0,0.022222222222222223,60.88888888888889,0)" xlink:href="#au"/></g><g id="x"><use transform="matrix(0.022222222222222223,0,0,0.022222222222222223,0,0)" xlink:href="#az"/><use transform="matrix(0.022222222222222223,0,0,0.022222222222222223,12.200000000000001,0)" xlink:href="#ad"/><use transform="matrix(0.022222222222222223,0,0,0.022222222222222223,25.333333333333336,0)" xlink:href="#ae"/></g><path d="M67 0v-66l239-279c72-84 100-116 100-175 0-68-41-116-125-116-82 0-131 47-131 132H65c0-122 79-208 216-208 133 0 212 82 212 189 0 78-42 130-129 231L183-82v4h321V0H67" id="aB"/><use transform="matrix(0.022222222222222223,0,0,0.022222222222222223,0,0)" xlink:href="#aB" id="y"/><g id="z"><use transform="matrix(0.022222222222222223,0,0,0.022222222222222223,0,0)" xlink:href="#aa"/><use transform="matrix(0.022222222222222223,0,0,0.022222222222222223,8.666666666666668,0)" xlink:href="#az"/><use transform="matrix(0.022222222222222223,0,0,0.022222222222222223,20.866666666666667,0)" xlink:href="#ad"/><use transform="matrix(0.022222222222222223,0,0,0.022222222222222223,34,0)" xlink:href="#ae"/><use transform="matrix(0.022222222222222223,0,0,0.022222222222222223,47.08888888888889,0)" xlink:href="#ab"/><use transform="matrix(0.022222222222222223,0,0,0.022222222222222223,59.57777777777778,0)" xlink:href="#as"/></g><g id="A"><use transform="matrix(0.022222222222222223,0,0,0.022222222222222223,0,0)" xlink:href="#am"/><use transform="matrix(0.022222222222222223,0,0,0.022222222222222223,11.355555555555556,0)" xlink:href="#au"/><use transform="matrix(0.022222222222222223,0,0,0.022222222222222223,19.822222222222223,0)" xlink:href="#az"/><use transform="matrix(0.022222222222222223,0,0,0.022222222222222223,32.022222222222226,0)" xlink:href="#ad"/><use transform="matrix(0.022222222222222223,0,0,0.022222222222222223,45.15555555555556,0)" xlink:href="#ae"/><use transform="matrix(0.022222222222222223,0,0,0.022222222222222223,58.24444444444445,0)" xlink:href="#ai"/><use transform="matrix(0.022222222222222223,0,0,0.022222222222222223,71.33333333333334,0)" xlink:href="#aA"/></g><path d="M119 9C80 9 60-16 60-52c0-35 20-60 59-60 38 0 59 25 59 60 0 36-21 61-59 61" id="aC"/><g id="B"><use transform="matrix(0.022222222222222223,0,0,0.022222222222222223,0,0)" xlink:href="#ae"/><use transform="matrix(0.022222222222222223,0,0,0.022222222222222223,13.088888888888889,0)" xlink:href="#ao"/><use transform="matrix(0.022222222222222223,0,0,0.022222222222222223,25.355555555555558,0)" xlink:href="#aj"/><use transform="matrix(0.022222222222222223,0,0,0.022222222222222223,31,0)" xlink:href="#ao"/><use transform="matrix(0.022222222222222223,0,0,0.022222222222222223,43.266666666666666,0)" xlink:href="#ax"/><use transform="matrix(0.022222222222222223,0,0,0.022222222222222223,56.355555555555554,0)" xlink:href="#az"/><use transform="matrix(0.022222222222222223,0,0,0.022222222222222223,68.55555555555556,0)" xlink:href="#au"/><use transform="matrix(0.022222222222222223,0,0,0.022222222222222223,77.02222222222223,0)" xlink:href="#ao"/><use transform="matrix(0.022222222222222223,0,0,0.022222222222222223,89.28888888888889,0)" xlink:href="#am"/><use transform="matrix(0.022222222222222223,0,0,0.022222222222222223,100.64444444444445,0)" xlink:href="#aC"/></g><path fill="#333" d="M70 0v-700h242c209 0 362 140 362 350C674-155 531 0 312 0H70zm147-139h86c131 0 211-65 211-211 0-145-80-210-211-210h-86v421" id="aD"/><path fill="#333" d="M284 9C119 9 25-111 25-261c0-148 86-271 256-271 180 0 265 131 250 312H182c1 61 32 104 102 104 57 0 82-28 91-52h149C510-74 427 9 284 9zM183-317h191c-3-50-32-89-93-89-66 0-95 39-98 89" id="aE"/><path fill="#333" d="M50 0v-740h154V0H50" id="aF"/><path fill="#333" d="M278 238C137 238 43 163 40 45h151c4 35 39 61 87 61 101-2 108-62 102-156h-4C351-20 311 9 237 9 105 9 25-105 25-261c0-157 80-271 212-271 74 0 114 29 139 59h4l16-50h138V25c0 131-110 213-256 213zm6-364c78 0 103-62 103-135s-27-136-103-136-103 63-103 136 25 135 103 135" id="aG"/><path fill="#333" d="M208 9C90 9 25-62 25-155c0-97 66-161 210-161 39 0 91 8 112 15 4-67-3-104-80-107-48 0-76 26-76 58H47c0-98 71-182 225-182 143 0 229 79 229 188V0H363l-11-47h-4C319-14 273 9 208 9zm39-120c65-1 102-37 100-85-54-26-171-27-170 33 0 30 24 52 70 52" id="aH"/><path fill="#333" d="M280 9C159 9 105-63 105-158v-234H20v-131h92v-109c50-9 95-22 147-28v137h125v131H259v197c-7 71 62 81 117 61h10V-6C370 0 329 9 280 9" id="aI"/><g id="C"><use transform="matrix(0.022222222222222223,0,0,0.022222222222222223,0,0)" xlink:href="#aD"/><use transform="matrix(0.022222222222222223,0,0,0.022222222222222223,15.644444444444446,0)" xlink:href="#aE"/><use transform="matrix(0.022222222222222223,0,0,0.022222222222222223,28,0)" xlink:href="#aF"/><use transform="matrix(0.022222222222222223,0,0,0.022222222222222223,33.422222222222224,0)" xlink:href="#aE"/><use transform="matrix(0.022222222222222223,0,0,0.022222222222222223,45.77777777777778,0)" xlink:href="#aG"/><use transform="matrix(0.022222222222222223,0,0,0.022222222222222223,58.53333333333334,0)" xlink:href="#aH"/><use transform="matrix(0.022222222222222223,0,0,0.022222222222222223,70.55555555555556,0)" xlink:href="#aI"/><use transform="matrix(0.022222222222222223,0,0,0.022222222222222223,80.13333333333334,0)" xlink:href="#aE"/></g><path fill="#333" d="M170 0L10-690v-10h169l93 483h4l112-483h174l114 483h4l92-483h167v10L779 0H576l-98-463h-4L373 0H170" id="aJ"/><path fill="#333" d="M128-576c-61 0-93-34-93-90 0-55 32-89 93-89 59 0 93 34 93 89 0 56-34 90-93 90zM50 0v-523h154V0H50" id="aK"/><path fill="#333" d="M50 0v-740h154v267h4c29-34 75-59 143-59 116 0 194 72 194 188V0H391v-296c0-60-27-96-88-96-55 0-99 39-99 102V0H50" id="aL"/><path fill="#333" d="M257 9C94 9 28-70 25-177h154c0 29 23 58 78 58 96 2 96-67 21-79-116-18-235-41-237-179 0-85 75-155 215-155 136 0 218 78 218 175H322c1-24-17-54-69-54-69-5-82 61-22 72 122 22 252 27 255 181C486-50 390 9 257 9" id="aM"/><g id="D"><use transform="matrix(0.022222222222222223,0,0,0.022222222222222223,0,0)" xlink:href="#aJ"/><use transform="matrix(0.022222222222222223,0,0,0.022222222222222223,20.42222222222222,0)" xlink:href="#aE"/><use transform="matrix(0.022222222222222223,0,0,0.022222222222222223,32.77777777777778,0)" xlink:href="#aK"/><use transform="matrix(0.022222222222222223,0,0,0.022222222222222223,38.2,0)" xlink:href="#aG"/><use transform="matrix(0.022222222222222223,0,0,0.022222222222222223,50.95555555555557,0)" xlink:href="#aL"/><use transform="matrix(0.022222222222222223,0,0,0.022222222222222223,63.955555555555556,0)" xlink:href="#aI"/><use transform="matrix(0.022222222222222223,0,0,0.022222222222222223,73.53333333333335,0)" xlink:href="#aM"/></g><path fill="#333" d="M394-700L652-10V0h-93l-66-183H187L121 0H30v-10l257-690h107zM215-261h250L342-603h-4" id="aN"/><use transform="matrix(0.022222222222222223,0,0,0.022222222222222223,0,0)" xlink:href="#aN" id="E"/><path fill="#333" d="M90 0v-740h84V0H90" id="aO"/><path fill="#333" d="M132-609c-39 0-58-23-58-59 0-35 19-58 58-58 38 0 58 23 58 58 0 36-20 59-58 59zM90 0v-511h84V0H90" id="aP"/><path fill="#333" d="M259 9C138 9 53-57 50-169h84c0 68 52 103 125 103 72 0 117-24 117-73 0-69-115-80-180-92-84-16-130-68-130-143 0-85 73-146 186-146 115 0 197 63 197 165h-82c-3-65-51-94-115-94-62 0-105 25-105 75 0 68 106 73 169 87 96 21 145 60 145 148C461-45 369 9 259 9" id="aQ"/><path fill="#333" d="M260 9C159 9 125-43 125-128v-312H40v-71h87v-109c28-9 49-24 82-28v137h125v71H209v305c0 49 21 70 67 70 30 1 39-6 60-6V1c-16 4-44 8-76 8" id="aR"/><g id="F"><use transform="matrix(0.022222222222222223,0,0,0.022222222222222223,0,0)" xlink:href="#aO"/><use transform="matrix(0.022222222222222223,0,0,0.022222222222222223,5.644444444444445,0)" xlink:href="#aP"/><use transform="matrix(0.022222222222222223,0,0,0.022222222222222223,11.28888888888889,0)" xlink:href="#aQ"/><use transform="matrix(0.022222222222222223,0,0,0.022222222222222223,22.644444444444446,0)" xlink:href="#aR"/></g><path fill="#333" d="M281 9C121 9 50-108 50-255s73-265 231-265 231 118 231 265C512-109 441 9 281 9zm0-75c104 0 146-79 146-189s-42-190-146-190-146 81-146 190c0 110 43 189 146 189" id="aS"/><path fill="#333" d="M122 0v-441H31v-70h91v-89c-5-111 97-173 213-143v70c-66-16-129 3-129 73v89h124v70H206V0h-84" id="aT"/><g id="G"><use transform="matrix(0.022222222222222223,0,0,0.022222222222222223,0,0)" xlink:href="#aS"/><use transform="matrix(0.022222222222222223,0,0,0.022222222222222223,12.488888888888889,0)" xlink:href="#aT"/></g><path fill="#333" d="M228 9C117 9 50-60 50-149c0-86 61-160 211-160 54 0 94 9 126 18 7-94-13-152-118-157-75 0-112 42-113 91H75c0-98 82-163 194-163 131 0 200 79 200 176V0h-71l-6-72h-4C357-20 300 9 228 9zm15-70c96-3 152-69 144-163-42-13-81-18-126-18-83 0-126 32-126 92 0 51 34 89 108 89" id="aU"/><g id="H"><use transform="matrix(0.022222222222222223,0,0,0.022222222222222223,0,0)" xlink:href="#aU"/><use transform="matrix(0.022222222222222223,0,0,0.022222222222222223,12.200000000000001,0)" xlink:href="#aO"/><use transform="matrix(0.022222222222222223,0,0,0.022222222222222223,17.844444444444445,0)" xlink:href="#aO"/></g><path fill="#333" d="M267 9C133 9 51-91 50-256c1-151 73-264 217-264 76 0 127 35 154 80h4v-300h84V0h-73l-11-71h-4C394-26 343 9 267 9zm14-75c102 0 146-88 146-190 0-101-44-189-146-189-106 0-146 87-146 189 0 103 40 190 146 190" id="aV"/><path fill="#333" d="M282 9C131 9 50-105 50-255c0-148 73-265 231-265 158 2 232 123 221 290H138c0 97 49 164 144 164 67 0 115-28 129-82h84C481-54 391 9 282 9zM139-300h276c0-81-43-145-134-145-96 0-139 65-142 145" id="aW"/><path fill="#333" d="M283 238C152 238 68 163 65 65h81c4 49 43 101 137 101 98 0 142-61 142-138v-99h-4C394-26 343 9 267 9 123 9 51-104 50-255c1-165 83-265 217-265 76 0 127 35 154 80h4l11-71h73V30c0 117-80 208-226 208zm-2-304c102 0 146-88 146-189 0-102-44-190-146-190-106 0-146 87-146 190 0 102 40 189 146 189" id="aX"/><g id="I"><use transform="matrix(0.022222222222222223,0,0,0.022222222222222223,0,0)" xlink:href="#aV"/><use transform="matrix(0.022222222222222223,0,0,0.022222222222222223,13.088888888888889,0)" xlink:href="#aW"/><use transform="matrix(0.022222222222222223,0,0,0.022222222222222223,25.355555555555558,0)" xlink:href="#aO"/><use transform="matrix(0.022222222222222223,0,0,0.022222222222222223,31,0)" xlink:href="#aW"/><use transform="matrix(0.022222222222222223,0,0,0.022222222222222223,43.266666666666666,0)" xlink:href="#aX"/><use transform="matrix(0.022222222222222223,0,0,0.022222222222222223,56.355555555555554,0)" xlink:href="#aU"/><use transform="matrix(0.022222222222222223,0,0,0.022222222222222223,68.55555555555556,0)" xlink:href="#aR"/><use transform="matrix(0.022222222222222223,0,0,0.022222222222222223,77.02222222222223,0)" xlink:href="#aW"/><use transform="matrix(0.022222222222222223,0,0,0.022222222222222223,89.28888888888889,0)" xlink:href="#aQ"/></g><path fill="#333" d="M165 0L20-501v-10h87l102 397h4l120-397h86l120 397h4l102-397h85v10L586 0h-87L379-397h-4L252 0h-87" id="aY"/><path fill="#333" d="M90 0v-740h84v309h4c27-52 77-89 156-89 113 0 181 71 181 188V0h-84v-319c0-80-39-126-120-126-83 0-137 62-137 165V0H90" id="aZ"/><g id="J"><use transform="matrix(0.022222222222222223,0,0,0.022222222222222223,0,0)" xlink:href="#aY"/><use transform="matrix(0.022222222222222223,0,0,0.022222222222222223,16.666666666666668,0)" xlink:href="#aP"/><use transform="matrix(0.022222222222222223,0,0,0.022222222222222223,22.311111111111114,0)" xlink:href="#aR"/><use transform="matrix(0.022222222222222223,0,0,0.022222222222222223,30.77777777777778,0)" xlink:href="#aZ"/></g><path fill="#333" d="M90 0v-511h73l7 86h4c28-71 87-100 181-92v81c-128-12-181 52-181 188V0H90" id="ba"/><g id="K"><use transform="matrix(0.022222222222222223,0,0,0.022222222222222223,0,0)" xlink:href="#aR"/><use transform="matrix(0.022222222222222223,0,0,0.022222222222222223,8.466666666666667,0)" xlink:href="#aZ"/><use transform="matrix(0.022222222222222223,0,0,0.022222222222222223,21.68888888888889,0)" xlink:href="#aW"/><use transform="matrix(0.022222222222222223,0,0,0.022222222222222223,33.955555555555556,0)" xlink:href="#aP"/><use transform="matrix(0.022222222222222223,0,0,0.022222222222222223,39.6,0)" xlink:href="#ba"/></g><g id="L"><use transform="matrix(0.022222222222222223,0,0,0.022222222222222223,0,0)" xlink:href="#aY"/><use transform="matrix(0.022222222222222223,0,0,0.022222222222222223,16.666666666666668,0)" xlink:href="#aW"/><use transform="matrix(0.022222222222222223,0,0,0.022222222222222223,28.93333333333334,0)" xlink:href="#aP"/><use transform="matrix(0.022222222222222223,0,0,0.022222222222222223,34.57777777777778,0)" xlink:href="#aX"/><use transform="matrix(0.022222222222222223,0,0,0.022222222222222223,47.66666666666667,0)" xlink:href="#aZ"/><use transform="matrix(0.022222222222222223,0,0,0.022222222222222223,60.88888888888889,0)" xlink:href="#aR"/><use transform="matrix(0.022222222222222223,0,0,0.022222222222222223,69.35555555555555,0)" xlink:href="#aQ"/></g><g id="M"><use transform="matrix(0.022222222222222223,0,0,0.022222222222222223,0,0)" xlink:href="#aU"/><use transform="matrix(0.022222222222222223,0,0,0.022222222222222223,12.200000000000001,0)" xlink:href="#aR"/></g><g id="N"><use transform="matrix(0.022222222222222223,0,0,0.022222222222222223,0,0)" xlink:href="#aR"/><use transform="matrix(0.022222222222222223,0,0,0.022222222222222223,8.466666666666667,0)" xlink:href="#aZ"/><use transform="matrix(0.022222222222222223,0,0,0.022222222222222223,21.68888888888889,0)" xlink:href="#aW"/></g><path fill="#333" d="M90 0v-511h73l7 80h4c27-52 79-89 158-89 113 0 179 71 179 188V0h-84v-319c0-80-37-126-118-126-85 0-135 60-135 163V0H90" id="bb"/><g id="O"><use transform="matrix(0.022222222222222223,0,0,0.022222222222222223,0,0)" xlink:href="#aW"/><use transform="matrix(0.022222222222222223,0,0,0.022222222222222223,12.266666666666667,0)" xlink:href="#bb"/><use transform="matrix(0.022222222222222223,0,0,0.022222222222222223,25.400000000000002,0)" xlink:href="#aV"/></g><g id="P"><use transform="matrix(0.022222222222222223,0,0,0.022222222222222223,0,0)" xlink:href="#aS"/><use transform="matrix(0.022222222222222223,0,0,0.022222222222222223,12.488888888888889,0)" xlink:href="#aT"/></g><path fill="#333" d="M414-511h84v325C498-69 413 8 289 8S80-69 80-186v-325h84v311c0 81 36 133 125 133s125-52 125-133v-311" id="bc"/><path fill="#333" d="M119 9C80 9 60-16 60-52c0-35 20-60 59-60 38 0 59 25 59 60 0 36-21 61-59 61" id="bd"/><g id="Q"><use transform="matrix(0.022222222222222223,0,0,0.022222222222222223,0,0)" xlink:href="#ba"/><use transform="matrix(0.022222222222222223,0,0,0.022222222222222223,8.222222222222223,0)" xlink:href="#aS"/><use transform="matrix(0.022222222222222223,0,0,0.022222222222222223,20.711111111111112,0)" xlink:href="#bc"/><use transform="matrix(0.022222222222222223,0,0,0.022222222222222223,33.55555555555556,0)" xlink:href="#bb"/><use transform="matrix(0.022222222222222223,0,0,0.022222222222222223,46.68888888888889,0)" xlink:href="#aV"/><use transform="matrix(0.022222222222222223,0,0,0.022222222222222223,59.77777777777778,0)" xlink:href="#bd"/></g><path fill="#333" d="M70 0v-700h500v140H227v149h312v140H227V0H70" id="be"/><path fill="#333" d="M286 9C116 9 25-104 25-261s93-271 261-271 261 114 261 271C547-105 456 9 286 9zm0-135c64 0 104-40 104-135s-40-136-104-136-104 42-104 136c0 95 41 135 104 135" id="bf"/><path fill="#333" d="M50 0v-523h128l12 76h4c27-55 81-94 170-85v141c-106-11-170 29-170 133V0H50" id="bg"/><g id="R"><use transform="matrix(0.022222222222222223,0,0,0.022222222222222223,0,0)" xlink:href="#be"/><use transform="matrix(0.022222222222222223,0,0,0.022222222222222223,13.555555555555555,0)" xlink:href="#bf"/><use transform="matrix(0.022222222222222223,0,0,0.022222222222222223,26.26666666666667,0)" xlink:href="#bg"/><use transform="matrix(0.022222222222222223,0,0,0.022222222222222223,34.91111111111111,0)" xlink:href="#aG"/><use transform="matrix(0.022222222222222223,0,0,0.022222222222222223,47.66666666666667,0)" xlink:href="#aE"/><use transform="matrix(0.022222222222222223,0,0,0.022222222222222223,60.022222222222226,0)" xlink:href="#bg"/></g><path fill="#333" d="M70 0v-700h157v560h318V0H70" id="bh"/><g id="S"><use transform="matrix(0.022222222222222223,0,0,0.022222222222222223,0,0)" xlink:href="#bh"/><use transform="matrix(0.022222222222222223,0,0,0.022222222222222223,12.333333333333334,0)" xlink:href="#aK"/><use transform="matrix(0.022222222222222223,0,0,0.022222222222222223,17.755555555555556,0)" xlink:href="#aM"/><use transform="matrix(0.022222222222222223,0,0,0.022222222222222223,29.11111111111111,0)" xlink:href="#aI"/></g><g id="T"><use transform="matrix(0.022222222222222223,0,0,0.022222222222222223,0,0)" xlink:href="#aN"/><use transform="matrix(0.022222222222222223,0,0,0.022222222222222223,14.933333333333337,0)" xlink:href="#bb"/></g><g id="U"><use transform="matrix(0.022222222222222223,0,0,0.022222222222222223,0,0)" xlink:href="#aS"/><use transform="matrix(0.022222222222222223,0,0,0.022222222222222223,12.488888888888889,0)" xlink:href="#ba"/><use transform="matrix(0.022222222222222223,0,0,0.022222222222222223,20.711111111111112,0)" xlink:href="#aV"/><use transform="matrix(0.022222222222222223,0,0,0.022222222222222223,33.8,0)" xlink:href="#aW"/><use transform="matrix(0.022222222222222223,0,0,0.022222222222222223,46.066666666666656,0)" xlink:href="#ba"/><use transform="matrix(0.022222222222222223,0,0,0.022222222222222223,54.28888888888889,0)" xlink:href="#aW"/><use transform="matrix(0.022222222222222223,0,0,0.022222222222222223,66.55555555555556,0)" xlink:href="#aV"/></g><g id="V"><use transform="matrix(0.022222222222222223,0,0,0.022222222222222223,0,0)" xlink:href="#aR"/><use transform="matrix(0.022222222222222223,0,0,0.022222222222222223,8.466666666666667,0)" xlink:href="#aZ"/><use transform="matrix(0.022222222222222223,0,0,0.022222222222222223,21.68888888888889,0)" xlink:href="#aW"/></g><g id="W"><use transform="matrix(0.022222222222222223,0,0,0.022222222222222223,0,0)" xlink:href="#aT"/><use transform="matrix(0.022222222222222223,0,0,0.022222222222222223,8.000000000000002,0)" xlink:href="#aS"/><use transform="matrix(0.022222222222222223,0,0,0.022222222222222223,20.48888888888889,0)" xlink:href="#ba"/><use transform="matrix(0.022222222222222223,0,0,0.022222222222222223,28.711111111111116,0)" xlink:href="#aX"/><use transform="matrix(0.022222222222222223,0,0,0.022222222222222223,41.800000000000004,0)" xlink:href="#aP"/><use transform="matrix(0.022222222222222223,0,0,0.022222222222222223,47.44444444444444,0)" xlink:href="#bb"/><use transform="matrix(0.022222222222222223,0,0,0.022222222222222223,60.57777777777778,0)" xlink:href="#aX"/></g><g id="X"><use transform="matrix(0.022222222222222223,0,0,0.022222222222222223,0,0)" xlink:href="#aT"/><use transform="matrix(0.022222222222222223,0,0,0.022222222222222223,8.000000000000002,0)" xlink:href="#aS"/><use transform="matrix(0.022222222222222223,0,0,0.022222222222222223,20.48888888888889,0)" xlink:href="#ba"/></g><g id="Y"><use transform="matrix(0.022222222222222223,0,0,0.022222222222222223,0,0)" xlink:href="#aR"/><use transform="matrix(0.022222222222222223,0,0,0.022222222222222223,8.466666666666667,0)" xlink:href="#aZ"/><use transform="matrix(0.022222222222222223,0,0,0.022222222222222223,21.68888888888889,0)" xlink:href="#aP"/><use transform="matrix(0.022222222222222223,0,0,0.022222222222222223,27.333333333333336,0)" xlink:href="#aQ"/></g></defs></g></svg>