<svg xmlns="http://www.w3.org/2000/svg" xmlns:xlink="http://www.w3.org/1999/xlink" xmlns:lucid="lucid" width="360" height="440"><g transform="translate(-40 -31.96850393700788)" lucid:page-tab-id="0_0"><path d="M220 313.6v36.75" stroke="#000" stroke-width="3" fill="none"/><path d="M220 297.82l4.64 14.27h-9.28zM220 366.1l-4.64-14.25h9.28z" stroke="#000" stroke-width="3"/><path d="M60 51.97h320v80H60z" stroke="#000" stroke-width="2" fill="#f7f9fd"/><use xlink:href="#a" transform="matrix(1,0,0,1,65,56.96850393700788) translate(72.9111111111111 42.986111111111114)"/><use xlink:href="#b" transform="matrix(1,0,0,1,65,56.96850393700788) translate(120.24444444444443 42.986111111111114)"/><path d="M60 211.97h320v80H60z" stroke="#000" stroke-width="2" fill="#f7f9fd"/><use xlink:href="#a" transform="matrix(1,0,0,1,65,216.96850393700788) translate(110.58888888888889 42.986111111111114)"/><use xlink:href="#c" transform="matrix(1,0,0,1,65,216.96850393700788) translate(157.92222222222222 42.986111111111114)"/><path d="M60 371.97h320v80H60z" stroke="#000" stroke-width="2" fill="#f7f9fd"/><use xlink:href="#d" transform="matrix(1,0,0,1,65,376.9685039370079) translate(98.87777777777778 42.986111111111114)"/><path d="M220 153.6v36.75" stroke="#000" stroke-width="3" fill="none"/><path d="M220 137.82l4.64 14.27h-9.28zM220 206.1l-4.64-14.25h9.28z" stroke="#000" stroke-width="3"/><defs><path d="M100 0v-700h87v620h338V0H100" id="e"/><path d="M132-609c-39 0-58-23-58-59 0-35 19-58 58-58 38 0 58 23 58 58 0 36-20 59-58 59zM90 0v-511h84V0H90" id="f"/><path d="M259 9C138 9 53-57 50-169h84c0 68 52 103 125 103 72 0 117-24 117-73 0-69-115-80-180-92-84-16-130-68-130-143 0-85 73-146 186-146 115 0 197 63 197 165h-82c-3-65-51-94-115-94-62 0-105 25-105 75 0 68 106 73 169 87 96 21 145 60 145 148C461-45 369 9 259 9" id="g"/><path d="M90-740h84V0H90v-740zm192 453L495-10V0h-97L174-287l216-224h99v10" id="h"/><g id="a"><use transform="matrix(0.022222222222222223,0,0,0.022222222222222223,0,0)" xlink:href="#e"/><use transform="matrix(0.022222222222222223,0,0,0.022222222222222223,12.222222222222223,0)" xlink:href="#f"/><use transform="matrix(0.022222222222222223,0,0,0.022222222222222223,17.866666666666667,0)" xlink:href="#g"/><use transform="matrix(0.022222222222222223,0,0,0.022222222222222223,29.222222222222225,0)" xlink:href="#h"/></g><path d="M394-700L652-10V0h-93l-66-183H187L121 0H30v-10l257-690h107zM215-261h250L342-603h-4" id="i"/><path d="M90 229v-740h73l11 71h4c27-45 78-80 154-80 134 0 216 100 217 265C548-104 476 9 332 9c-76 0-127-35-154-80h-4v300H90zM318-66c106 0 146-87 146-189 0-103-40-190-146-190-102 0-146 88-146 190 0 101 44 189 146 189" id="j"/><path d="M90 0v-740h84V0H90" id="k"/><path d="M282 9C129 9 50-94 50-255c0-159 79-265 231-265 137 0 203 81 210 184h-84c-5-68-52-109-126-109-105 0-146 85-146 190 0 107 41 190 146 190 76 0 121-39 128-107h84C483-64 415 9 282 9" id="l"/><path d="M228 9C117 9 50-60 50-149c0-86 61-160 211-160 54 0 94 9 126 18 7-94-13-152-118-157-75 0-112 42-113 91H75c0-98 82-163 194-163 131 0 200 79 200 176V0h-71l-6-72h-4C357-20 300 9 228 9zm15-70c96-3 152-69 144-163-42-13-81-18-126-18-83 0-126 32-126 92 0 51 34 89 108 89" id="m"/><path d="M260 9C159 9 125-43 125-128v-312H40v-71h87v-109c28-9 49-24 82-28v137h125v71H209v305c0 49 21 70 67 70 30 1 39-6 60-6V1c-16 4-44 8-76 8" id="n"/><path d="M281 9C121 9 50-108 50-255s73-265 231-265 231 118 231 265C512-109 441 9 281 9zm0-75c104 0 146-79 146-189s-42-190-146-190-146 81-146 190c0 110 43 189 146 189" id="o"/><path d="M90 0v-511h73l7 80h4c27-52 79-89 158-89 113 0 179 71 179 188V0h-84v-319c0-80-37-126-118-126-85 0-135 60-135 163V0H90" id="p"/><g id="b"><use transform="matrix(0.022222222222222223,0,0,0.022222222222222223,0,0)" xlink:href="#i"/><use transform="matrix(0.022222222222222223,0,0,0.022222222222222223,14.933333333333337,0)" xlink:href="#j"/><use transform="matrix(0.022222222222222223,0,0,0.022222222222222223,28.244444444444447,0)" xlink:href="#j"/><use transform="matrix(0.022222222222222223,0,0,0.022222222222222223,41.55555555555556,0)" xlink:href="#k"/><use transform="matrix(0.022222222222222223,0,0,0.022222222222222223,47.2,0)" xlink:href="#f"/><use transform="matrix(0.022222222222222223,0,0,0.022222222222222223,52.84444444444445,0)" xlink:href="#l"/><use transform="matrix(0.022222222222222223,0,0,0.022222222222222223,64.91111111111111,0)" xlink:href="#m"/><use transform="matrix(0.022222222222222223,0,0,0.022222222222222223,77.11111111111111,0)" xlink:href="#n"/><use transform="matrix(0.022222222222222223,0,0,0.022222222222222223,85.57777777777778,0)" xlink:href="#f"/><use transform="matrix(0.022222222222222223,0,0,0.022222222222222223,91.22222222222223,0)" xlink:href="#o"/><use transform="matrix(0.022222222222222223,0,0,0.022222222222222223,103.71111111111111,0)" xlink:href="#p"/></g><path d="M100 0v-700h258c143 0 231 91 231 221 0 134-90 225-231 225H187V0h-87zm87-334h160c97 0 152-51 152-145 0-90-58-142-152-142H187v287" id="q"/><path d="M67 0v-66l239-279c72-84 100-116 100-175 0-68-41-116-125-116-82 0-131 47-131 132H65c0-122 79-208 216-208 133 0 212 82 212 189 0 78-42 130-129 231L183-82v4h321V0H67" id="r"/><g id="c"><use transform="matrix(0.022222222222222223,0,0,0.022222222222222223,0,0)" xlink:href="#q"/><use transform="matrix(0.022222222222222223,0,0,0.022222222222222223,14.422222222222222,0)" xlink:href="#r"/><use transform="matrix(0.022222222222222223,0,0,0.022222222222222223,27.066666666666666,0)" xlink:href="#q"/></g><path d="M202 0L30-690v-10h85l134 564h4l154-564h90l156 564h4l133-564h86v10L702 0h-88L455-559h-4L289 0h-87" id="s"/><path d="M282 9C131 9 50-105 50-255c0-148 73-265 231-265 158 2 232 123 221 290H138c0 97 49 164 144 164 67 0 115-28 129-82h84C481-54 391 9 282 9zM139-300h276c0-81-43-145-134-145-96 0-139 65-142 145" id="t"/><path d="M332 9c-76 0-127-35-154-80h-4L163 0H90v-740h84v300h4c27-45 78-80 154-80 144 0 216 113 217 264C548-91 466 9 332 9zm-14-75c106 0 146-87 146-190 0-102-40-189-146-189-102 0-146 88-146 189 0 102 44 190 146 190" id="u"/><g id="d"><use transform="matrix(0.022222222222222223,0,0,0.022222222222222223,0,0)" xlink:href="#s"/><use transform="matrix(0.022222222222222223,0,0,0.022222222222222223,19.022222222222222,0)" xlink:href="#t"/><use transform="matrix(0.022222222222222223,0,0,0.022222222222222223,31.28888888888889,0)" xlink:href="#u"/><use transform="matrix(0.022222222222222223,0,0,0.022222222222222223,44.6,0)" xlink:href="#g"/><use transform="matrix(0.022222222222222223,0,0,0.022222222222222223,55.955555555555556,0)" xlink:href="#o"/><use transform="matrix(0.022222222222222223,0,0,0.022222222222222223,68.44444444444444,0)" xlink:href="#l"/><use transform="matrix(0.022222222222222223,0,0,0.022222222222222223,80.5111111111111,0)" xlink:href="#h"/><use transform="matrix(0.022222222222222223,0,0,0.022222222222222223,91.51111111111112,0)" xlink:href="#t"/><use transform="matrix(0.022222222222222223,0,0,0.022222222222222223,103.77777777777776,0)" xlink:href="#n"/></g></defs></g></svg>