<?xml version="1.0" encoding="UTF-8" standalone="no"?><svg xmlns="http://www.w3.org/2000/svg" xmlns:xlink="http://www.w3.org/1999/xlink" contentScriptType="application/ecmascript" contentStyleType="text/css" height="255px" preserveAspectRatio="none" style="width:470px;height:255px;" version="1.1" viewBox="0 0 470 255" width="470px" zoomAndPan="magnify"><defs><filter height="300%" id="f2m7getafclxg" width="300%" x="-1" y="-1"><feGaussianBlur result="blurOut" stdDeviation="2.0"/><feColorMatrix in="blurOut" result="blurOut2" type="matrix" values="0 0 0 0 0 0 0 0 0 0 0 0 0 0 0 0 0 0 .4 0"/><feOffset dx="4.0" dy="4.0" in="blurOut2" result="blurOut3"/><feBlend in="SourceGraphic" in2="blurOut3" mode="normal"/></filter></defs><g><!--MD5=[0ba5ee7700168656dc1b457c6fe9fdac]
entity Client--><rect fill="#FEFECE" filter="url(#f2m7getafclxg)" height="36.2969" style="stroke: #A80036; stroke-width: 1.5;" width="59" x="9" y="8"/><text fill="#000000" font-family="sans-serif" font-size="14" lengthAdjust="spacingAndGlyphs" textLength="39" x="19" y="30.9951">Client</text><!--MD5=[2c5a11ccae52a2fee7ee18a689efa1cd]
entity 2nd_node--><rect fill="#FEFECE" filter="url(#f2m7getafclxg)" height="36.2969" style="stroke: #A80036; stroke-width: 1.5;" width="90" x="34.5" y="121"/><text fill="#000000" font-family="sans-serif" font-size="14" lengthAdjust="spacingAndGlyphs" textLength="70" x="44.5" y="143.9951">2nd_node</text><!--MD5=[e51296a1580e0172c3b5b7be8520ff5e]
entity seed_node--><rect fill="#FEFECE" filter="url(#f2m7getafclxg)" height="36.2969" style="stroke: #A80036; stroke-width: 1.5;" width="98" x="253.5" y="121"/><text fill="#000000" font-family="sans-serif" font-size="14" lengthAdjust="spacingAndGlyphs" textLength="78" x="263.5" y="143.9951">seed_node</text><ellipse cx="121.3492" cy="26.0236" fill="#FEFECE" filter="url(#f2m7getafclxg)" rx="17.8492" ry="14.5236" style="stroke: #A80036; stroke-width: 1.5;"/><text fill="#000000" font-family="sans-serif" font-size="14" lengthAdjust="spacingAndGlyphs" textLength="21" x="110.8492" y="30.6721">IoT</text><path d="M166.5,218 L166.5,243.1328 A0,0 0 0 0 166.5,243.1328 L458.5,243.1328 A0,0 0 0 0 458.5,243.1328 L458.5,228 L448.5,218 L315.1076,218 L304.4757,157.0775 L307.1076,218 L166.5,218 A0,0 0 0 0 166.5,218 " fill="#FBFB77" filter="url(#f2m7getafclxg)" style="stroke: #A80036; stroke-width: 1.0;"/><path d="M448.5,218 L448.5,228 L458.5,228 L448.5,218 " fill="#FBFB77" style="stroke: #A80036; stroke-width: 1.0;"/><text fill="#000000" font-family="sans-serif" font-size="13" lengthAdjust="spacingAndGlyphs" textLength="271" x="172.5" y="235.0669">Forging enabled for 101 genesis delegates</text><path d="M6,218 L6,243.1328 A0,0 0 0 0 6,243.1328 L131,243.1328 A0,0 0 0 0 131,243.1328 L131,228 L121,218 L74.0317,218 L77.3268,157.0775 L66.0317,218 L6,218 A0,0 0 0 0 6,218 " fill="#FBFB77" filter="url(#f2m7getafclxg)" style="stroke: #A80036; stroke-width: 1.0;"/><path d="M121,218 L121,228 L131,228 L121,218 " fill="#FBFB77" style="stroke: #A80036; stroke-width: 1.0;"/><text fill="#000000" font-family="sans-serif" font-size="13" lengthAdjust="spacingAndGlyphs" textLength="104" x="12" y="235.0669">Forging disabled</text><!--MD5=[e37cbfde2ef2bf8b6497c87462563c1c]
link Client to 2nd_node--><path d="M37.6795,49.4606 C37.9668,62.1292 39.526,77.8269 44.5,91 C47.9428,100.1179 53.6131,109.0449 59.3973,116.6795 " fill="none" id="Client-2nd_node" style="stroke: #A80036; stroke-width: 1.0;"/><polygon fill="#A80036" points="62.609,120.781,60.2095,111.2289,59.5263,116.8444,53.9109,116.1612,62.609,120.781" style="stroke: #A80036; stroke-width: 1.0;"/><polygon fill="#A80036" points="37.6279,44.2329,33.7168,53.2719,37.6772,49.2327,41.7164,53.193,37.6279,44.2329" style="stroke: #A80036; stroke-width: 1.0;"/><text fill="#000000" font-family="sans-serif" font-size="13" lengthAdjust="spacingAndGlyphs" textLength="32" x="45.5" y="87.0669">HTTP</text><!--MD5=[9aa7161ad046b1765ea8198936c55f4c]
link IoT to 2nd_node--><path d="M114.3899,45.1297 C107.1299,64.6624 95.8544,94.999 88.0974,115.869 " fill="none" id="IoT-2nd_node" style="stroke: #A80036; stroke-width: 1.0;"/><polygon fill="#A80036" points="86.3035,120.6954,93.1884,113.6528,88.0455,116.0087,85.6896,110.8657,86.3035,120.6954" style="stroke: #A80036; stroke-width: 1.0;"/><polygon fill="#A80036" points="116.1807,40.3115,109.2957,47.354,114.4387,44.9982,116.7945,50.1412,116.1807,40.3115" style="stroke: #A80036; stroke-width: 1.0;"/><text fill="#000000" font-family="sans-serif" font-size="13" lengthAdjust="spacingAndGlyphs" textLength="32" x="104.5" y="87.0669">HTTP</text><!--MD5=[6cde021a17eec16dafda8c024dc84beb]
link 2nd_node to seed_node--><path d="M129.9708,139 C165.1126,139 211.9439,139 247.947,139 " fill="none" id="2nd_node-seed_node" style="stroke: #A80036; stroke-width: 1.0;"/><polygon fill="#A80036" points="253.1777,139,244.1777,135,248.1777,139,244.1777,143,253.1777,139" style="stroke: #A80036; stroke-width: 1.0;"/><polygon fill="#A80036" points="124.6274,139,133.6274,143,129.6274,139,133.6274,135,124.6274,139" style="stroke: #A80036; stroke-width: 1.0;"/><text fill="#000000" font-family="sans-serif" font-size="13" lengthAdjust="spacingAndGlyphs" textLength="71" x="153.5" y="132.0669">WebSocket</text><!--MD5=[57cc260363f6ce6461c806900a24dc9a]
@startuml
agent Client
agent 2nd_node
agent seed_node
usecase IoT

Client <- -> 2nd_node : HTTP 
IoT <- -> 2nd_node : HTTP
2nd_node <-> seed_node : WebSocket


note bottom of (seed_node)
 Forging enabled for 101 genesis delegates
end note

note bottom of (2nd_node)
 Forging disabled
end note
@enduml

PlantUML version 1.2019.11(Sun Sep 22 10:02:15 UTC 2019)
(GPL source distribution)
Java Runtime: OpenJDK Runtime Environment
JVM: OpenJDK 64-Bit Server VM
Java Version: 1.8.0_222-heroku-b10
Operating System: Linux
Default Encoding: UTF-8
Language: en
Country: US
--></g></svg>