<?xml version="1.0" encoding="UTF-8" standalone="no"?><svg xmlns="http://www.w3.org/2000/svg" xmlns:xlink="http://www.w3.org/1999/xlink" contentScriptType="application/ecmascript" contentStyleType="text/css" height="368px" preserveAspectRatio="none" style="width:500px;height:368px;" version="1.1" viewBox="0 0 500 368" width="500px" zoomAndPan="magnify"><defs><filter height="300%" id="fk16b8sk71zpz" width="300%" x="-1" y="-1"><feGaussianBlur result="blurOut" stdDeviation="2.0"/><feColorMatrix in="blurOut" result="blurOut2" type="matrix" values="0 0 0 0 0 0 0 0 0 0 0 0 0 0 0 0 0 0 .4 0"/><feOffset dx="4.0" dy="4.0" in="blurOut2" result="blurOut3"/><feBlend in="SourceGraphic" in2="blurOut3" mode="normal"/></filter></defs><g><!--MD5=[0ba5ee7700168656dc1b457c6fe9fdac]
entity Client--><rect fill="#FEFECE" filter="url(#fk16b8sk71zpz)" height="36.2969" style="stroke: #A80036; stroke-width: 1.5;" width="59" x="6" y="8"/><text fill="#000000" font-family="sans-serif" font-size="14" lengthAdjust="spacingAndGlyphs" textLength="39" x="16" y="30.9951">Client</text><!--MD5=[2c5a11ccae52a2fee7ee18a689efa1cd]
entity 2nd_node--><rect fill="#FEFECE" filter="url(#fk16b8sk71zpz)" height="36.2969" style="stroke: #A80036; stroke-width: 1.5;" width="90" x="31.5" y="121"/><text fill="#000000" font-family="sans-serif" font-size="14" lengthAdjust="spacingAndGlyphs" textLength="70" x="41.5" y="143.9951">2nd_node</text><!--MD5=[59278d507e2512f978fc2421aabb9d73]
entity 3rd_node--><rect fill="#FEFECE" filter="url(#fk16b8sk71zpz)" height="36.2969" style="stroke: #A80036; stroke-width: 1.5;" width="86" x="229.5" y="121"/><text fill="#000000" font-family="sans-serif" font-size="14" lengthAdjust="spacingAndGlyphs" textLength="66" x="239.5" y="143.9951">3rd_node</text><!--MD5=[e51296a1580e0172c3b5b7be8520ff5e]
entity seed_node--><rect fill="#FEFECE" filter="url(#fk16b8sk71zpz)" height="36.2969" style="stroke: #A80036; stroke-width: 1.5;" width="98" x="186.5" y="234"/><text fill="#000000" font-family="sans-serif" font-size="14" lengthAdjust="spacingAndGlyphs" textLength="78" x="196.5" y="256.9951">seed_node</text><ellipse cx="118.3492" cy="26.0236" fill="#FEFECE" filter="url(#fk16b8sk71zpz)" rx="17.8492" ry="14.5236" style="stroke: #A80036; stroke-width: 1.5;"/><text fill="#000000" font-family="sans-serif" font-size="14" lengthAdjust="spacingAndGlyphs" textLength="21" x="107.8492" y="30.6721">IoT</text><path d="M89.5,331 L89.5,356.1328 A0,0 0 0 0 89.5,356.1328 L381.5,356.1328 A0,0 0 0 0 381.5,356.1328 L381.5,341 L371.5,331 L239.5,331 L235.5,270.0775 L231.5,331 L89.5,331 A0,0 0 0 0 89.5,331 " fill="#FBFB77" filter="url(#fk16b8sk71zpz)" style="stroke: #A80036; stroke-width: 1.0;"/><path d="M371.5,331 L371.5,341 L381.5,341 L371.5,331 " fill="#FBFB77" style="stroke: #A80036; stroke-width: 1.0;"/><text fill="#000000" font-family="sans-serif" font-size="13" lengthAdjust="spacingAndGlyphs" textLength="271" x="95.5" y="348.0669">Forging enabled for 101 genesis delegates</text><path d="M14,239.5 L14,264.6328 A0,0 0 0 0 14,264.6328 L139,264.6328 A0,0 0 0 0 139,264.6328 L139,249.5 L129,239.5 L80.5,239.5 L76.5,157.1554 L72.5,239.5 L14,239.5 A0,0 0 0 0 14,239.5 " fill="#FBFB77" filter="url(#fk16b8sk71zpz)" style="stroke: #A80036; stroke-width: 1.0;"/><path d="M129,239.5 L129,249.5 L139,249.5 L129,239.5 " fill="#FBFB77" style="stroke: #A80036; stroke-width: 1.0;"/><text fill="#000000" font-family="sans-serif" font-size="13" lengthAdjust="spacingAndGlyphs" textLength="104" x="20" y="256.5669">Forging disabled</text><path d="M351,126.5 L351,135 L315.5664,139 L351,143 L351,151.6328 A0,0 0 0 0 351,151.6328 L488,151.6328 A0,0 0 0 0 488,151.6328 L488,136.5 L478,126.5 L351,126.5 A0,0 0 0 0 351,126.5 " fill="#FBFB77" filter="url(#fk16b8sk71zpz)" style="stroke: #A80036; stroke-width: 1.0;"/><path d="M478,126.5 L478,136.5 L488,136.5 L478,126.5 " fill="#FBFB77" style="stroke: #A80036; stroke-width: 1.0;"/><text fill="#000000" font-family="sans-serif" font-size="13" lengthAdjust="spacingAndGlyphs" textLength="116" x="357" y="143.5669">1 delegate forging</text><!--MD5=[e37cbfde2ef2bf8b6497c87462563c1c]
link Client to 2nd_node--><path d="M34.6795,49.4606 C34.9668,62.1292 36.526,77.8269 41.5,91 C44.9428,100.1179 50.6131,109.0449 56.3973,116.6795 " fill="none" id="Client-2nd_node" style="stroke: #A80036; stroke-width: 1.0;"/><polygon fill="#A80036" points="59.609,120.781,57.2095,111.2289,56.5263,116.8444,50.9109,116.1612,59.609,120.781" style="stroke: #A80036; stroke-width: 1.0;"/><polygon fill="#A80036" points="34.6279,44.2329,30.7168,53.2719,34.6772,49.2327,38.7164,53.193,34.6279,44.2329" style="stroke: #A80036; stroke-width: 1.0;"/><text fill="#000000" font-family="sans-serif" font-size="13" lengthAdjust="spacingAndGlyphs" textLength="32" x="42.5" y="87.0669">HTTP</text><!--MD5=[9aa7161ad046b1765ea8198936c55f4c]
link IoT to 2nd_node--><path d="M111.3899,45.1297 C104.1299,64.6624 92.8544,94.999 85.0974,115.869 " fill="none" id="IoT-2nd_node" style="stroke: #A80036; stroke-width: 1.0;"/><polygon fill="#A80036" points="83.3035,120.6954,90.1884,113.6528,85.0455,116.0087,82.6896,110.8657,83.3035,120.6954" style="stroke: #A80036; stroke-width: 1.0;"/><polygon fill="#A80036" points="113.1807,40.3115,106.2957,47.354,111.4387,44.9982,113.7945,50.1412,113.1807,40.3115" style="stroke: #A80036; stroke-width: 1.0;"/><text fill="#000000" font-family="sans-serif" font-size="13" lengthAdjust="spacingAndGlyphs" textLength="32" x="100.5" y="87.0669">HTTP</text><!--MD5=[6cde021a17eec16dafda8c024dc84beb]
link 2nd_node to seed_node--><path d="M106.3398,160.2069 C134.8355,180.4586 177.5291,210.8006 205.9335,230.9874 " fill="none" id="2nd_node-seed_node" style="stroke: #A80036; stroke-width: 1.0;"/><polygon fill="#A80036" points="210.0173,233.8897,204.9986,225.4155,205.9418,230.9932,200.3641,231.9363,210.0173,233.8897" style="stroke: #A80036; stroke-width: 1.0;"/><polygon fill="#A80036" points="102.0461,157.1554,107.0648,165.6296,106.1216,160.0519,111.6993,159.1088,102.0461,157.1554" style="stroke: #A80036; stroke-width: 1.0;"/><text fill="#000000" font-family="sans-serif" font-size="13" lengthAdjust="spacingAndGlyphs" textLength="71" x="166.5" y="200.0669">WebSocket</text><!--MD5=[2c0db39c95a412dc6cd79e5f294b8210]
link 2nd_node to 3rd_node--><path d="M126.9672,139 C156.9251,139 194.7032,139 224.2608,139 " fill="none" id="2nd_node-3rd_node" style="stroke: #A80036; stroke-width: 1.0;"/><polygon fill="#A80036" points="229.305,139,220.305,135,224.305,139,220.305,143,229.305,139" style="stroke: #A80036; stroke-width: 1.0;"/><polygon fill="#A80036" points="121.959,139,130.959,143,126.959,139,130.959,135,121.959,139" style="stroke: #A80036; stroke-width: 1.0;"/><text fill="#000000" font-family="sans-serif" font-size="13" lengthAdjust="spacingAndGlyphs" textLength="71" x="140" y="132.0669">WebSocket</text><!--MD5=[720c67d3dcc3e7b987449189d412f379]
link 3rd_node to seed_node--><path d="M264.9486,162.0625 C258.5377,181.6416 249.3869,209.5886 242.9928,229.1165 " fill="none" id="3rd_node-seed_node" style="stroke: #A80036; stroke-width: 1.0;"/><polygon fill="#A80036" points="241.4299,233.8897,248.0321,226.5814,242.9859,229.138,240.4293,224.0918,241.4299,233.8897" style="stroke: #A80036; stroke-width: 1.0;"/><polygon fill="#A80036" points="266.5553,157.1554,259.9532,164.4638,264.9993,161.9071,267.556,166.9533,266.5553,157.1554" style="stroke: #A80036; stroke-width: 1.0;"/><text fill="#000000" font-family="sans-serif" font-size="13" lengthAdjust="spacingAndGlyphs" textLength="71" x="256.5" y="200.0669">WebSocket</text><!--MD5=[e371c84ec11bf9d43ce87dc73f10c0b7]
@startuml
agent Client
agent 2nd_node
agent 3rd_node
agent seed_node
usecase IoT

Client <- -> 2nd_node : HTTP 
IoT <- -> 2nd_node : HTTP
2nd_node <-> seed_node : WebSocket
2nd_node <-> 3rd_node : WebSocket
3rd_node <- -> seed_node : WebSocket


note bottom of (seed_node)
 Forging enabled for 101 genesis delegates
end note

note bottom of (2nd_node)
 Forging disabled
end note

note right of (3rd_node)
 1 delegate forging
end note
@enduml

PlantUML version 1.2019.11(Sun Sep 22 10:02:15 UTC 2019)
(GPL source distribution)
Java Runtime: OpenJDK Runtime Environment
JVM: OpenJDK 64-Bit Server VM
Java Version: 1.8.0_222-heroku-b10
Operating System: Linux
Default Encoding: UTF-8
Language: en
Country: US
--></g></svg>