<?xml version="1.0" encoding="UTF-8"?>
<svg width="24px" height="24px" viewBox="0 0 24 24" version="1.1" xmlns="http://www.w3.org/2000/svg" xmlns:xlink="http://www.w3.org/1999/xlink">
    <!-- Generator: Sketch 50.2 (55047) - http://www.bohemiancoding.com/sketch -->
    <title>explorer-logo_24px</title>
    <desc>Created with Sketch.</desc>
    <defs>
        <linearGradient x1="76.3263889%" y1="-9.16241497%" x2="28.7951389%" y2="170.711097%" id="linearGradient-1">
            <stop stop-color="#DCFCFF" offset="0%"></stop>
            <stop stop-color="#FFFFFF" offset="28.6644999%"></stop>
            <stop stop-color="#FAFFFF" offset="49.7674645%"></stop>
            <stop stop-color="#93F4FE" offset="100%"></stop>
        </linearGradient>
        <linearGradient x1="117.291206%" y1="145.341196%" x2="-19.4463392%" y2="28.8615027%" id="linearGradient-2">
            <stop stop-color="#021755" stop-opacity="0" offset="0%"></stop>
            <stop stop-color="#0097FF" offset="100%"></stop>
        </linearGradient>
        <linearGradient x1="117.291206%" y1="145.341196%" x2="-41.1504425%" y2="-56.0785976%" id="linearGradient-3">
            <stop stop-color="#021755" stop-opacity="0" offset="0%"></stop>
            <stop stop-color="#0097FF" offset="100%"></stop>
        </linearGradient>
        <linearGradient x1="19.4762866%" y1="88.4126955%" x2="86.0468234%" y2="18.4958616%" id="linearGradient-4">
            <stop stop-color="#004AFF" offset="0%"></stop>
            <stop stop-color="#93F4FE" offset="100%"></stop>
        </linearGradient>
        <polygon id="path-5" points="0 1.02264242 0 2.3871138 6.912 6.38722155 8.74586916 5.36472997 8.74586916 4.0000431 1.83386916 -6.46464646e-05"></polygon>
        <linearGradient x1="186.952514%" y1="69.6927547%" x2="56.925697%" y2="62.1312534%" id="linearGradient-7">
            <stop stop-color="#FFFFFF" offset="0%"></stop>
            <stop stop-color="#93F4FE" offset="100%"></stop>
        </linearGradient>
        <linearGradient x1="100%" y1="68.2837664%" x2="-19.4463392%" y2="28.8615027%" id="linearGradient-8">
            <stop stop-color="#021755" stop-opacity="0" offset="0%"></stop>
            <stop stop-color="#0097FF" offset="100%"></stop>
        </linearGradient>
        <polygon id="path-9" points="0 1.02264242 0 2.3871138 6.912 6.38722155 8.74586916 5.36472997 8.74586916 4.0000431 1.83386916 -6.46464646e-05"></polygon>
        <polygon id="path-11" points="0 1.02264242 0 2.3871138 6.912 6.38722155 8.74586916 5.36472997 8.74586916 4.0000431 1.83386916 -6.46464646e-05"></polygon>
        <linearGradient x1="74.3470982%" y1="23.2700893%" x2="-14.5857176%" y2="114.358373%" id="linearGradient-13">
            <stop stop-color="#FF6236" offset="0%"></stop>
            <stop stop-color="#C80039" offset="100%"></stop>
        </linearGradient>
        <polygon id="path-14" points="0.196373832 1.09575758 0.196373832 3.28727273 7.54037383 7.57310245 9.48885981 6.47734488 9.48885981 4.28582973 2.14485981 0"></polygon>
        <linearGradient x1="83.4182261%" y1="-22.5146599%" x2="50%" y2="67.8562738%" id="linearGradient-16">
            <stop stop-color="#C8123D" stop-opacity="0" offset="0%"></stop>
            <stop stop-color="#11072C" offset="100%"></stop>
        </linearGradient>
        <linearGradient x1="13.7721689%" y1="-23.1991612%" x2="100%" y2="100%" id="linearGradient-17">
            <stop stop-color="#FCBA85" stop-opacity="0" offset="0%"></stop>
            <stop stop-color="#FF2E52" offset="100%"></stop>
        </linearGradient>
    </defs>
    <g id="explorer-logo_24px" stroke="none" stroke-width="1" fill="none" fill-rule="evenodd">
        <g id="Group" transform="translate(0.000000, 3.000000)">
            <g id="Group-4" transform="translate(0.000000, 0.646465)">
                <g id="Group-3">
                    <g id="lisk-hub-copy">
                        <g id="Group-21-Copy">
                            <g id="Page-1">
                                <polygon id="Fill-1" fill="url(#linearGradient-1)" points="11.999904 4.05013995e-05 1.06666667e-05 6.7586103 1.06666667e-05 10.0495515 11.999904 16.8081213 24.0000107 10.0495515 24.0000107 6.7586103"></polygon>
                                <polygon id="Fill-2" fill="url(#linearGradient-2)" opacity="0.104619565" points="12.053376 13.566288 12.053376 16.8081213 24.0000427 9.9968997 23.974976 6.78402492"></polygon>
                                <polygon id="Fill-3" fill="url(#linearGradient-3)" opacity="0.0828238225" points="0 10.0537535 12.02624 16.8080707 12.0533333 13.5656299 0.01952 6.7839743"></polygon>
                            </g>
                        </g>
                    </g>
                </g>
            </g>
            <g id="Fill-1-+-Fill-7-Mask-Copy" transform="translate(6.953271, 4.094276)">
                <mask id="mask-6" fill="white">
                    <use xlink:href="#path-5"></use>
                </mask>
                <use id="Mask" fill="url(#linearGradient-4)" xlink:href="#path-5"></use>
                <polygon id="Fill-1" fill="url(#linearGradient-7)" opacity="0.122678895" mask="url(#mask-6)" points="6.9187514 5.02871919 6.91471402 6.38737239 2.24299065e-05 2.39243636 0.00293831776 1.02968889"></polygon>
                <polygon id="Fill-7" fill="url(#linearGradient-8)" opacity="0.268415179" mask="url(#mask-6)" points="8.74593645 4.00012929 6.91879626 5.02865455 6.91206729 6.38730774 8.74593645 5.36460067"></polygon>
            </g>
            <g id="Fill-1-+-Fill-7-Mask-Copy-2" transform="translate(10.990654, 1.939394)">
                <mask id="mask-10" fill="white">
                    <use xlink:href="#path-9"></use>
                </mask>
                <use id="Mask" fill="url(#linearGradient-4)" xlink:href="#path-9"></use>
                <polygon id="Fill-1" fill="url(#linearGradient-7)" opacity="0.122678895" mask="url(#mask-10)" points="6.9187514 5.02871919 6.91471402 6.38737239 2.24299065e-05 2.39243636 0.00293831776 1.02968889"></polygon>
                <polygon id="Fill-7" fill="url(#linearGradient-8)" opacity="0.268415179" mask="url(#mask-10)" points="8.74593645 4.00012929 6.91879626 5.02865455 6.91206729 6.38730774 8.74593645 5.36460067"></polygon>
            </g>
            <g id="Fill-1-+-Fill-7-Mask" transform="translate(4.485981, 5.387205)">
                <mask id="mask-12" fill="white">
                    <use xlink:href="#path-11"></use>
                </mask>
                <use id="Mask" fill="url(#linearGradient-4)" xlink:href="#path-11"></use>
                <polygon id="Fill-1" fill="url(#linearGradient-7)" opacity="0.122678895" mask="url(#mask-12)" points="6.9187514 5.02871919 6.91471402 6.38737239 2.24299065e-05 2.39243636 0.00293831776 1.02968889"></polygon>
                <polygon id="Fill-7" fill="url(#linearGradient-8)" opacity="0.268415179" mask="url(#mask-12)" points="8.74593645 4.00012929 6.91879626 5.02865455 6.91206729 6.38730774 8.74593645 5.36460067"></polygon>
            </g>
            <g id="Fill-18-Copy" transform="translate(8.523364, 0.000000)">
                <mask id="mask-15" fill="white">
                    <use xlink:href="#path-14"></use>
                </mask>
                <use id="Mask" fill="url(#linearGradient-13)" xlink:href="#path-14"></use>
                <polygon id="Fill-14" fill="url(#linearGradient-16)" opacity="0.0800000057" mask="url(#mask-15)" points="7.54752336 5.38720539 7.54752336 7.54208754 0.199471963 3.44781145 0.199471963 1.15440115"></polygon>
                <polygon id="Fill-18" fill="url(#linearGradient-17)" opacity="0.630774457" mask="url(#mask-15)" points="9.48274655 4.30454577 7.56237763 5.39562451 7.56038049 7.58387363 9.48274655 6.46464646"></polygon>
            </g>
        </g>
    </g>
</svg>