<svg width="43" height="69" viewBox="0 0 43 69" fill="none" xmlns="http://www.w3.org/2000/svg">
<path d="M37.9841 49.6775L38.9188 51.4457L38.9188 51.4456L37.9841 49.6775ZM22.902 57.6498L21.9673 55.8817L21.9673 55.8817L22.902 57.6498ZM20.098 57.6498L21.0327 55.8817L21.0327 55.8817L20.098 57.6498ZM5.01584 49.6775L4.0812 51.4456L5.01584 49.6775ZM5.0151 44.3734L5.95025 46.1413L5.0151 44.3734ZM12.357 42.7524C13.3334 42.2359 13.7062 41.0257 13.1898 40.0493C12.6733 39.0729 11.4631 38.7001 10.4867 39.2165L12.357 42.7524ZM32.5133 39.2166C31.5369 38.7001 30.3267 39.0729 29.8102 40.0493C29.2937 41.0257 29.6666 42.2359 30.643 42.7524L32.5133 39.2166ZM37.9849 44.3734L37.0497 46.1413L37.0497 46.1413L37.9849 44.3734ZM37.0495 47.9093L21.9673 55.8817L23.8366 59.418L38.9188 51.4457L37.0495 47.9093ZM21.0327 55.8817L5.95049 47.9093L4.0812 51.4456L19.1634 59.418L21.0327 55.8817ZM5.95025 46.1413L12.357 42.7524L10.4867 39.2165L4.07996 42.6054L5.95025 46.1413ZM30.643 42.7524L37.0497 46.1413L38.92 42.6054L32.5133 39.2166L30.643 42.7524ZM21.9673 55.8817C21.6749 56.0362 21.325 56.0362 21.0327 55.8817L19.1634 59.418C20.6253 60.1908 22.3747 60.1908 23.8366 59.418L21.9673 55.8817ZM38.9188 51.4456C42.4694 49.5688 42.4701 44.4833 38.92 42.6054L37.0497 46.1413C37.7597 46.5168 37.7596 47.5339 37.0495 47.9093L38.9188 51.4456ZM5.95049 47.9093C5.24038 47.5339 5.24023 46.5168 5.95025 46.1413L4.07996 42.6054C0.529884 44.4833 0.53058 49.5688 4.0812 51.4456L5.95049 47.9093Z" fill="#4070F4"/>
<path d="M37.984 36.9114L37.0494 35.1433L37.0494 35.1433L37.984 36.9114ZM22.902 44.8837L21.9673 43.1156L21.9673 43.1156L22.902 44.8837ZM20.098 44.8837L21.0327 43.1156L21.0327 43.1156L20.098 44.8837ZM5.01597 36.9114L4.08132 38.6796L4.08132 38.6796L5.01597 36.9114ZM5.01529 31.6073L4.08018 29.8394L4.08018 29.8394L5.01529 31.6073ZM12.357 29.9866C13.3334 29.4701 13.7062 28.2599 13.1898 27.2835C12.6734 26.3071 11.4632 25.9343 10.4868 26.4507L12.357 29.9866ZM32.5132 26.4507C31.5368 25.9343 30.3266 26.3071 29.8102 27.2835C29.2937 28.2599 29.6666 29.4701 30.643 29.9866L32.5132 26.4507ZM37.9847 31.6073L37.0496 33.3752L37.9847 31.6073ZM37.0494 35.1433L21.9673 43.1156L23.8366 46.6519L38.9187 38.6796L37.0494 35.1433ZM21.0327 43.1156L5.95062 35.1433L4.08132 38.6796L19.1634 46.6519L21.0327 43.1156ZM5.95039 33.3752L12.357 29.9866L10.4868 26.4507L4.08018 29.8394L5.95039 33.3752ZM30.643 29.9866L37.0496 33.3752L38.9198 29.8393L32.5132 26.4507L30.643 29.9866ZM21.9673 43.1156C21.6749 43.2701 21.325 43.2701 21.0327 43.1156L19.1634 46.6519C20.6253 47.4247 22.3747 47.4247 23.8366 46.6519L21.9673 43.1156ZM38.9187 38.6796C42.4693 36.8027 42.47 31.7171 38.9198 29.8393L37.0496 33.3752C37.7596 33.7508 37.7595 34.7679 37.0494 35.1433L38.9187 38.6796ZM5.95062 35.1433C5.24049 34.7679 5.24036 33.7508 5.95039 33.3752L4.08018 29.8394C0.530021 31.7171 0.530668 36.8027 4.08132 38.6796L5.95062 35.1433Z" fill="white"/>
<path d="M10.75 15.8176L3.34504 19.7318C1.92457 20.4827 1.92457 22.5173 3.34504 23.2682L20.5653 32.3707C21.1501 32.6799 21.8499 32.6799 22.4346 32.3707L39.6549 23.2682C41.0754 22.5173 41.0754 20.4827 39.6549 19.7318L32.25 15.8176" stroke="#4070F4" stroke-width="4"/>
<path d="M10.75 27.1824L5.01756 24.1523C2.88685 23.026 2.88685 19.974 5.01755 18.8477L20.098 10.8763C20.9752 10.4126 22.0248 10.4126 22.902 10.8763L37.9824 18.8477C40.1131 19.974 40.1131 23.026 37.9824 24.1523L32.25 27.1824" stroke="#4070F4" stroke-width="4"/>
</svg>
