<?xml version="1.0" encoding="UTF-8"?>
<svg width="481px" height="97px" viewBox="0 0 481 97" version="1.1" xmlns="http://www.w3.org/2000/svg" xmlns:xlink="http://www.w3.org/1999/xlink">
    <!-- Generator: Sketch 50.2 (55047) - http://www.bohemiancoding.com/sketch -->
    <title>commander-visual</title>
    <desc>Created with Sketch.</desc>
    <defs>
        <linearGradient x1="76.3263889%" y1="-9.16241497%" x2="28.7951389%" y2="170.711097%" id="linearGradient-1">
            <stop stop-color="#DCFCFF" offset="0%"></stop>
            <stop stop-color="#FFFFFF" offset="28.6644999%"></stop>
            <stop stop-color="#FAFFFF" offset="49.7674645%"></stop>
            <stop stop-color="#93F4FE" offset="100%"></stop>
        </linearGradient>
        <linearGradient x1="117.291206%" y1="145.341196%" x2="-19.4463392%" y2="28.8615027%" id="linearGradient-2">
            <stop stop-color="#021755" stop-opacity="0" offset="0%"></stop>
            <stop stop-color="#0097FF" offset="100%"></stop>
        </linearGradient>
        <linearGradient x1="117.291206%" y1="145.341196%" x2="-41.1504425%" y2="-56.0785976%" id="linearGradient-3">
            <stop stop-color="#021755" stop-opacity="0" offset="0%"></stop>
            <stop stop-color="#0097FF" offset="100%"></stop>
        </linearGradient>
        <linearGradient x1="100%" y1="23.2700899%" x2="-45.3567005%" y2="50%" id="linearGradient-4">
            <stop stop-color="#FF6236" offset="0%"></stop>
            <stop stop-color="#C80039" offset="100%"></stop>
        </linearGradient>
        <linearGradient x1="100%" y1="100%" x2="16.2605782%" y2="23.2700899%" id="linearGradient-5">
            <stop stop-color="#FF6236" offset="0%"></stop>
            <stop stop-color="#C80039" offset="100%"></stop>
        </linearGradient>
        <linearGradient x1="-52.5060119%" y1="-9.54799107%" x2="100%" y2="95.0482094%" id="linearGradient-6">
            <stop stop-color="#00457D" offset="0%"></stop>
            <stop stop-color="#001A56" offset="100%"></stop>
        </linearGradient>
    </defs>
    <g id="commander-visual" stroke="none" stroke-width="1" fill="none" fill-rule="evenodd">
        <g id="Group" transform="translate(0.000000, 8.000000)">
            <g id="lisk-commander-copy" transform="translate(0.000000, 2.000000)">
                <g id="Page-1">
                    <polygon id="Fill-1" fill="url(#linearGradient-1)" points="52.9086206 0 0 31.0258564 0 46.1332345 52.9086206 77.1590909 105.818182 46.1332345 105.818182 31.0258564"></polygon>
                    <polygon id="Fill-2" fill="url(#linearGradient-2)" opacity="0.0644409938" points="53.1444305 62.2773334 53.1444305 77.1592768 105.81837 45.8917173 105.707849 31.1427106"></polygon>
                    <polygon id="Fill-3" fill="url(#linearGradient-3)" opacity="0.0828238225" points="0 46.1527102 53.0247855 77.1590444 53.1442424 62.2743121 0.0860654545 31.1424782"></polygon>
                </g>
                <g id="Group-19-Copy-2" transform="translate(14.579394, 6.972207)">
                    <polygon id="&gt;" fill="url(#linearGradient-4)" transform="translate(35.774384, 5.856654) rotate(60.000000) translate(-35.774384, -5.856654) " points="39.0665051 2.9499084 32.8175204 11.7133078 32.8754116 7.93505976 36.1674591 3.32884823 36.1674591 3.26113684 32.8421494 2.89398488 32.4822626 2.84e-14 39.0665051 1.22326807"></polygon>
                    <path d="M62.274595,17.3020246 C62.1629059,16.8904416 61.8970857,16.5464818 61.5259984,16.3338723 L46.6277804,7.8141875 C45.6301169,7.24314738 44.4302961,7.22812001 43.4175545,7.77439279 C43.1562019,7.9157614 42.9395249,8.1261446 42.7915368,8.38300134 C42.5784897,8.75284165 42.5226451,9.18334801 42.6343343,9.59520931 C42.7460234,10.0067923 43.0118436,10.3507522 43.3829309,10.5630833 L58.2811489,19.0827682 C58.792406,19.3752453 59.3564363,19.5221796 59.9213043,19.5221796 C60.4590876,19.5221796 60.9974294,19.3891596 61.4910955,19.1228411 C61.7527274,18.9814725 61.9691252,18.7708111 62.1173925,18.5139543 C62.3304396,18.144114 62.3862842,17.7136076 62.274595,17.3020246" id="Fill-3" fill="url(#linearGradient-5)"></path>
                    <path d="M51.7257804,35.4167627 C51.5862316,34.905111 51.2541054,34.4775238 50.7904546,34.2132223 L30.5188981,22.6707886 C29.2723784,21.9612567 27.7732754,21.9425757 26.5079167,22.6213185 C26.1813725,22.7970583 25.9106478,23.0585922 25.7257457,23.3778989 C25.4595563,23.8376589 25.3897819,24.3728349 25.5293307,24.8848325 C25.6688795,25.3964842 26.0010057,25.8240715 26.4646566,26.088027 L46.736213,37.6304607 C47.3749977,37.9940482 48.0797191,38.1767068 48.7854872,38.1767068 C49.4574146,38.1767068 50.1300399,38.0113454 50.7468456,37.6802767 C51.0737386,37.5045369 51.3441144,37.242657 51.5293655,36.9233504 C51.7955548,36.4635903 51.8653292,35.9284144 51.7257804,35.4167627" id="Fill-1" fill="url(#linearGradient-6)"></path>
                    <path d="M65.7719753,31.9426549 C65.6320511,31.4303547 65.2990317,31.0022256 64.8341338,30.7375891 L26.1430121,8.78904132 C24.8931398,8.07861015 23.3900048,8.05990548 22.1212427,8.73950858 C21.7938203,8.91547106 21.5223674,9.17733647 21.336968,9.49704782 C21.0700627,9.9573906 21.0001006,10.4932448 21.1400247,11.0058914 C21.2799489,11.5181916 21.6129683,11.9463208 22.0778662,12.2106109 L60.7689879,34.1591586 C61.4094906,34.523207 62.1161075,34.7060971 62.8237738,34.7060971 C63.4975085,34.7060971 64.1719428,34.5405261 64.7904075,34.2090378 C65.1181797,34.0330753 65.3892828,33.7708635 65.575032,33.4511521 C65.8419373,32.9908094 65.9118994,32.4549551 65.7719753,31.9426549" id="Fill-1" fill="url(#linearGradient-6)"></path>
                    <path d="M44.7023995,42.7883103 C44.5624754,42.2760101 44.2294559,41.8478809 43.764558,41.5832444 L5.07343636,19.6346967 C3.82356404,18.9242655 2.32042904,18.9055608 1.05166696,19.5851639 C0.724244494,19.7611264 0.452791676,20.0229918 0.267392199,20.3427032 C0.000486915652,20.8030459 -0.0694751509,21.3389002 0.0704489822,21.8515468 C0.210373115,22.363847 0.543392552,22.7919761 1.00829048,23.0562662 L39.6994121,45.004814 C40.3399148,45.3688623 41.0465317,45.5517525 41.754198,45.5517525 C42.4279327,45.5517525 43.102367,45.3861815 43.7208317,45.0546931 C44.048604,44.8787306 44.319707,44.6165188 44.5054563,44.2968075 C44.7723616,43.8364647 44.8423236,43.3006105 44.7023995,42.7883103" id="Fill-1-Copy-12" fill="url(#linearGradient-6)"></path>
                    <path d="M22.3146223,18.8786154 C22.172011,18.3571845 21.8325961,17.9214247 21.35877,17.6520716 L15.7056574,14.4385196 C14.4317818,13.7154264 12.8997798,13.6963883 11.6066517,14.3881041 C11.2729412,14.5672027 10.9962752,14.8337354 10.8073152,15.159145 C10.5352841,15.6276925 10.4639785,16.1730973 10.6065898,16.6948808 C10.7492011,17.2163118 11.0886161,17.6520716 11.5624421,17.9210721 L17.2155547,21.1346241 C17.868358,21.5051609 18.5885452,21.6913107 19.3098019,21.6913107 C19.9964754,21.6913107 20.6838619,21.5227887 21.3142039,21.1853922 C21.6482709,21.0062935 21.9245804,20.7394083 22.1138969,20.4139987 C22.385928,19.9454512 22.4572336,19.4000464 22.3146223,18.8786154" id="Fill-1" fill="url(#linearGradient-6)"></path>
                </g>
            </g>
            <g id="Group-7-Copy" transform="translate(124.000000, 0.000000)" fill="#001A3E">
                <path d="M5.2225458,17.1279392 C5.2225458,17.2079604 5.29934794,17.2613078 5.35054937,17.2613078 L12.6723538,17.2613078 C12.7491559,17.2613078 12.8003573,17.3146553 12.8003573,17.3946764 L12.8003573,22.5960517 C12.8003573,22.6760729 12.7491559,22.7294203 12.6723538,22.7294203 L5.2225458,22.7294203 L0.128003573,22.7294203 C0.0512014294,22.7294203 0,22.6760729 0,22.5960517 L0,5.95165076 C0,5.92497704 0,5.89830332 0.0256007147,5.8716296 L4.99213937,0.0834324762 C5.06894151,-0.0232624018 5.2225458,0.0300850372 5.2225458,0.163453635 L5.2225458,17.1279392 Z M20.0197589,22.5960517 C20.0197589,22.6493992 19.9685575,22.7294203 19.8917553,22.7294203 L14.9252167,22.7294203 C14.8484145,22.7294203 14.7972131,22.6760729 14.7972131,22.5960517 L14.7972131,12.486712 C14.7972131,12.4600383 14.7972131,12.4333646 14.8228138,12.4066909 L19.7893525,6.61849375 C19.8661546,6.51179887 20.0197589,6.56514631 20.0197589,6.69851491 L20.0197589,22.5960517 Z M46.9005093,14.6206096 L52.225458,22.5160306 C52.2766594,22.5960517 52.225458,22.7294203 52.1230551,22.7294203 L46.5933008,22.7294203 C46.5677,22.7294203 46.5164986,22.7027466 46.4908979,22.6760729 L42.3179814,16.1410116 C42.2411793,16.0343167 42.087575,16.0876642 42.087575,16.2210328 L42.087575,17.2613078 L42.087575,22.5960517 C42.087575,22.6760729 42.0363735,22.7294203 41.9595714,22.7294203 L36.9930327,22.7294203 C36.9162306,22.7294203 36.8650292,22.6760729 36.8650292,22.5960517 L36.8650292,5.92497704 C36.8650292,5.89830332 36.8650292,5.8716296 36.8906299,5.84495588 L41.8571685,0.0567587567 C41.9339707,-0.0499361213 42.087575,0.00341131771 42.087575,0.136779915 L42.087575,12.6734281 C42.087575,12.8067967 42.2411793,12.8601441 42.3179814,12.7534492 L46.0812865,6.40510399 C46.1068872,6.37843027 46.1324879,6.35175655 46.1836893,6.35175655 L51.8926487,6.35175655 C51.9950516,6.35175655 52.046253,6.48512515 51.9950516,6.56514631 L46.9005093,14.4605673 C46.8749086,14.5139147 46.8749086,14.5672622 46.9005093,14.6206096 Z M28.442394,23.049505 C25.0630997,23.049505 22.8358375,21.8758613 21.6838053,19.4485528 C21.6326039,19.3685317 21.6582046,19.2885105 21.7350068,19.2618368 L25.8055204,17.1279392 C25.8823226,17.1012655 25.9591247,17.1279392 25.9847254,17.2079604 C26.4199376,18.2749092 27.2647612,18.8083836 28.442394,18.8083836 C29.7224298,18.8083836 29.9784369,18.2482354 29.9784369,17.7947822 C29.9784369,17.1012655 29.0312105,16.8345283 27.6999733,16.48777 C25.4215097,15.8742744 22.2982225,15.0473891 22.2982225,11.3930895 C22.2982225,8.72571759 24.2182761,6.03167192 28.442394,6.05834564 C31.3608755,6.05834564 33.4601341,7.2319893 34.6633677,9.52592917 C34.7145691,9.60595033 34.6889684,9.68597149 34.6121663,9.71264521 L30.6696562,11.5531319 C30.6184548,11.5798056 30.5416526,11.5531319 30.5160519,11.4997844 C30.0552391,10.6728991 29.3896205,10.2461196 28.5703976,10.2461196 C27.7767754,10.2461196 27.2903619,10.592878 27.2903619,11.1530261 C27.2903619,11.8732165 28.3143905,12.11328 29.5944262,12.4333646 C31.9240912,12.9935127 35.0985799,13.7403769 35.0985799,17.6880873 C35.0985799,21.6357978 31.6680841,23.049505 28.442394,23.049505 Z" id="Combined-Shape-Copy-21"></path>
                <path d="M22.568,81.136 C9.486,81.136 0,71.34 0,58.568 C0,45.796 9.486,36 22.568,36 C30.442,36 37.386,39.906 41.168,46.044 L32.612,51.004 C30.69,47.656 26.97,45.672 22.568,45.672 C14.88,45.672 9.92,50.818 9.92,58.568 C9.92,66.318 14.88,71.464 22.568,71.464 C26.97,71.464 30.752,69.48 32.612,66.132 L41.168,71.092 C37.448,77.23 30.504,81.136 22.568,81.136 Z M61.008,81.136 C51.894,81.136 44.578,74.006 44.578,64.768 C44.578,55.53 51.894,48.4 61.008,48.4 C70.122,48.4 77.438,55.53 77.438,64.768 C77.438,74.006 70.122,81.136 61.008,81.136 Z M61.008,72.084 C65.038,72.084 68.138,69.17 68.138,64.768 C68.138,60.366 65.038,57.452 61.008,57.452 C56.978,57.452 53.878,60.366 53.878,64.768 C53.878,69.17 56.978,72.084 61.008,72.084 Z M117.428,48.4 C124.558,48.4 129.208,53.484 129.208,61.234 L129.208,80.268 L119.908,80.268 L119.908,62.04 C119.908,58.94 118.42,56.956 115.444,56.956 C112.344,56.956 110.608,59.126 110.608,62.784 L110.608,80.268 L101.308,80.268 L101.308,62.04 C101.308,58.94 99.82,56.956 96.844,56.956 C93.744,56.956 92.008,59.126 92.008,62.784 L92.008,80.268 L82.708,80.268 L82.708,49.268 L92.008,49.268 L92.008,52.12 C93.434,50.012 96.162,48.4 100.316,48.4 C103.974,48.4 106.702,49.888 108.438,52.492 C110.174,50.012 113.026,48.4 117.428,48.4 Z M170.314,48.4 C177.444,48.4 182.094,53.484 182.094,61.234 L182.094,80.268 L172.794,80.268 L172.794,62.04 C172.794,58.94 171.306,56.956 168.33,56.956 C165.23,56.956 163.494,59.126 163.494,62.784 L163.494,80.268 L154.194,80.268 L154.194,62.04 C154.194,58.94 152.706,56.956 149.73,56.956 C146.63,56.956 144.894,59.126 144.894,62.784 L144.894,80.268 L135.594,80.268 L135.594,49.268 L144.894,49.268 L144.894,52.12 C146.32,50.012 149.048,48.4 153.202,48.4 C156.86,48.4 159.588,49.888 161.324,52.492 C163.06,50.012 165.912,48.4 170.314,48.4 Z M210.986,49.268 L220.286,49.268 L220.286,80.268 L210.986,80.268 L210.986,77.354 C208.94,79.71 205.902,81.136 201.748,81.136 C193.626,81.136 186.93,74.006 186.93,64.768 C186.93,55.53 193.626,48.4 201.748,48.4 C205.902,48.4 208.94,49.826 210.986,52.182 L210.986,49.268 Z M203.608,72.332 C207.886,72.332 210.986,69.418 210.986,64.768 C210.986,60.118 207.886,57.204 203.608,57.204 C199.33,57.204 196.23,60.118 196.23,64.768 C196.23,69.418 199.33,72.332 203.608,72.332 Z M245.272,48.4 C251.534,48.4 256.866,52.864 256.866,61.234 L256.866,80.268 L247.566,80.268 L247.566,62.598 C247.566,58.754 245.148,56.956 242.172,56.956 C238.762,56.956 236.406,58.94 236.406,63.342 L236.406,80.268 L227.106,80.268 L227.106,49.268 L236.406,49.268 L236.406,52.182 C238.08,49.888 241.18,48.4 245.272,48.4 Z M285.758,36.868 L295.058,36.868 L295.058,80.268 L285.758,80.268 L285.758,77.354 C283.712,79.71 280.674,81.136 276.52,81.136 C268.398,81.136 261.702,74.006 261.702,64.768 C261.702,55.53 268.398,48.4 276.52,48.4 C280.674,48.4 283.712,49.826 285.758,52.182 L285.758,36.868 Z M278.38,72.332 C282.658,72.332 285.758,69.418 285.758,64.768 C285.758,60.118 282.658,57.204 278.38,57.204 C274.102,57.204 271.002,60.118 271.002,64.768 C271.002,69.418 274.102,72.332 278.38,72.332 Z M310.186,68.488 C311.364,71.712 314.216,72.828 317.626,72.828 C320.168,72.828 322.338,71.836 323.578,70.472 L331.018,74.75 C327.98,78.966 323.392,81.136 317.502,81.136 C306.9,81.136 300.328,74.006 300.328,64.768 C300.328,55.53 307.024,48.4 316.82,48.4 C325.872,48.4 332.568,55.406 332.568,64.768 C332.568,66.07 332.444,67.31 332.196,68.488 L310.186,68.488 Z M310,61.544 L323.33,61.544 C322.338,57.948 319.548,56.646 316.758,56.646 C313.224,56.646 310.868,58.382 310,61.544 Z M347.138,54.786 C348.378,50.632 352.532,48.648 356.438,48.648 L356.438,59.188 C352.594,58.568 347.138,60.118 347.138,66.256 L347.138,80.268 L337.838,80.268 L337.838,49.268 L347.138,49.268 L347.138,54.786 Z" id="Commander"></path>
            </g>
        </g>
    </g>
</svg>