<?xml version="1.0" encoding="UTF-8"?>
<svg width="464px" height="230px" viewBox="0 0 464 230" version="1.1" xmlns="http://www.w3.org/2000/svg" xmlns:xlink="http://www.w3.org/1999/xlink">
    <!-- Generator: Sketch 48.2 (47327) - http://www.bohemiancoding.com/sketch -->
    <title>Core</title>
    <desc>Created with Sketch.</desc>
    <defs>
        <linearGradient x1="-4.40172591%" y1="-4.44313837%" x2="100%" y2="95.0482094%" id="linearGradient-1">
            <stop stop-color="#00335D" offset="0%"></stop>
            <stop stop-color="#001A56" offset="100%"></stop>
        </linearGradient>
        <linearGradient x1="74.3470982%" y1="23.2700893%" x2="-14.5857176%" y2="114.358373%" id="linearGradient-2">
            <stop stop-color="#FF6236" offset="0%"></stop>
            <stop stop-color="#C80039" offset="100%"></stop>
        </linearGradient>
        <polygon id="path-3" points="0 57.3201342 0 171.961767 99.9127167 229.280537 199.826806 171.961767 199.826806 57.3201342 99.9127167 0"></polygon>
        <polygon id="path-5" points="0 41.8557483 0 125.568241 70.2201185 167.422993 140.441202 125.568241 140.441202 41.8557483 70.2201185 0"></polygon>
        <linearGradient x1="121.986607%" y1="-5.98546338%" x2="16.3185587%" y2="80.0599853%" id="linearGradient-7">
            <stop stop-color="#FCBA85" stop-opacity="0" offset="0%"></stop>
            <stop stop-color="#FF2E52" offset="100%"></stop>
        </linearGradient>
        <linearGradient x1="83.4182261%" y1="-22.5146599%" x2="50%" y2="67.8562738%" id="linearGradient-8">
            <stop stop-color="#C8123D" stop-opacity="0" offset="0%"></stop>
            <stop stop-color="#11072C" offset="100%"></stop>
        </linearGradient>
    </defs>
    <g id="Page-1" stroke="none" stroke-width="1" fill="none" fill-rule="evenodd">
        <g id="Lisked" transform="translate(-0.086544, -275.000000)">
            <g id="Core" transform="translate(0.000000, 275.000000)">
                <g id="Group-4" transform="translate(240.000000, 19.529288)">
                    <text id="Core" font-family="Gilroy-Light, Gilroy" font-size="79" font-weight="300" fill="#081A4B">
                        <tspan x="0.981554441" y="172.529288">Core</tspan>
                    </text>
                    <g id="Lisk-Logo" transform="translate(3.981554, 0.718128)" fill="#03183E" fill-rule="nonzero">
                        <path d="M22.1412127,69.3272251 L22.1412127,0.82564691 C22.1412127,0.287112491 21.4949714,0.0716987228 21.1718508,0.502526259 L0.276715293,23.8749201 C0.169008409,23.982627 0.169008409,24.0903338 0.169008409,24.1980407 L0.169008409,91.4071363 C0.169008409,91.730257 0.384422177,91.9456707 0.707542829,91.9456707 L22.1412127,91.9456707 L53.483916,91.9456707 C53.8070366,91.9456707 54.0224504,91.730257 54.0224504,91.4071363 L54.0224504,70.4042939 C54.0224504,70.0811733 53.8070366,69.8657595 53.483916,69.8657595 L22.6797472,69.8657595 C22.4643334,69.8657595 22.1412127,69.6503457 22.1412127,69.3272251 Z" id="Shape"></path>
                        <path d="M84.3957916,91.4071363 L84.3957916,27.2138335 C84.3957916,26.6752991 83.7495503,26.4598853 83.4264297,26.8907128 L62.5312942,50.2631066 C62.4235873,50.3708135 62.4235873,50.4785204 62.4235873,50.5862273 L62.4235873,91.4071363 C62.4235873,91.730257 62.6390011,91.9456707 62.9621217,91.9456707 L83.8572572,91.9456707 C84.1803779,91.9456707 84.3957916,91.6225501 84.3957916,91.4071363 Z" id="Shape"></path>
                        <path d="M197.48802,59.202778 C197.380313,58.9873642 197.380313,58.7719505 197.48802,58.5565367 L218.92169,26.6752991 C219.137103,26.3521784 218.92169,25.813644 218.490862,25.813644 L194.472227,25.813644 C194.256813,25.813644 194.149106,25.9213509 194.041399,26.0290578 L178.208488,51.6632961 C177.885367,52.0941237 177.239126,51.8787099 177.239126,51.3401755 L177.239126,0.717940026 C177.239126,0.179405607 176.592884,-0.0360081611 176.269764,0.394819375 L155.374628,23.7672132 C155.266921,23.8749201 155.266921,23.982627 155.266921,24.0903338 L155.266921,91.4071363 C155.266921,91.730257 155.482335,91.9456707 155.805456,91.9456707 L176.700591,91.9456707 C177.023712,91.9456707 177.239126,91.730257 177.239126,91.4071363 L177.239126,69.8657595 L177.239126,65.665191 C177.239126,65.1266566 177.885367,64.9112429 178.208488,65.3420704 L195.76471,91.730257 C195.872417,91.8379638 196.08783,91.9456707 196.195537,91.9456707 L219.460224,91.9456707 C219.891052,91.9456707 220.106465,91.4071363 219.891052,91.0840156 L197.48802,59.202778 Z" id="Shape"></path>
                        <path d="M119.831356,93.2381533 C133.402424,93.2381533 147.835146,87.5296885 147.835146,71.5890697 C147.835146,55.6484508 134.479493,52.6326581 124.678166,50.3708135 C119.292822,49.0783309 114.984547,48.108969 114.984547,45.2008831 C114.984547,42.9390385 117.030977,41.538849 120.369891,41.538849 C123.816511,41.538849 126.61689,43.2621592 128.555614,46.6010726 C128.663321,46.8164864 128.986442,46.9241932 129.201855,46.8164864 L145.788715,39.3847114 C146.111836,39.2770045 146.219543,38.9538838 146.004129,38.6307632 C140.941906,29.3679712 132.109941,24.6288683 119.831356,24.6288683 C102.059721,24.5211614 93.9817043,35.3995567 93.9817043,46.170245 C93.9817043,60.9260881 107.121944,64.2650015 116.707857,66.7422599 C122.308615,68.1424494 126.293769,69.2195182 126.293769,72.0198972 C126.293769,73.8509142 125.216701,76.1127588 119.831356,76.1127588 C114.87684,76.1127588 111.322513,73.9586211 109.491496,69.6503457 C109.383789,69.3272251 109.060668,69.2195182 108.737547,69.3272251 L91.6121529,77.9437758 C91.2890322,78.0514827 91.1813253,78.3746033 91.3967391,78.697724 C96.2435489,88.4990504 105.614048,93.2381533 119.831356,93.2381533 Z" id="Shape"></path>
                    </g>
                </g>
                <g id="Group-13" transform="translate(0.433594, 0.529288)">
                    <g id="Page-1-Copy-7" opacity="0.354846014">
                        <mask id="mask-4" fill="white">
                            <use xlink:href="#path-3"></use>
                        </mask>
                        <use id="Clip-2" fill="url(#linearGradient-2)" opacity="0.538439764" xlink:href="#path-3"></use>
                    </g>
                    <g id="Page-1-Copy-8" transform="translate(29.519869, 29.519869)">
                        <mask id="mask-6" fill="white">
                            <use xlink:href="#path-5"></use>
                        </mask>
                        <use id="Clip-2" fill="url(#linearGradient-2)" xlink:href="#path-5"></use>
                        <polygon id="Fill-7" fill="url(#linearGradient-7)" opacity="0.630774457" mask="url(#mask-6)" points="70.220601 84.0193329 70.220601 167.422993 140.441202 125.244383 140.294163 42.0198885"></polygon>
                        <polygon id="Fill-10" fill="url(#linearGradient-8)" opacity="0.0800000057" mask="url(#mask-6)" points="70.220601 83.3588046 70.0626937 166.766432 0 124.94018 0.11361622 41.3633277"></polygon>
                    </g>
                </g>
            </g>
        </g>
    </g>
</svg>