<?xml version="1.0" encoding="UTF-8"?>
<svg width="481px" height="97px" viewBox="0 0 481 97" version="1.1" xmlns="http://www.w3.org/2000/svg" xmlns:xlink="http://www.w3.org/1999/xlink">
    <!-- Generator: Sketch 50.2 (55047) - http://www.bohemiancoding.com/sketch -->
    <title>elements-visual</title>
    <desc>Created with Sketch.</desc>
    <defs>
        <linearGradient x1="-5.00281532%" y1="63.4175428%" x2="109.774775%" y2="24.0167445%" id="linearGradient-1">
            <stop stop-color="#0462F5" offset="0%"></stop>
            <stop stop-color="#00ECFF" offset="100%"></stop>
        </linearGradient>
        <polygon id="path-2" points="0 24.2430068 0 72.7295975 42.2571354 96.9720273 84.5148515 72.7295975 84.5148515 24.2430068 42.2571354 0"></polygon>
        <linearGradient x1="23.148666%" y1="27.4795153%" x2="120.667891%" y2="25.1136313%" id="linearGradient-4">
            <stop stop-color="#0462F5" offset="0%"></stop>
            <stop stop-color="#00ECFF" offset="100%"></stop>
        </linearGradient>
        <polygon id="path-5" points="0.0193882014 8.11996056 0.0193882014 38.747823 14.1274069 46.79513 28.2356194 38.747823 28.2356194 8.11996056 14.1274069 0.0724620259"></polygon>
        <linearGradient x1="89.1768684%" y1="25.3557116%" x2="-21.4648271%" y2="69.2008921%" id="linearGradient-7">
            <stop stop-color="#74F8F8" stop-opacity="0" offset="0%"></stop>
            <stop stop-color="#74F8F8" offset="100%"></stop>
        </linearGradient>
        <linearGradient x1="-52.5060119%" y1="-9.54799107%" x2="100%" y2="95.0482094%" id="linearGradient-8">
            <stop stop-color="#00457D" offset="0%"></stop>
            <stop stop-color="#001A56" offset="100%"></stop>
        </linearGradient>
        <linearGradient x1="0%" y1="100%" x2="72.0882959%" y2="0%" id="linearGradient-9">
            <stop stop-color="#021755" stop-opacity="0" offset="0%"></stop>
            <stop stop-color="#0097FF" offset="100%"></stop>
        </linearGradient>
        <polygon id="path-10" points="0 7.96067579 0 23.8822168 14.1221984 31.8427032 28.2445908 23.8822168 28.2445908 7.96067579 14.1221984 0"></polygon>
        <linearGradient x1="224.377264%" y1="69.9674479%" x2="-19.4463392%" y2="28.8615027%" id="linearGradient-12">
            <stop stop-color="#021755" stop-opacity="0" offset="0%"></stop>
            <stop stop-color="#0097FF" offset="100%"></stop>
        </linearGradient>
        <linearGradient x1="-22.0127589%" y1="81.3158894%" x2="158.606367%" y2="21.6057478%" id="linearGradient-13">
            <stop stop-color="#021755" stop-opacity="0" offset="0%"></stop>
            <stop stop-color="#0097FF" offset="100%"></stop>
        </linearGradient>
        <linearGradient x1="74.3470982%" y1="23.2700893%" x2="-14.5857176%" y2="114.358373%" id="linearGradient-14">
            <stop stop-color="#FF6236" offset="0%"></stop>
            <stop stop-color="#C80039" offset="100%"></stop>
        </linearGradient>
        <polygon id="path-15" points="0.0193882014 8.00628111 0.0193882014 23.8761371 14.1274069 31.8107818 28.2356194 23.8761371 28.2356194 8.00628111 14.1274069 0.0714475576"></polygon>
        <linearGradient x1="118.303283%" y1="0%" x2="0%" y2="70.9118818%" id="linearGradient-17">
            <stop stop-color="#FCBA85" stop-opacity="0" offset="0%"></stop>
            <stop stop-color="#FF2E52" offset="100%"></stop>
        </linearGradient>
        <linearGradient x1="83.4182261%" y1="-22.5146599%" x2="50%" y2="67.8562738%" id="linearGradient-18">
            <stop stop-color="#C8123D" stop-opacity="0" offset="0%"></stop>
            <stop stop-color="#11072C" offset="100%"></stop>
        </linearGradient>
        <linearGradient x1="19.4762866%" y1="88.4126955%" x2="86.0468234%" y2="18.4958616%" id="linearGradient-19">
            <stop stop-color="#004AFF" offset="0%"></stop>
            <stop stop-color="#93F4FE" offset="100%"></stop>
        </linearGradient>
        <polygon id="path-20" points="0.0193042698 8.17787035 0.0193042698 24.3878463 32.9112656 43.5397511 46.9584036 35.4350525 46.9584036 19.2250765 14.0662493 0.0729788094"></polygon>
        <linearGradient x1="186.952514%" y1="69.6927547%" x2="56.925697%" y2="62.1312534%" id="linearGradient-22">
            <stop stop-color="#FFFFFF" offset="0%"></stop>
            <stop stop-color="#93F4FE" offset="100%"></stop>
        </linearGradient>
        <linearGradient x1="81.5041384%" y1="86.0468234%" x2="11.5873045%" y2="19.4762866%" id="linearGradient-23">
            <stop stop-color="#FFFFFF" offset="0%"></stop>
            <stop stop-color="#93F4FE" offset="100%"></stop>
        </linearGradient>
        <polygon id="path-24" points="0.0193042698 8.17787035 0.0193042698 24.3878463 32.9112656 43.5397511 46.9584036 35.4350525 46.9584036 19.2250765 14.0662493 0.0729788094"></polygon>
        <linearGradient x1="-11.5767303%" y1="97.3383988%" x2="158.454557%" y2="-18.1845157%" id="linearGradient-26">
            <stop stop-color="#FFFFFF" stop-opacity="0" offset="0%"></stop>
            <stop stop-color="#93F4FE" offset="100%"></stop>
        </linearGradient>
        <linearGradient x1="-39.1554459%" y1="67.070293%" x2="104.42741%" y2="45.1662372%" id="linearGradient-27">
            <stop stop-color="#FFFFFF" offset="0%"></stop>
            <stop stop-color="#93F4FE" offset="100%"></stop>
        </linearGradient>
    </defs>
    <g id="elements-visual" stroke="none" stroke-width="1" fill="none" fill-rule="evenodd">
        <g id="Group">
            <g id="Elements">
                <g id="core" opacity="0.354846014">
                    <g id="Page-1-Copy-7">
                        <mask id="mask-3" fill="white">
                            <use xlink:href="#path-2"></use>
                        </mask>
                        <use id="Clip-2" fill-opacity="0.9" fill="url(#linearGradient-1)" opacity="0.292912946" xlink:href="#path-2"></use>
                    </g>
                </g>
                <g id="Group-3" transform="translate(9.603960, 12.485149)">
                    <g id="Page-1-Copy-6" transform="translate(17.453965, 0.937270)">
                        <mask id="mask-6" fill="white">
                            <use xlink:href="#path-5"></use>
                        </mask>
                        <use id="Clip-2" fill-opacity="0.9" fill="url(#linearGradient-4)" opacity="0.591825181" xlink:href="#path-5"></use>
                        <polygon id="Fill-7" fill-opacity="0.8" fill="url(#linearGradient-7)" opacity="0.569519928" mask="url(#mask-6)" points="14.1562953 16.2164907 14.1562953 46.7978114 28.2301907 38.6817453 28.2007207 8.13489986"></polygon>
                        <polygon id="Fill-10" fill-opacity="0.8" fill="url(#linearGradient-7)" opacity="0.569519928" mask="url(#mask-6)" points="14.1398153 16.2005937 14.1080187 46.7815314 0 38.7338413 0.0228780777 8.12034362"></polygon>
                    </g>
                    <g id="Page-1-Copy-9" transform="translate(36.283692, 30.282506)">
                        <mask id="mask-11" fill="white">
                            <use xlink:href="#path-10"></use>
                        </mask>
                        <g id="Clip-2">
                            <use fill="url(#linearGradient-8)" xlink:href="#path-10"></use>
                            <use fill="url(#linearGradient-9)" xlink:href="#path-10"></use>
                        </g>
                        <polygon id="Fill-7" fill="url(#linearGradient-12)" mask="url(#mask-11)" points="14.1222954 16.059509 14.1222954 32.0429717 28.2445908 23.9598703 28.2150194 8.01074293"></polygon>
                        <polygon id="Fill-10" fill="url(#linearGradient-13)" opacity="0.379245924" mask="url(#mask-11)" points="14.1222954 16.0587487 14.0905381 32.0429717 0 24.0273961 0.0228497307 8.01074293"></polygon>
                    </g>
                    <g id="Page-1-Copy-10" transform="translate(36.283692, 10.927138)">
                        <mask id="mask-16" fill="white">
                            <use xlink:href="#path-15"></use>
                        </mask>
                        <use id="Clip-2" fill="url(#linearGradient-14)" xlink:href="#path-15"></use>
                        <polygon id="Fill-7" fill="url(#linearGradient-17)" opacity="0.630774457" mask="url(#mask-16)" points="14.1562953 15.9894598 14.1562953 31.8134256 28.2301907 23.8109844 28.2007207 8.02101127"></polygon>
                        <polygon id="Fill-10" fill="url(#linearGradient-18)" opacity="0.100600091" mask="url(#mask-16)" points="14.1398153 15.9737854 14.1080187 31.7973735 0 23.8623511 0.0228780777 8.00665881"></polygon>
                    </g>
                    <g id="Page-1-Copy-7" transform="translate(0.507211, 30.282506)">
                        <mask id="mask-21" fill="white">
                            <use xlink:href="#path-20"></use>
                        </mask>
                        <use id="Clip-2" fill="url(#linearGradient-19)" xlink:href="#path-20"></use>
                        <polygon id="Fill-7" mask="url(#mask-21)" points="32.9427189 27.3512376 32.9427189 43.5143399 46.9556884 35.3403918 46.9263459 19.2120106"></polygon>
                        <polygon id="Fill-10" fill="url(#linearGradient-22)" opacity="0.122678895" mask="url(#mask-21)" points="32.9429246 27.3215948 32.9112656 43.4843114 0 24.373765 0.0227790384 8.17825614"></polygon>
                    </g>
                    <g id="Page-1-Copy-8" transform="translate(0.507211, 10.302771)">
                        <mask id="mask-25" fill="white">
                            <use xlink:href="#path-24"></use>
                        </mask>
                        <use id="Clip-2" fill="url(#linearGradient-23)" xlink:href="#path-24"></use>
                        <polygon id="Fill-7" fill="url(#linearGradient-26)" opacity="0.630774457" mask="url(#mask-25)" points="32.9427189 27.3512376 32.9427189 43.5143399 46.9556884 35.3403918 46.9263459 19.2120106"></polygon>
                        <polygon id="Fill-10" fill="url(#linearGradient-27)" opacity="0.630774457" mask="url(#mask-25)" points="32.9429246 27.3215948 32.9112656 43.4843114 0 24.373765 0.0227790384 8.17825614"></polygon>
                    </g>
                </g>
            </g>
        </g>
        <g id="Group-12" transform="translate(103.000000, 7.000000)" fill="#001A3E">
            <path d="M9.92,71.712 L27.28,71.712 L27.28,81.26 L0,81.26 L0,37.86 L26.97,37.86 L26.97,47.408 L9.92,47.408 L9.92,54.6 L25.42,54.6 L25.42,64.024 L9.92,64.024 L9.92,71.712 Z M32.55,81.26 L32.55,36 L41.85,36 L41.85,81.26 L32.55,81.26 Z M56.978,69.48 C58.156,72.704 61.008,73.82 64.418,73.82 C66.96,73.82 69.13,72.828 70.37,71.464 L77.81,75.742 C74.772,79.958 70.184,82.128 64.294,82.128 C53.692,82.128 47.12,74.998 47.12,65.76 C47.12,56.522 53.816,49.392 63.612,49.392 C72.664,49.392 79.36,56.398 79.36,65.76 C79.36,67.062 79.236,68.302 78.988,69.48 L56.978,69.48 Z M56.792,62.536 L70.122,62.536 C69.13,58.94 66.34,57.638 63.55,57.638 C60.016,57.638 57.66,59.374 56.792,62.536 Z M119.35,49.392 C126.48,49.392 131.13,54.476 131.13,62.226 L131.13,81.26 L121.83,81.26 L121.83,63.032 C121.83,59.932 120.342,57.948 117.366,57.948 C114.266,57.948 112.53,60.118 112.53,63.776 L112.53,81.26 L103.23,81.26 L103.23,63.032 C103.23,59.932 101.742,57.948 98.766,57.948 C95.666,57.948 93.93,60.118 93.93,63.776 L93.93,81.26 L84.63,81.26 L84.63,50.26 L93.93,50.26 L93.93,53.112 C95.356,51.004 98.084,49.392 102.238,49.392 C105.896,49.392 108.624,50.88 110.36,53.484 C112.096,51.004 114.948,49.392 119.35,49.392 Z M145.824,69.48 C147.002,72.704 149.854,73.82 153.264,73.82 C155.806,73.82 157.976,72.828 159.216,71.464 L166.656,75.742 C163.618,79.958 159.03,82.128 153.14,82.128 C142.538,82.128 135.966,74.998 135.966,65.76 C135.966,56.522 142.662,49.392 152.458,49.392 C161.51,49.392 168.206,56.398 168.206,65.76 C168.206,67.062 168.082,68.302 167.834,69.48 L145.824,69.48 Z M145.638,62.536 L158.968,62.536 C157.976,58.94 155.186,57.638 152.396,57.638 C148.862,57.638 146.506,59.374 145.638,62.536 Z M191.642,49.392 C197.904,49.392 203.236,53.856 203.236,62.226 L203.236,81.26 L193.936,81.26 L193.936,63.59 C193.936,59.746 191.518,57.948 188.542,57.948 C185.132,57.948 182.776,59.932 182.776,64.334 L182.776,81.26 L173.476,81.26 L173.476,50.26 L182.776,50.26 L182.776,53.174 C184.45,50.88 187.55,49.392 191.642,49.392 Z M227.788,59.188 L221.402,59.188 L221.402,70.162 C221.402,72.828 223.696,73.076 227.788,72.828 L227.788,81.26 C215.636,82.5 212.102,78.842 212.102,70.162 L212.102,59.188 L207.142,59.188 L207.142,50.26 L212.102,50.26 L212.102,44.37 L221.402,41.58 L221.402,50.26 L227.788,50.26 L227.788,59.188 Z M242.482,59.312 C242.482,62.846 257.734,60.49 257.734,71.96 C257.734,79.09 251.534,82.128 244.838,82.128 C238.638,82.128 233.926,79.772 231.508,74.75 L239.568,70.162 C240.374,72.518 242.11,73.82 244.838,73.82 C247.07,73.82 248.186,73.138 248.186,71.898 C248.186,68.488 232.934,70.286 232.934,59.56 C232.934,52.802 238.638,49.392 245.086,49.392 C250.108,49.392 254.572,51.624 257.176,56.026 L249.24,60.304 C248.372,58.692 247.132,57.576 245.086,57.576 C243.474,57.576 242.482,58.196 242.482,59.312 Z" id="Elements"></path>
            <path d="M5.12258425,17.1279392 C5.12258425,17.2079604 5.19791637,17.2613078 5.24813778,17.2613078 L12.4298,17.2613078 C12.5051321,17.2613078 12.5553535,17.3146553 12.5553535,17.3946764 L12.5553535,22.5960517 C12.5553535,22.6760729 12.5051321,22.7294203 12.4298,22.7294203 L5.12258425,22.7294203 L0.125553535,22.7294203 C0.0502214142,22.7294203 0,22.6760729 0,22.5960517 L0,5.95165076 C0,5.92497704 0,5.89830332 0.0251107071,5.8716296 L4.89658788,0.0834324762 C4.97192,-0.0232624018 5.12258425,0.0300850372 5.12258425,0.163453635 L5.12258425,17.1279392 Z M19.6365729,22.5960517 C19.6365729,22.6493992 19.5863515,22.7294203 19.5110194,22.7294203 L14.6395422,22.7294203 C14.5642101,22.7294203 14.5139887,22.6760729 14.5139887,22.5960517 L14.5139887,12.486712 C14.5139887,12.4600383 14.5139887,12.4333646 14.5390994,12.4066909 L19.4105766,6.61849375 C19.4859087,6.51179887 19.6365729,6.56514631 19.6365729,6.69851491 L19.6365729,22.5960517 Z M46.0028154,14.6206096 L51.2258425,22.5160306 C51.2760639,22.5960517 51.2258425,22.7294203 51.1253996,22.7294203 L45.7014869,22.7294203 C45.6763762,22.7294203 45.6261548,22.7027466 45.6010441,22.6760729 L41.5079988,16.1410116 C41.4326667,16.0343167 41.2820024,16.0876642 41.2820024,16.2210328 L41.2820024,17.2613078 L41.2820024,22.5960517 C41.2820024,22.6760729 41.231781,22.7294203 41.1564489,22.7294203 L36.2849717,22.7294203 C36.2096396,22.7294203 36.1594182,22.6760729 36.1594182,22.5960517 L36.1594182,5.92497704 C36.1594182,5.89830332 36.1594182,5.8716296 36.1845289,5.84495588 L41.0560061,0.0567587567 C41.1313382,-0.0499361213 41.2820024,0.00341131771 41.2820024,0.136779915 L41.2820024,12.6734281 C41.2820024,12.8067967 41.4326667,12.8601441 41.5079988,12.7534492 L45.1992728,6.40510399 C45.2243835,6.37843027 45.2494942,6.35175655 45.2997156,6.35175655 L50.8994033,6.35175655 C50.9998461,6.35175655 51.0500675,6.48512515 50.9998461,6.56514631 L46.0028154,14.4605673 C45.9777047,14.5139147 45.9777047,14.5672622 46.0028154,14.6206096 Z M27.8979956,23.049505 C24.5833822,23.049505 22.3987507,21.8758613 21.2687689,19.4485528 C21.2185475,19.3685317 21.2436582,19.2885105 21.3189903,19.2618368 L25.3115927,17.1279392 C25.3869249,17.1012655 25.462257,17.1279392 25.4873677,17.2079604 C25.9142497,18.2749092 26.742903,18.8083836 27.8979956,18.8083836 C29.1535309,18.8083836 29.404638,18.2482354 29.404638,17.7947822 C29.404638,17.1012655 28.4755418,16.8345283 27.1697851,16.48777 C24.9349321,15.8742744 21.8714259,15.0473891 21.8714259,11.3930895 C21.8714259,8.72571759 23.7547289,6.03167192 27.8979956,6.05834564 C30.7606162,6.05834564 32.8196942,7.2319893 33.9998974,9.52592917 C34.0501188,9.60595033 34.0250081,9.68597149 33.949676,9.71264521 L30.0826271,11.5531319 C30.0324057,11.5798056 29.9570736,11.5531319 29.9319628,11.4997844 C29.4799701,10.6728991 28.8270917,10.2461196 28.0235491,10.2461196 C27.2451172,10.2461196 26.7680138,10.592878 26.7680138,11.1530261 C26.7680138,11.8732165 27.772442,12.11328 29.0279774,12.4333646 C31.3130517,12.9935127 34.4267794,13.7403769 34.4267794,17.6880873 C34.4267794,21.6357978 31.0619447,23.049505 27.8979956,23.049505 Z" id="Combined-Shape-Copy-24"></path>
        </g>
    </g>
</svg>