<?xml version="1.0" encoding="UTF-8"?>
<svg width="562px" height="229px" viewBox="0 0 562 229" version="1.1" xmlns="http://www.w3.org/2000/svg" xmlns:xlink="http://www.w3.org/1999/xlink">
    <!-- Generator: Sketch 48.2 (47327) - http://www.bohemiancoding.com/sketch -->
    <title>Elements</title>
    <desc>Created with Sketch.</desc>
    <defs>
        <linearGradient x1="-5.00281532%" y1="63.4175428%" x2="109.774775%" y2="24.0167445%" id="linearGradient-1">
            <stop stop-color="#0462F5" offset="0%"></stop>
            <stop stop-color="#00ECFF" offset="100%"></stop>
        </linearGradient>
        <polygon id="path-2" points="0 56.9880231 0 170.965426 99.2549974 227.952092 198.511359 170.965426 198.511359 56.9880231 99.2549974 0"></polygon>
        <linearGradient x1="89.1768684%" y1="25.3557116%" x2="-21.4648271%" y2="69.2008921%" id="linearGradient-4">
            <stop stop-color="#74F8F8" stop-opacity="0" offset="0%"></stop>
            <stop stop-color="#74F8F8" offset="100%"></stop>
        </linearGradient>
        <linearGradient x1="23.148666%" y1="27.4795153%" x2="120.667891%" y2="25.1136313%" id="linearGradient-5">
            <stop stop-color="#0462F5" offset="0%"></stop>
            <stop stop-color="#00ECFF" offset="100%"></stop>
        </linearGradient>
        <polygon id="path-6" points="0.0462647184 19.3760979 0.0462647184 92.4612386 33.7112497 111.663968 67.3766974 92.4612386 67.3766974 19.3760979 33.7112497 0.172911099"></polygon>
        <linearGradient x1="-52.5060119%" y1="-9.54799107%" x2="100%" y2="95.0482094%" id="linearGradient-8">
            <stop stop-color="#00457D" offset="0%"></stop>
            <stop stop-color="#001A56" offset="100%"></stop>
        </linearGradient>
        <linearGradient x1="0%" y1="100%" x2="72.0882959%" y2="0%" id="linearGradient-9">
            <stop stop-color="#021755" stop-opacity="0" offset="0%"></stop>
            <stop stop-color="#0097FF" offset="100%"></stop>
        </linearGradient>
        <polygon id="path-10" points="0 18.9960077 0 56.9884752 33.698821 75.9840308 67.3981052 56.9884752 67.3981052 18.9960077 33.698821 0"></polygon>
        <linearGradient x1="224.377264%" y1="69.9674479%" x2="-19.4463392%" y2="28.8615027%" id="linearGradient-12">
            <stop stop-color="#021755" stop-opacity="0" offset="0%"></stop>
            <stop stop-color="#0097FF" offset="100%"></stop>
        </linearGradient>
        <linearGradient x1="-22.0127589%" y1="81.3158894%" x2="158.606367%" y2="21.6057478%" id="linearGradient-13">
            <stop stop-color="#021755" stop-opacity="0" offset="0%"></stop>
            <stop stop-color="#0097FF" offset="100%"></stop>
        </linearGradient>
        <linearGradient x1="74.3470982%" y1="23.2700893%" x2="-14.5857176%" y2="114.358373%" id="linearGradient-14">
            <stop stop-color="#FF6236" offset="0%"></stop>
            <stop stop-color="#C80039" offset="100%"></stop>
        </linearGradient>
        <polygon id="path-15" points="0.0462647184 19.1048325 0.0462647184 56.9739675 33.7112497 75.907859 67.3766974 56.9739675 67.3766974 19.1048325 33.7112497 0.170490344"></polygon>
        <linearGradient x1="118.303283%" y1="0%" x2="0%" y2="70.9118818%" id="linearGradient-17">
            <stop stop-color="#FCBA85" stop-opacity="0" offset="0%"></stop>
            <stop stop-color="#FF2E52" offset="100%"></stop>
        </linearGradient>
        <linearGradient x1="83.4182261%" y1="-22.5146599%" x2="50%" y2="67.8562738%" id="linearGradient-18">
            <stop stop-color="#C8123D" stop-opacity="0" offset="0%"></stop>
            <stop stop-color="#11072C" offset="100%"></stop>
        </linearGradient>
        <linearGradient x1="19.4762866%" y1="88.4126955%" x2="86.0468234%" y2="18.4958616%" id="linearGradient-19">
            <stop stop-color="#004AFF" offset="0%"></stop>
            <stop stop-color="#93F4FE" offset="100%"></stop>
        </linearGradient>
        <polygon id="path-20" points="0.0460644383 19.514284 0.0460644383 58.1950238 78.5338671 103.895884 112.053577 84.5562044 112.053577 45.8754647 33.5653136 0.174144264"></polygon>
        <linearGradient x1="186.952514%" y1="69.6927547%" x2="56.925697%" y2="62.1312534%" id="linearGradient-22">
            <stop stop-color="#FFFFFF" offset="0%"></stop>
            <stop stop-color="#93F4FE" offset="100%"></stop>
        </linearGradient>
        <linearGradient x1="81.5041384%" y1="86.0468234%" x2="11.5873045%" y2="19.4762866%" id="linearGradient-23">
            <stop stop-color="#FFFFFF" offset="0%"></stop>
            <stop stop-color="#93F4FE" offset="100%"></stop>
        </linearGradient>
        <polygon id="path-24" points="0.0460644383 19.514284 0.0460644383 58.1950238 78.5338671 103.895884 112.053577 84.5562044 112.053577 45.8754647 33.5653136 0.174144264"></polygon>
        <linearGradient x1="-11.5767303%" y1="97.3383988%" x2="158.454557%" y2="-18.1845157%" id="linearGradient-26">
            <stop stop-color="#FFFFFF" stop-opacity="0" offset="0%"></stop>
            <stop stop-color="#93F4FE" offset="100%"></stop>
        </linearGradient>
        <linearGradient x1="-39.1554459%" y1="67.070293%" x2="104.42741%" y2="45.1662372%" id="linearGradient-27">
            <stop stop-color="#FFFFFF" offset="0%"></stop>
            <stop stop-color="#93F4FE" offset="100%"></stop>
        </linearGradient>
        <linearGradient x1="-4.40172591%" y1="-4.44313837%" x2="100%" y2="95.0482094%" id="linearGradient-28">
            <stop stop-color="#00335D" offset="0%"></stop>
            <stop stop-color="#001A56" offset="100%"></stop>
        </linearGradient>
    </defs>
    <g id="Page-1" stroke="none" stroke-width="1" fill="none" fill-rule="evenodd">
        <g id="Lisked" transform="translate(-1.086544, 0.000000)">
            <g id="Elements">
                <g id="Group-Copy" transform="translate(0.846615, 0.195312)">
                    <g id="1-build-copy" opacity="0.100000001" transform="translate(0.507557, 0.684541)">
                        <mask id="mask-3" fill="white">
                            <use xlink:href="#path-2"></use>
                        </mask>
                        <use id="Clip-2" fill-opacity="0.9" fill="url(#linearGradient-1)" xlink:href="#path-2"></use>
                        <polygon id="Fill-7" fill-opacity="0.8" fill="url(#linearGradient-4)" opacity="0.569519928" mask="url(#mask-3)" points="99.9308882 114.692445 99.9308882 227.952092 198.511359 170.674816 198.304936 57.6584704"></polygon>
                        <polygon id="Fill-10" fill-opacity="0.8" fill="url(#linearGradient-4)" opacity="0.569519928" mask="url(#mask-3)" points="99.9308882 114.687057 99.7061704 227.952092 0 171.153307 0.161687163 57.6584704"></polygon>
                    </g>
                    <g id="Page-1-Copy-6" transform="translate(64.566449, 29.737258)">
                        <mask id="mask-7" fill="white">
                            <use xlink:href="#path-6"></use>
                        </mask>
                        <use id="Clip-2" fill-opacity="0.9" fill="url(#linearGradient-5)" opacity="0.591825181" xlink:href="#path-6"></use>
                        <polygon id="Fill-7" fill-opacity="0.8" fill="url(#linearGradient-4)" opacity="0.569519928" mask="url(#mask-7)" points="33.7801842 38.6962853 33.7801842 111.670367 67.3637433 92.303562 67.2934209 19.4117465"></polygon>
                        <polygon id="Fill-10" fill-opacity="0.8" fill="url(#linearGradient-4)" opacity="0.569519928" mask="url(#mask-7)" points="33.7408592 38.6583515 33.664985 111.631519 0 92.4278752 0.0545923678 19.3770119"></polygon>
                    </g>
                    <g id="Page-1-Copy-9" transform="translate(109.498519, 99.761757)">
                        <mask id="mask-11" fill="white">
                            <use xlink:href="#path-10"></use>
                        </mask>
                        <g id="Clip-2">
                            <use fill="url(#linearGradient-8)" xlink:href="#path-10"></use>
                            <use fill="url(#linearGradient-9)" xlink:href="#path-10"></use>
                        </g>
                        <polygon id="Fill-7" fill="url(#linearGradient-12)" mask="url(#mask-11)" points="33.6990526 38.3216909 33.6990526 76.4619177 67.3981052 57.1737743 67.3275409 19.1154794"></polygon>
                        <polygon id="Fill-10" fill="url(#linearGradient-13)" opacity="0.379245924" mask="url(#mask-11)" points="33.6990526 38.3198765 33.6232725 76.4619177 0 57.3349063 0.0545247251 19.1154794"></polygon>
                    </g>
                    <g id="Page-1-Copy-10" transform="translate(109.498519, 53.575386)">
                        <mask id="mask-16" fill="white">
                            <use xlink:href="#path-15"></use>
                        </mask>
                        <use id="Clip-2" fill="url(#linearGradient-14)" xlink:href="#path-15"></use>
                        <polygon id="Fill-7" fill="url(#linearGradient-17)" opacity="0.630774457" mask="url(#mask-16)" points="33.7801842 38.1545373 33.7801842 75.9141679 67.3637433 56.8184983 67.2934209 19.1399821"></polygon>
                        <polygon id="Fill-10" fill="url(#linearGradient-18)" opacity="0.100600091" mask="url(#mask-16)" points="33.7408592 38.1171346 33.664985 75.8758639 0 56.9410711 0.0545923677 19.1057338"></polygon>
                    </g>
                    <g id="Page-1-Copy-7" transform="translate(24.127586, 99.761757)">
                        <mask id="mask-21" fill="white">
                            <use xlink:href="#path-20"></use>
                        </mask>
                        <use id="Clip-2" fill="url(#linearGradient-19)" xlink:href="#path-20"></use>
                        <polygon id="Fill-7" mask="url(#mask-21)" points="78.608922 65.2663584 78.608922 103.835247 112.047098 84.3303222 111.97708 45.8442865"></polygon>
                        <polygon id="Fill-10" fill="url(#linearGradient-22)" opacity="0.122678895" mask="url(#mask-21)" points="78.6094128 65.1956239 78.5338671 103.763592 0 58.1614224 0.0543560372 19.5152046"></polygon>
                    </g>
                    <g id="Page-1-Copy-8" transform="translate(24.127586, 52.085503)">
                        <mask id="mask-25" fill="white">
                            <use xlink:href="#path-24"></use>
                        </mask>
                        <use id="Clip-2" fill="url(#linearGradient-23)" xlink:href="#path-24"></use>
                        <polygon id="Fill-7" fill="url(#linearGradient-26)" opacity="0.630774457" mask="url(#mask-25)" points="78.608922 65.2663584 78.608922 103.835247 112.047098 84.3303222 111.97708 45.8442865"></polygon>
                        <polygon id="Fill-10" fill="url(#linearGradient-27)" opacity="0.630774457" mask="url(#mask-25)" points="78.6094128 65.1956239 78.5338671 103.763592 0 58.1614224 0.0543560372 19.5152046"></polygon>
                    </g>
                </g>
                <g id="Group" transform="translate(236.000000, 20.427494)">
                    <text id="Elements" font-family="Gilroy-Light, Gilroy" font-size="79" font-weight="300" fill="#081A4B">
                        <tspan x="0.981554441" y="171.927494">Elements</tspan>
                    </text>
                    <g id="Lisk-Logo" transform="translate(7.981554, 0.290634)" fill="#03183E" fill-rule="nonzero">
                        <path d="M22.1412127,69.3272251 L22.1412127,0.82564691 C22.1412127,0.287112491 21.4949714,0.0716987228 21.1718508,0.502526259 L0.276715293,23.8749201 C0.169008409,23.982627 0.169008409,24.0903338 0.169008409,24.1980407 L0.169008409,91.4071363 C0.169008409,91.730257 0.384422177,91.9456707 0.707542829,91.9456707 L22.1412127,91.9456707 L53.483916,91.9456707 C53.8070366,91.9456707 54.0224504,91.730257 54.0224504,91.4071363 L54.0224504,70.4042939 C54.0224504,70.0811733 53.8070366,69.8657595 53.483916,69.8657595 L22.6797472,69.8657595 C22.4643334,69.8657595 22.1412127,69.6503457 22.1412127,69.3272251 Z" id="Shape"></path>
                        <path d="M84.3957916,91.4071363 L84.3957916,27.2138335 C84.3957916,26.6752991 83.7495503,26.4598853 83.4264297,26.8907128 L62.5312942,50.2631066 C62.4235873,50.3708135 62.4235873,50.4785204 62.4235873,50.5862273 L62.4235873,91.4071363 C62.4235873,91.730257 62.6390011,91.9456707 62.9621217,91.9456707 L83.8572572,91.9456707 C84.1803779,91.9456707 84.3957916,91.6225501 84.3957916,91.4071363 Z" id="Shape"></path>
                        <path d="M197.48802,59.202778 C197.380313,58.9873642 197.380313,58.7719505 197.48802,58.5565367 L218.92169,26.6752991 C219.137103,26.3521784 218.92169,25.813644 218.490862,25.813644 L194.472227,25.813644 C194.256813,25.813644 194.149106,25.9213509 194.041399,26.0290578 L178.208488,51.6632961 C177.885367,52.0941237 177.239126,51.8787099 177.239126,51.3401755 L177.239126,0.717940026 C177.239126,0.179405607 176.592884,-0.0360081611 176.269764,0.394819375 L155.374628,23.7672132 C155.266921,23.8749201 155.266921,23.982627 155.266921,24.0903338 L155.266921,91.4071363 C155.266921,91.730257 155.482335,91.9456707 155.805456,91.9456707 L176.700591,91.9456707 C177.023712,91.9456707 177.239126,91.730257 177.239126,91.4071363 L177.239126,69.8657595 L177.239126,65.665191 C177.239126,65.1266566 177.885367,64.9112429 178.208488,65.3420704 L195.76471,91.730257 C195.872417,91.8379638 196.08783,91.9456707 196.195537,91.9456707 L219.460224,91.9456707 C219.891052,91.9456707 220.106465,91.4071363 219.891052,91.0840156 L197.48802,59.202778 Z" id="Shape"></path>
                        <path d="M119.831356,93.2381533 C133.402424,93.2381533 147.835146,87.5296885 147.835146,71.5890697 C147.835146,55.6484508 134.479493,52.6326581 124.678166,50.3708135 C119.292822,49.0783309 114.984547,48.108969 114.984547,45.2008831 C114.984547,42.9390385 117.030977,41.538849 120.369891,41.538849 C123.816511,41.538849 126.61689,43.2621592 128.555614,46.6010726 C128.663321,46.8164864 128.986442,46.9241932 129.201855,46.8164864 L145.788715,39.3847114 C146.111836,39.2770045 146.219543,38.9538838 146.004129,38.6307632 C140.941906,29.3679712 132.109941,24.6288683 119.831356,24.6288683 C102.059721,24.5211614 93.9817043,35.3995567 93.9817043,46.170245 C93.9817043,60.9260881 107.121944,64.2650015 116.707857,66.7422599 C122.308615,68.1424494 126.293769,69.2195182 126.293769,72.0198972 C126.293769,73.8509142 125.216701,76.1127588 119.831356,76.1127588 C114.87684,76.1127588 111.322513,73.9586211 109.491496,69.6503457 C109.383789,69.3272251 109.060668,69.2195182 108.737547,69.3272251 L91.6121529,77.9437758 C91.2890322,78.0514827 91.1813253,78.3746033 91.3967391,78.697724 C96.2435489,88.4990504 105.614048,93.2381533 119.831356,93.2381533 Z" id="Shape"></path>
                    </g>
                </g>
            </g>
        </g>
    </g>
</svg>