<?xml version="1.0" encoding="UTF-8"?>
<svg width="481px" height="97px" viewBox="0 0 481 97" version="1.1" xmlns="http://www.w3.org/2000/svg" xmlns:xlink="http://www.w3.org/1999/xlink">
    <!-- Generator: Sketch 50.2 (55047) - http://www.bohemiancoding.com/sketch -->
    <title>explorer-visual</title>
    <desc>Created with Sketch.</desc>
    <defs>
        <linearGradient x1="76.3263889%" y1="-9.16241497%" x2="28.7951389%" y2="170.711097%" id="linearGradient-1">
            <stop stop-color="#DCFCFF" offset="0%"></stop>
            <stop stop-color="#FFFFFF" offset="28.6644999%"></stop>
            <stop stop-color="#FAFFFF" offset="49.7674645%"></stop>
            <stop stop-color="#93F4FE" offset="100%"></stop>
        </linearGradient>
        <linearGradient x1="117.291206%" y1="145.341196%" x2="-19.4463392%" y2="28.8615027%" id="linearGradient-2">
            <stop stop-color="#021755" stop-opacity="0" offset="0%"></stop>
            <stop stop-color="#0097FF" offset="100%"></stop>
        </linearGradient>
        <linearGradient x1="117.291206%" y1="145.341196%" x2="-41.1504425%" y2="-56.0785976%" id="linearGradient-3">
            <stop stop-color="#021755" stop-opacity="0" offset="0%"></stop>
            <stop stop-color="#0097FF" offset="100%"></stop>
        </linearGradient>
        <linearGradient x1="19.4762866%" y1="88.4126955%" x2="86.0468234%" y2="18.4958616%" id="linearGradient-4">
            <stop stop-color="#004AFF" offset="0%"></stop>
            <stop stop-color="#93F4FE" offset="100%"></stop>
        </linearGradient>
        <polygon id="path-5" points="0 4.10760319 0 9.58821583 26.5530297 25.655274 33.5979924 21.5482767 33.5979924 16.0667985 7.04496271 -0.000259662633"></polygon>
        <linearGradient x1="186.952514%" y1="69.6927547%" x2="56.925697%" y2="62.1312534%" id="linearGradient-7">
            <stop stop-color="#FFFFFF" offset="0%"></stop>
            <stop stop-color="#93F4FE" offset="100%"></stop>
        </linearGradient>
        <linearGradient x1="100%" y1="68.2837664%" x2="-19.4463392%" y2="28.8615027%" id="linearGradient-8">
            <stop stop-color="#021755" stop-opacity="0" offset="0%"></stop>
            <stop stop-color="#0097FF" offset="100%"></stop>
        </linearGradient>
        <polygon id="path-9" points="0 4.10760319 0 9.58821583 26.5530297 25.655274 33.5979924 21.5482767 33.5979924 16.0667985 7.04496271 -0.000259662633"></polygon>
        <polygon id="path-11" points="0 4.10760319 0 9.58821583 26.5530297 25.655274 33.5979924 21.5482767 33.5979924 16.0667985 7.04496271 -0.000259662633"></polygon>
        <linearGradient x1="74.3470982%" y1="23.2700893%" x2="-14.5857176%" y2="114.358373%" id="linearGradient-13">
            <stop stop-color="#FF6236" offset="0%"></stop>
            <stop stop-color="#C80039" offset="100%"></stop>
        </linearGradient>
        <polygon id="path-14" points="0.754386601 4.40128163 0.754386601 13.2038449 28.9669807 30.4185501 36.4522535 26.0172685 36.4522535 17.2147052 8.23965948 0"></polygon>
        <linearGradient x1="83.4182261%" y1="-22.5146599%" x2="50%" y2="67.8562738%" id="linearGradient-16">
            <stop stop-color="#C8123D" stop-opacity="0" offset="0%"></stop>
            <stop stop-color="#11072C" offset="100%"></stop>
        </linearGradient>
        <linearGradient x1="13.7721689%" y1="-23.1991612%" x2="100%" y2="100%" id="linearGradient-17">
            <stop stop-color="#FCBA85" stop-opacity="0" offset="0%"></stop>
            <stop stop-color="#FF2E52" offset="100%"></stop>
        </linearGradient>
    </defs>
    <g id="explorer-visual" stroke="none" stroke-width="1" fill="none" fill-rule="evenodd">
        <g id="Group-2" transform="translate(0.000000, 2.000000)">
            <g id="Group-5" transform="translate(0.000000, 11.000000)">
                <g id="Group" transform="translate(0.000000, 0.405941)">
                    <g id="Group-4" transform="translate(0.000000, 2.596626)">
                        <g id="Group-3">
                            <g id="lisk-hub-copy">
                                <g id="Group-21-Copy">
                                    <g id="Page-1">
                                        <polygon id="Fill-1" fill="url(#linearGradient-1)" points="46.0986411 0.000162680204 4.09768977e-05 27.147015 4.09768977e-05 40.3655949 46.0986411 67.5124472 92.1980608 40.3655949 92.1980608 27.147015"></polygon>
                                        <polygon id="Fill-2" fill="url(#linearGradient-2)" opacity="0.104619565" points="46.3040583 54.491117 46.3040583 67.5124472 92.1981837 40.1541107 92.101888 27.2490968"></polygon>
                                        <polygon id="Fill-3" fill="url(#linearGradient-3)" opacity="0.0828238225" points="0 40.382473 46.1998131 67.5122439 46.3038944 54.4884735 0.0749877228 27.2488935"></polygon>
                                    </g>
                                </g>
                            </g>
                        </g>
                    </g>
                    <g id="Fill-1-+-Fill-7-Mask-Copy" transform="translate(26.711576, 16.445300)">
                        <mask id="mask-6" fill="white">
                            <use xlink:href="#path-5"></use>
                        </mask>
                        <use id="Mask" fill="url(#linearGradient-4)" xlink:href="#path-5"></use>
                        <polygon id="Fill-1" fill="url(#linearGradient-7)" opacity="0.122678895" mask="url(#mask-6)" points="26.5789658 20.1986369 26.5634558 25.6558799 8.61663736e-05 9.60959472 0.0112877949 4.13590642"></polygon>
                        <polygon id="Fill-7" fill="url(#linearGradient-8)" opacity="0.268415179" mask="url(#mask-6)" points="33.5982509 16.0671447 26.5791381 20.1983772 26.5532882 25.6556202 33.5982509 21.5477574"></polygon>
                    </g>
                    <g id="Fill-1-+-Fill-7-Mask-Copy-2" transform="translate(42.221523, 7.789879)">
                        <mask id="mask-10" fill="white">
                            <use xlink:href="#path-9"></use>
                        </mask>
                        <use id="Mask" fill="url(#linearGradient-4)" xlink:href="#path-9"></use>
                        <polygon id="Fill-1" fill="url(#linearGradient-7)" opacity="0.122678895" mask="url(#mask-10)" points="26.5789658 20.1986369 26.5634558 25.6558799 8.61663736e-05 9.60959472 0.0112877949 4.13590642"></polygon>
                        <polygon id="Fill-7" fill="url(#linearGradient-8)" opacity="0.268415179" mask="url(#mask-10)" points="33.5982509 16.0671447 26.5791381 20.1983772 26.5532882 25.6556202 33.5982509 21.5477574"></polygon>
                    </g>
                    <g id="Fill-1-+-Fill-7-Mask" transform="translate(17.233275, 21.638553)">
                        <mask id="mask-12" fill="white">
                            <use xlink:href="#path-11"></use>
                        </mask>
                        <use id="Mask" fill="url(#linearGradient-4)" xlink:href="#path-11"></use>
                        <polygon id="Fill-1" fill="url(#linearGradient-7)" opacity="0.122678895" mask="url(#mask-12)" points="26.5789658 20.1986369 26.5634558 25.6558799 8.61663736e-05 9.60959472 0.0112877949 4.13590642"></polygon>
                        <polygon id="Fill-7" fill="url(#linearGradient-8)" opacity="0.268415179" mask="url(#mask-12)" points="33.5982509 16.0671447 26.5791381 20.1983772 26.5532882 25.6556202 33.5982509 21.5477574"></polygon>
                    </g>
                    <g id="Fill-18-Copy" transform="translate(32.743222, 0.000000)">
                        <mask id="mask-15" fill="white">
                            <use xlink:href="#path-14"></use>
                        </mask>
                        <use id="Mask" fill="url(#linearGradient-13)" xlink:href="#path-14"></use>
                        <polygon id="Fill-14" fill="url(#linearGradient-16)" opacity="0.0800000057" mask="url(#mask-15)" points="28.9944462 21.6385527 28.9944462 30.2939738 0.766288332 13.8486738 0.766288332 4.63683273"></polygon>
                        <polygon id="Fill-18" fill="url(#linearGradient-17)" opacity="0.630774457" mask="url(#mask-15)" points="36.4287689 17.2898811 29.0515101 21.6723695 29.0438379 30.4618142 36.4287689 25.9662633"></polygon>
                    </g>
                </g>
            </g>
            <g id="Group-9" transform="translate(111.000000, 0.000000)" fill="#001A3E">
                <path d="M10.64,70.452 L28,70.452 L28,80 L0.72,80 L0.72,36.6 L27.69,36.6 L27.69,46.148 L10.64,46.148 L10.64,53.34 L26.14,53.34 L26.14,62.764 L10.64,62.764 L10.64,70.452 Z M62.72,80 L52.056,80 L46.29,71.816 L40.524,80 L29.86,80 L40.958,64.252 L30.232,49 L40.896,49 L46.29,56.688 L51.684,49 L62.348,49 L51.622,64.252 L62.72,80 Z M84.668,48.132 C92.79,48.132 99.486,55.262 99.486,64.5 C99.486,73.738 92.79,80.868 84.668,80.868 C80.514,80.868 77.476,79.442 75.43,77.086 L75.43,92.4 L66.13,92.4 L66.13,49 L75.43,49 L75.43,51.914 C77.476,49.558 80.514,48.132 84.668,48.132 Z M82.808,72.064 C87.086,72.064 90.186,69.15 90.186,64.5 C90.186,59.85 87.086,56.936 82.808,56.936 C78.53,56.936 75.43,59.85 75.43,64.5 C75.43,69.15 78.53,72.064 82.808,72.064 Z M104.756,80 L104.756,34.74 L114.056,34.74 L114.056,80 L104.756,80 Z M135.756,80.868 C126.642,80.868 119.326,73.738 119.326,64.5 C119.326,55.262 126.642,48.132 135.756,48.132 C144.87,48.132 152.186,55.262 152.186,64.5 C152.186,73.738 144.87,80.868 135.756,80.868 Z M135.756,71.816 C139.786,71.816 142.886,68.902 142.886,64.5 C142.886,60.098 139.786,57.184 135.756,57.184 C131.726,57.184 128.626,60.098 128.626,64.5 C128.626,68.902 131.726,71.816 135.756,71.816 Z M166.756,54.518 C167.996,50.364 172.15,48.38 176.056,48.38 L176.056,58.92 C172.212,58.3 166.756,59.85 166.756,65.988 L166.756,80 L157.456,80 L157.456,49 L166.756,49 L166.756,54.518 Z M188.704,68.22 C189.882,71.444 192.734,72.56 196.144,72.56 C198.686,72.56 200.856,71.568 202.096,70.204 L209.536,74.482 C206.498,78.698 201.91,80.868 196.02,80.868 C185.418,80.868 178.846,73.738 178.846,64.5 C178.846,55.262 185.542,48.132 195.338,48.132 C204.39,48.132 211.086,55.138 211.086,64.5 C211.086,65.802 210.962,67.042 210.714,68.22 L188.704,68.22 Z M188.518,61.276 L201.848,61.276 C200.856,57.68 198.066,56.378 195.276,56.378 C191.742,56.378 189.386,58.114 188.518,61.276 Z M225.656,54.518 C226.896,50.364 231.05,48.38 234.956,48.38 L234.956,58.92 C231.112,58.3 225.656,59.85 225.656,65.988 L225.656,80 L216.356,80 L216.356,49 L225.656,49 L225.656,54.518 Z" id="Explorer"></path>
                <path d="M6.2225458,17.1279392 C6.2225458,17.2079604 6.29934794,17.2613078 6.35054937,17.2613078 L13.6723538,17.2613078 C13.7491559,17.2613078 13.8003573,17.3146553 13.8003573,17.3946764 L13.8003573,22.5960517 C13.8003573,22.6760729 13.7491559,22.7294203 13.6723538,22.7294203 L6.2225458,22.7294203 L1.12800357,22.7294203 C1.05120143,22.7294203 1,22.6760729 1,22.5960517 L1,5.95165076 C1,5.92497704 1,5.89830332 1.02560071,5.8716296 L5.99213937,0.0834324762 C6.06894151,-0.0232624018 6.2225458,0.0300850372 6.2225458,0.163453635 L6.2225458,17.1279392 Z M21.0197589,22.5960517 C21.0197589,22.6493992 20.9685575,22.7294203 20.8917553,22.7294203 L15.9252167,22.7294203 C15.8484145,22.7294203 15.7972131,22.6760729 15.7972131,22.5960517 L15.7972131,12.486712 C15.7972131,12.4600383 15.7972131,12.4333646 15.8228138,12.4066909 L20.7893525,6.61849375 C20.8661546,6.51179887 21.0197589,6.56514631 21.0197589,6.69851491 L21.0197589,22.5960517 Z M47.9005093,14.6206096 L53.225458,22.5160306 C53.2766594,22.5960517 53.225458,22.7294203 53.1230551,22.7294203 L47.5933008,22.7294203 C47.5677,22.7294203 47.5164986,22.7027466 47.4908979,22.6760729 L43.3179814,16.1410116 C43.2411793,16.0343167 43.087575,16.0876642 43.087575,16.2210328 L43.087575,17.2613078 L43.087575,22.5960517 C43.087575,22.6760729 43.0363735,22.7294203 42.9595714,22.7294203 L37.9930327,22.7294203 C37.9162306,22.7294203 37.8650292,22.6760729 37.8650292,22.5960517 L37.8650292,5.92497704 C37.8650292,5.89830332 37.8650292,5.8716296 37.8906299,5.84495588 L42.8571685,0.0567587567 C42.9339707,-0.0499361213 43.087575,0.00341131771 43.087575,0.136779915 L43.087575,12.6734281 C43.087575,12.8067967 43.2411793,12.8601441 43.3179814,12.7534492 L47.0812865,6.40510399 C47.1068872,6.37843027 47.1324879,6.35175655 47.1836893,6.35175655 L52.8926487,6.35175655 C52.9950516,6.35175655 53.046253,6.48512515 52.9950516,6.56514631 L47.9005093,14.4605673 C47.8749086,14.5139147 47.8749086,14.5672622 47.9005093,14.6206096 Z M29.442394,23.049505 C26.0630997,23.049505 23.8358375,21.8758613 22.6838053,19.4485528 C22.6326039,19.3685317 22.6582046,19.2885105 22.7350068,19.2618368 L26.8055204,17.1279392 C26.8823226,17.1012655 26.9591247,17.1279392 26.9847254,17.2079604 C27.4199376,18.2749092 28.2647612,18.8083836 29.442394,18.8083836 C30.7224298,18.8083836 30.9784369,18.2482354 30.9784369,17.7947822 C30.9784369,17.1012655 30.0312105,16.8345283 28.6999733,16.48777 C26.4215097,15.8742744 23.2982225,15.0473891 23.2982225,11.3930895 C23.2982225,8.72571759 25.2182761,6.03167192 29.442394,6.05834564 C32.3608755,6.05834564 34.4601341,7.2319893 35.6633677,9.52592917 C35.7145691,9.60595033 35.6889684,9.68597149 35.6121663,9.71264521 L31.6696562,11.5531319 C31.6184548,11.5798056 31.5416526,11.5531319 31.5160519,11.4997844 C31.0552391,10.6728991 30.3896205,10.2461196 29.5703976,10.2461196 C28.7767754,10.2461196 28.2903619,10.592878 28.2903619,11.1530261 C28.2903619,11.8732165 29.3143905,12.11328 30.5944262,12.4333646 C32.9240912,12.9935127 36.0985799,13.7403769 36.0985799,17.6880873 C36.0985799,21.6357978 32.6680841,23.049505 29.442394,23.049505 Z" id="Combined-Shape-Copy-19"></path>
            </g>
        </g>
    </g>
</svg>