<?xml version="1.0" encoding="UTF-8"?>
<svg width="481px" height="97px" viewBox="0 0 481 97" version="1.1" xmlns="http://www.w3.org/2000/svg" xmlns:xlink="http://www.w3.org/1999/xlink">
    <!-- Generator: Sketch 50.2 (55047) - http://www.bohemiancoding.com/sketch -->
    <title>hub-visual</title>
    <desc>Created with Sketch.</desc>
    <defs>
        <linearGradient x1="76.3263889%" y1="-9.16241497%" x2="28.7951389%" y2="170.711097%" id="linearGradient-1">
            <stop stop-color="#DCFCFF" offset="0%"></stop>
            <stop stop-color="#FFFFFF" offset="28.6644999%"></stop>
            <stop stop-color="#FAFFFF" offset="49.7674645%"></stop>
            <stop stop-color="#93F4FE" offset="100%"></stop>
        </linearGradient>
        <linearGradient x1="117.291206%" y1="145.341196%" x2="-19.4463392%" y2="28.8615027%" id="linearGradient-2">
            <stop stop-color="#021755" stop-opacity="0" offset="0%"></stop>
            <stop stop-color="#0097FF" offset="100%"></stop>
        </linearGradient>
        <linearGradient x1="117.291206%" y1="145.341196%" x2="-41.1504425%" y2="-56.0785976%" id="linearGradient-3">
            <stop stop-color="#021755" stop-opacity="0" offset="0%"></stop>
            <stop stop-color="#0097FF" offset="100%"></stop>
        </linearGradient>
        <linearGradient x1="96.2611607%" y1="3.73883929%" x2="3.03310138%" y2="96.9668986%" id="linearGradient-4">
            <stop stop-color="#7192B9" offset="0%"></stop>
            <stop stop-color="#3A5E89" offset="100%"></stop>
        </linearGradient>
        <path d="M41.1465742,22.6327568 C37.7166783,25.2676974 32.9215608,27.2286615 27.1403573,27.8970449 C18.2342386,28.9261875 9.61494514,27.1313404 4.63650047,23.4873926 C2.30604153,21.7775617 0.77677989,19.6605483 0.390723281,17.2375887 C-0.248520875,13.2177801 2.05890912,9.103447 6.199026,6.02384967 C9.8630359,3.29102864 14.9465957,1.40053846 21.0276916,0.689647028 C30.0873681,-0.370257973 38.4632381,1.23498074 43.1295539,4.90241984 C45.1255987,6.46738775 46.4453453,8.40765712 46.8508854,10.6768047 C47.6091045,14.9091535 45.4627164,19.3076195 41.1465742,22.6327568 Z" id="path-5"></path>
        <linearGradient x1="3.14094388%" y1="96.8590561%" x2="94.8897856%" y2="5.11021442%" id="linearGradient-7">
            <stop stop-color="#122037" offset="0%"></stop>
            <stop stop-color="#243847" offset="100%"></stop>
        </linearGradient>
        <linearGradient x1="96.2392379%" y1="3.76076212%" x2="1.92522321%" y2="98.0747768%" id="linearGradient-8">
            <stop stop-color="#95D425" offset="0%"></stop>
            <stop stop-color="#33B200" offset="100%"></stop>
        </linearGradient>
        <linearGradient x1="100%" y1="0%" x2="0%" y2="100%" id="linearGradient-9">
            <stop stop-color="#00EDFF" offset="0%"></stop>
            <stop stop-color="#008BFF" offset="100%"></stop>
        </linearGradient>
    </defs>
    <g id="hub-visual" stroke="none" stroke-width="1" fill="none" fill-rule="evenodd">
        <g id="Group-5" transform="translate(0.000000, 9.000000)">
            <g id="Group-4" transform="translate(0.000000, 1.000000)">
                <g id="Group" transform="translate(0.000000, 0.840909)">
                    <g id="lisk-hub">
                        <g id="Group-21-Copy">
                            <g id="Page-1">
                                <polygon id="Fill-1" fill="url(#linearGradient-1)" points="52.9086676 0.00018592552 4.7030303e-05 31.0260423 4.7030303e-05 46.1334205 52.9086676 77.1592768 105.818229 46.1334205 105.818229 31.0260423"></polygon>
                                <polygon id="Fill-2" fill="url(#linearGradient-2)" opacity="0.104619565" points="53.1444305 62.2773334 53.1444305 77.1592768 105.81837 45.8917173 105.707849 31.1427106"></polygon>
                                <polygon id="Fill-3" fill="url(#linearGradient-3)" opacity="0.0828238225" points="0 46.1527102 53.0247855 77.1590444 53.1442424 62.2743121 0.0860654545 31.1424782"></polygon>
                            </g>
                        </g>
                        <path d="M50.4898664,49.9895418 L20.8212542,32.4298887 C19.8628437,31.8615174 18.7102297,31.8465529 17.7373344,32.3902606 C17.4862646,32.5310372 17.2781128,32.7405392 17.1359472,32.9963202 C16.9312825,33.3646115 16.8776351,33.7933148 16.9849298,34.2034511 C17.0922246,34.6133102 17.3475862,34.9558295 17.704073,35.1672714 L47.3726852,52.7269245 C47.863827,53.0181767 48.4056656,53.1644956 48.9483088,53.1644956 C49.4649331,53.1644956 49.9820939,53.0320326 50.4563368,52.7668296 C50.7076748,52.6260531 50.9155584,52.4162739 51.0579922,52.160493 C51.2626569,51.7922017 51.3163043,51.3634984 51.2090095,50.9536392 C51.1017148,50.54378 50.8463532,50.2012608 50.4898664,49.9895418 Z" id="Fill-1" fill="url(#linearGradient-4)"></path>
                        <g id="Group-3" transform="translate(33.391515, 14.114468)">
                            <g id="Group-2">
                                <g id="sd">
                                    <mask id="mask-6" fill="white">
                                        <use xlink:href="#path-5"></use>
                                    </mask>
                                    <use fill="url(#linearGradient-4)" xlink:href="#path-5"></use>
                                    <path d="M38.9531971,24.1128912 C38.4132763,23.799013 37.9037348,23.4673615 37.4275086,23.11879 C35.0970496,21.4089591 33.567788,19.2919457 33.1817314,16.8689861 C32.5424872,12.8491775 34.8499172,8.73484443 38.9900341,5.6552471 C39.8257242,5.0319432 40.7352606,4.45245806 41.7136359,3.92079334 C42.2168797,4.22934215 42.6896972,4.55671931 43.1295539,4.90241984 C45.1255987,6.46738775 46.4453453,8.40765712 46.8508854,10.6768047 C47.6091045,14.9091535 45.4627164,19.3076195 41.1465742,22.6327568 C40.4679186,23.1541188 39.7358139,23.6490942 38.9531971,24.1128912 Z" id="Combined-Shape" fill="url(#linearGradient-7)"></path>
                                </g>
                                <polygon id="Fill-6" fill="url(#linearGradient-8)" points="30.8294066 24.040719 20.7656876 15.5515773 36.2701832 15.5515773"></polygon>
                                <path d="M24.092101,10.3352166 C23.0675875,11.1260914 21.6352808,11.7146728 19.9084292,11.9152874 C17.2481621,12.2241835 14.67357,11.685462 13.1865033,10.5917347 C12.4903928,10.0785307 12.0336007,9.44311124 11.9182852,8.71586236 C11.7273423,7.50932087 12.416574,6.27440794 13.6532313,5.35006991 C14.747675,4.52981643 16.2661397,3.96238771 18.0825695,3.74901437 C20.7887045,3.43088495 23.2905857,3.91269573 24.6844192,5.01347388 C25.2806399,5.48319742 25.6748496,6.06556731 25.7959848,6.74664966 C26.0224657,8.01698491 25.3813373,9.33718002 24.092101,10.3352166 Z" id="sd" fill="url(#linearGradient-9)"></path>
                            </g>
                        </g>
                    </g>
                </g>
            </g>
            <g id="Group-8" transform="translate(124.000000, 0.000000)" fill="#001A3E">
                <path d="M5.2225458,17.1279392 C5.2225458,17.2079604 5.29934794,17.2613078 5.35054937,17.2613078 L12.6723538,17.2613078 C12.7491559,17.2613078 12.8003573,17.3146553 12.8003573,17.3946764 L12.8003573,22.5960517 C12.8003573,22.6760729 12.7491559,22.7294203 12.6723538,22.7294203 L5.2225458,22.7294203 L0.128003573,22.7294203 C0.0512014294,22.7294203 0,22.6760729 0,22.5960517 L0,5.95165076 C0,5.92497704 0,5.89830332 0.0256007147,5.8716296 L4.99213937,0.0834324762 C5.06894151,-0.0232624018 5.2225458,0.0300850372 5.2225458,0.163453635 L5.2225458,17.1279392 Z M20.0197589,22.5960517 C20.0197589,22.6493992 19.9685575,22.7294203 19.8917553,22.7294203 L14.9252167,22.7294203 C14.8484145,22.7294203 14.7972131,22.6760729 14.7972131,22.5960517 L14.7972131,12.486712 C14.7972131,12.4600383 14.7972131,12.4333646 14.8228138,12.4066909 L19.7893525,6.61849375 C19.8661546,6.51179887 20.0197589,6.56514631 20.0197589,6.69851491 L20.0197589,22.5960517 Z M46.9005093,14.6206096 L52.225458,22.5160306 C52.2766594,22.5960517 52.225458,22.7294203 52.1230551,22.7294203 L46.5933008,22.7294203 C46.5677,22.7294203 46.5164986,22.7027466 46.4908979,22.6760729 L42.3179814,16.1410116 C42.2411793,16.0343167 42.087575,16.0876642 42.087575,16.2210328 L42.087575,17.2613078 L42.087575,22.5960517 C42.087575,22.6760729 42.0363735,22.7294203 41.9595714,22.7294203 L36.9930327,22.7294203 C36.9162306,22.7294203 36.8650292,22.6760729 36.8650292,22.5960517 L36.8650292,5.92497704 C36.8650292,5.89830332 36.8650292,5.8716296 36.8906299,5.84495588 L41.8571685,0.0567587567 C41.9339707,-0.0499361213 42.087575,0.00341131771 42.087575,0.136779915 L42.087575,12.6734281 C42.087575,12.8067967 42.2411793,12.8601441 42.3179814,12.7534492 L46.0812865,6.40510399 C46.1068872,6.37843027 46.1324879,6.35175655 46.1836893,6.35175655 L51.8926487,6.35175655 C51.9950516,6.35175655 52.046253,6.48512515 51.9950516,6.56514631 L46.9005093,14.4605673 C46.8749086,14.5139147 46.8749086,14.5672622 46.9005093,14.6206096 Z M28.442394,23.049505 C25.0630997,23.049505 22.8358375,21.8758613 21.6838053,19.4485528 C21.6326039,19.3685317 21.6582046,19.2885105 21.7350068,19.2618368 L25.8055204,17.1279392 C25.8823226,17.1012655 25.9591247,17.1279392 25.9847254,17.2079604 C26.4199376,18.2749092 27.2647612,18.8083836 28.442394,18.8083836 C29.7224298,18.8083836 29.9784369,18.2482354 29.9784369,17.7947822 C29.9784369,17.1012655 29.0312105,16.8345283 27.6999733,16.48777 C25.4215097,15.8742744 22.2982225,15.0473891 22.2982225,11.3930895 C22.2982225,8.72571759 24.2182761,6.03167192 28.442394,6.05834564 C31.3608755,6.05834564 33.4601341,7.2319893 34.6633677,9.52592917 C34.7145691,9.60595033 34.6889684,9.68597149 34.6121663,9.71264521 L30.6696562,11.5531319 C30.6184548,11.5798056 30.5416526,11.5531319 30.5160519,11.4997844 C30.0552391,10.6728991 29.3896205,10.2461196 28.5703976,10.2461196 C27.7767754,10.2461196 27.2903619,10.592878 27.2903619,11.1530261 C27.2903619,11.8732165 28.3143905,12.11328 29.5944262,12.4333646 C31.9240912,12.9935127 35.0985799,13.7403769 35.0985799,17.6880873 C35.0985799,21.6357978 31.6680841,23.049505 28.442394,23.049505 Z" id="Combined-Shape-Copy-20"></path>
                <path d="M23.56,35 L33.48,35 L33.48,78.4 L23.56,78.4 L23.56,61.164 L9.92,61.164 L9.92,78.4 L0,78.4 L0,35 L9.92,35 L9.92,51.616 L23.56,51.616 L23.56,35 Z M60.636,47.4 L69.936,47.4 L69.936,78.4 L60.636,78.4 L60.636,75.486 C58.962,77.78 55.862,79.268 51.77,79.268 C45.508,79.268 40.176,74.804 40.176,66.434 L40.176,47.4 L49.476,47.4 L49.476,65.07 C49.476,68.914 51.894,70.712 54.87,70.712 C58.28,70.712 60.636,68.728 60.636,64.326 L60.636,47.4 Z M95.294,46.532 C103.416,46.532 110.112,53.662 110.112,62.9 C110.112,72.138 103.416,79.268 95.294,79.268 C91.14,79.268 88.102,77.842 86.056,75.486 L86.056,78.4 L76.756,78.4 L76.756,35 L86.056,35 L86.056,50.314 C88.102,47.958 91.14,46.532 95.294,46.532 Z M93.434,70.464 C97.712,70.464 100.812,67.55 100.812,62.9 C100.812,58.25 97.712,55.336 93.434,55.336 C89.156,55.336 86.056,58.25 86.056,62.9 C86.056,67.55 89.156,70.464 93.434,70.464 Z" id="Hub"></path>
            </g>
        </g>
    </g>
</svg>