<svg width="16" height="16" viewBox="0 0 16 16" xmlns="http://www.w3.org/2000/svg"><g fill="none" fill-rule="evenodd" opacity=".64"><path d="M0 0h16v16H0z"/><path d="M15.205 0H.695C.299 0 0 .3 0 .7v14.7c0 .3.298.6.696.6h14.608c.398 0 .696-.3.696-.7V.7c-.1-.4-.398-.7-.795-.7zM4.671 13.6H2.385V6H4.77v7.6h-.1zM3.578 5c-.795 0-1.392-.7-1.392-1.4 0-.8.597-1.4 1.392-1.4.795 0 1.39.6 1.39 1.4-.098.7-.695 1.4-1.39 1.4zm9.938 8.6H11.13V9.9c0-.9 0-2-1.192-2-1.193 0-1.391 1-1.391 2v3.8H6.16V6h2.286v1c.298-.6 1.093-1.2 2.187-1.2 2.385 0 2.782 1.6 2.782 3.6v4.2h.1z" fill="#C2D2FF" fill-rule="nonzero"/></g></svg>