<svg width="64" height="29" viewBox="0 0 64 29" fill="none" xmlns="http://www.w3.org/2000/svg">
<path d="M31.8996 6.34148C32.7415 5.62636 32.8442 4.3642 32.1291 3.52237C31.414 2.68054 30.1518 2.57782 29.31 3.29293L31.8996 6.34148ZM28.4188 13.8604C28.4188 10.8484 29.7668 8.15325 31.8996 6.34148L29.31 3.29293C26.3207 5.83224 24.4188 9.62524 24.4188 13.8604H28.4188Z" fill="#254898"/>
<path d="M32.1005 22.077C31.2587 22.7922 31.1559 24.0543 31.8711 24.8961C32.5862 25.738 33.8483 25.8407 34.6902 25.1256L32.1005 22.077ZM35.5814 14.5581C35.5814 17.5701 34.2333 20.2653 32.1005 22.077L34.6902 25.1256C37.6794 22.5863 39.5814 18.7933 39.5814 14.5581H35.5814Z" fill="#4070F4"/>
<path d="M31.8995 6.3415C32.7413 5.62639 32.844 4.36423 32.1289 3.5224C31.4138 2.68056 30.1517 2.57784 29.3098 3.29296L31.8995 6.3415ZM44.0349 -2.47955e-05C42.9303 -2.47955e-05 42.0349 0.895406 42.0349 1.99998C42.0349 3.10454 42.9303 3.99998 44.0349 3.99998V-2.47955e-05ZM49.7907 24.4186H38.6279V28.4186H49.7907V24.4186ZM28.4186 14.2093V13.8604H24.4186V14.2093H28.4186ZM64 14.2093C64 6.3617 57.6383 -2.47955e-05 49.7907 -2.47955e-05V3.99998C55.4291 3.99998 60 8.57084 60 14.2093H64ZM38.6279 24.4186C32.9895 24.4186 28.4186 19.8477 28.4186 14.2093H24.4186C24.4186 22.0569 30.7803 28.4186 38.6279 28.4186V24.4186ZM49.7907 28.4186C57.6383 28.4186 64 22.0569 64 14.2093H60C60 19.8477 55.4291 24.4186 49.7907 24.4186V28.4186ZM28.4186 13.8604C28.4186 10.8484 29.7667 8.15328 31.8995 6.3415L29.3098 3.29296C26.3206 5.83226 24.4186 9.62526 24.4186 13.8604H28.4186ZM44.0349 3.99998H49.7907V-2.47955e-05H44.0349V3.99998Z" fill="#4070F4"/>
<path d="M19.9651 28.4187C21.0697 28.4187 21.9651 27.5233 21.9651 26.4187C21.9651 25.3142 21.0697 24.4187 19.9651 24.4187V28.4187ZM14.2093 4.00012H25.3721V0.00012207H14.2093V4.00012ZM35.5814 14.2094V14.5583H39.5814V14.2094H35.5814ZM0 14.2094C0 22.057 6.36172 28.4187 14.2093 28.4187V24.4187C8.57086 24.4187 4 19.8479 4 14.2094H0ZM25.3721 4.00012C31.0105 4.00012 35.5814 8.57098 35.5814 14.2094H39.5814C39.5814 6.36184 33.2197 0.00012207 25.3721 0.00012207V4.00012ZM14.2093 0.00012207C6.36172 0.00012207 0 6.36184 0 14.2094H4C4 8.57098 8.57086 4.00012 14.2093 4.00012V0.00012207ZM19.9651 24.4187H14.2093V28.4187H19.9651V24.4187Z" fill="#4070F4"/>
</svg>
