<svg width="898.58" height="201.96" version="1.1" viewBox="0 0 898.57739 201.96107" xmlns="http://www.w3.org/2000/svg" xmlns:cc="http://creativecommons.org/ns#" xmlns:dc="http://purl.org/dc/elements/1.1/" xmlns:rdf="http://www.w3.org/1999/02/22-rdf-syntax-ns#">
<title>AsciiDoc xref macro anatomy diagram</title>
<metadata>
<rdf:RDF>
<cc:Work rdf:about="">
<dc:format>image/svg+xml</dc:format>
<dc:type rdf:resource="http://purl.org/dc/dcmitype/StillImage"/>
<dc:title>AsciiDoc xref macro anatomy diagram</dc:title>
<dc:creator>
<cc:Agent>
<dc:title>Sarah White</dc:title>
</cc:Agent>
</dc:creator>
<dc:publisher>
<cc:Agent>
<dc:title>OpenDevise Inc.</dc:title>
</cc:Agent>
</dc:publisher>
<dc:subject>
<rdf:Bag>
<rdf:li>Antora</rdf:li>
<rdf:li>page ID</rdf:li>
<rdf:li>xref macro</rdf:li>
<rdf:li>AsciiDoc</rdf:li>
<rdf:li>Asciidoctor</rdf:li>
</rdf:Bag>
</dc:subject>
<cc:license rdf:resource="http://creativecommons.org/licenses/by-sa/4.0/"/>
</cc:Work>
<cc:License rdf:about="http://creativecommons.org/licenses/by-sa/4.0/">
<cc:permits rdf:resource="http://creativecommons.org/ns#Reproduction"/>
<cc:permits rdf:resource="http://creativecommons.org/ns#Distribution"/>
<cc:requires rdf:resource="http://creativecommons.org/ns#Notice"/>
<cc:requires rdf:resource="http://creativecommons.org/ns#Attribution"/>
<cc:permits rdf:resource="http://creativecommons.org/ns#DerivativeWorks"/>
<cc:requires rdf:resource="http://creativecommons.org/ns#ShareAlike"/>
</cc:License>
</rdf:RDF>
</metadata>
<rect width="100%" height="100%" fill="#fff"/>
<g transform="translate(69.289 -285.48)">
<g transform="translate(-843.94 27.799)">
<g fill="#b91d5e">
<path d="m843.46 380.91-4.08-5.4133-4.1333 5.4133h-2.8533l5.5733-7.2267-5.3067-6.9067h2.8533l3.8933 5.0933 3.8667-5.0933h2.8l-5.3333 6.9067 5.6267 7.2267z" style="font-feature-settings:normal;font-variant-caps:normal;font-variant-ligatures:normal;font-variant-numeric:normal"/>
<path d="m851.63 369.15q0.66667-1.2267 1.9733-1.8667 1.3067-0.64 3.1733-0.64v2.48q-0.21333-0.0267-0.58667-0.0267-2.08 0-3.28 1.2533-1.1733 1.2267-1.1733 3.52v7.04h-2.56v-14.133h2.4533z" style="font-feature-settings:normal;font-variant-caps:normal;font-variant-ligatures:normal;font-variant-numeric:normal"/>
<path d="m872.58 373.92q0 0.29333-0.0533 0.77333h-11.467q0.24 1.8667 1.6267 3.0133 1.4133 1.12 3.4933 1.12 2.5333 0 4.08-1.7067l1.4133 1.6533q-0.96 1.12-2.4 1.7067-1.4133 0.58667-3.1733 0.58667-2.24 0-3.9733-0.90667-1.7333-0.93333-2.6933-2.5867-0.93334-1.6533-0.93334-3.7333 0-2.0533 0.90667-3.7067 0.93333-1.6533 2.5333-2.56 1.6267-0.93333 3.6533-0.93333 2.0267 0 3.6 0.93333 1.6 0.90667 2.48 2.56 0.90666 1.6533 0.90666 3.7867zm-6.9867-5.12q-1.84 0-3.0933 1.12-1.2267 1.12-1.44 2.9333h9.0667q-0.21333-1.7867-1.4667-2.9067-1.2267-1.1467-3.0667-1.1467z" style="font-feature-settings:normal;font-variant-caps:normal;font-variant-ligatures:normal;font-variant-numeric:normal"/>
<path d="m881.28 363.07q-2.2933 0-2.2933 2.48v1.2267h4.1067v2.1067h-4.0533v12.027h-2.56v-12.027h-2.4v-2.1067h2.4v-1.2533q0-2.1067 1.2267-3.3333 1.2267-1.2267 3.44-1.2267 0.85333 0 1.6 0.21333 0.74667 0.21334 1.28 0.61334l-0.77333 1.9467q-0.88-0.66666-1.9733-0.66666z" style="font-feature-settings:normal;font-variant-caps:normal;font-variant-ligatures:normal;font-variant-numeric:normal"/>
<path d="m886.72 370.29q-0.74666 0-1.28-0.50666-0.53333-0.53334-0.53333-1.3333 0-0.77333 0.53333-1.28 0.53334-0.53333 1.28-0.53333 0.74667 0 1.2533 0.50667 0.50666 0.50666 0.50666 1.3067t-0.53333 1.3333q-0.50667 0.50666-1.2267 0.50666zm0 10.773q-0.74666 0-1.28-0.50667-0.53333-0.53333-0.53333-1.3333 0-0.77334 0.53333-1.28 0.53334-0.53334 1.28-0.53334 0.74667 0 1.2533 0.50667 0.50666 0.50667 0.50666 1.3067t-0.53333 1.3333q-0.50667 0.50667-1.2267 0.50667z" style="font-feature-settings:normal;font-variant-caps:normal;font-variant-ligatures:normal;font-variant-numeric:normal"/>
</g>
<g fill="#333">
<path d="m904.66 366.77-6.1867 14.133h-2.6133l-6.1867-14.133h2.6667l4.8533 11.333 4.96-11.333z" style="font-feature-settings:normal;font-variant-caps:normal;font-variant-ligatures:normal;font-variant-numeric:normal"/>
<path d="m919.4 373.92q0 0.29333-0.0533 0.77333h-11.467q0.24 1.8667 1.6267 3.0133 1.4133 1.12 3.4933 1.12 2.5333 0 4.08-1.7067l1.4133 1.6533q-0.96 1.12-2.4 1.7067-1.4133 0.58667-3.1733 0.58667-2.24 0-3.9733-0.90667-1.7333-0.93333-2.6933-2.5867-0.93333-1.6533-0.93333-3.7333 0-2.0533 0.90667-3.7067 0.93333-1.6533 2.5333-2.56 1.6267-0.93333 3.6533-0.93333 2.0267 0 3.6 0.93333 1.6 0.90667 2.48 2.56 0.90667 1.6533 0.90667 3.7867zm-6.9867-5.12q-1.84 0-3.0933 1.12-1.2267 1.12-1.44 2.9333h9.0667q-0.21334-1.7867-1.4667-2.9067-1.2267-1.1467-3.0667-1.1467z" style="font-feature-settings:normal;font-variant-caps:normal;font-variant-ligatures:normal;font-variant-numeric:normal"/>
<path d="m925.38 369.15q0.66666-1.2267 1.9733-1.8667t3.1733-0.64v2.48q-0.21333-0.0267-0.58666-0.0267-2.08 0-3.28 1.2533-1.1733 1.2267-1.1733 3.52v7.04h-2.56v-14.133h2.4533z" style="font-feature-settings:normal;font-variant-caps:normal;font-variant-ligatures:normal;font-variant-numeric:normal"/>
<path d="m937.82 381.07q-1.7333 0-3.3333-0.45334-1.6-0.48-2.5067-1.2l1.0667-2.0267q0.93333 0.66666 2.2667 1.0667 1.3333 0.4 2.6933 0.4 3.36 0 3.36-1.92 0-0.64-0.45333-1.0133-0.45334-0.37333-1.1467-0.53333-0.66667-0.18667-1.92-0.4-1.7067-0.26667-2.8-0.61334-1.0667-0.34666-1.84-1.1733t-0.77333-2.32q0-1.92 1.6-3.0667 1.6-1.1733 4.2933-1.1733 1.4133 0 2.8267 0.34667 1.4133 0.34666 2.32 0.93333l-1.0933 2.0267q-1.7333-1.12-4.08-1.12-1.6267 0-2.48 0.53333-0.85333 0.53333-0.85333 1.4133 0 0.69334 0.48 1.0933t1.1733 0.58666q0.72 0.18667 2 0.42667 1.7067 0.29333 2.7467 0.64 1.0667 0.32 1.8133 1.12 0.74667 0.8 0.74667 2.24 0 1.92-1.6533 3.0667-1.6267 1.12-4.4533 1.12z" style="font-feature-settings:normal;font-variant-caps:normal;font-variant-ligatures:normal;font-variant-numeric:normal"/>
<path d="m947.15 366.77h2.56v14.133h-2.56zm1.28-2.72q-0.74666 0-1.2533-0.48-0.48-0.48-0.48-1.1733t0.48-1.1733q0.50667-0.50667 1.2533-0.50667 0.74667 0 1.2267 0.48 0.50667 0.45333 0.50667 1.1467 0 0.72-0.50667 1.2267-0.48 0.48-1.2267 0.48z" style="font-feature-settings:normal;font-variant-caps:normal;font-variant-ligatures:normal;font-variant-numeric:normal"/>
<path d="m960.65 381.07q-2.1067 0-3.7867-0.93334-1.68-0.93333-2.64-2.56-0.93334-1.6533-0.93334-3.7333t0.93334-3.7067q0.96-1.6533 2.64-2.56 1.68-0.93333 3.7867-0.93333 2.1067 0 3.76 0.93333 1.68 0.90667 2.6133 2.56 0.96 1.6267 0.96 3.7067t-0.96 3.7333q-0.93334 1.6267-2.6133 2.56-1.6533 0.93334-3.76 0.93334zm0-2.24q1.36 0 2.4267-0.61334 1.0933-0.64 1.7067-1.76 0.61333-1.1467 0.61333-2.6133t-0.61333-2.5867q-0.61334-1.1467-1.7067-1.76-1.0667-0.61333-2.4267-0.61333t-2.4533 0.61333q-1.0667 0.61334-1.7067 1.76-0.61333 1.12-0.61333 2.5867t0.61333 2.6133q0.64 1.12 1.7067 1.76 1.0933 0.61334 2.4533 0.61334z" style="font-feature-settings:normal;font-variant-caps:normal;font-variant-ligatures:normal;font-variant-numeric:normal"/>
<path d="m979.07 366.64q2.6933 0 4.2667 1.5733 1.6 1.5467 1.6 4.56v8.1333h-2.56v-7.84q0-2.0533-0.98667-3.0933t-2.8267-1.04q-2.08 0-3.28 1.2267-1.2 1.2-1.2 3.4667v7.28h-2.56v-14.133h2.4533v2.1333q0.77333-1.0933 2.08-1.68 1.3333-0.58667 3.0133-0.58667z" style="font-feature-settings:normal;font-variant-caps:normal;font-variant-ligatures:normal;font-variant-numeric:normal"/>
<path d="m1001.1 362.05q3.6 0 6.4267 1.4933 2.8267 1.4667 4.4 4.1333 1.6 2.6667 1.6 6.08t-1.2533 5.36q-1.2534 1.9467-3.4934 1.9467-1.28 0-2.1333-0.64-0.8267-0.66667-1.0667-1.8933-0.8 1.2267-2.1066 1.8933-1.28 0.64-2.96 0.64-1.8667 0-3.36-0.88-1.4933-0.88-2.3467-2.4267-0.82667-1.5733-0.82667-3.5467 0-1.9467 0.82667-3.4933 0.85333-1.5733 2.3467-2.4267 1.4933-0.88 3.36-0.88 1.5466 0 2.8 0.58667 1.2533 0.56 2.08 1.68v-2.16h2.32v9.6q0 0.98667 0.4266 1.4667 0.4267 0.45333 1.0934 0.45333 1.1733 0 1.8133-1.36 0.6667-1.3867 0.6667-3.8933 0-2.96-1.3334-5.2-1.3333-2.2667-3.76-3.52-2.4-1.2533-5.52-1.2533-3.1466 0-5.5733 1.3067-2.4 1.3067-3.7333 3.6533-1.3333 2.3467-1.3333 5.36 0 3.04 1.3067 5.3867 1.3333 2.3467 3.7067 3.6533 2.4 1.3333 5.52 1.3333 1.3066 0 2.6666-0.29334 1.36-0.29333 2.48-0.88l0.5867 1.7067q-1.1733 0.61333-2.72 0.93333t-3.0133 0.32q-3.6534 0-6.5067-1.5733-2.8267-1.5467-4.4-4.32t-1.5733-6.2667q0-3.4933 1.5733-6.24 1.6-2.7467 4.4533-4.2933 2.88-1.5467 6.56-1.5467zm-0.2133 16.933q1.3067 0 2.32-0.58667 1.04-0.58667 1.6267-1.6533 0.6133-1.0933 0.6133-2.5333t-0.6133-2.5067q-0.5867-1.0933-1.6267-1.6533-1.0133-0.58666-2.32-0.58666-2.0267 0-3.28 1.3067-1.2533 1.28-1.2533 3.44t1.2533 3.4667q1.28 1.3067 3.28 1.3067z" style="font-feature-settings:normal;font-variant-caps:normal;font-variant-ligatures:normal;font-variant-numeric:normal"/>
<path d="m1023.4 381.07q-2.16 0-3.8667-0.93334-1.68-0.93333-2.64-2.56-0.96-1.6533-0.96-3.7333t0.96-3.7067q0.96-1.6533 2.64-2.56 1.7067-0.93333 3.8667-0.93333 1.92 0 3.4133 0.77333 1.52 0.77334 2.3467 2.24l-1.9467 1.2533q-0.6666-1.0133-1.6533-1.52-0.9867-0.50667-2.1867-0.50667-1.3866 0-2.5066 0.61333-1.0934 0.61334-1.7334 1.76-0.6133 1.12-0.6133 2.5867 0 1.4933 0.6133 2.64 0.64 1.12 1.7334 1.7333 1.12 0.61334 2.5066 0.61334 1.2 0 2.1867-0.50667t1.6533-1.52l1.9467 1.2267q-0.8267 1.4667-2.3467 2.2667-1.4933 0.77334-3.4133 0.77334z" style="font-feature-settings:normal;font-variant-caps:normal;font-variant-ligatures:normal;font-variant-numeric:normal"/>
<path d="m1038.3 381.07q-2.1066 0-3.7866-0.93334-1.68-0.93333-2.64-2.56-0.9334-1.6533-0.9334-3.7333t0.9334-3.7067q0.96-1.6533 2.64-2.56 1.68-0.93333 3.7866-0.93333 2.1067 0 3.76 0.93333 1.68 0.90667 2.6134 2.56 0.96 1.6267 0.96 3.7067t-0.96 3.7333q-0.9334 1.6267-2.6134 2.56-1.6533 0.93334-3.76 0.93334zm0-2.24q1.36 0 2.4267-0.61334 1.0933-0.64 1.7067-1.76 0.6133-1.1467 0.6133-2.6133t-0.6133-2.5867q-0.6134-1.1467-1.7067-1.76-1.0667-0.61333-2.4267-0.61333t-2.4533 0.61333q-1.0667 0.61334-1.7067 1.76-0.6133 1.12-0.6133 2.5867t0.6133 2.6133q0.64 1.12 1.7067 1.76 1.0933 0.61334 2.4533 0.61334z" style="font-feature-settings:normal;font-variant-caps:normal;font-variant-ligatures:normal;font-variant-numeric:normal"/>
<path d="m1066.9 366.64q2.6667 0 4.2133 1.5467 1.5734 1.5467 1.5734 4.5867v8.1333h-2.56v-7.84q0-2.0533-0.96-3.0933-0.9334-1.04-2.6934-1.04-1.9466 0-3.0933 1.2267-1.1467 1.2-1.1467 3.4667v7.28h-2.56v-7.84q0-2.0533-0.96-3.0933-0.9333-1.04-2.6933-1.04-1.9467 0-3.0933 1.2267-1.1467 1.2-1.1467 3.4667v7.28h-2.56v-14.133h2.4533v2.1067q0.7734-1.0933 2.0267-1.6533 1.2533-0.58667 2.8533-0.58667 1.6534 0 2.9334 0.66667 1.28 0.66666 1.9733 1.9467 0.8-1.2267 2.2133-1.92 1.44-0.69333 3.2267-0.69333z" style="font-feature-settings:normal;font-variant-caps:normal;font-variant-ligatures:normal;font-variant-numeric:normal"/>
<path d="m1084.9 366.64q2.0533 0 3.68 0.90667 1.6267 0.90666 2.5333 2.5333 0.9334 1.6267 0.9334 3.76t-0.9334 3.7867q-0.9066 1.6267-2.5333 2.5333t-3.68 0.90667q-1.52 0-2.8-0.58667-1.2533-0.58667-2.1333-1.7067v7.3067h-2.56v-19.307h2.4533v2.24q0.8533-1.1733 2.16-1.76 1.3067-0.61333 2.88-0.61333zm-0.2133 12.187q1.36 0 2.4266-0.61334 1.0934-0.64 1.7067-1.76 0.64-1.1467 0.64-2.6133t-0.64-2.5867q-0.6133-1.1467-1.7067-1.76-1.0666-0.61333-2.4266-0.61333-1.3334 0-2.4267 0.64-1.0667 0.61333-1.7067 1.7333-0.6133 1.12-0.6133 2.5867t0.6133 2.6133q0.6134 1.12 1.7067 1.76 1.0933 0.61334 2.4267 0.61334z" style="font-feature-settings:normal;font-variant-caps:normal;font-variant-ligatures:normal;font-variant-numeric:normal"/>
<path d="m1101.6 381.07q-2.1067 0-3.7867-0.93334-1.68-0.93333-2.64-2.56-0.9333-1.6533-0.9333-3.7333t0.9333-3.7067q0.96-1.6533 2.64-2.56 1.68-0.93333 3.7867-0.93333t3.76 0.93333q1.68 0.90667 2.6133 2.56 0.96 1.6267 0.96 3.7067t-0.96 3.7333q-0.9333 1.6267-2.6133 2.56-1.6533 0.93334-3.76 0.93334zm0-2.24q1.36 0 2.4267-0.61334 1.0933-0.64 1.7066-1.76 0.6134-1.1467 0.6134-2.6133t-0.6134-2.5867q-0.6133-1.1467-1.7066-1.76-1.0667-0.61333-2.4267-0.61333t-2.4533 0.61333q-1.0667 0.61334-1.7067 1.76-0.6133 1.12-0.6133 2.5867t0.6133 2.6133q0.64 1.12 1.7067 1.76 1.0933 0.61334 2.4533 0.61334z" style="font-feature-settings:normal;font-variant-caps:normal;font-variant-ligatures:normal;font-variant-numeric:normal"/>
<path d="m1120 366.64q2.6933 0 4.2667 1.5733 1.6 1.5467 1.6 4.56v8.1333h-2.56v-7.84q0-2.0533-0.9867-3.0933t-2.8267-1.04q-2.08 0-3.28 1.2267-1.2 1.2-1.2 3.4667v7.28h-2.56v-14.133h2.4534v2.1333q0.7733-1.0933 2.08-1.68 1.3333-0.58667 3.0133-0.58667z" style="font-feature-settings:normal;font-variant-caps:normal;font-variant-ligatures:normal;font-variant-numeric:normal"/>
<path d="m1143.5 373.92q0 0.29333-0.053 0.77333h-11.467q0.24 1.8667 1.6267 3.0133 1.4133 1.12 3.4933 1.12 2.5333 0 4.08-1.7067l1.4133 1.6533q-0.96 1.12-2.4 1.7067-1.4133 0.58667-3.1733 0.58667-2.24 0-3.9733-0.90667-1.7334-0.93333-2.6934-2.5867-0.9333-1.6533-0.9333-3.7333 0-2.0533 0.9067-3.7067 0.9333-1.6533 2.5333-2.56 1.6267-0.93333 3.6533-0.93333 2.0267 0 3.6 0.93333 1.6 0.90667 2.48 2.56 0.9067 1.6533 0.9067 3.7867zm-6.9867-5.12q-1.84 0-3.0933 1.12-1.2267 1.12-1.44 2.9333h9.0667q-0.2134-1.7867-1.4667-2.9067-1.2267-1.1467-3.0667-1.1467z" style="font-feature-settings:normal;font-variant-caps:normal;font-variant-ligatures:normal;font-variant-numeric:normal"/>
<path d="m1154.6 366.64q2.6934 0 4.2667 1.5733 1.6 1.5467 1.6 4.56v8.1333h-2.56v-7.84q0-2.0533-0.9867-3.0933-0.9866-1.04-2.8266-1.04-2.08 0-3.28 1.2267-1.2 1.2-1.2 3.4667v7.28h-2.56v-14.133h2.4533v2.1333q0.7733-1.0933 2.08-1.68 1.3333-0.58667 3.0133-0.58667z" style="font-feature-settings:normal;font-variant-caps:normal;font-variant-ligatures:normal;font-variant-numeric:normal"/>
<path d="m1173.2 380.08q-0.56 0.48-1.3867 0.74667-0.8266 0.24-1.7066 0.24-2.1334 0-3.3067-1.1467t-1.1733-3.28v-7.76h-2.4v-2.1067h2.4v-3.0933h2.56v3.0933h4.0533v2.1067h-4.0533v7.6533q0 1.1467 0.56 1.76 0.5866 0.61334 1.6533 0.61334 1.1733 0 2-0.66667z" style="font-feature-settings:normal;font-variant-caps:normal;font-variant-ligatures:normal;font-variant-numeric:normal"/>
<path d="m1176.9 370.29q-0.7467 0-1.28-0.50666-0.5334-0.53334-0.5334-1.3333 0-0.77333 0.5334-1.28 0.5333-0.53333 1.28-0.53333 0.7466 0 1.2533 0.50667 0.5067 0.50666 0.5067 1.3067t-0.5334 1.3333q-0.5066 0.50666-1.2266 0.50666zm0 10.773q-0.7467 0-1.28-0.50667-0.5334-0.53333-0.5334-1.3333 0-0.77334 0.5334-1.28 0.5333-0.53334 1.28-0.53334 0.7466 0 1.2533 0.50667t0.5067 1.3067-0.5334 1.3333q-0.5066 0.50667-1.2266 0.50667z" style="font-feature-settings:normal;font-variant-caps:normal;font-variant-ligatures:normal;font-variant-numeric:normal"/>
<path d="m1200 366.64q2.6666 0 4.2133 1.5467 1.5733 1.5467 1.5733 4.5867v8.1333h-2.56v-7.84q0-2.0533-0.96-3.0933-0.9333-1.04-2.6933-1.04-1.9467 0-3.0933 1.2267-1.1467 1.2-1.1467 3.4667v7.28h-2.56v-7.84q0-2.0533-0.96-3.0933-0.9333-1.04-2.6933-1.04-1.9467 0-3.0934 1.2267-1.1466 1.2-1.1466 3.4667v7.28h-2.56v-14.133h2.4533v2.1067q0.7733-1.0933 2.0267-1.6533 1.2533-0.58667 2.8533-0.58667 1.6533 0 2.9333 0.66667 1.28 0.66666 1.9734 1.9467 0.8-1.2267 2.2133-1.92 1.44-0.69333 3.2267-0.69333z" style="font-feature-settings:normal;font-variant-caps:normal;font-variant-ligatures:normal;font-variant-numeric:normal"/>
<path d="m1216.6 381.07q-2.1067 0-3.7867-0.93334-1.68-0.93333-2.64-2.56-0.9333-1.6533-0.9333-3.7333t0.9333-3.7067q0.96-1.6533 2.64-2.56 1.68-0.93333 3.7867-0.93333 2.1066 0 3.76 0.93333 1.68 0.90667 2.6133 2.56 0.96 1.6267 0.96 3.7067t-0.96 3.7333q-0.9333 1.6267-2.6133 2.56-1.6534 0.93334-3.76 0.93334zm0-2.24q1.36 0 2.4266-0.61334 1.0934-0.64 1.7067-1.76 0.6133-1.1467 0.6133-2.6133t-0.6133-2.5867q-0.6133-1.1467-1.7067-1.76-1.0666-0.61333-2.4266-0.61333t-2.4534 0.61333q-1.0666 0.61334-1.7066 1.76-0.6134 1.12-0.6134 2.5867t0.6134 2.6133q0.64 1.12 1.7066 1.76 1.0934 0.61334 2.4534 0.61334z" style="font-feature-settings:normal;font-variant-caps:normal;font-variant-ligatures:normal;font-variant-numeric:normal"/>
<path d="m1240.8 361.12v19.787h-2.4534v-2.24q-0.8533 1.1733-2.16 1.7867-1.3066 0.61334-2.88 0.61334-2.0533 0-3.68-0.90667-1.6266-0.90667-2.56-2.5333-0.9066-1.6533-0.9066-3.7867t0.9066-3.76q0.9334-1.6267 2.56-2.5333 1.6267-0.90667 3.68-0.90667 1.52 0 2.8 0.58667 1.28 0.56 2.1334 1.68v-7.7867zm-7.28 17.707q1.3333 0 2.4266-0.61334 1.0934-0.64 1.7067-1.76 0.6133-1.1467 0.6133-2.6133t-0.6133-2.5867q-0.6133-1.1467-1.7067-1.76-1.0933-0.61333-2.4266-0.61333-1.36 0-2.4534 0.61333-1.0666 0.61334-1.7066 1.76-0.6134 1.12-0.6134 2.5867t0.6134 2.6133q0.64 1.12 1.7066 1.76 1.0934 0.61334 2.4534 0.61334z" style="font-feature-settings:normal;font-variant-caps:normal;font-variant-ligatures:normal;font-variant-numeric:normal"/>
<path d="m1258.9 366.77v14.133h-2.4266v-2.1333q-0.7734 1.0933-2.0534 1.7067-1.2533 0.58667-2.7466 0.58667-2.8267 0-4.4534-1.5467-1.6266-1.5733-1.6266-4.6133v-8.1333h2.56v7.84q0 2.0533 0.9866 3.12 0.9867 1.04 2.8267 1.04 2.0267 0 3.2-1.2267 1.1733-1.2267 1.1733-3.4667v-7.3067z" style="font-feature-settings:normal;font-variant-caps:normal;font-variant-ligatures:normal;font-variant-numeric:normal"/>
<path d="m1263.8 361.12h2.56v19.787h-2.56z" style="font-feature-settings:normal;font-variant-caps:normal;font-variant-ligatures:normal;font-variant-numeric:normal"/>
<path d="m1284 373.92q0 0.29333-0.053 0.77333h-11.467q0.24 1.8667 1.6266 3.0133 1.4134 1.12 3.4934 1.12 2.5333 0 4.08-1.7067l1.4133 1.6533q-0.96 1.12-2.4 1.7067-1.4133 0.58667-3.1733 0.58667-2.24 0-3.9734-0.90667-1.7333-0.93333-2.6933-2.5867-0.9333-1.6533-0.9333-3.7333 0-2.0533 0.9066-3.7067 0.9334-1.6533 2.5334-2.56 1.6266-0.93333 3.6533-0.93333t3.6 0.93333q1.6 0.90667 2.48 2.56 0.9067 1.6533 0.9067 3.7867zm-6.9867-5.12q-1.84 0-3.0933 1.12-1.2267 1.12-1.44 2.9333h9.0666q-0.2133-1.7867-1.4666-2.9067-1.2267-1.1467-3.0667-1.1467z" style="font-feature-settings:normal;font-variant-caps:normal;font-variant-ligatures:normal;font-variant-numeric:normal"/>
<path d="m1288.1 370.29q-0.7467 0-1.28-0.50666-0.5334-0.53334-0.5334-1.3333 0-0.77333 0.5334-1.28 0.5333-0.53333 1.28-0.53333 0.7466 0 1.2533 0.50667 0.5067 0.50666 0.5067 1.3067t-0.5334 1.3333q-0.5066 0.50666-1.2266 0.50666zm0 10.773q-0.7467 0-1.28-0.50667-0.5334-0.53333-0.5334-1.3333 0-0.77334 0.5334-1.28 0.5333-0.53334 1.28-0.53334 0.7466 0 1.2533 0.50667t0.5067 1.3067-0.5334 1.3333q-0.5066 0.50667-1.2266 0.50667z" style="font-feature-settings:normal;font-variant-caps:normal;font-variant-ligatures:normal;font-variant-numeric:normal"/>
<path d="m1301.7 380.08q-0.56 0.48-1.3867 0.74667-0.8266 0.24-1.7066 0.24-2.1334 0-3.3067-1.1467t-1.1733-3.28v-7.76h-2.4v-2.1067h2.4v-3.0933h2.56v3.0933h4.0533v2.1067h-4.0533v7.6533q0 1.1467 0.56 1.76 0.5866 0.61334 1.6533 0.61334 1.1733 0 2-0.66667z" style="font-feature-settings:normal;font-variant-caps:normal;font-variant-ligatures:normal;font-variant-numeric:normal"/>
<path d="m1310.4 381.07q-2.1067 0-3.7867-0.93334-1.68-0.93333-2.64-2.56-0.9333-1.6533-0.9333-3.7333t0.9333-3.7067q0.96-1.6533 2.64-2.56 1.68-0.93333 3.7867-0.93333 2.1066 0 3.76 0.93333 1.68 0.90667 2.6133 2.56 0.96 1.6267 0.96 3.7067t-0.96 3.7333q-0.9333 1.6267-2.6133 2.56-1.6534 0.93334-3.76 0.93334zm0-2.24q1.36 0 2.4266-0.61334 1.0934-0.64 1.7067-1.76 0.6133-1.1467 0.6133-2.6133t-0.6133-2.5867q-0.6133-1.1467-1.7067-1.76-1.0666-0.61333-2.4266-0.61333t-2.4534 0.61333q-1.0666 0.61334-1.7066 1.76-0.6134 1.12-0.6134 2.5867t0.6134 2.6133q0.64 1.12 1.7066 1.76 1.0934 0.61334 2.4534 0.61334z" style="font-feature-settings:normal;font-variant-caps:normal;font-variant-ligatures:normal;font-variant-numeric:normal"/>
<path d="m1328.8 366.64q2.0533 0 3.68 0.90667 1.6266 0.90666 2.5333 2.5333 0.9333 1.6267 0.9333 3.76t-0.9333 3.7867q-0.9067 1.6267-2.5333 2.5333-1.6267 0.90667-3.68 0.90667-1.52 0-2.8-0.58667-1.2534-0.58667-2.1334-1.7067v7.3067h-2.56v-19.307h2.4534v2.24q0.8533-1.1733 2.16-1.76 1.3066-0.61333 2.88-0.61333zm-0.2134 12.187q1.36 0 2.4267-0.61334 1.0933-0.64 1.7067-1.76 0.64-1.1467 0.64-2.6133t-0.64-2.5867q-0.6134-1.1467-1.7067-1.76-1.0667-0.61333-2.4267-0.61333-1.3333 0-2.4266 0.64-1.0667 0.61333-1.7067 1.7333-0.6133 1.12-0.6133 2.5867t0.6133 2.6133q0.6133 1.12 1.7067 1.76 1.0933 0.61334 2.4266 0.61334z" style="font-feature-settings:normal;font-variant-caps:normal;font-variant-ligatures:normal;font-variant-numeric:normal"/>
<path d="m1339.4 366.77h2.56v14.133h-2.56zm1.28-2.72q-0.7467 0-1.2533-0.48-0.48-0.48-0.48-1.1733t0.48-1.1733q0.5066-0.50667 1.2533-0.50667t1.2267 0.48q0.5066 0.45333 0.5066 1.1467 0 0.72-0.5066 1.2267-0.48 0.48-1.2267 0.48z" style="font-feature-settings:normal;font-variant-caps:normal;font-variant-ligatures:normal;font-variant-numeric:normal"/>
<path d="m1353 381.07q-2.16 0-3.8667-0.93334-1.68-0.93333-2.64-2.56-0.96-1.6533-0.96-3.7333t0.96-3.7067q0.96-1.6533 2.64-2.56 1.7067-0.93333 3.8667-0.93333 1.92 0 3.4133 0.77333 1.52 0.77334 2.3467 2.24l-1.9467 1.2533q-0.6666-1.0133-1.6533-1.52-0.9867-0.50667-2.1867-0.50667-1.3866 0-2.5066 0.61333-1.0934 0.61334-1.7334 1.76-0.6133 1.12-0.6133 2.5867 0 1.4933 0.6133 2.64 0.64 1.12 1.7334 1.7333 1.12 0.61334 2.5066 0.61334 1.2 0 2.1867-0.50667t1.6533-1.52l1.9467 1.2267q-0.8267 1.4667-2.3467 2.2667-1.4933 0.77334-3.4133 0.77334z" style="font-feature-settings:normal;font-variant-caps:normal;font-variant-ligatures:normal;font-variant-numeric:normal"/>
<path d="m1367.7 358.45h2.32l-8.8 25.12h-2.32z" style="font-feature-settings:normal;font-variant-caps:normal;font-variant-ligatures:normal;font-variant-numeric:normal"/>
<path d="m1377.2 366.64q2.0534 0 3.68 0.90667 1.6267 0.90666 2.5334 2.5333 0.9333 1.6267 0.9333 3.76t-0.9333 3.7867q-0.9067 1.6267-2.5334 2.5333-1.6266 0.90667-3.68 0.90667-1.52 0-2.8-0.58667-1.2533-0.58667-2.1333-1.7067v7.3067h-2.56v-19.307h2.4533v2.24q0.8534-1.1733 2.16-1.76 1.3067-0.61333 2.88-0.61333zm-0.2133 12.187q1.36 0 2.4267-0.61334 1.0933-0.64 1.7066-1.76 0.64-1.1467 0.64-2.6133t-0.64-2.5867q-0.6133-1.1467-1.7066-1.76-1.0667-0.61333-2.4267-0.61333-1.3333 0-2.4267 0.64-1.0666 0.61333-1.7066 1.7333-0.6134 1.12-0.6134 2.5867t0.6134 2.6133q0.6133 1.12 1.7066 1.76 1.0934 0.61334 2.4267 0.61334z" style="font-feature-settings:normal;font-variant-caps:normal;font-variant-ligatures:normal;font-variant-numeric:normal"/>
<path d="m1392.9 366.64q2.9334 0 4.48 1.44 1.5734 1.44 1.5734 4.2933v8.5333h-2.4267v-1.8667q-0.64 0.98667-1.84 1.52-1.1733 0.50667-2.8 0.50667-2.3733 0-3.8133-1.1467-1.4134-1.1467-1.4134-3.0133 0-1.8667 1.36-2.9867 1.36-1.1467 4.32-1.1467h4.0534v-0.50666q0-1.6533-0.96-2.5333t-2.8267-0.88q-1.2533 0-2.4533 0.42667-1.2 0.4-2.0267 1.0933l-1.0667-1.92q1.0934-0.88 2.6134-1.3333 1.52-0.48 3.2266-0.48zm-0.5866 12.453q1.4666 0 2.5333-0.64 1.0667-0.66666 1.5467-1.8667v-1.9733h-3.9467q-3.2533 0-3.2533 2.1867 0 1.0667 0.8266 1.68 0.8267 0.61333 2.2934 0.61333z" style="font-feature-settings:normal;font-variant-caps:normal;font-variant-ligatures:normal;font-variant-numeric:normal"/>
<path d="m1417.3 366.77v12.213q0 3.7067-1.84 5.4667-1.84 1.7867-5.4933 1.7867-2 0-3.8134-0.56-1.8133-0.53333-2.9333-1.5467l1.2267-1.9733q0.9866 0.85333 2.4266 1.3333 1.4667 0.50667 3.0134 0.50667 2.48 0 3.6533-1.1733 1.2-1.1733 1.2-3.5733v-1.12q-0.9067 1.0933-2.24 1.6533-1.3067 0.53333-2.8533 0.53333-2.0267 0-3.68-0.85333-1.6267-0.88-2.56-2.4267-0.9334-1.5733-0.9334-3.5733t0.9334-3.5467q0.9333-1.5733 2.56-2.4267 1.6533-0.85333 3.68-0.85333 1.6 0 2.96 0.58667 1.3866 0.58666 2.2666 1.7333v-2.1867zm-7.36 11.307q1.3867 0 2.48-0.58667 1.12-0.58666 1.7333-1.6267 0.64-1.0667 0.64-2.4 0-2.0533-1.36-3.3067-1.36-1.28-3.4933-1.28-2.16 0-3.52 1.28-1.36 1.2533-1.36 3.3067 0 1.3333 0.6133 2.4 0.64 1.04 1.7334 1.6267 1.12 0.58667 2.5333 0.58667z" style="font-feature-settings:normal;font-variant-caps:normal;font-variant-ligatures:normal;font-variant-numeric:normal"/>
<path d="m1434.9 373.92q0 0.29333-0.053 0.77333h-11.467q0.24 1.8667 1.6266 3.0133 1.4134 1.12 3.4934 1.12 2.5333 0 4.08-1.7067l1.4133 1.6533q-0.96 1.12-2.4 1.7067-1.4133 0.58667-3.1733 0.58667-2.24 0-3.9734-0.90667-1.7333-0.93333-2.6933-2.5867-0.9333-1.6533-0.9333-3.7333 0-2.0533 0.9066-3.7067 0.9334-1.6533 2.5334-2.56 1.6266-0.93333 3.6533-0.93333t3.6 0.93333q1.6 0.90667 2.48 2.56 0.9067 1.6533 0.9067 3.7867zm-6.9867-5.12q-1.84 0-3.0933 1.12-1.2267 1.12-1.44 2.9333h9.0666q-0.2133-1.7867-1.4666-2.9067-1.2267-1.1467-3.0667-1.1467z" style="font-feature-settings:normal;font-variant-caps:normal;font-variant-ligatures:normal;font-variant-numeric:normal"/>
<path d="m1450.1 368.99-0.64 5.1733h3.7067v1.9467h-3.9467l-0.5867 4.8h-1.8933l0.5867-4.8h-5.04l-0.5867 4.8h-1.8933l0.5866-4.8h-3.68v-1.9467h3.92l0.6667-5.1733h-3.7333v-1.9467h3.9733l0.5867-4.8h1.8933l-0.5867 4.8h5.0134l0.5866-4.8h1.8934l-0.5867 4.8h3.68v1.9467zm-1.8933 0h-5.0134l-0.6666 5.1733h5.04z" style="font-feature-settings:normal;font-variant-caps:normal;font-variant-ligatures:normal;font-variant-numeric:normal"/>
<path d="m1462.4 363.07q-2.2933 0-2.2933 2.48v1.2267h4.1067v2.1067h-4.0534v12.027h-2.56v-12.027h-2.4v-2.1067h2.4v-1.2533q0-2.1067 1.2267-3.3333 1.2267-1.2267 3.44-1.2267 0.8533 0 1.6 0.21333 0.7467 0.21334 1.28 0.61334l-0.7733 1.9467q-0.88-0.66666-1.9734-0.66666z" style="font-feature-settings:normal;font-variant-caps:normal;font-variant-ligatures:normal;font-variant-numeric:normal"/>
<path d="m1471.2 369.15q0.6667-1.2267 1.9734-1.8667 1.3066-0.64 3.1733-0.64v2.48q-0.2133-0.0267-0.5867-0.0267-2.08 0-3.28 1.2533-1.1733 1.2267-1.1733 3.52v7.04h-2.56v-14.133h2.4533z" style="font-feature-settings:normal;font-variant-caps:normal;font-variant-ligatures:normal;font-variant-numeric:normal"/>
<path d="m1484.6 366.64q2.9334 0 4.48 1.44 1.5734 1.44 1.5734 4.2933v8.5333h-2.4267v-1.8667q-0.64 0.98667-1.84 1.52-1.1733 0.50667-2.8 0.50667-2.3733 0-3.8133-1.1467-1.4134-1.1467-1.4134-3.0133 0-1.8667 1.36-2.9867 1.36-1.1467 4.32-1.1467h4.0534v-0.50666q0-1.6533-0.96-2.5333t-2.8267-0.88q-1.2533 0-2.4533 0.42667-1.2 0.4-2.0267 1.0933l-1.0667-1.92q1.0934-0.88 2.6134-1.3333 1.52-0.48 3.2266-0.48zm-0.5866 12.453q1.4666 0 2.5333-0.64 1.0667-0.66666 1.5467-1.8667v-1.9733h-3.9467q-3.2533 0-3.2533 2.1867 0 1.0667 0.8266 1.68 0.8267 0.61333 2.2934 0.61333z" style="font-feature-settings:normal;font-variant-caps:normal;font-variant-ligatures:normal;font-variant-numeric:normal"/>
<path d="m1509.1 366.77v12.213q0 3.7067-1.84 5.4667-1.84 1.7867-5.4934 1.7867-2 0-3.8133-0.56-1.8133-0.53333-2.9333-1.5467l1.2266-1.9733q0.9867 0.85333 2.4267 1.3333 1.4667 0.50667 3.0133 0.50667 2.48 0 3.6534-1.1733 1.2-1.1733 1.2-3.5733v-1.12q-0.9067 1.0933-2.24 1.6533-1.3067 0.53333-2.8534 0.53333-2.0266 0-3.68-0.85333-1.6266-0.88-2.56-2.4267-0.9333-1.5733-0.9333-3.5733t0.9333-3.5467q0.9334-1.5733 2.56-2.4267 1.6534-0.85333 3.68-0.85333 1.6 0 2.96 0.58667 1.3867 0.58666 2.2667 1.7333v-2.1867zm-7.36 11.307q1.3866 0 2.48-0.58667 1.12-0.58666 1.7333-1.6267 0.64-1.0667 0.64-2.4 0-2.0533-1.36-3.3067-1.36-1.28-3.4933-1.28-2.16 0-3.52 1.28-1.36 1.2533-1.36 3.3067 0 1.3333 0.6133 2.4 0.64 1.04 1.7333 1.6267 1.12 0.58667 2.5334 0.58667z" style="font-feature-settings:normal;font-variant-caps:normal;font-variant-ligatures:normal;font-variant-numeric:normal"/>
<path d="m1531.6 366.64q2.6667 0 4.2134 1.5467 1.5733 1.5467 1.5733 4.5867v8.1333h-2.56v-7.84q0-2.0533-0.96-3.0933-0.9333-1.04-2.6933-1.04-1.9467 0-3.0934 1.2267-1.1466 1.2-1.1466 3.4667v7.28h-2.56v-7.84q0-2.0533-0.96-3.0933-0.9334-1.04-2.6934-1.04-1.9466 0-3.0933 1.2267-1.1467 1.2-1.1467 3.4667v7.28h-2.56v-14.133h2.4534v2.1067q0.7733-1.0933 2.0266-1.6533 1.2534-0.58667 2.8534-0.58667 1.6533 0 2.9333 0.66667 1.28 0.66666 1.9733 1.9467 0.8-1.2267 2.2134-1.92 1.44-0.69333 3.2266-0.69333z" style="font-feature-settings:normal;font-variant-caps:normal;font-variant-ligatures:normal;font-variant-numeric:normal"/>
<path d="m1555 373.92q0 0.29333-0.053 0.77333h-11.467q0.24 1.8667 1.6267 3.0133 1.4133 1.12 3.4933 1.12 2.5334 0 4.08-1.7067l1.4134 1.6533q-0.96 1.12-2.4 1.7067-1.4134 0.58667-3.1734 0.58667-2.24 0-3.9733-0.90667-1.7333-0.93333-2.6933-2.5867-0.9334-1.6533-0.9334-3.7333 0-2.0533 0.9067-3.7067 0.9333-1.6533 2.5333-2.56 1.6267-0.93333 3.6534-0.93333 2.0266 0 3.6 0.93333 1.6 0.90667 2.48 2.56 0.9066 1.6533 0.9066 3.7867zm-6.9866-5.12q-1.84 0-3.0934 1.12-1.2266 1.12-1.44 2.9333h9.0667q-0.2133-1.7867-1.4667-2.9067-1.2266-1.1467-3.0666-1.1467z" style="font-feature-settings:normal;font-variant-caps:normal;font-variant-ligatures:normal;font-variant-numeric:normal"/>
<path d="m1566.1 366.64q2.6934 0 4.2667 1.5733 1.6 1.5467 1.6 4.56v8.1333h-2.56v-7.84q0-2.0533-0.9867-3.0933-0.9866-1.04-2.8266-1.04-2.08 0-3.28 1.2267-1.2 1.2-1.2 3.4667v7.28h-2.56v-14.133h2.4533v2.1333q0.7733-1.0933 2.08-1.68 1.3333-0.58667 3.0133-0.58667z" style="font-feature-settings:normal;font-variant-caps:normal;font-variant-ligatures:normal;font-variant-numeric:normal"/>
<path d="m1584.6 380.08q-0.56 0.48-1.3866 0.74667-0.8267 0.24-1.7067 0.24-2.1333 0-3.3067-1.1467-1.1733-1.1467-1.1733-3.28v-7.76h-2.4v-2.1067h2.4v-3.0933h2.56v3.0933h4.0533v2.1067h-4.0533v7.6533q0 1.1467 0.56 1.76 0.5867 0.61334 1.6533 0.61334 1.1734 0 2-0.66667z" style="font-feature-settings:normal;font-variant-caps:normal;font-variant-ligatures:normal;font-variant-numeric:normal"/>
</g>
<path d="m1588.1 361.12h5.5734v2.1067h-3.0134v20.747h3.0134v2.1067h-5.5734z" fill="#b91d5e" style="font-feature-settings:normal;font-variant-caps:normal;font-variant-ligatures:normal;font-variant-numeric:normal"/>
<g fill="#125e74">
<path d="m1604.6 380.08q-0.56 0.48-1.3866 0.74667-0.8267 0.24-1.7067 0.24-2.1333 0-3.3067-1.1467-1.1733-1.1467-1.1733-3.28v-7.76h-2.4v-2.1067h2.4v-3.0933h2.56v3.0933h4.0533v2.1067h-4.0533v7.6533q0 1.1467 0.56 1.76 0.5867 0.61334 1.6533 0.61334 1.1734 0 2-0.66667z" style="font-feature-settings:normal;font-variant-caps:normal;font-variant-ligatures:normal;font-variant-numeric:normal"/>
<path d="m1620 373.92q0 0.29333-0.053 0.77333h-11.467q0.24 1.8667 1.6267 3.0133 1.4133 1.12 3.4933 1.12 2.5334 0 4.08-1.7067l1.4134 1.6533q-0.96 1.12-2.4 1.7067-1.4134 0.58667-3.1734 0.58667-2.24 0-3.9733-0.90667-1.7333-0.93333-2.6933-2.5867-0.9334-1.6533-0.9334-3.7333 0-2.0533 0.9067-3.7067 0.9333-1.6533 2.5333-2.56 1.6267-0.93333 3.6534-0.93333 2.0266 0 3.6 0.93333 1.6 0.90667 2.48 2.56 0.9066 1.6533 0.9066 3.7867zm-6.9866-5.12q-1.84 0-3.0934 1.12-1.2266 1.12-1.44 2.9333h9.0667q-0.2133-1.7867-1.4667-2.9067-1.2266-1.1467-3.0666-1.1467z" style="font-feature-settings:normal;font-variant-caps:normal;font-variant-ligatures:normal;font-variant-numeric:normal"/>
<path d="m1632.1 380.91-4.08-5.4133-4.1334 5.4133h-2.8533l5.5733-7.2267-5.3066-6.9067h2.8533l3.8933 5.0933 3.8667-5.0933h2.8l-5.3333 6.9067 5.6266 7.2267z" style="font-feature-settings:normal;font-variant-caps:normal;font-variant-ligatures:normal;font-variant-numeric:normal"/>
<path d="m1645.8 380.08q-0.56 0.48-1.3867 0.74667-0.8267 0.24-1.7067 0.24-2.1333 0-3.3066-1.1467-1.1734-1.1467-1.1734-3.28v-7.76h-2.4v-2.1067h2.4v-3.0933h2.56v3.0933h4.0534v2.1067h-4.0534v7.6533q0 1.1467 0.56 1.76 0.5867 0.61334 1.6534 0.61334 1.1733 0 2-0.66667z" style="font-feature-settings:normal;font-variant-caps:normal;font-variant-ligatures:normal;font-variant-numeric:normal"/>
</g>
<path d="m1646.9 386.08v-2.1067h3.0133v-20.747h-3.0133v-2.1067h5.5733v24.96z" fill="#b91d5e" style="font-feature-settings:normal;font-variant-caps:normal;font-variant-ligatures:normal;font-variant-numeric:normal"/>
<g fill="#333">
<path d="m1203.3 443.96q1.6427 0 2.944 0.72533 1.3014 0.72534 2.0267 2.0267 0.7467 1.3013 0.7467 3.008t-0.7467 3.0293q-0.7253 1.3013-2.0267 2.0267-1.3013 0.72533-2.944 0.72533-1.216 0-2.24-0.46933-1.0026-0.46933-1.7066-1.3653v5.8453h-2.048v-15.445h1.9626v1.792q0.6827-0.93867 1.728-1.408 1.0454-0.49067 2.304-0.49067zm-0.1706 9.7493q1.088 0 1.9413-0.49066 0.8747-0.512 1.3653-1.408 0.512-0.91734 0.512-2.0907t-0.512-2.0693q-0.4906-0.91734-1.3653-1.408-0.8533-0.49067-1.9413-0.49067-1.0667 0-1.9414 0.512-0.8533 0.49067-1.3653 1.3867-0.4907 0.896-0.4907 2.0693t0.4907 2.0907q0.4907 0.896 1.3653 1.408 0.8747 0.49066 1.9414 0.49066z" style="font-feature-settings:normal;font-variant-caps:normal;font-variant-ligatures:normal;font-variant-numeric:normal"/>
<path d="m1215.8 443.96q2.3466 0 3.584 1.152 1.2586 1.152 1.2586 3.4347v6.8267h-1.9413v-1.4933q-0.512 0.78933-1.472 1.216-0.9387 0.40533-2.24 0.40533-1.8987 0-3.0507-0.91733-1.1306-0.91733-1.1306-2.4107 0-1.4933 1.088-2.3893 1.088-0.91733 3.456-0.91733h3.2426v-0.40534q0-1.3227-0.768-2.0267t-2.2613-0.704q-1.0027 0-1.9627 0.34133-0.96 0.32-1.6213 0.87467l-0.8533-1.536q0.8746-0.704 2.0906-1.0667 1.216-0.384 2.5814-0.384zm-0.4694 9.9627q1.1734 0 2.0267-0.512 0.8533-0.53334 1.2373-1.4933v-1.5787h-3.1573q-2.6027 0-2.6027 1.7493 0 0.85333 0.6614 1.344 0.6613 0.49067 1.8346 0.49067z" style="font-feature-settings:normal;font-variant-caps:normal;font-variant-ligatures:normal;font-variant-numeric:normal"/>
<path d="m1235.3 444.07v9.7707q0 2.9653-1.472 4.3733-1.472 1.4293-4.3947 1.4293-1.6 0-3.0507-0.448-1.4506-0.42667-2.3466-1.2373l0.9813-1.5787q0.7893 0.68267 1.9413 1.0667 1.1734 0.40533 2.4107 0.40533 1.984 0 2.9227-0.93867 0.96-0.93866 0.96-2.8587v-0.896q-0.7254 0.87466-1.792 1.3227-1.0454 0.42667-2.2827 0.42667-1.6213 0-2.944-0.68267-1.3013-0.704-2.048-1.9413-0.7467-1.2587-0.7467-2.8587t0.7467-2.8373q0.7467-1.2587 2.048-1.9413 1.3227-0.68267 2.944-0.68267 1.28 0 2.368 0.46933 1.1093 0.46934 1.8133 1.3867v-1.7493zm-5.888 9.0453q1.1093 0 1.984-0.46933 0.896-0.46934 1.3866-1.3013 0.512-0.85333 0.512-1.92 0-1.6427-1.088-2.6453-1.088-1.024-2.7946-1.024-1.728 0-2.816 1.024-1.088 1.0027-1.088 2.6453 0 1.0667 0.4906 1.92 0.512 0.832 1.3867 1.3013 0.896 0.46933 2.0267 0.46933z" style="font-feature-settings:normal;font-variant-caps:normal;font-variant-ligatures:normal;font-variant-numeric:normal"/>
<path d="m1249.4 449.78q0 0.23467-0.043 0.61867h-9.1733q0.192 1.4933 1.3013 2.4107 1.1307 0.896 2.7947 0.896 2.0266 0 3.264-1.3653l1.1306 1.3227q-0.768 0.896-1.92 1.3653-1.1306 0.46933-2.5386 0.46933-1.792 0-3.1787-0.72533-1.3867-0.74667-2.1547-2.0693-0.7466-1.3227-0.7466-2.9867 0-1.6427 0.7253-2.9653 0.7467-1.3227 2.0267-2.048 1.3013-0.74667 2.9226-0.74667 1.6214 0 2.88 0.74667 1.28 0.72533 1.984 2.048 0.7254 1.3227 0.7254 3.0293zm-5.5894-4.096q-1.472 0-2.4746 0.896-0.9814 0.896-1.152 2.3467h7.2533q-0.1707-1.4293-1.1733-2.3253-0.9814-0.91733-2.4534-0.91733z" style="font-feature-settings:normal;font-variant-caps:normal;font-variant-ligatures:normal;font-variant-numeric:normal"/>
<path d="m1258.3 440.44h2.1334v14.933h-2.1334z" style="font-feature-settings:normal;font-variant-caps:normal;font-variant-ligatures:normal;font-variant-numeric:normal"/>
<path d="m1264.9 440.44h6.2934q2.368 0 4.2026 0.93867 1.8347 0.93866 2.8374 2.6453 1.024 1.6853 1.024 3.8827 0 2.1973-1.024 3.904-1.0027 1.6853-2.8374 2.624-1.8346 0.93866-4.2026 0.93866h-6.2934zm6.1654 13.077q1.8133 0 3.1786-0.704 1.3867-0.704 2.1334-1.9627 0.7466-1.28 0.7466-2.944t-0.7466-2.9227q-0.7467-1.28-2.1334-1.984-1.3653-0.704-3.1786-0.704h-4.032v11.221z" style="font-feature-settings:normal;font-variant-caps:normal;font-variant-ligatures:normal;font-variant-numeric:normal"/>
</g>
<g transform="matrix(3.7795 0 0 3.7795 1112.7 -549.88)" fill="none" stroke="#333" stroke-linecap="round" stroke-linejoin="round">
<path d="m33.207 254.69v3.1427" stroke-width=".529"/>
<circle cx="33.237" cy="258.59" r=".7355" stroke-dashoffset="72" stroke-width=".529"/>
</g>
<g fill="#b91d5e">
<path d="m775.02 262.52h2.048v11.307h-2.048zm1.024-2.176q-0.59734 0-1.0027-0.384-0.384-0.384-0.384-0.93866 0-0.55467 0.384-0.93867 0.40533-0.40533 1.0027-0.40533 0.59733 0 0.98133 0.384 0.40533 0.36266 0.40533 0.91733 0 0.576-0.40533 0.98133-0.384 0.384-0.98133 0.384z" style="font-feature-settings:normal;font-variant-caps:normal;font-variant-ligatures:normal;font-variant-numeric:normal"/>
<path d="m787.01 262.42q2.1547 0 3.4133 1.2587 1.28 1.2373 1.28 3.648v6.5067h-2.048v-6.272q0-1.6427-0.78934-2.4747-0.78933-0.832-2.2613-0.832-1.664 0-2.624 0.98134-0.96 0.96-0.96 2.7733v5.824h-2.048v-11.307h1.9627v1.7067q0.61866-0.87467 1.664-1.344 1.0667-0.46933 2.4107-0.46933z" style="font-feature-settings:normal;font-variant-caps:normal;font-variant-ligatures:normal;font-variant-numeric:normal"/>
<path d="m801.87 273.17q-0.448 0.384-1.1093 0.59733-0.66134 0.192-1.3653 0.192-1.7067 0-2.6453-0.91733-0.93867-0.91734-0.93867-2.624v-6.208h-1.92v-1.6853h1.92v-2.4747h2.048v2.4747h3.2427v1.6853h-3.2427v6.1227q0 0.91734 0.448 1.408 0.46934 0.49067 1.3227 0.49067 0.93867 0 1.6-0.53333z" style="font-feature-settings:normal;font-variant-caps:normal;font-variant-ligatures:normal;font-variant-numeric:normal"/>
<path d="m814.19 268.24q0 0.23466-0.0427 0.61866h-9.1733q0.192 1.4933 1.3013 2.4107 1.1307 0.896 2.7947 0.896 2.0267 0 3.264-1.3653l1.1307 1.3227q-0.768 0.896-1.92 1.3653-1.1307 0.46933-2.5387 0.46933-1.792 0-3.1787-0.72533-1.3867-0.74667-2.1547-2.0693-0.74666-1.3227-0.74666-2.9867 0-1.6427 0.72533-2.9653 0.74667-1.3227 2.0267-2.048 1.3013-0.74666 2.9227-0.74666 1.6213 0 2.88 0.74666 1.28 0.72534 1.984 2.048 0.72534 1.3227 0.72534 3.0293zm-5.5893-4.096q-1.472 0-2.4747 0.896-0.98134 0.896-1.152 2.3467h7.2533q-0.17067-1.4293-1.1733-2.3253-0.98134-0.91733-2.4533-0.91733z" style="font-feature-settings:normal;font-variant-caps:normal;font-variant-ligatures:normal;font-variant-numeric:normal"/>
<path d="m818.98 264.42q0.53334-0.98133 1.5787-1.4933t2.5387-0.512v1.984q-0.17067-0.0213-0.46934-0.0213-1.664 0-2.624 1.0027-0.93866 0.98133-0.93866 2.816v5.632h-2.048v-11.307h1.9627z" style="font-feature-settings:normal;font-variant-caps:normal;font-variant-ligatures:normal;font-variant-numeric:normal"/>
<path d="m824.83 267.09h5.7387v1.7707h-5.7387z" style="font-feature-settings:normal;font-variant-caps:normal;font-variant-ligatures:normal;font-variant-numeric:normal"/>
<path d="m844.6 258v15.829h-1.9627v-1.792q-0.68266 0.93867-1.728 1.4293-1.0453 0.49067-2.304 0.49067-1.6427 0-2.944-0.72533-1.3013-0.72534-2.048-2.0267-0.72533-1.3227-0.72533-3.0293 0-1.7067 0.72533-3.008 0.74667-1.3013 2.048-2.0267 1.3013-0.72533 2.944-0.72533 1.216 0 2.24 0.46933 1.024 0.448 1.7067 1.344v-6.2293zm-5.824 14.165q1.0667 0 1.9413-0.49067 0.87467-0.512 1.3653-1.408 0.49066-0.91733 0.49066-2.0907 0-1.1733-0.49066-2.0693-0.49067-0.91733-1.3653-1.408-0.87466-0.49066-1.9413-0.49066-1.088 0-1.9627 0.49066-0.85333 0.49067-1.3653 1.408-0.49067 0.896-0.49067 2.0693 0 1.1733 0.49067 2.0907 0.512 0.896 1.3653 1.408 0.87467 0.49067 1.9627 0.49067z" style="font-feature-settings:normal;font-variant-caps:normal;font-variant-ligatures:normal;font-variant-numeric:normal"/>
<path d="m853.32 273.96q-1.6853 0-3.0293-0.74667-1.344-0.74666-2.112-2.048-0.74666-1.3227-0.74666-2.9867t0.74666-2.9653q0.768-1.3227 2.112-2.048 1.344-0.74666 3.0293-0.74666 1.6853 0 3.008 0.74666 1.344 0.72534 2.0907 2.048 0.768 1.3013 0.768 2.9653t-0.768 2.9867q-0.74666 1.3013-2.0907 2.048-1.3227 0.74667-3.008 0.74667zm0-1.792q1.088 0 1.9413-0.49067 0.87467-0.512 1.3653-1.408 0.49067-0.91733 0.49067-2.0907 0-1.1733-0.49067-2.0693-0.49066-0.91733-1.3653-1.408-0.85333-0.49066-1.9413-0.49066t-1.9627 0.49066q-0.85333 0.49067-1.3653 1.408-0.49067 0.896-0.49067 2.0693 0 1.1733 0.49067 2.0907 0.512 0.896 1.3653 1.408 0.87467 0.49067 1.9627 0.49067z" style="font-feature-settings:normal;font-variant-caps:normal;font-variant-ligatures:normal;font-variant-numeric:normal"/>
<path d="m866.94 273.96q-1.728 0-3.0933-0.74667-1.344-0.74666-2.112-2.048-0.768-1.3227-0.768-2.9867t0.768-2.9653q0.768-1.3227 2.112-2.048 1.3653-0.74666 3.0933-0.74666 1.536 0 2.7307 0.61866 1.216 0.61867 1.8773 1.792l-1.5573 1.0027q-0.53333-0.81067-1.3227-1.216-0.78934-0.40533-1.7493-0.40533-1.1093 0-2.0053 0.49066-0.87467 0.49067-1.3867 1.408-0.49066 0.896-0.49066 2.0693 0 1.1947 0.49066 2.112 0.512 0.896 1.3867 1.3867 0.896 0.49067 2.0053 0.49067 0.96 0 1.7493-0.40533 0.78933-0.40534 1.3227-1.216l1.5573 0.98133q-0.66134 1.1733-1.8773 1.8133-1.1947 0.61867-2.7307 0.61867z" style="font-feature-settings:normal;font-variant-caps:normal;font-variant-ligatures:normal;font-variant-numeric:normal"/>
<path d="m884.72 262.52v11.307h-1.9413v-1.7067q-0.61867 0.87467-1.6427 1.3653-1.0027 0.46933-2.1973 0.46933-2.2613 0-3.5627-1.2373-1.3013-1.2587-1.3013-3.6907v-6.5067h2.048v6.272q0 1.6427 0.78933 2.496 0.78934 0.832 2.2613 0.832 1.6213 0 2.56-0.98133 0.93866-0.98133 0.93866-2.7733v-5.8453z" style="font-feature-settings:normal;font-variant-caps:normal;font-variant-ligatures:normal;font-variant-numeric:normal"/>
<path d="m902.78 262.42q2.1333 0 3.3707 1.2373 1.2587 1.2373 1.2587 3.6693v6.5067h-2.048v-6.272q0-1.6427-0.768-2.4747-0.74667-0.832-2.1547-0.832-1.5573 0-2.4747 0.98134-0.91734 0.96-0.91734 2.7733v5.824h-2.048v-6.272q0-1.6427-0.768-2.4747-0.74666-0.832-2.1547-0.832-1.5573 0-2.4747 0.98134-0.91733 0.96-0.91733 2.7733v5.824h-2.048v-11.307h1.9627v1.6853q0.61867-0.87467 1.6213-1.3227 1.0027-0.46933 2.2827-0.46933 1.3227 0 2.3467 0.53333t1.5787 1.5573q0.64-0.98133 1.7707-1.536 1.152-0.55466 2.5813-0.55466z" style="font-feature-settings:normal;font-variant-caps:normal;font-variant-ligatures:normal;font-variant-numeric:normal"/>
<path d="m921.48 268.24q0 0.23466-0.0427 0.61866h-9.1733q0.192 1.4933 1.3013 2.4107 1.1307 0.896 2.7947 0.896 2.0267 0 3.264-1.3653l1.1307 1.3227q-0.768 0.896-1.92 1.3653-1.1307 0.46933-2.5387 0.46933-1.792 0-3.1787-0.72533-1.3867-0.74667-2.1547-2.0693-0.74667-1.3227-0.74667-2.9867 0-1.6427 0.72534-2.9653 0.74666-1.3227 2.0267-2.048 1.3013-0.74666 2.9227-0.74666t2.88 0.74666q1.28 0.72534 1.984 2.048 0.72533 1.3227 0.72533 3.0293zm-5.5893-4.096q-1.472 0-2.4747 0.896-0.98133 0.896-1.152 2.3467h7.2533q-0.17067-1.4293-1.1733-2.3253-0.98133-0.91733-2.4533-0.91733z" style="font-feature-settings:normal;font-variant-caps:normal;font-variant-ligatures:normal;font-variant-numeric:normal"/>
<path d="m930.34 262.42q2.1547 0 3.4133 1.2587 1.28 1.2373 1.28 3.648v6.5067h-2.048v-6.272q0-1.6427-0.78933-2.4747t-2.2613-0.832q-1.664 0-2.624 0.98134-0.96 0.96-0.96 2.7733v5.824h-2.048v-11.307h1.9627v1.7067q0.61867-0.87467 1.664-1.344 1.0667-0.46933 2.4107-0.46933z" style="font-feature-settings:normal;font-variant-caps:normal;font-variant-ligatures:normal;font-variant-numeric:normal"/>
<path d="m945.21 273.17q-0.448 0.384-1.1093 0.59733-0.66133 0.192-1.3653 0.192-1.7067 0-2.6453-0.91733-0.93866-0.91734-0.93866-2.624v-6.208h-1.92v-1.6853h1.92v-2.4747h2.048v2.4747h3.2427v1.6853h-3.2427v6.1227q0 0.91734 0.448 1.408 0.46933 0.49067 1.3227 0.49067 0.93867 0 1.6-0.53333z" style="font-feature-settings:normal;font-variant-caps:normal;font-variant-ligatures:normal;font-variant-numeric:normal"/>
<path d="m810.46 300.5-3.264-4.3307-3.3067 4.3307h-2.2827l4.4587-5.7813-4.2453-5.5253h2.2827l3.1147 4.0747 3.0933-4.0747h2.24l-4.2667 5.5253 4.5013 5.7813z" style="font-feature-settings:normal;font-variant-caps:normal;font-variant-ligatures:normal;font-variant-numeric:normal"/>
<path d="m817 291.09q0.53333-0.98134 1.5787-1.4933 1.0453-0.512 2.5387-0.512v1.984q-0.17067-0.0213-0.46933-0.0213-1.664 0-2.624 1.0027-0.93867 0.98133-0.93867 2.816v5.632h-2.048v-11.307h1.9627z" style="font-feature-settings:normal;font-variant-caps:normal;font-variant-ligatures:normal;font-variant-numeric:normal"/>
<path d="m833.76 294.91q0 0.23467-0.0427 0.61867h-9.1733q0.192 1.4933 1.3013 2.4107 1.1307 0.896 2.7947 0.896 2.0267 0 3.264-1.3653l1.1307 1.3227q-0.768 0.896-1.92 1.3653-1.1307 0.46934-2.5387 0.46934-1.792 0-3.1787-0.72534-1.3867-0.74666-2.1547-2.0693-0.74666-1.3227-0.74666-2.9867 0-1.6427 0.72533-2.9653 0.74667-1.3227 2.0267-2.048 1.3013-0.74667 2.9227-0.74667 1.6213 0 2.88 0.74667 1.28 0.72533 1.984 2.048 0.72534 1.3227 0.72534 3.0293zm-5.5893-4.096q-1.472 0-2.4747 0.896-0.98134 0.896-1.152 2.3467h7.2533q-0.17067-1.4293-1.1733-2.3253-0.98134-0.91734-2.4533-0.91734z" style="font-feature-settings:normal;font-variant-caps:normal;font-variant-ligatures:normal;font-variant-numeric:normal"/>
<path d="m840.72 286.22q-1.8347 0-1.8347 1.984v0.98133h3.2853v1.6853h-3.2427v9.6213h-2.048v-9.6213h-1.92v-1.6853h1.92v-1.0027q0-1.6853 0.98133-2.6667 0.98133-0.98134 2.752-0.98134 0.68267 0 1.28 0.17067t1.024 0.49067l-0.61867 1.5573q-0.704-0.53333-1.5787-0.53333z" style="font-feature-settings:normal;font-variant-caps:normal;font-variant-ligatures:normal;font-variant-numeric:normal"/>
<path d="m864.01 289.08q2.1333 0 3.3707 1.2373 1.2587 1.2373 1.2587 3.6693v6.5067h-2.048v-6.272q0-1.6427-0.768-2.4747-0.74667-0.832-2.1547-0.832-1.5573 0-2.4747 0.98133-0.91733 0.96-0.91733 2.7733v5.824h-2.048v-6.272q0-1.6427-0.768-2.4747-0.74667-0.832-2.1547-0.832-1.5573 0-2.4747 0.98133-0.91734 0.96-0.91734 2.7733v5.824h-2.048v-11.307h1.9627v1.6853q0.61867-0.87466 1.6213-1.3227 1.0027-0.46934 2.2827-0.46934 1.3227 0 2.3467 0.53334 1.024 0.53333 1.5787 1.5573 0.64-0.98133 1.7707-1.536 1.152-0.55467 2.5813-0.55467z" style="font-feature-settings:normal;font-variant-caps:normal;font-variant-ligatures:normal;font-variant-numeric:normal"/>
<path d="m876.53 289.08q2.3467 0 3.584 1.152 1.2587 1.152 1.2587 3.4347v6.8267h-1.9413v-1.4933q-0.512 0.78934-1.472 1.216-0.93867 0.40534-2.24 0.40534-1.8987 0-3.0507-0.91734-1.1307-0.91733-1.1307-2.4107 0-1.4933 1.088-2.3893 1.088-0.91733 3.456-0.91733h3.2427v-0.40533q0-1.3227-0.768-2.0267t-2.2613-0.704q-1.0027 0-1.9627 0.34133-0.96 0.32-1.6213 0.87467l-0.85333-1.536q0.87466-0.704 2.0907-1.0667 1.216-0.384 2.5813-0.384zm-0.46934 9.9627q1.1733 0 2.0267-0.512 0.85333-0.53333 1.2373-1.4933v-1.5787h-3.1573q-2.6027 0-2.6027 1.7493 0 0.85334 0.66134 1.344 0.66133 0.49067 1.8347 0.49067z" style="font-feature-settings:normal;font-variant-caps:normal;font-variant-ligatures:normal;font-variant-numeric:normal"/>
<path d="m890.17 300.62q-1.728 0-3.0933-0.74667-1.344-0.74667-2.112-2.048-0.768-1.3227-0.768-2.9867t0.768-2.9653q0.768-1.3227 2.112-2.048 1.3653-0.74667 3.0933-0.74667 1.536 0 2.7307 0.61867 1.216 0.61867 1.8773 1.792l-1.5573 1.0027q-0.53333-0.81067-1.3227-1.216-0.78933-0.40534-1.7493-0.40534-1.1093 0-2.0053 0.49067-0.87467 0.49067-1.3867 1.408-0.49067 0.896-0.49067 2.0693 0 1.1947 0.49067 2.112 0.512 0.896 1.3867 1.3867 0.896 0.49067 2.0053 0.49067 0.96 0 1.7493-0.40534 0.78934-0.40533 1.3227-1.216l1.5573 0.98134q-0.66133 1.1733-1.8773 1.8133-1.1947 0.61867-2.7307 0.61867z" style="font-feature-settings:normal;font-variant-caps:normal;font-variant-ligatures:normal;font-variant-numeric:normal"/>
<path d="m899.37 291.09q0.53333-0.98134 1.5787-1.4933 1.0453-0.512 2.5387-0.512v1.984q-0.17066-0.0213-0.46933-0.0213-1.664 0-2.624 1.0027-0.93867 0.98133-0.93867 2.816v5.632h-2.048v-11.307h1.9627z" style="font-feature-settings:normal;font-variant-caps:normal;font-variant-ligatures:normal;font-variant-numeric:normal"/>
<path d="m910.75 300.62q-1.6853 0-3.0293-0.74667t-2.112-2.048q-0.74667-1.3227-0.74667-2.9867t0.74667-2.9653q0.768-1.3227 2.112-2.048 1.344-0.74667 3.0293-0.74667t3.008 0.74667q1.344 0.72533 2.0907 2.048 0.768 1.3013 0.768 2.9653t-0.768 2.9867q-0.74667 1.3013-2.0907 2.048-1.3227 0.74667-3.008 0.74667zm0-1.792q1.088 0 1.9413-0.49067 0.87467-0.512 1.3653-1.408 0.49066-0.91733 0.49066-2.0907 0-1.1733-0.49066-2.0693-0.49067-0.91733-1.3653-1.408-0.85333-0.49067-1.9413-0.49067t-1.9627 0.49067q-0.85333 0.49067-1.3653 1.408-0.49067 0.896-0.49067 2.0693 0 1.1733 0.49067 2.0907 0.512 0.896 1.3653 1.408 0.87467 0.49067 1.9627 0.49067z" style="font-feature-settings:normal;font-variant-caps:normal;font-variant-ligatures:normal;font-variant-numeric:normal"/>
</g>
<g fill="none" stroke-linecap="round" stroke-linejoin="round">
<path d="m891.26 390.71v21.107h694.04v-21.107" stroke="#333" stroke-width="1.9994"/>
<path d="m832.97 354.61v-21.107h53.92v21.107" stroke="#b91d5e" stroke-width="1.9994"/>
<g transform="matrix(3.7795 0 0 -3.7795 734.31 1294.8)" stroke="#b91d5e">
<path d="m33.207 254.69v3.1427" stroke-width=".529"/>
<circle cx="33.237" cy="258.59" r=".7355" stroke-dashoffset="72" stroke-width=".529"/>
</g>
</g>
<g fill="#125e74">
<path d="m1593.1 273.3q-0.448 0.384-1.1093 0.59733-0.6613 0.192-1.3653 0.192-1.7067 0-2.6454-0.91733-0.9386-0.91734-0.9386-2.624v-6.208h-1.92v-1.6853h1.92v-2.4747h2.048v2.4747h3.2426v1.6853h-3.2426v6.1227q0 0.91734 0.448 1.408 0.4693 0.49067 1.3226 0.49067 0.9387 0 1.6-0.53333z" style="font-feature-settings:normal;font-variant-caps:normal;font-variant-ligatures:normal;font-variant-numeric:normal"/>
<path d="m1605.4 268.37q0 0.23466-0.043 0.61866h-9.1733q0.192 1.4933 1.3013 2.4107 1.1307 0.896 2.7947 0.896 2.0267 0 3.264-1.3653l1.1307 1.3227q-0.768 0.896-1.92 1.3653-1.1307 0.46933-2.5387 0.46933-1.792 0-3.1787-0.72533-1.3866-0.74667-2.1546-2.0693-0.7467-1.3227-0.7467-2.9867 0-1.6427 0.7253-2.9653 0.7467-1.3227 2.0267-2.048 1.3013-0.74666 2.9227-0.74666 1.6213 0 2.88 0.74666 1.28 0.72534 1.984 2.048 0.7253 1.3227 0.7253 3.0293zm-5.5893-4.096q-1.472 0-2.4747 0.896-0.9813 0.896-1.152 2.3467h7.2533q-0.1706-1.4293-1.1733-2.3253-0.9813-0.91733-2.4533-0.91733z" style="font-feature-settings:normal;font-variant-caps:normal;font-variant-ligatures:normal;font-variant-numeric:normal"/>
<path d="m1615.1 273.96-3.264-4.3307-3.3066 4.3307h-2.2827l4.4587-5.7813-4.2454-5.5253h2.2827l3.1147 4.0747 3.0933-4.0747h2.24l-4.2667 5.5253 4.5014 5.7813z" style="font-feature-settings:normal;font-variant-caps:normal;font-variant-ligatures:normal;font-variant-numeric:normal"/>
<path d="m1626.1 273.3q-0.448 0.384-1.1094 0.59733-0.6613 0.192-1.3653 0.192-1.7067 0-2.6453-0.91733-0.9387-0.91734-0.9387-2.624v-6.208h-1.92v-1.6853h1.92v-2.4747h2.048v2.4747h3.2427v1.6853h-3.2427v6.1227q0 0.91734 0.448 1.408 0.4693 0.49067 1.3227 0.49067 0.9386 0 1.6-0.53333z" style="font-feature-settings:normal;font-variant-caps:normal;font-variant-ligatures:normal;font-variant-numeric:normal"/>
<path d="m1639.1 274.08q-1.6853 0-3.0293-0.74667-1.344-0.74666-2.112-2.048-0.7467-1.3227-0.7467-2.9867t0.7467-2.9653q0.768-1.3227 2.112-2.048 1.344-0.74666 3.0293-0.74666 1.6854 0 3.008 0.74666 1.344 0.72534 2.0907 2.048 0.768 1.3013 0.768 2.9653t-0.768 2.9867q-0.7467 1.3013-2.0907 2.048-1.3226 0.74667-3.008 0.74667zm0-1.792q1.088 0 1.9414-0.49067 0.8746-0.512 1.3653-1.408 0.4907-0.91733 0.4907-2.0907 0-1.1733-0.4907-2.0693-0.4907-0.91733-1.3653-1.408-0.8534-0.49066-1.9414-0.49066t-1.9626 0.49066q-0.8534 0.49067-1.3654 1.408-0.4906 0.896-0.4906 2.0693 0 1.1733 0.4906 2.0907 0.512 0.896 1.3654 1.408 0.8746 0.49067 1.9626 0.49067z" style="font-feature-settings:normal;font-variant-caps:normal;font-variant-ligatures:normal;font-variant-numeric:normal"/>
<path d="m1652 259.68q-1.8347 0-1.8347 1.984v0.98133h3.2854v1.6853h-3.2427v9.6213h-2.048v-9.6213h-1.92v-1.6853h1.92v-1.0027q0-1.6853 0.9813-2.6667 0.9814-0.98133 2.752-0.98133 0.6827 0 1.28 0.17066 0.5974 0.17067 1.024 0.49067l-0.6186 1.5573q-0.704-0.53333-1.5787-0.53333z" style="font-feature-settings:normal;font-variant-caps:normal;font-variant-ligatures:normal;font-variant-numeric:normal"/>
<path d="m1580.1 285.69v14.933h-2.1333v-6.656h-8.576v6.656h-2.1333v-14.933h2.1333v6.4213h8.576v-6.4213z" style="font-feature-settings:normal;font-variant-caps:normal;font-variant-ligatures:normal;font-variant-numeric:normal"/>
<path d="m1587.5 287.55h-5.12v-1.856h12.352v1.856h-5.12v13.077h-2.112z" style="font-feature-settings:normal;font-variant-caps:normal;font-variant-ligatures:normal;font-variant-numeric:normal"/>
<path d="m1611 300.62-0.021-10.88-5.3974 9.0667h-0.9813l-5.3973-9.0027v10.816h-2.048v-14.933h1.7493l6.2293 10.496 6.144-10.496h1.7494l0.021 14.933z" style="font-feature-settings:normal;font-variant-caps:normal;font-variant-ligatures:normal;font-variant-numeric:normal"/>
<path d="m1617.5 285.69h2.1333v13.077h8.0853v1.856h-10.219z" style="font-feature-settings:normal;font-variant-caps:normal;font-variant-ligatures:normal;font-variant-numeric:normal"/>
<path d="m1635.6 284.79h2.048v15.829h-2.048z" style="font-feature-settings:normal;font-variant-caps:normal;font-variant-ligatures:normal;font-variant-numeric:normal"/>
<path d="m1641.6 289.32h2.048v11.307h-2.048zm1.024-2.176q-0.5973 0-1.0027-0.384-0.384-0.384-0.384-0.93867 0-0.55466 0.384-0.93866 0.4054-0.40534 1.0027-0.40534t0.9813 0.384q0.4054 0.36267 0.4054 0.91734 0 0.576-0.4054 0.98133-0.384 0.384-0.9813 0.384z" style="font-feature-settings:normal;font-variant-caps:normal;font-variant-ligatures:normal;font-variant-numeric:normal"/>
<path d="m1653.6 289.21q2.1546 0 3.4133 1.2587 1.28 1.2373 1.28 3.648v6.5067h-2.048v-6.272q0-1.6427-0.7893-2.4747-0.7894-0.832-2.2614-0.832-1.664 0-2.624 0.98133-0.96 0.96-0.96 2.7733v5.824h-2.048v-11.307h1.9627v1.7067q0.6187-0.87467 1.664-1.344 1.0667-0.46934 2.4107-0.46934z" style="font-feature-settings:normal;font-variant-caps:normal;font-variant-ligatures:normal;font-variant-numeric:normal"/>
<path d="m1666.5 295.35-2.3467 2.176v3.0933h-2.048v-15.829h2.048v10.155l6.1653-5.632h2.4747l-4.7573 4.672 5.2266 6.6347h-2.5173z" style="font-feature-settings:normal;font-variant-caps:normal;font-variant-ligatures:normal;font-variant-numeric:normal"/>
</g>
<path d="m1593.7 354.61v-21.107h52.995v21.107" fill="none" stroke="#125e74" stroke-linecap="round" stroke-linejoin="round" stroke-width="1.9994"/>
<g transform="matrix(3.7795 0 0 -3.7795 1494.6 1294.8)" fill="none" stroke="#125e74" stroke-linecap="round" stroke-linejoin="round">
<path d="m33.207 254.69v3.1427" stroke-width=".529"/>
<circle cx="33.237" cy="258.59" r=".7355" stroke-dashoffset="72" stroke-width=".529"/>
</g>
</g>
</g>
</svg>
