<svg xmlns="http://www.w3.org/2000/svg" width="84" height="105" viewBox="0 0 84 105">
  <path fill="#001A3E" d="M32.7714211,104.310219 C32.6987572,104.386861 32.5534293,104.463504 32.4807654,104.540146 L24.3424081,104.540146 C24.1970803,104.540146 24.1244164,104.463504 24.0517525,104.386861 L0.0726639048,75.9525547 C-2.68458866e-13,75.7992701 -2.68458866e-13,75.6459854 0.0726639048,75.4927007 L29.9375288,21.3832117 C30.0828566,21.1532847 30.4461761,21.1532847 30.5915039,21.3832117 L38.947853,36.5583942 C39.0205169,36.6350365 39.0205169,36.7883212 38.947853,36.9416058 L18.7472874,73.5 C18.6746235,73.6532847 18.7472874,73.8065693 18.8199513,73.959854 L30.8821595,88.2153285 C30.9548234,88.2919708 31.1001512,88.3686131 31.1728152,88.3686131 L45.4149405,88.3686131 C45.77826,88.3686131 45.9235878,88.7518248 45.7055961,88.9817518 L32.7714211,104.310219 Z M41.6364174,0.229927007 C41.7817452,-0.0766423358 42.1450648,-0.0766423358 42.2177287,0.229927007 L83.8541461,75.3394161 C83.92681,75.4927007 83.8541461,75.6459854 83.7814822,75.7992701 L59.8023936,104.233577 C59.7297297,104.310219 59.5844019,104.386861 59.511738,104.386861 L40.0378115,104.386861 C39.674492,104.386861 39.5291642,104.00365 39.7471559,103.773723 L52.7539949,88.2919708 L64.9615309,73.8832117 C65.1068587,73.729927 65.1068587,73.5766423 65.0341948,73.4233577 L41.9270731,31.5766423 L33.2074045,15.7883212 C33.1347406,15.7116788 33.1347406,15.5583942 33.2074045,15.4051095 L41.6364174,0.229927007 Z"/>
</svg>
