<?xml version="1.0" encoding="UTF-8" standalone="no"?><svg xmlns="http://www.w3.org/2000/svg" xmlns:xlink="http://www.w3.org/1999/xlink" contentScriptType="application/ecmascript" contentStyleType="text/css" height="255px" preserveAspectRatio="none" style="width:598px;height:255px;" version="1.1" viewBox="0 0 598 255" width="598px" zoomAndPan="magnify"><defs><filter height="300%" id="fim59e6smo0j" width="300%" x="-1" y="-1"><feGaussianBlur result="blurOut" stdDeviation="2.0"/><feColorMatrix in="blurOut" result="blurOut2" type="matrix" values="0 0 0 0 0 0 0 0 0 0 0 0 0 0 0 0 0 0 .4 0"/><feOffset dx="4.0" dy="4.0" in="blurOut2" result="blurOut3"/><feBlend in="SourceGraphic" in2="blurOut3" mode="normal"/></filter></defs><g><!--MD5=[4a65e84059005d12693a083370a06717]
entity client--><rect fill="#FEFECE" filter="url(#fim59e6smo0j)" height="36.2969" style="stroke: #A80036; stroke-width: 1.5;" width="57" x="58" y="8"/><text fill="#000000" font-family="sans-serif" font-size="14" lengthAdjust="spacingAndGlyphs" textLength="37" x="68" y="30.9951">client</text><!--MD5=[e51296a1580e0172c3b5b7be8520ff5e]
entity seed_node--><rect fill="#FEFECE" filter="url(#fim59e6smo0j)" height="36.2969" style="stroke: #A80036; stroke-width: 1.5;" width="98" x="333.5" y="121"/><text fill="#000000" font-family="sans-serif" font-size="14" lengthAdjust="spacingAndGlyphs" textLength="78" x="343.5" y="143.9951">seed_node</text><!--MD5=[cde1c90fdaddbff5882fe8b3389e3e73]
entity new_node--><rect fill="#FEFECE" filter="url(#fim59e6smo0j)" height="36.2969" style="stroke: #A80036; stroke-width: 1.5;" width="92" x="81.5" y="121"/><text fill="#000000" font-family="sans-serif" font-size="14" lengthAdjust="spacingAndGlyphs" textLength="72" x="91.5" y="143.9951">new_node</text><ellipse cx="168.3492" cy="26.0236" fill="#FEFECE" filter="url(#fim59e6smo0j)" rx="17.8492" ry="14.5236" style="stroke: #A80036; stroke-width: 1.5;"/><text fill="#000000" font-family="sans-serif" font-size="14" lengthAdjust="spacingAndGlyphs" textLength="21" x="157.8492" y="30.6721">IoT</text><path d="M6,218 L6,243.1328 A0,0 0 0 0 6,243.1328 L195,243.1328 A0,0 0 0 0 195,243.1328 L195,228 L185,218 L108.2596,218 L122.1657,157.0775 L100.2596,218 L6,218 A0,0 0 0 0 6,218 " fill="#FBFB77" filter="url(#fim59e6smo0j)" style="stroke: #A80036; stroke-width: 1.0;"/><path d="M185,218 L185,228 L195,228 L185,218 " fill="#FBFB77" style="stroke: #A80036; stroke-width: 1.0;"/><text fill="#000000" font-family="sans-serif" font-size="13" lengthAdjust="spacingAndGlyphs" textLength="168" x="12" y="235.0669">Node with forging disabled</text><path d="M230.5,218 L230.5,243.1328 A0,0 0 0 0 230.5,243.1328 L586.5,243.1328 A0,0 0 0 0 586.5,243.1328 L586.5,228 L576.5,218 L408.8797,218 L387.6368,157.0775 L400.8797,218 L230.5,218 A0,0 0 0 0 230.5,218 " fill="#FBFB77" filter="url(#fim59e6smo0j)" style="stroke: #A80036; stroke-width: 1.0;"/><path d="M576.5,218 L576.5,228 L586.5,228 L576.5,218 " fill="#FBFB77" style="stroke: #A80036; stroke-width: 1.0;"/><text fill="#000000" font-family="sans-serif" font-size="13" lengthAdjust="spacingAndGlyphs" textLength="335" x="236.5" y="235.0669">Node with forging enabled for 101 genesis delegates</text><!--MD5=[03409f4704c1bbf3c3ce2c570bd8d589]
link client to new_node--><path d="M85.1721,49.4706 C85.2213,62.1421 86.5443,77.8395 91.5,91 C94.969,100.2123 100.7824,109.164 106.7367,116.7922 " fill="none" id="client-new_node" style="stroke: #A80036; stroke-width: 1.0;"/><polygon fill="#A80036" points="110.0452,120.8872,107.5008,111.3727,106.903,116.9979,101.2778,116.4002,110.0452,120.8872" style="stroke: #A80036; stroke-width: 1.0;"/><polygon fill="#A80036" points="85.2221,44.2414,81.1359,53.2026,85.1741,49.2412,89.1355,53.2794,85.2221,44.2414" style="stroke: #A80036; stroke-width: 1.0;"/><text fill="#000000" font-family="sans-serif" font-size="13" lengthAdjust="spacingAndGlyphs" textLength="32" x="92.5" y="87.0669">HTTP</text><!--MD5=[db42d4196dd92abb74f8feeb049a52d7]
link new_node to seed_node--><path d="M178.7895,139 C222.1159,139 283.9896,139 328.1589,139 " fill="none" id="new_node-seed_node" style="stroke: #A80036; stroke-width: 1.0;"/><polygon fill="#A80036" points="333.1847,139,324.1847,135,328.1847,139,324.1847,143,333.1847,139" style="stroke: #A80036; stroke-width: 1.0;"/><polygon fill="#A80036" points="173.6786,139,182.6786,143,178.6786,139,182.6786,135,173.6786,139" style="stroke: #A80036; stroke-width: 1.0;"/><text fill="#000000" font-family="sans-serif" font-size="13" lengthAdjust="spacingAndGlyphs" textLength="71" x="218" y="132.0669">WebSocket</text><!--MD5=[1593145aeb9e949ad5f39dc59d5c3a4c]
link IoT to new_node--><path d="M161.5591,45.1297 C154.4721,64.6624 143.465,94.999 135.8927,115.869 " fill="none" id="IoT-new_node" style="stroke: #A80036; stroke-width: 1.0;"/><polygon fill="#A80036" points="134.1415,120.6954,140.9714,113.5995,135.8469,115.9952,133.4512,110.8708,134.1415,120.6954" style="stroke: #A80036; stroke-width: 1.0;"/><polygon fill="#A80036" points="163.3073,40.3115,156.4774,47.4074,161.6019,45.0117,163.9976,50.1361,163.3073,40.3115" style="stroke: #A80036; stroke-width: 1.0;"/><text fill="#000000" font-family="sans-serif" font-size="13" lengthAdjust="spacingAndGlyphs" textLength="32" x="151.5" y="87.0669">HTTP</text><!--MD5=[feb7006eeaa701fb40bd932e70ef9aa7]
@startuml
agent client
agent seed_node
agent new_node
usecase IoT

client <- -> new_node : HTTP 
new_node <-> seed_node : WebSocket 
IoT <- -> new_node : HTTP

note bottom of (new_node)
 Node with forging disabled
end note

note bottom of (seed_node)
 Node with forging enabled for 101 genesis delegates
end note
@enduml

PlantUML version 1.2019.11(Sun Sep 22 10:02:15 UTC 2019)
(GPL source distribution)
Java Runtime: OpenJDK Runtime Environment
JVM: OpenJDK 64-Bit Server VM
Java Version: 1.8.0_222-heroku-b10
Operating System: Linux
Default Encoding: UTF-8
Language: en
Country: US
--></g></svg>