<svg width="20" height="20" viewBox="0 0 20 20" fill="none" xmlns="http://www.w3.org/2000/svg"><path d="M4 5.35a.65.65 0 000 1.3h2a.65.65 0 000-1.3H4zM3.35 9A.65.65 0 014 8.35h2a.65.65 0 010 1.3H4A.65.65 0 013.35 9zM4 11.35a.65.65 0 100 1.3h2a.65.65 0 100-1.3H4z" fill="#8A8CA2"/><path fill-rule="evenodd" clip-rule="evenodd" d="M4 2a3 3 0 00-3 3v10a3 3 0 003 3h12a3 3 0 003-3V5a3 3 0 00-3-3H4zm12 1.3H9.65v13.4H16a1.7 1.7 0 001.7-1.7V5A1.7 1.7 0 0016 3.3zM4 16.7h4.35V3.3H4A1.7 1.7 0 002.3 5v10A1.7 1.7 0 004 16.7z" fill="#8A8CA2"/></svg>