<svg width="32" height="32" viewBox="0 0 32 32" fill="none" xmlns="http://www.w3.org/2000/svg"><circle cx="16" cy="16" r="15.5" stroke="#DFE6F2"/><mask id="a" fill="#fff"><path fill-rule="evenodd" clip-rule="evenodd" d="M8.8 12.6a3 3 0 013-3h8.4a3 3 0 013 3v6.8a3 3 0 01-3 3h-8.4a3 3 0 01-3-3v-6.8zm6.4-2.09a.65.65 0 01.65.65v9.68a.65.65 0 11-1.3 0v-9.68a.65.65 0 01.65-.65zm-4 1.64a.65.65 0 100 1.3h1.6a.65.65 0 100-1.3h-1.6zm-.65 3.05a.65.65 0 01.65-.65h1.6a.65.65 0 110 1.3h-1.6a.65.65 0 01-.65-.65zm.65 1.75a.65.65 0 100 1.3h1.6a.65.65 0 100-1.3h-1.6z"/></mask><path fill-rule="evenodd" clip-rule="evenodd" d="M8.8 12.6a3 3 0 013-3h8.4a3 3 0 013 3v6.8a3 3 0 01-3 3h-8.4a3 3 0 01-3-3v-6.8zm6.4-2.09a.65.65 0 01.65.65v9.68a.65.65 0 11-1.3 0v-9.68a.65.65 0 01.65-.65zm-4 1.64a.65.65 0 100 1.3h1.6a.65.65 0 100-1.3h-1.6zm-.65 3.05a.65.65 0 01.65-.65h1.6a.65.65 0 110 1.3h-1.6a.65.65 0 01-.65-.65zm.65 1.75a.65.65 0 100 1.3h1.6a.65.65 0 100-1.3h-1.6z" fill="#4070F4"/><path d="M11.8 8.3a4.3 4.3 0 00-4.3 4.3h2.6a1.7 1.7 0 011.7-1.7V8.3zm8.4 0h-8.4v2.6h8.4V8.3zm4.3 4.3a4.3 4.3 0 00-4.3-4.3v2.6a1.7 1.7 0 011.7 1.7h2.6zm0 6.8v-6.8h-2.6v6.8h2.6zm-4.3 4.3a4.3 4.3 0 004.3-4.3h-2.6a1.7 1.7 0 01-1.7 1.7v2.6zm-8.4 0h8.4v-2.6h-8.4v2.6zm-4.3-4.3a4.3 4.3 0 004.3 4.3v-2.6a1.7 1.7 0 01-1.7-1.7H7.5zm0-6.8v6.8h2.6v-6.8H7.5zm9.65-1.44a1.95 1.95 0 00-1.95-1.95v2.6a.65.65 0 01-.65-.65h2.6zm0 9.68v-9.68h-2.6v9.68h2.6zm-1.95 1.95a1.95 1.95 0 001.95-1.95h-2.6a.65.65 0 01.65-.65v2.6zm-1.95-1.95a1.95 1.95 0 001.95 1.95v-2.6a.65.65 0 01.65.65h-2.6zm0-9.68v9.68h2.6v-9.68h-2.6zm1.95-1.95a1.95 1.95 0 00-1.95 1.95h2.6a.65.65 0 01-.65.65v-2.6zm-3.35 3.59a.65.65 0 01-.65.65v-2.6a1.95 1.95 0 00-1.95 1.95h2.6zm-.65-.65a.65.65 0 01.65.65h-2.6a1.95 1.95 0 001.95 1.95v-2.6zm1.6 0h-1.6v2.6h1.6v-2.6zm-.65.65a.65.65 0 01.65-.65v2.6a1.95 1.95 0 001.95-1.95h-2.6zm.65.65a.65.65 0 01-.65-.65h2.6a1.95 1.95 0 00-1.95-1.95v2.6zm-1.6 0h1.6v-2.6h-1.6v2.6zm0-.2a1.95 1.95 0 00-1.95 1.95h2.6a.65.65 0 01-.65.65v-2.6zm1.6 0h-1.6v2.6h1.6v-2.6zm1.95 1.95a1.95 1.95 0 00-1.95-1.95v2.6a.65.65 0 01-.65-.65h2.6zm-1.95 1.95a1.95 1.95 0 001.95-1.95h-2.6a.65.65 0 01.65-.65v2.6zm-1.6 0h1.6v-2.6h-1.6v2.6zM9.25 15.2a1.95 1.95 0 001.95 1.95v-2.6a.65.65 0 01.65.65h-2.6zm2.6 2.4a.65.65 0 01-.65.65v-2.6a1.95 1.95 0 00-1.95 1.95h2.6zm-.65-.65a.65.65 0 01.65.65h-2.6a1.95 1.95 0 001.95 1.95v-2.6zm1.6 0h-1.6v2.6h1.6v-2.6zm-.65.65a.65.65 0 01.65-.65v2.6a1.95 1.95 0 001.95-1.95h-2.6zm.65.65a.65.65 0 01-.65-.65h2.6a1.95 1.95 0 00-1.95-1.95v2.6zm-1.6 0h1.6v-2.6h-1.6v2.6z" fill="#4070F4" mask="url(#a)"/></svg>