<svg width="32" height="32" viewBox="0 0 32 32" fill="none" xmlns="http://www.w3.org/2000/svg"><circle cx="16" cy="16" r="15.5" stroke="#DFE6F2"/><path d="M11.2 12.28a.52.52 0 100 1.04h1.6a.52.52 0 100-1.04h-1.6zm-.52 2.92a.52.52 0 01.52-.52h1.6a.52.52 0 110 1.04h-1.6a.52.52 0 01-.52-.52zm.52 1.88a.52.52 0 100 1.04h1.6a.52.52 0 100-1.04h-1.6z" fill="#4070F4"/><path fill-rule="evenodd" clip-rule="evenodd" d="M11.2 9.6A2.4 2.4 0 008.8 12v8a2.4 2.4 0 002.4 2.4h9.6a2.4 2.4 0 002.4-2.4v-8a2.4 2.4 0 00-2.4-2.4h-9.6zm9.6 1.04h-5.08v10.72h5.08A1.36 1.36 0 0022.16 20v-8a1.36 1.36 0 00-1.36-1.36zm-9.6 10.72h3.48V10.64H11.2A1.36 1.36 0 009.84 12v8c0 .751.609 1.36 1.36 1.36z" fill="#4070F4"/></svg>