<svg width="16" height="16" viewBox="0 0 16 16" xmlns="http://www.w3.org/2000/svg"><path d="M13.818 3.375S12.151 2.07 10.182 1.92l-.178.355c1.78.436 2.597 1.06 3.45 1.827C11.985 3.35 10.532 2.647 8 2.647c-2.531 0-3.984.704-5.455 1.455.854-.767 1.825-1.46 3.45-1.827l-.177-.355c-2.066.195-3.636 1.455-3.636 1.455s-1.862 2.7-2.182 8c1.877 2.164 4.727 2.181 4.727 2.181l.596-.794a7.282 7.282 0 01-3.141-2.115c1.177.891 2.954 1.818 5.818 1.818 2.864 0 4.64-.927 5.818-1.818a7.282 7.282 0 01-3.141 2.115l.596.794s2.85-.017 4.727-2.181c-.32-5.3-2.182-8-2.182-8zM5.636 9.92c-.703 0-1.272-.651-1.272-1.455 0-.803.57-1.454 1.272-1.454.703 0 1.273.651 1.273 1.454 0 .804-.57 1.455-1.273 1.455zm4.728 0c-.703 0-1.273-.651-1.273-1.455 0-.803.57-1.454 1.273-1.454s1.272.651 1.272 1.454c0 .804-.57 1.455-1.272 1.455z" fill="#C2D2FF"/></svg>