<svg xmlns="http://www.w3.org/2000/svg" width="16" height="16" viewBox="0 0 16 16"><g fill="none" fill-rule="evenodd"><path d="M0 0h16v16H0z"/><path fill="#C2D2FF" d="M7.95 0C3.578 0 0 3.688 0 8.195c0 3.585 2.286 6.658 5.466 7.785.397.102.497-.205.497-.41v-1.434c-2.187.512-2.683-1.024-2.683-1.024-.398-.922-.895-1.23-.895-1.23-.696-.512.1-.512.1-.512.795.103 1.192.82 1.192.82.696 1.331 1.888.922 2.286.717.1-.513.298-.922.497-1.127-1.79-.205-3.578-.922-3.578-4.097 0-.922.298-1.64.795-2.152-.1-.204-.397-1.024.1-2.15 0 0 .695-.206 2.186.819a6.226 6.226 0 011.987-.308c.696 0 1.392.103 1.988.308 1.49-1.025 2.186-.82 2.186-.82.398 1.127.199 1.947.1 2.151.496.615.795 1.332.795 2.152 0 3.175-1.889 3.79-3.677 3.994.298.41.596.922.596 1.64v2.253c0 .205.1.512.596.41C13.714 14.853 16 11.78 16 8.195 15.9 3.688 12.323 0 7.95 0z"/></g></svg>