<svg width="20" height="20" viewBox="0 0 20 20" fill="none" xmlns="http://www.w3.org/2000/svg"><path fill-rule="evenodd" clip-rule="evenodd" d="M10.002 1a.684.684 0 00-.512.196L1.206 9.315a.686.686 0 10.96.98l.856-.84v8.188a1.355 1.355 0 001.372 1.356h2.932l.036-.001h1.294v-4.514h2.74v4.514h4.274c.749 0 1.355-.607 1.355-1.355V9.5l.812.795a.686.686 0 00.96-.98l-8.284-8.119a.684.684 0 00-.512-.195zm0 1.615L4.378 8.128v9.482H7.3v-3.515a1 1 0 01.53-.883.692.692 0 01.386-.117h3.561a1 1 0 01.973 1v3.514h2.897a.89.89 0 01.023 0V8.171l-5.669-5.556z" fill="#8A8CA2"/></svg>