<svg width="16" height="14" viewBox="0 0 16 14" xmlns="http://www.w3.org/2000/svg"><g fill="none" fill-rule="evenodd" opacity=".64"><path d="M0-1h16v16H0z"/><path d="M16 6.794c0-1.132-.9-1.956-1.9-1.956-.5 0-.9.206-1.2.412a9.663 9.663 0 00-4.3-1.338l.8-2.677 2.3.515c.1.824.8 1.544 1.6 1.544.9 0 1.6-.72 1.6-1.647C14.9.721 14.2 0 13.3 0c-.6 0-1.2.412-1.4.926L9.2.206c-.2 0-.4.103-.5.309l-1 3.397c-1.7 0-3.3.514-4.6 1.235-.3-.206-.7-.412-1.2-.412-1 0-1.9.927-1.9 2.06 0 .72.3 1.234.8 1.646v.515c0 1.338.8 2.676 2.2 3.603C4.3 13.485 6.1 14 8 14s3.7-.515 5-1.441c1.4-.927 2.2-2.162 2.2-3.603v-.412c.4-.515.8-1.132.8-1.75zM4.5 7.926c0-.617.5-1.132 1.1-1.132.6 0 1.1.515 1.1 1.132 0 .618-.5 1.133-1.1 1.133-.6 0-1.1-.515-1.1-1.133zm6.1 3.295c-.6.617-1.4.823-2.6.823-1.2 0-2.1-.309-2.6-.823-.2-.206-.2-.412 0-.618.2-.206.4-.206.6 0 .4.412 1 .618 2 .618s1.6-.206 2-.618c.2-.206.4-.206.6 0 .2.206.2.515 0 .618zm-.2-2.162c-.6 0-1.1-.515-1.1-1.133 0-.617.5-1.132 1.1-1.132.6 0 1.1.515 1.1 1.132 0 .618-.5 1.133-1.1 1.133z" fill="#C2D2FF" fill-rule="nonzero"/></g></svg>