<svg width="16" height="13" viewBox="0 0 16 13" xmlns="http://www.w3.org/2000/svg"><g fill="none" fill-rule="evenodd" opacity=".64"><path d="M0-2h16v16H0z"/><path d="M16 1.55c-.598.25-1.196.45-1.894.5A3.23 3.23 0 0 0 15.55.25c-.648.4-1.345.65-2.093.8A3.205 3.205 0 0 0 11.115 0a3.292 3.292 0 0 0-3.29 3.3c0 .25.05.5.1.75C5.184 3.9 2.791 2.6 1.146.6.847 1.1.698 1.65.698 2.25c0 1.15.598 2.15 1.445 2.75-.548 0-1.046-.15-1.495-.4v.05c0 1.6 1.146 2.9 2.642 3.2-.3.05-.549.1-.848.1-.199 0-.398 0-.598-.05.399 1.3 1.645 2.25 3.04 2.3-1.096.9-2.541 1.4-4.086 1.4-.25 0-.549 0-.798-.05 1.495.9 3.24 1.45 5.084 1.45 6.031 0 9.321-5 9.321-9.35v-.4c.598-.5 1.146-1.05 1.595-1.7z" fill="#C2D2FF"/></g></svg>