<svg xmlns="http://www.w3.org/2000/svg" width="84" height="105" viewBox="0 0 84 105"><path fill="#FFF" d="M32.771 104.31c-.072.077-.218.154-.29.23h-8.139c-.145 0-.218-.076-.29-.153L.072 75.953a.512.512 0 010-.46l29.866-54.11a.396.396 0 01.654 0l8.356 15.175c.073.077.073.23 0 .384L18.748 73.5c-.073.153 0 .307.072.46l12.062 14.255c.073.077.218.154.29.154h14.243c.363 0 .509.383.29.613L32.772 104.31zM41.636.23c.146-.307.51-.307.582 0l41.636 75.11c.073.153 0 .306-.073.46l-23.979 28.434c-.072.076-.218.153-.29.153H40.038c-.364 0-.509-.383-.29-.613l13.006-15.482 12.208-14.409c.145-.153.145-.306.072-.46L41.927 31.577l-8.72-15.789c-.072-.076-.072-.23 0-.383L41.637.23z"/></svg>