<svg xmlns="http://www.w3.org/2000/svg" width="16" height="16" viewBox="0 0 16 16"><g fill="none" fill-rule="evenodd"><path d="M0 0h16v16H0z"/><path fill="#C2D2FF" d="M16 3.55c-.598.25-1.196.45-1.894.5a3.23 3.23 0 001.445-1.8c-.648.4-1.345.65-2.093.8A3.205 3.205 0 0011.115 2a3.292 3.292 0 00-3.29 3.3c0 .25.05.5.1.75C5.184 5.9 2.791 4.6 1.146 2.6.847 3.1.698 3.65.698 4.25c0 1.15.598 2.15 1.445 2.75-.548 0-1.046-.15-1.495-.4v.05c0 1.6 1.146 2.9 2.642 3.2-.3.05-.549.1-.848.1-.199 0-.398 0-.598-.05.399 1.3 1.645 2.25 3.04 2.3-1.096.9-2.541 1.4-4.086 1.4-.25 0-.549 0-.798-.05 1.495.9 3.24 1.45 5.084 1.45 6.031 0 9.321-5 9.321-9.35v-.4c.598-.5 1.146-1.05 1.595-1.7z"/></g></svg>