<svg width="20" height="18" viewBox="0 0 20 18" fill="none" xmlns="http://www.w3.org/2000/svg"><path d="M9.285 6.415a.715.715 0 111.43 0v5.17a.715.715 0 11-1.43 0v-5.17zm0 7.7a.715.715 0 111.43 0 .715.715 0 01-1.43 0z" fill="#0C152E"/><path fill-rule="evenodd" clip-rule="evenodd" d="M8.156 1.3c.853-1.467 2.986-1.467 3.84 0l7.68 13.2c.853 1.467-.214 3.3-1.92 3.3H2.396c-1.707 0-2.773-1.833-1.92-3.3l7.68-13.2zm2.592.715l7.68 13.2a.77.77 0 01-.672 1.155H2.396a.77.77 0 01-.672-1.155l7.68-13.2a.779.779 0 011.344 0z" fill="#0C152E"/></svg>