<svg xmlns="http://www.w3.org/2000/svg" xmlns:xlink="http://www.w3.org/1999/xlink" xmlns:lucid="lucid" width="365" height="222"><g transform="translate(0 0)" lucid:page-tab-id="0_0"><path d="M20 20h320v40H20z" stroke="#000" stroke-width="2" fill="#c5cfe4"/><use xlink:href="#a" transform="matrix(1,0,0,1,20,20) translate(117.97777777777777 28.61111111111111)"/><path d="M20 60h320v140H20z" stroke="#000" stroke-width="2" fill="#f7f9fd"/><use xlink:href="#b" transform="matrix(1,0,0,1,25,65) translate(3 41.423611111111114)"/><use xlink:href="#c" transform="matrix(1,0,0,1,25,65) translate(88.93333333333335 41.423611111111114)"/><use xlink:href="#d" transform="matrix(1,0,0,1,25,65) translate(100.88888888888891 41.423611111111114)"/><use xlink:href="#e" transform="matrix(1,0,0,1,25,65) translate(3 73.42361111111111)"/><use xlink:href="#c" transform="matrix(1,0,0,1,25,65) translate(184.88888888888889 73.42361111111111)"/><use xlink:href="#f" transform="matrix(1,0,0,1,25,65) translate(196.84444444444443 73.42361111111111)"/><use xlink:href="#g" transform="matrix(1,0,0,1,25,65) translate(3 105.42361111111111)"/><use xlink:href="#c" transform="matrix(1,0,0,1,25,65) translate(55.62222222222223 105.42361111111111)"/><use xlink:href="#h" transform="matrix(1,0,0,1,25,65) translate(67.57777777777778 105.42361111111111)"/><defs><path d="M280 9C159 9 105-63 105-158v-234H20v-131h92v-109c50-9 95-22 147-28v137h125v131H259v197c-7 71 62 81 117 61h10V-6C370 0 329 9 280 9" id="i"/><path d="M50 0v-523h128l12 76h4c27-55 81-94 170-85v141c-106-11-170 29-170 133V0H50" id="j"/><path d="M208 9C90 9 25-62 25-155c0-97 66-161 210-161 39 0 91 8 112 15 4-67-3-104-80-107-48 0-76 26-76 58H47c0-98 71-182 225-182 143 0 229 79 229 188V0H363l-11-47h-4C319-14 273 9 208 9zm39-120c65-1 102-37 100-85-54-26-171-27-170 33 0 30 24 52 70 52" id="k"/><path d="M50 0v-523h138l12 50h4c29-34 75-59 143-59 116 0 194 72 194 188V0H387v-296c0-60-27-96-88-96-55 0-95 39-95 102V0H50" id="l"/><path d="M257 9C94 9 28-70 25-177h154c0 29 23 58 78 58 96 2 96-67 21-79-116-18-235-41-237-179 0-85 75-155 215-155 136 0 218 78 218 175H322c1-24-17-54-69-54-69-5-82 61-22 72 122 22 252 27 255 181C486-50 390 9 257 9" id="m"/><path d="M111 0v-393H20v-130h91C99-692 232-774 394-743v130c-63-12-133-6-129 63v27h124v130H265V0H111" id="n"/><path d="M284 9C119 9 25-111 25-261c0-148 86-271 256-271 180 0 265 131 250 312H182c1 61 32 104 102 104 57 0 82-28 91-52h149C510-74 427 9 284 9zM183-317h191c-3-50-32-89-93-89-66 0-95 39-98 89" id="o"/><g id="a"><use transform="matrix(0.022222222222222223,0,0,0.022222222222222223,0,0)" xlink:href="#i"/><use transform="matrix(0.022222222222222223,0,0,0.022222222222222223,9.577777777777778,0)" xlink:href="#j"/><use transform="matrix(0.022222222222222223,0,0,0.022222222222222223,17.888888888888886,0)" xlink:href="#k"/><use transform="matrix(0.022222222222222223,0,0,0.022222222222222223,29.911111111111108,0)" xlink:href="#l"/><use transform="matrix(0.022222222222222223,0,0,0.022222222222222223,42.82222222222222,0)" xlink:href="#m"/><use transform="matrix(0.022222222222222223,0,0,0.022222222222222223,54.17777777777778,0)" xlink:href="#n"/><use transform="matrix(0.022222222222222223,0,0,0.022222222222222223,63.044444444444444,0)" xlink:href="#o"/><use transform="matrix(0.022222222222222223,0,0,0.022222222222222223,75.4,0)" xlink:href="#j"/></g><path fill="#666" d="M228 9C117 9 50-60 50-149c0-86 61-160 211-160 54 0 94 9 126 18 7-94-13-152-118-157-75 0-112 42-113 91H75c0-98 82-163 194-163 131 0 200 79 200 176V0h-71l-6-72h-4C357-20 300 9 228 9zm15-70c96-3 152-69 144-163-42-13-81-18-126-18-83 0-126 32-126 92 0 51 34 89 108 89" id="p"/><path fill="#666" d="M650-520c113 0 176 73 176 188V0h-84v-319c0-78-35-126-113-126-80 0-128 60-128 163V0h-84v-319c0-78-35-126-113-126-80 0-130 60-130 163V0H90v-511h73l7 80h4c27-52 74-89 153-89 74 0 127 33 154 89h4c27-52 79-89 165-89" id="q"/><path fill="#666" d="M281 9C121 9 50-108 50-255s73-265 231-265 231 118 231 265C512-109 441 9 281 9zm0-75c104 0 146-79 146-189s-42-190-146-190-146 81-146 190c0 110 43 189 146 189" id="r"/><path fill="#666" d="M414-511h84v325C498-69 413 8 289 8S80-69 80-186v-325h84v311c0 81 36 133 125 133s125-52 125-133v-311" id="s"/><path fill="#666" d="M90 0v-511h73l7 80h4c27-52 79-89 158-89 113 0 179 71 179 188V0h-84v-319c0-80-37-126-118-126-85 0-135 60-135 163V0H90" id="t"/><path fill="#666" d="M260 9C159 9 125-43 125-128v-312H40v-71h87v-109c28-9 49-24 82-28v137h125v71H209v305c0 49 21 70 67 70 30 1 39-6 60-6V1c-16 4-44 8-76 8" id="u"/><g id="b"><use transform="matrix(0.022222222222222223,0,0,0.022222222222222223,0,0)" xlink:href="#p"/><use transform="matrix(0.022222222222222223,0,0,0.022222222222222223,12.200000000000001,0)" xlink:href="#q"/><use transform="matrix(0.022222222222222223,0,0,0.022222222222222223,32.333333333333336,0)" xlink:href="#r"/><use transform="matrix(0.022222222222222223,0,0,0.022222222222222223,44.82222222222222,0)" xlink:href="#s"/><use transform="matrix(0.022222222222222223,0,0,0.022222222222222223,57.66666666666667,0)" xlink:href="#t"/><use transform="matrix(0.022222222222222223,0,0,0.022222222222222223,70.80000000000001,0)" xlink:href="#u"/></g><path fill="#666" d="M119-351c-39 0-59-25-59-61 0-35 20-60 59-60 38 0 59 25 59 60 0 36-21 61-59 61zm0 360C80 9 60-16 60-52c0-35 20-60 59-60 38 0 59 25 59 60 0 36-21 61-59 61" id="v"/><use transform="matrix(0.022222222222222223,0,0,0.022222222222222223,0,0)" xlink:href="#v" id="c"/><path fill="#666" d="M100 0v-700h88V0h-88" id="w"/><path fill="#666" d="M282 9C131 9 50-105 50-255c0-148 73-265 231-265 158 2 232 123 221 290H138c0 97 49 164 144 164 67 0 115-28 129-82h84C481-54 391 9 282 9zM139-300h276c0-81-43-145-134-145-96 0-139 65-142 145" id="x"/><path fill="#666" d="M283 238C152 238 68 163 65 65h81c4 49 43 101 137 101 98 0 142-61 142-138v-99h-4C394-26 343 9 267 9 123 9 51-104 50-255c1-165 83-265 217-265 76 0 127 35 154 80h4l11-71h73V30c0 117-80 208-226 208zm-2-304c102 0 146-88 146-189 0-102-44-190-146-190-106 0-146 87-146 190 0 102 40 189 146 189" id="y"/><path fill="#666" d="M90 0v-511h73l7 86h4c28-71 87-100 181-92v81c-128-12-181 52-181 188V0H90" id="z"/><g id="d"><use transform="matrix(0.022222222222222223,0,0,0.022222222222222223,0,0)" xlink:href="#w"/><use transform="matrix(0.022222222222222223,0,0,0.022222222222222223,6.4,0)" xlink:href="#t"/><use transform="matrix(0.022222222222222223,0,0,0.022222222222222223,19.533333333333335,0)" xlink:href="#u"/><use transform="matrix(0.022222222222222223,0,0,0.022222222222222223,28,0)" xlink:href="#x"/><use transform="matrix(0.022222222222222223,0,0,0.022222222222222223,40.266666666666666,0)" xlink:href="#y"/><use transform="matrix(0.022222222222222223,0,0,0.022222222222222223,53.355555555555554,0)" xlink:href="#x"/><use transform="matrix(0.022222222222222223,0,0,0.022222222222222223,65.62222222222222,0)" xlink:href="#z"/></g><path fill="#666" d="M282 9C129 9 50-94 50-255c0-159 79-265 231-265 137 0 203 81 210 184h-84c-5-68-52-109-126-109-105 0-146 85-146 190 0 107 41 190 146 190 76 0 121-39 128-107h84C483-64 415 9 282 9" id="A"/><path fill="#666" d="M132-609c-39 0-58-23-58-59 0-35 19-58 58-58 38 0 58 23 58 58 0 36-20 59-58 59zM90 0v-511h84V0H90" id="B"/><path fill="#666" d="M90 229v-740h73l11 71h4c27-45 78-80 154-80 134 0 216 100 217 265C548-104 476 9 332 9c-76 0-127-35-154-80h-4v300H90zM318-66c106 0 146-87 146-189 0-103-40-190-146-190-102 0-146 88-146 190 0 101 44 189 146 189" id="C"/><path fill="#666" d="M394-700L652-10V0h-93l-66-183H187L121 0H30v-10l257-690h107zM215-261h250L342-603h-4" id="D"/><path fill="#666" d="M267 9C133 9 51-91 50-256c1-151 73-264 217-264 76 0 127 35 154 80h4v-300h84V0h-73l-11-71h-4C394-26 343 9 267 9zm14-75c102 0 146-88 146-190 0-101-44-189-146-189-106 0-146 87-146 189 0 103 40 190 146 190" id="E"/><path fill="#666" d="M259 9C138 9 53-57 50-169h84c0 68 52 103 125 103 72 0 117-24 117-73 0-69-115-80-180-92-84-16-130-68-130-143 0-85 73-146 186-146 115 0 197 63 197 165h-82c-3-65-51-94-115-94-62 0-105 25-105 75 0 68 106 73 169 87 96 21 145 60 145 148C461-45 369 9 259 9" id="F"/><g id="e"><use transform="matrix(0.022222222222222223,0,0,0.022222222222222223,0,0)" xlink:href="#z"/><use transform="matrix(0.022222222222222223,0,0,0.022222222222222223,8.222222222222223,0)" xlink:href="#x"/><use transform="matrix(0.022222222222222223,0,0,0.022222222222222223,20.48888888888889,0)" xlink:href="#A"/><use transform="matrix(0.022222222222222223,0,0,0.022222222222222223,32.55555555555556,0)" xlink:href="#B"/><use transform="matrix(0.022222222222222223,0,0,0.022222222222222223,38.2,0)" xlink:href="#C"/><use transform="matrix(0.022222222222222223,0,0,0.022222222222222223,51.51111111111111,0)" xlink:href="#B"/><use transform="matrix(0.022222222222222223,0,0,0.022222222222222223,57.15555555555556,0)" xlink:href="#x"/><use transform="matrix(0.022222222222222223,0,0,0.022222222222222223,69.42222222222223,0)" xlink:href="#t"/><use transform="matrix(0.022222222222222223,0,0,0.022222222222222223,82.55555555555557,0)" xlink:href="#u"/><use transform="matrix(0.022222222222222223,0,0,0.022222222222222223,91.02222222222224,0)" xlink:href="#D"/><use transform="matrix(0.022222222222222223,0,0,0.022222222222222223,105.84444444444446,0)" xlink:href="#E"/><use transform="matrix(0.022222222222222223,0,0,0.022222222222222223,118.93333333333335,0)" xlink:href="#E"/><use transform="matrix(0.022222222222222223,0,0,0.022222222222222223,132.02222222222224,0)" xlink:href="#z"/><use transform="matrix(0.022222222222222223,0,0,0.022222222222222223,140.24444444444444,0)" xlink:href="#x"/><use transform="matrix(0.022222222222222223,0,0,0.022222222222222223,152.51111111111112,0)" xlink:href="#F"/><use transform="matrix(0.022222222222222223,0,0,0.022222222222222223,163.86666666666667,0)" xlink:href="#F"/></g><path fill="#666" d="M100 0v-700h281c118 0 204 67 204 182 0 76-36 120-88 143v4c54 22 114 70 114 169C611-74 525 0 388 0H100zm86-400c139-3 315 31 310-118 0-66-45-104-125-104H186v222zm0 321h192c83 0 143-43 143-123 0-82-54-122-143-122H186v245" id="G"/><path fill="#666" d="M139 229v-10c28-75 61-150 86-225L20-501v-10h90l155 401h4l150-401h88v10L224 229h-85" id="H"/><g id="f"><use transform="matrix(0.022222222222222223,0,0,0.022222222222222223,0,0)" xlink:href="#G"/><use transform="matrix(0.022222222222222223,0,0,0.022222222222222223,14.8,0)" xlink:href="#H"/><use transform="matrix(0.022222222222222223,0,0,0.022222222222222223,26.955555555555556,0)" xlink:href="#u"/><use transform="matrix(0.022222222222222223,0,0,0.022222222222222223,35.422222222222224,0)" xlink:href="#x"/><use transform="matrix(0.022222222222222223,0,0,0.022222222222222223,47.68888888888889,0)" xlink:href="#F"/></g><g id="g"><use transform="matrix(0.022222222222222223,0,0,0.022222222222222223,0,0)" xlink:href="#E"/><use transform="matrix(0.022222222222222223,0,0,0.022222222222222223,13.088888888888889,0)" xlink:href="#p"/><use transform="matrix(0.022222222222222223,0,0,0.022222222222222223,25.28888888888889,0)" xlink:href="#u"/><use transform="matrix(0.022222222222222223,0,0,0.022222222222222223,33.75555555555556,0)" xlink:href="#p"/></g><path fill="#666" d="M315 9C145 9 54-78 50-210h89c5 87 66 140 176 140 111 0 171-40 171-122 0-105-134-115-227-136-121-27-186-82-186-189 0-118 88-192 243-192 150 0 248 84 249 208h-89c-4-76-54-128-162-128-90 0-150 33-150 112 0 90 129 107 214 124 130 27 199 94 199 201C577-67 477 9 315 9" id="I"/><g id="h"><use transform="matrix(0.022222222222222223,0,0,0.022222222222222223,0,0)" xlink:href="#I"/><use transform="matrix(0.022222222222222223,0,0,0.022222222222222223,14.044444444444444,0)" xlink:href="#u"/><use transform="matrix(0.022222222222222223,0,0,0.022222222222222223,22.511111111111113,0)" xlink:href="#z"/><use transform="matrix(0.022222222222222223,0,0,0.022222222222222223,31.17777777777778,0)" xlink:href="#B"/><use transform="matrix(0.022222222222222223,0,0,0.022222222222222223,36.82222222222222,0)" xlink:href="#t"/><use transform="matrix(0.022222222222222223,0,0,0.022222222222222223,49.955555555555556,0)" xlink:href="#y"/></g></defs></g></svg>