<svg width="36" height="63" viewBox="0 0 36 63" fill="none" xmlns="http://www.w3.org/2000/svg">
<path d="M3.50845 39.2086C1.92735 37.3824 1.55106 34.8457 2.56418 32.8007L17.6964 2.25555L15.9042 1.36771L17.6964 2.25555C17.8652 1.91482 18.3511 1.91482 18.5199 2.25554L33.4336 32.3596C34.5166 34.5456 34.0089 37.3267 32.1902 39.3041C30.8126 40.802 29.3039 42.6186 28.0923 44.5336C26.9035 46.4125 25.8789 48.5737 25.7008 50.7298C25.5218 52.8986 25.4663 54.9375 25.47 56.6769C25.4741 58.5812 23.9662 60.0969 22.2635 60.0969H13.8305C12.1546 60.0969 10.7179 58.6442 10.7403 56.8191C10.7643 54.8628 10.7243 52.6202 10.5102 50.6756C10.3028 48.7917 9.09849 46.6398 7.85175 44.7843C6.54075 42.8331 4.92461 40.8442 3.50845 39.2086Z" stroke="#4070F4" stroke-width="4" stroke-linejoin="round"/>
<path d="M20.1086 2.41162C20.1086 1.30705 19.2132 0.411621 18.1086 0.411621C17.004 0.411621 16.1086 1.30705 16.1086 2.41162H20.1086ZM21.0277 37.0224C21.0277 38.6346 19.7208 39.9415 18.1086 39.9415V43.9415C21.9299 43.9415 25.0277 40.8437 25.0277 37.0224H21.0277ZM18.1086 39.9415C16.4964 39.9415 15.1895 38.6346 15.1895 37.0224H11.1895C11.1895 40.8437 14.2873 43.9415 18.1086 43.9415V39.9415ZM15.1895 37.0224C15.1895 35.4103 16.4964 34.1034 18.1086 34.1034V30.1034C14.2873 30.1034 11.1895 33.2011 11.1895 37.0224H15.1895ZM18.1086 34.1034C19.7208 34.1034 21.0277 35.4103 21.0277 37.0224H25.0277C25.0277 33.2011 21.9299 30.1034 18.1086 30.1034V34.1034ZM16.1086 2.41162V32.7183H20.1086V2.41162H16.1086Z" fill="white"/>
</svg>
