<svg xmlns="http://www.w3.org/2000/svg" xmlns:xlink="http://www.w3.org/1999/xlink" xmlns:lucid="lucid" width="837.33" height="880"><g transform="translate(0 0)" lucid:page-tab-id="0_0"><path d="M20 687.75h400v39.1H20z" stroke="#000" stroke-width="2" fill="#c5cfe4"/><use xlink:href="#a" transform="matrix(1,0,0,1,25.00000000000003,692.7477860342021) translate(136.05555555555554 22.98611111111111)"/><path d="M20 726.84h400V865.9H20z" stroke="#000" stroke-width="2" fill="#f7f9fd"/><use xlink:href="#b" transform="matrix(1,0,0,1,25,731.8357339169384) translate(3 41.423611111111114)"/><use xlink:href="#c" transform="matrix(1,0,0,1,25,731.8357339169384) translate(299.7333333333333 41.423611111111114)"/><use xlink:href="#d" transform="matrix(1,0,0,1,25,731.8357339169384) translate(311.68888888888887 41.423611111111114)"/><use xlink:href="#e" transform="matrix(1,0,0,1,25,731.8357339169384) translate(3 73.42361111111111)"/><use xlink:href="#c" transform="matrix(1,0,0,1,25,731.8357339169384) translate(214.00000000000003 73.42361111111111)"/><use xlink:href="#d" transform="matrix(1,0,0,1,25,731.8357339169384) translate(225.95555555555558 73.42361111111111)"/><use xlink:href="#f" transform="matrix(1,0,0,1,25,731.8357339169384) translate(3 105.42361111111111)"/><use xlink:href="#c" transform="matrix(1,0,0,1,25,731.8357339169384) translate(126.93333333333335 105.42361111111111)"/><use xlink:href="#g" transform="matrix(1,0,0,1,25,731.8357339169384) translate(138.8888888888889 105.42361111111111)"/><path d="M285 20h333.75v39.1H285z" stroke="#000" stroke-width="2" fill="#c5cfe4"/><use xlink:href="#h" transform="matrix(1,0,0,1,289.9932471802007,25) translate(133.17777777777778 22.98611111111111)"/><path d="M285 58.63h333.75v118H285z" stroke="#000" stroke-width="2" fill="#f7f9fd"/><use xlink:href="#i" transform="matrix(1,0,0,1,289.9932471802009,63.631921824104076) translate(3 44.736111111111114)"/><use xlink:href="#c" transform="matrix(1,0,0,1,289.9932471802009,63.631921824104076) translate(81.37777777777778 44.736111111111114)"/><use xlink:href="#j" transform="matrix(1,0,0,1,289.9932471802009,63.631921824104076) translate(93.33333333333334 44.736111111111114)"/><use xlink:href="#k" transform="matrix(1,0,0,1,289.9932471802009,63.631921824104076) translate(3 76.73611111111111)"/><use xlink:href="#c" transform="matrix(1,0,0,1,289.9932471802009,63.631921824104076) translate(90.08888888888889 76.73611111111111)"/><use xlink:href="#l" transform="matrix(1,0,0,1,289.9932471802009,63.631921824104076) translate(102.04444444444445 76.73611111111111)"/><use xlink:href="#m" transform="matrix(1,0,0,1,289.9932471802009,63.631921824104076) translate(230.11111111111114 76.73611111111111)"/><path d="M60 220h333.76v39.1H60z" stroke="#000" stroke-width="2" fill="#c5cfe4"/><use xlink:href="#n" transform="matrix(1,0,0,1,64.99999999999991,225.00000000000006) translate(95.94444444444444 22.98611111111111)"/><path d="M60 259.1h333.76v346.2H60z" stroke="#000" stroke-width="2" fill="#f7f9fd"/><use xlink:href="#o" transform="matrix(1,0,0,1,64.99999999999994,264.0879478827362) translate(3 12.666666666666666)"/><use xlink:href="#p" transform="matrix(1,0,0,1,64.99999999999994,264.0879478827362) translate(3 40.31111111111111)"/><use xlink:href="#d" transform="matrix(1,0,0,1,64.99999999999994,264.0879478827362) translate(89.86666666666667 40.31111111111111)"/><use xlink:href="#q" transform="matrix(1,0,0,1,64.99999999999994,264.0879478827362) translate(3 72.3111111111111)"/><use xlink:href="#c" transform="matrix(1,0,0,1,64.99999999999994,264.0879478827362) translate(121.64444444444445 72.3111111111111)"/><use xlink:href="#d" transform="matrix(1,0,0,1,64.99999999999994,264.0879478827362) translate(133.6 72.3111111111111)"/><use xlink:href="#r" transform="matrix(1,0,0,1,64.99999999999994,264.0879478827362) translate(3 104.3111111111111)"/><use xlink:href="#c" transform="matrix(1,0,0,1,64.99999999999994,264.0879478827362) translate(75.57777777777778 104.3111111111111)"/><use xlink:href="#d" transform="matrix(1,0,0,1,64.99999999999994,264.0879478827362) translate(87.53333333333333 104.3111111111111)"/><use xlink:href="#s" transform="matrix(1,0,0,1,64.99999999999994,264.0879478827362) translate(3 136.3111111111111)"/><use xlink:href="#c" transform="matrix(1,0,0,1,64.99999999999994,264.0879478827362) translate(175.64444444444447 136.3111111111111)"/><use xlink:href="#j" transform="matrix(1,0,0,1,64.99999999999994,264.0879478827362) translate(187.60000000000002 136.3111111111111)"/><use xlink:href="#t" transform="matrix(1,0,0,1,64.99999999999994,264.0879478827362) translate(3 168.3111111111111)"/><use xlink:href="#c" transform="matrix(1,0,0,1,64.99999999999994,264.0879478827362) translate(175.82222222222222 168.3111111111111)"/><use xlink:href="#j" transform="matrix(1,0,0,1,64.99999999999994,264.0879478827362) translate(187.77777777777777 168.3111111111111)"/><use xlink:href="#u" transform="matrix(1,0,0,1,64.99999999999994,264.0879478827362) translate(3 200.3111111111111)"/><use xlink:href="#c" transform="matrix(1,0,0,1,64.99999999999994,264.0879478827362) translate(211.7333333333333 200.3111111111111)"/><use xlink:href="#j" transform="matrix(1,0,0,1,64.99999999999994,264.0879478827362) translate(223.68888888888884 200.3111111111111)"/><use xlink:href="#v" transform="matrix(1,0,0,1,64.99999999999994,264.0879478827362) translate(3 232.3111111111111)"/><use xlink:href="#c" transform="matrix(1,0,0,1,64.99999999999994,264.0879478827362) translate(80.11111111111113 232.3111111111111)"/><use xlink:href="#d" transform="matrix(1,0,0,1,64.99999999999994,264.0879478827362) translate(92.06666666666669 232.3111111111111)"/><use xlink:href="#w" transform="matrix(1,0,0,1,64.99999999999994,264.0879478827362) translate(3 264.3111111111111)"/><use xlink:href="#c" transform="matrix(1,0,0,1,64.99999999999994,264.0879478827362) translate(65.3111111111111 264.3111111111111)"/><use xlink:href="#j" transform="matrix(1,0,0,1,64.99999999999994,264.0879478827362) translate(77.26666666666665 264.3111111111111)"/><use xlink:href="#x" transform="matrix(1,0,0,1,64.99999999999994,264.0879478827362) translate(3 296.3111111111111)"/><use xlink:href="#c" transform="matrix(1,0,0,1,64.99999999999994,264.0879478827362) translate(106.8888888888889 296.3111111111111)"/><use xlink:href="#y" transform="matrix(1,0,0,1,64.99999999999994,264.0879478827362) translate(118.84444444444446 296.3111111111111)"/><use xlink:href="#z" transform="matrix(1,0,0,1,64.99999999999994,264.0879478827362) translate(3 328.3111111111111)"/><path d="M520 220h300v40H520z" stroke="#000" stroke-width="2" fill="#c5cfe4"/><g><use xlink:href="#A" transform="matrix(1,0,0,1,519.9999999999999,220) translate(63.4111111111111 28.61111111111111)"/></g><path d="M520 260h300v240H520z" stroke="#000" stroke-width="2" fill="#f7f9fd"/><g><use xlink:href="#B" transform="matrix(1,0,0,1,524.9999999999999,265.0000000000001) translate(3 42.673611111111114)"/><use xlink:href="#c" transform="matrix(1,0,0,1,524.9999999999999,265.0000000000001) translate(55.42222222222222 42.673611111111114)"/><use xlink:href="#d" transform="matrix(1,0,0,1,524.9999999999999,265.0000000000001) translate(67.37777777777777 42.673611111111114)"/><use xlink:href="#C" transform="matrix(1,0,0,1,524.9999999999999,265.0000000000001) translate(3 74.67361111111111)"/><use xlink:href="#c" transform="matrix(1,0,0,1,524.9999999999999,265.0000000000001) translate(72.75555555555556 74.67361111111111)"/><use xlink:href="#d" transform="matrix(1,0,0,1,524.9999999999999,265.0000000000001) translate(84.71111111111111 74.67361111111111)"/><use xlink:href="#D" transform="matrix(1,0,0,1,524.9999999999999,265.0000000000001) translate(3 106.67361111111111)"/><use xlink:href="#c" transform="matrix(1,0,0,1,524.9999999999999,265.0000000000001) translate(42.2 106.67361111111111)"/><use xlink:href="#d" transform="matrix(1,0,0,1,524.9999999999999,265.0000000000001) translate(54.15555555555556 106.67361111111111)"/><use xlink:href="#E" transform="matrix(1,0,0,1,524.9999999999999,265.0000000000001) translate(3 138.67361111111111)"/><use xlink:href="#c" transform="matrix(1,0,0,1,524.9999999999999,265.0000000000001) translate(181.26666666666665 138.67361111111111)"/><use xlink:href="#j" transform="matrix(1,0,0,1,524.9999999999999,265.0000000000001) translate(193.2222222222222 138.67361111111111)"/><use xlink:href="#w" transform="matrix(1,0,0,1,524.9999999999999,265.0000000000001) translate(3 170.67361111111111)"/><use xlink:href="#c" transform="matrix(1,0,0,1,524.9999999999999,265.0000000000001) translate(65.3111111111111 170.67361111111111)"/><use xlink:href="#j" transform="matrix(1,0,0,1,524.9999999999999,265.0000000000001) translate(77.26666666666665 170.67361111111111)"/><use xlink:href="#F" transform="matrix(1,0,0,1,524.9999999999999,265.0000000000001) translate(3 202.67361111111111)"/><use xlink:href="#c" transform="matrix(1,0,0,1,524.9999999999999,265.0000000000001) translate(118.24444444444445 202.67361111111111)"/><use xlink:href="#G" transform="matrix(1,0,0,1,524.9999999999999,265.0000000000001) translate(130.20000000000002 202.67361111111111)"/><use xlink:href="#m" transform="matrix(1,0,0,1,524.9999999999999,265.0000000000001) translate(195.91111111111113 202.67361111111111)"/></g><path d="M226.33 218.5V117.63h27.3" stroke="#000" fill="none"/><path d="M226.83 219h-1v-.5h1z"/><path d="M283.3 117.63l-14.86 14.85-15.15-14.85 15.14-14.85z" stroke="#000"/><path d="M680.63 218.5V117.63h-30.5" stroke="#000" fill="none"/><path d="M681.13 219h-1v-.5h1z"/><path d="M620.46 117.63l14.85-14.85 15.16 14.85-15.15 14.85z" stroke="#000"/><path d="M220 686.25v-49.58" stroke="#000" fill="none"/><path d="M220.5 686.75h-1v-.52h1z"/><path d="M220 607l14.85 14.85L220 637l-14.85-15.15z" stroke="#000"/><defs><path d="M70 0v-700h335c125 0 210 67 210 182 0 76-33 118-68 143v4c57 27 94 77 94 169C641-74 555 0 418 0H70zm156-430h156c53 0 74-28 74-66s-21-66-74-66H226v132zm0 291h166c67 0 89-36 89-78 0-35-21-77-89-77H226v155" id="H"/><path d="M50 0v-740h154V0H50" id="I"/><path d="M286 9C116 9 25-104 25-261s93-271 261-271 261 114 261 271C547-105 456 9 286 9zm0-135c64 0 104-40 104-135s-40-136-104-136-104 42-104 136c0 95 41 135 104 135" id="J"/><path d="M288 9C121 9 25-103 25-262c0-158 92-270 259-270 155 0 235 94 242 215H371c-5-46-37-80-87-80-65 0-102 41-102 135 0 95 37 136 102 136 50 0 82-34 87-80h155C519-85 440 9 288 9" id="K"/><path d="M328-276L551-10V0H365L194-214V0H50v-740h144v407l166-190h180v10" id="L"/><path d="M451-700L692-10V0H518l-41-133H217L176 0H10v-10l240-690h201zM260-271h174l-85-272h-4" id="M"/><path d="M257 9C94 9 28-70 25-177h154c0 29 23 58 78 58 96 2 96-67 21-79-116-18-235-41-237-179 0-85 75-155 215-155 136 0 218 78 218 175H322c1-24-17-54-69-54-69-5-82 61-22 72 122 22 252 27 255 181C486-50 390 9 257 9" id="N"/><path d="M284 9C119 9 25-111 25-261c0-148 86-271 256-271 180 0 265 131 250 312H182c1 61 32 104 102 104 57 0 82-28 91-52h149C510-74 427 9 284 9zM183-317h191c-3-50-32-89-93-89-66 0-95 39-98 89" id="O"/><path d="M280 9C159 9 105-63 105-158v-234H20v-131h92v-109c50-9 95-22 147-28v137h125v131H259v197c-7 71 62 81 117 61h10V-6C370 0 329 9 280 9" id="P"/><g id="a"><use transform="matrix(0.022222222222222223,0,0,0.022222222222222223,0,0)" xlink:href="#H"/><use transform="matrix(0.022222222222222223,0,0,0.022222222222222223,14.8,0)" xlink:href="#I"/><use transform="matrix(0.022222222222222223,0,0,0.022222222222222223,20.22222222222222,0)" xlink:href="#J"/><use transform="matrix(0.022222222222222223,0,0,0.022222222222222223,32.93333333333334,0)" xlink:href="#K"/><use transform="matrix(0.022222222222222223,0,0,0.022222222222222223,45.177777777777784,0)" xlink:href="#L"/><use transform="matrix(0.022222222222222223,0,0,0.022222222222222223,57.64444444444446,0)" xlink:href="#M"/><use transform="matrix(0.022222222222222223,0,0,0.022222222222222223,73.24444444444445,0)" xlink:href="#N"/><use transform="matrix(0.022222222222222223,0,0,0.022222222222222223,84.60000000000001,0)" xlink:href="#N"/><use transform="matrix(0.022222222222222223,0,0,0.022222222222222223,95.95555555555556,0)" xlink:href="#O"/><use transform="matrix(0.022222222222222223,0,0,0.022222222222222223,108.31111111111112,0)" xlink:href="#P"/></g><path fill="#5e5e5e" d="M650-520c113 0 176 73 176 188V0h-84v-319c0-78-35-126-113-126-80 0-128 60-128 163V0h-84v-319c0-78-35-126-113-126-80 0-130 60-130 163V0H90v-511h73l7 80h4c27-52 74-89 153-89 74 0 127 33 154 89h4c27-52 79-89 165-89" id="Q"/><path fill="#5e5e5e" d="M228 9C117 9 50-60 50-149c0-86 61-160 211-160 54 0 94 9 126 18 7-94-13-152-118-157-75 0-112 42-113 91H75c0-98 82-163 194-163 131 0 200 79 200 176V0h-71l-6-72h-4C357-20 300 9 228 9zm15-70c96-3 152-69 144-163-42-13-81-18-126-18-83 0-126 32-126 92 0 51 34 89 108 89" id="R"/><path fill="#5e5e5e" d="M10 0v-10l179-247L16-501v-10h90l135 197h4l134-197h91v10L296-259 473-10V0h-88L245-202h-4L99 0H10" id="S"/><path fill="#5e5e5e" d="M548-700h87V0h-87v-321H187V0h-87v-700h87v298h361v-298" id="T"/><path fill="#5e5e5e" d="M282 9C131 9 50-105 50-255c0-148 73-265 231-265 158 2 232 123 221 290H138c0 97 49 164 144 164 67 0 115-28 129-82h84C481-54 391 9 282 9zM139-300h276c0-81-43-145-134-145-96 0-139 65-142 145" id="U"/><path fill="#5e5e5e" d="M132-609c-39 0-58-23-58-59 0-35 19-58 58-58 38 0 58 23 58 58 0 36-20 59-58 59zM90 0v-511h84V0H90" id="V"/><path fill="#5e5e5e" d="M283 238C152 238 68 163 65 65h81c4 49 43 101 137 101 98 0 142-61 142-138v-99h-4C394-26 343 9 267 9 123 9 51-104 50-255c1-165 83-265 217-265 76 0 127 35 154 80h4l11-71h73V30c0 117-80 208-226 208zm-2-304c102 0 146-88 146-189 0-102-44-190-146-190-106 0-146 87-146 190 0 102 40 189 146 189" id="W"/><path fill="#5e5e5e" d="M90 0v-740h84v309h4c27-52 77-89 156-89 113 0 181 71 181 188V0h-84v-319c0-80-39-126-120-126-83 0-137 62-137 165V0H90" id="X"/><path fill="#5e5e5e" d="M260 9C159 9 125-43 125-128v-312H40v-71h87v-109c28-9 49-24 82-28v137h125v71H209v305c0 49 21 70 67 70 30 1 39-6 60-6V1c-16 4-44 8-76 8" id="Y"/><path fill="#5e5e5e" d="M100 0v-700h258c143 0 231 91 231 221 0 134-90 225-231 225H187V0h-87zm87-334h160c97 0 152-51 152-145 0-90-58-142-152-142H187v287" id="Z"/><path fill="#5e5e5e" d="M90 0v-511h73l7 86h4c28-71 87-100 181-92v81c-128-12-181 52-181 188V0H90" id="aa"/><path fill="#5e5e5e" d="M221 0L20-501v-10h87L264-98h4l151-413h87v10L308 0h-87" id="ab"/><path fill="#5e5e5e" d="M281 9C121 9 50-108 50-255s73-265 231-265 231 118 231 265C512-109 441 9 281 9zm0-75c104 0 146-79 146-189s-42-190-146-190-146 81-146 190c0 110 43 189 146 189" id="ac"/><path fill="#5e5e5e" d="M414-511h84v325C498-69 413 8 289 8S80-69 80-186v-325h84v311c0 81 36 133 125 133s125-52 125-133v-311" id="ad"/><path fill="#5e5e5e" d="M259 9C138 9 53-57 50-169h84c0 68 52 103 125 103 72 0 117-24 117-73 0-69-115-80-180-92-84-16-130-68-130-143 0-85 73-146 186-146 115 0 197 63 197 165h-82c-3-65-51-94-115-94-62 0-105 25-105 75 0 68 106 73 169 87 96 21 145 60 145 148C461-45 369 9 259 9" id="ae"/><path fill="#5e5e5e" d="M90 0v-740h84V0H90" id="af"/><path fill="#5e5e5e" d="M139 229v-10c28-75 61-150 86-225L20-501v-10h90l155 401h4l150-401h88v10L224 229h-85" id="ag"/><path fill="#5e5e5e" d="M100 0v-700h439v80H187v235h318v80H187V0h-87" id="ah"/><path fill="#5e5e5e" d="M267 9C133 9 51-91 50-256c1-151 73-264 217-264 76 0 127 35 154 80h4v-300h84V0h-73l-11-71h-4C394-26 343 9 267 9zm14-75c102 0 146-88 146-190 0-101-44-189-146-189-106 0-146 87-146 189 0 103 40 190 146 190" id="ai"/><g id="b"><use transform="matrix(0.022222222222222223,0,0,0.022222222222222223,0,0)" xlink:href="#Q"/><use transform="matrix(0.022222222222222223,0,0,0.022222222222222223,20.133333333333333,0)" xlink:href="#R"/><use transform="matrix(0.022222222222222223,0,0,0.022222222222222223,32.333333333333336,0)" xlink:href="#S"/><use transform="matrix(0.022222222222222223,0,0,0.022222222222222223,43.06666666666667,0)" xlink:href="#T"/><use transform="matrix(0.022222222222222223,0,0,0.022222222222222223,59.400000000000006,0)" xlink:href="#U"/><use transform="matrix(0.022222222222222223,0,0,0.022222222222222223,71.66666666666667,0)" xlink:href="#V"/><use transform="matrix(0.022222222222222223,0,0,0.022222222222222223,77.31111111111112,0)" xlink:href="#W"/><use transform="matrix(0.022222222222222223,0,0,0.022222222222222223,90.4,0)" xlink:href="#X"/><use transform="matrix(0.022222222222222223,0,0,0.022222222222222223,103.62222222222222,0)" xlink:href="#Y"/><use transform="matrix(0.022222222222222223,0,0,0.022222222222222223,112.08888888888889,0)" xlink:href="#Z"/><use transform="matrix(0.022222222222222223,0,0,0.022222222222222223,126.51111111111112,0)" xlink:href="#aa"/><use transform="matrix(0.022222222222222223,0,0,0.022222222222222223,134.73333333333335,0)" xlink:href="#U"/><use transform="matrix(0.022222222222222223,0,0,0.022222222222222223,146.66666666666669,0)" xlink:href="#ab"/><use transform="matrix(0.022222222222222223,0,0,0.022222222222222223,158.35555555555558,0)" xlink:href="#V"/><use transform="matrix(0.022222222222222223,0,0,0.022222222222222223,164.00000000000003,0)" xlink:href="#ac"/><use transform="matrix(0.022222222222222223,0,0,0.022222222222222223,176.4888888888889,0)" xlink:href="#ad"/><use transform="matrix(0.022222222222222223,0,0,0.022222222222222223,189.33333333333334,0)" xlink:href="#ae"/><use transform="matrix(0.022222222222222223,0,0,0.022222222222222223,200.6888888888889,0)" xlink:href="#af"/><use transform="matrix(0.022222222222222223,0,0,0.022222222222222223,206.33333333333334,0)" xlink:href="#ag"/><use transform="matrix(0.022222222222222223,0,0,0.022222222222222223,218.04444444444445,0)" xlink:href="#ah"/><use transform="matrix(0.022222222222222223,0,0,0.022222222222222223,230.91111111111107,0)" xlink:href="#ac"/><use transform="matrix(0.022222222222222223,0,0,0.022222222222222223,243.39999999999998,0)" xlink:href="#aa"/><use transform="matrix(0.022222222222222223,0,0,0.022222222222222223,251.62222222222218,0)" xlink:href="#W"/><use transform="matrix(0.022222222222222223,0,0,0.022222222222222223,264.71111111111105,0)" xlink:href="#U"/><use transform="matrix(0.022222222222222223,0,0,0.022222222222222223,276.9777777777777,0)" xlink:href="#ai"/></g><path fill="#5e5e5e" d="M119-351c-39 0-59-25-59-61 0-35 20-60 59-60 38 0 59 25 59 60 0 36-21 61-59 61zm0 360C80 9 60-16 60-52c0-35 20-60 59-60 38 0 59 25 59 60 0 36-21 61-59 61" id="aj"/><use transform="matrix(0.022222222222222223,0,0,0.022222222222222223,0,0)" xlink:href="#aj" id="c"/><path fill="#5e5e5e" d="M100 0v-700h88V0h-88" id="ak"/><path fill="#5e5e5e" d="M90 0v-511h73l7 80h4c27-52 79-89 158-89 113 0 179 71 179 188V0h-84v-319c0-80-37-126-118-126-85 0-135 60-135 163V0H90" id="al"/><g id="d"><use transform="matrix(0.022222222222222223,0,0,0.022222222222222223,0,0)" xlink:href="#ak"/><use transform="matrix(0.022222222222222223,0,0,0.022222222222222223,6.4,0)" xlink:href="#al"/><use transform="matrix(0.022222222222222223,0,0,0.022222222222222223,19.533333333333335,0)" xlink:href="#Y"/><use transform="matrix(0.022222222222222223,0,0,0.022222222222222223,28,0)" xlink:href="#U"/><use transform="matrix(0.022222222222222223,0,0,0.022222222222222223,40.266666666666666,0)" xlink:href="#W"/><use transform="matrix(0.022222222222222223,0,0,0.022222222222222223,53.355555555555554,0)" xlink:href="#U"/><use transform="matrix(0.022222222222222223,0,0,0.022222222222222223,65.62222222222222,0)" xlink:href="#aa"/></g><g id="e"><use transform="matrix(0.022222222222222223,0,0,0.022222222222222223,0,0)" xlink:href="#Q"/><use transform="matrix(0.022222222222222223,0,0,0.022222222222222223,20.133333333333333,0)" xlink:href="#R"/><use transform="matrix(0.022222222222222223,0,0,0.022222222222222223,32.333333333333336,0)" xlink:href="#S"/><use transform="matrix(0.022222222222222223,0,0,0.022222222222222223,43.06666666666667,0)" xlink:href="#T"/><use transform="matrix(0.022222222222222223,0,0,0.022222222222222223,59.400000000000006,0)" xlink:href="#U"/><use transform="matrix(0.022222222222222223,0,0,0.022222222222222223,71.66666666666667,0)" xlink:href="#V"/><use transform="matrix(0.022222222222222223,0,0,0.022222222222222223,77.31111111111112,0)" xlink:href="#W"/><use transform="matrix(0.022222222222222223,0,0,0.022222222222222223,90.4,0)" xlink:href="#X"/><use transform="matrix(0.022222222222222223,0,0,0.022222222222222223,103.62222222222222,0)" xlink:href="#Y"/><use transform="matrix(0.022222222222222223,0,0,0.022222222222222223,112.08888888888889,0)" xlink:href="#Z"/><use transform="matrix(0.022222222222222223,0,0,0.022222222222222223,126.51111111111112,0)" xlink:href="#aa"/><use transform="matrix(0.022222222222222223,0,0,0.022222222222222223,134.73333333333335,0)" xlink:href="#U"/><use transform="matrix(0.022222222222222223,0,0,0.022222222222222223,146.66666666666669,0)" xlink:href="#ab"/><use transform="matrix(0.022222222222222223,0,0,0.022222222222222223,158.02222222222224,0)" xlink:href="#ac"/><use transform="matrix(0.022222222222222223,0,0,0.022222222222222223,170.51111111111112,0)" xlink:href="#Y"/><use transform="matrix(0.022222222222222223,0,0,0.022222222222222223,178.9777777777778,0)" xlink:href="#U"/><use transform="matrix(0.022222222222222223,0,0,0.022222222222222223,191.24444444444444,0)" xlink:href="#ai"/></g><path fill="#5e5e5e" d="M448-288L636-10V0h-95L357-277H187V0h-87v-700h277c143 0 222 91 222 210 0 104-60 176-151 202zM187-620v263h185c88 0 136-48 136-132 0-82-48-131-136-131H187" id="am"/><g id="f"><use transform="matrix(0.022222222222222223,0,0,0.022222222222222223,0,0)" xlink:href="#ae"/><use transform="matrix(0.022222222222222223,0,0,0.022222222222222223,11.355555555555556,0)" xlink:href="#U"/><use transform="matrix(0.022222222222222223,0,0,0.022222222222222223,23.622222222222224,0)" xlink:href="#U"/><use transform="matrix(0.022222222222222223,0,0,0.022222222222222223,35.88888888888889,0)" xlink:href="#ai"/><use transform="matrix(0.022222222222222223,0,0,0.022222222222222223,48.97777777777778,0)" xlink:href="#am"/><use transform="matrix(0.022222222222222223,0,0,0.022222222222222223,63.86666666666668,0)" xlink:href="#U"/><use transform="matrix(0.022222222222222223,0,0,0.022222222222222223,75.80000000000001,0)" xlink:href="#ab"/><use transform="matrix(0.022222222222222223,0,0,0.022222222222222223,87.15555555555557,0)" xlink:href="#U"/><use transform="matrix(0.022222222222222223,0,0,0.022222222222222223,99.42222222222223,0)" xlink:href="#R"/><use transform="matrix(0.022222222222222223,0,0,0.022222222222222223,111.62222222222222,0)" xlink:href="#af"/></g><path fill="#5e5e5e" d="M100 0v-700h281c118 0 204 67 204 182 0 76-36 120-88 143v4c54 22 114 70 114 169C611-74 525 0 388 0H100zm86-400c139-3 315 31 310-118 0-66-45-104-125-104H186v222zm0 321h192c83 0 143-43 143-123 0-82-54-122-143-122H186v245" id="an"/><g id="g"><use transform="matrix(0.022222222222222223,0,0,0.022222222222222223,0,0)" xlink:href="#an"/><use transform="matrix(0.022222222222222223,0,0,0.022222222222222223,14.8,0)" xlink:href="#ag"/><use transform="matrix(0.022222222222222223,0,0,0.022222222222222223,26.955555555555556,0)" xlink:href="#Y"/><use transform="matrix(0.022222222222222223,0,0,0.022222222222222223,35.422222222222224,0)" xlink:href="#U"/><use transform="matrix(0.022222222222222223,0,0,0.022222222222222223,47.68888888888889,0)" xlink:href="#ae"/></g><g id="h"><use transform="matrix(0.022222222222222223,0,0,0.022222222222222223,0,0)" xlink:href="#H"/><use transform="matrix(0.022222222222222223,0,0,0.022222222222222223,14.8,0)" xlink:href="#I"/><use transform="matrix(0.022222222222222223,0,0,0.022222222222222223,20.22222222222222,0)" xlink:href="#J"/><use transform="matrix(0.022222222222222223,0,0,0.022222222222222223,32.93333333333334,0)" xlink:href="#K"/><use transform="matrix(0.022222222222222223,0,0,0.022222222222222223,45.177777777777784,0)" xlink:href="#L"/></g><g id="i"><use transform="matrix(0.022222222222222223,0,0,0.022222222222222223,0,0)" xlink:href="#X"/><use transform="matrix(0.022222222222222223,0,0,0.022222222222222223,13.222222222222223,0)" xlink:href="#U"/><use transform="matrix(0.022222222222222223,0,0,0.022222222222222223,25.48888888888889,0)" xlink:href="#R"/><use transform="matrix(0.022222222222222223,0,0,0.022222222222222223,37.68888888888889,0)" xlink:href="#ai"/><use transform="matrix(0.022222222222222223,0,0,0.022222222222222223,50.77777777777778,0)" xlink:href="#U"/><use transform="matrix(0.022222222222222223,0,0,0.022222222222222223,63.044444444444444,0)" xlink:href="#aa"/></g><g id="j"><use transform="matrix(0.022222222222222223,0,0,0.022222222222222223,0,0)" xlink:href="#an"/><use transform="matrix(0.022222222222222223,0,0,0.022222222222222223,14.8,0)" xlink:href="#ag"/><use transform="matrix(0.022222222222222223,0,0,0.022222222222222223,26.955555555555556,0)" xlink:href="#Y"/><use transform="matrix(0.022222222222222223,0,0,0.022222222222222223,35.422222222222224,0)" xlink:href="#U"/><use transform="matrix(0.022222222222222223,0,0,0.022222222222222223,47.68888888888889,0)" xlink:href="#ae"/></g><path fill="#5e5e5e" d="M90 229v-740h73l11 71h4c27-45 78-80 154-80 134 0 216 100 217 265C548-104 476 9 332 9c-76 0-127-35-154-80h-4v300H90zM318-66c106 0 146-87 146-189 0-103-40-190-146-190-102 0-146 88-146 190 0 101 44 189 146 189" id="ao"/><g id="k"><use transform="matrix(0.022222222222222223,0,0,0.022222222222222223,0,0)" xlink:href="#ao"/><use transform="matrix(0.022222222222222223,0,0,0.022222222222222223,13.311111111111112,0)" xlink:href="#R"/><use transform="matrix(0.022222222222222223,0,0,0.022222222222222223,25.28888888888889,0)" xlink:href="#ag"/><use transform="matrix(0.022222222222222223,0,0,0.022222222222222223,37,0)" xlink:href="#af"/><use transform="matrix(0.022222222222222223,0,0,0.022222222222222223,42.644444444444446,0)" xlink:href="#ac"/><use transform="matrix(0.022222222222222223,0,0,0.022222222222222223,55.13333333333333,0)" xlink:href="#R"/><use transform="matrix(0.022222222222222223,0,0,0.022222222222222223,67.33333333333333,0)" xlink:href="#ai"/></g><path fill="#5e5e5e" d="M252 0v-620H35v-80h522v80H340V0h-88" id="ap"/><path fill="#5e5e5e" d="M282 9C129 9 50-94 50-255c0-159 79-265 231-265 137 0 203 81 210 184h-84c-5-68-52-109-126-109-105 0-146 85-146 190 0 107 41 190 146 190 76 0 121-39 128-107h84C483-64 415 9 282 9" id="aq"/><g id="l"><use transform="matrix(0.022222222222222223,0,0,0.022222222222222223,0,0)" xlink:href="#ap"/><use transform="matrix(0.022222222222222223,0,0,0.022222222222222223,12.044444444444444,0)" xlink:href="#aa"/><use transform="matrix(0.022222222222222223,0,0,0.022222222222222223,20.711111111111116,0)" xlink:href="#R"/><use transform="matrix(0.022222222222222223,0,0,0.022222222222222223,32.91111111111112,0)" xlink:href="#al"/><use transform="matrix(0.022222222222222223,0,0,0.022222222222222223,46.04444444444446,0)" xlink:href="#ae"/><use transform="matrix(0.022222222222222223,0,0,0.022222222222222223,57.400000000000006,0)" xlink:href="#R"/><use transform="matrix(0.022222222222222223,0,0,0.022222222222222223,69.60000000000001,0)" xlink:href="#aq"/><use transform="matrix(0.022222222222222223,0,0,0.022222222222222223,81.66666666666667,0)" xlink:href="#Y"/><use transform="matrix(0.022222222222222223,0,0,0.022222222222222223,90.13333333333334,0)" xlink:href="#V"/><use transform="matrix(0.022222222222222223,0,0,0.022222222222222223,95.77777777777779,0)" xlink:href="#ac"/><use transform="matrix(0.022222222222222223,0,0,0.022222222222222223,108.26666666666667,0)" xlink:href="#al"/></g><path fill="#5e5e5e" d="M50 158v-908h202v64H124V95h131v63H50" id="ar"/><path fill="#5e5e5e" d="M90 158V95h131v-781H93v-64h202v908H90" id="as"/><g id="m"><use transform="matrix(0.022222222222222223,0,0,0.022222222222222223,0,0)" xlink:href="#ar"/><use transform="matrix(0.022222222222222223,0,0,0.022222222222222223,7.666666666666667,0)" xlink:href="#as"/></g><path d="M508-700h157V0H508v-291H227V0H70v-700h157v268h281v-268" id="at"/><path d="M208 9C90 9 25-62 25-155c0-97 66-161 210-161 39 0 91 8 112 15 4-67-3-104-80-107-48 0-76 26-76 58H47c0-98 71-182 225-182 143 0 229 79 229 188V0H363l-11-47h-4C319-14 273 9 208 9zm39-120c65-1 102-37 100-85-54-26-171-27-170 33 0 30 24 52 70 52" id="au"/><path d="M237 9C105 9 25-105 25-262c0-156 80-270 212-270 74 0 114 29 139 59h4v-267h154V0H396l-16-50h-4C351-20 311 9 237 9zm47-135c76 0 103-63 103-136s-25-135-103-135-103 62-103 135 27 136 103 136" id="av"/><path d="M50 0v-523h128l12 76h4c27-55 81-94 170-85v141c-106-11-170 29-170 133V0H50" id="aw"/><g id="n"><use transform="matrix(0.022222222222222223,0,0,0.022222222222222223,0,0)" xlink:href="#H"/><use transform="matrix(0.022222222222222223,0,0,0.022222222222222223,14.8,0)" xlink:href="#I"/><use transform="matrix(0.022222222222222223,0,0,0.022222222222222223,20.22222222222222,0)" xlink:href="#J"/><use transform="matrix(0.022222222222222223,0,0,0.022222222222222223,32.93333333333334,0)" xlink:href="#K"/><use transform="matrix(0.022222222222222223,0,0,0.022222222222222223,45.177777777777784,0)" xlink:href="#L"/><use transform="matrix(0.022222222222222223,0,0,0.022222222222222223,57.64444444444446,0)" xlink:href="#at"/><use transform="matrix(0.022222222222222223,0,0,0.022222222222222223,73.97777777777779,0)" xlink:href="#O"/><use transform="matrix(0.022222222222222223,0,0,0.022222222222222223,86.33333333333334,0)" xlink:href="#au"/><use transform="matrix(0.022222222222222223,0,0,0.022222222222222223,98.35555555555555,0)" xlink:href="#av"/><use transform="matrix(0.022222222222222223,0,0,0.022222222222222223,111.11111111111113,0)" xlink:href="#O"/><use transform="matrix(0.022222222222222223,0,0,0.022222222222222223,123.4666666666667,0)" xlink:href="#aw"/></g><g id="p"><use transform="matrix(0.022222222222222223,0,0,0.022222222222222223,0,0)" xlink:href="#ab"/><use transform="matrix(0.022222222222222223,0,0,0.022222222222222223,11.355555555555556,0)" xlink:href="#U"/><use transform="matrix(0.022222222222222223,0,0,0.022222222222222223,23.622222222222224,0)" xlink:href="#aa"/><use transform="matrix(0.022222222222222223,0,0,0.022222222222222223,32.28888888888889,0)" xlink:href="#ae"/><use transform="matrix(0.022222222222222223,0,0,0.022222222222222223,43.644444444444446,0)" xlink:href="#V"/><use transform="matrix(0.022222222222222223,0,0,0.022222222222222223,49.28888888888889,0)" xlink:href="#ac"/><use transform="matrix(0.022222222222222223,0,0,0.022222222222222223,61.77777777777778,0)" xlink:href="#al"/><use transform="matrix(0.022222222222222223,0,0,0.022222222222222223,74.91111111111111,0)" xlink:href="#aj"/></g><g id="q"><use transform="matrix(0.022222222222222223,0,0,0.022222222222222223,0,0)" xlink:href="#Y"/><use transform="matrix(0.022222222222222223,0,0,0.022222222222222223,8.466666666666667,0)" xlink:href="#V"/><use transform="matrix(0.022222222222222223,0,0,0.022222222222222223,14.111111111111112,0)" xlink:href="#Q"/><use transform="matrix(0.022222222222222223,0,0,0.022222222222222223,34.24444444444444,0)" xlink:href="#U"/><use transform="matrix(0.022222222222222223,0,0,0.022222222222222223,46.511111111111106,0)" xlink:href="#ae"/><use transform="matrix(0.022222222222222223,0,0,0.022222222222222223,57.86666666666666,0)" xlink:href="#Y"/><use transform="matrix(0.022222222222222223,0,0,0.022222222222222223,66.33333333333333,0)" xlink:href="#R"/><use transform="matrix(0.022222222222222223,0,0,0.022222222222222223,78.53333333333333,0)" xlink:href="#Q"/><use transform="matrix(0.022222222222222223,0,0,0.022222222222222223,98.66666666666666,0)" xlink:href="#ao"/></g><g id="r"><use transform="matrix(0.022222222222222223,0,0,0.022222222222222223,0,0)" xlink:href="#X"/><use transform="matrix(0.022222222222222223,0,0,0.022222222222222223,13.222222222222223,0)" xlink:href="#U"/><use transform="matrix(0.022222222222222223,0,0,0.022222222222222223,25.48888888888889,0)" xlink:href="#V"/><use transform="matrix(0.022222222222222223,0,0,0.022222222222222223,31.133333333333333,0)" xlink:href="#W"/><use transform="matrix(0.022222222222222223,0,0,0.022222222222222223,44.22222222222223,0)" xlink:href="#X"/><use transform="matrix(0.022222222222222223,0,0,0.022222222222222223,57.44444444444445,0)" xlink:href="#Y"/></g><path fill="#5e5e5e" d="M90-740h84V0H90v-740zm192 453L495-10V0h-97L174-287l216-224h99v10" id="ax"/><path fill="#5e5e5e" d="M100 0v-700h232c199 0 312 140 312 350C644-155 541 0 332 0H100zm87-79h136c161 0 231-125 231-271 0-145-70-270-231-270H187v541" id="ay"/><g id="s"><use transform="matrix(0.022222222222222223,0,0,0.022222222222222223,0,0)" xlink:href="#ao"/><use transform="matrix(0.022222222222222223,0,0,0.022222222222222223,13.311111111111112,0)" xlink:href="#aa"/><use transform="matrix(0.022222222222222223,0,0,0.022222222222222223,21.533333333333335,0)" xlink:href="#U"/><use transform="matrix(0.022222222222222223,0,0,0.022222222222222223,33.46666666666667,0)" xlink:href="#ab"/><use transform="matrix(0.022222222222222223,0,0,0.022222222222222223,45.15555555555556,0)" xlink:href="#V"/><use transform="matrix(0.022222222222222223,0,0,0.022222222222222223,50.800000000000004,0)" xlink:href="#ac"/><use transform="matrix(0.022222222222222223,0,0,0.022222222222222223,63.28888888888889,0)" xlink:href="#ad"/><use transform="matrix(0.022222222222222223,0,0,0.022222222222222223,76.13333333333334,0)" xlink:href="#ae"/><use transform="matrix(0.022222222222222223,0,0,0.022222222222222223,87.4888888888889,0)" xlink:href="#an"/><use transform="matrix(0.022222222222222223,0,0,0.022222222222222223,102.28888888888889,0)" xlink:href="#af"/><use transform="matrix(0.022222222222222223,0,0,0.022222222222222223,107.93333333333334,0)" xlink:href="#ac"/><use transform="matrix(0.022222222222222223,0,0,0.022222222222222223,120.42222222222223,0)" xlink:href="#aq"/><use transform="matrix(0.022222222222222223,0,0,0.022222222222222223,132.4888888888889,0)" xlink:href="#ax"/><use transform="matrix(0.022222222222222223,0,0,0.022222222222222223,143.93333333333337,0)" xlink:href="#ak"/><use transform="matrix(0.022222222222222223,0,0,0.022222222222222223,150.33333333333337,0)" xlink:href="#ay"/></g><g id="t"><use transform="matrix(0.022222222222222223,0,0,0.022222222222222223,0,0)" xlink:href="#Y"/><use transform="matrix(0.022222222222222223,0,0,0.022222222222222223,8.466666666666667,0)" xlink:href="#aa"/><use transform="matrix(0.022222222222222223,0,0,0.022222222222222223,17.133333333333333,0)" xlink:href="#R"/><use transform="matrix(0.022222222222222223,0,0,0.022222222222222223,29.333333333333336,0)" xlink:href="#al"/><use transform="matrix(0.022222222222222223,0,0,0.022222222222222223,42.46666666666667,0)" xlink:href="#ae"/><use transform="matrix(0.022222222222222223,0,0,0.022222222222222223,53.82222222222222,0)" xlink:href="#R"/><use transform="matrix(0.022222222222222223,0,0,0.022222222222222223,66.02222222222223,0)" xlink:href="#aq"/><use transform="matrix(0.022222222222222223,0,0,0.022222222222222223,78.08888888888889,0)" xlink:href="#Y"/><use transform="matrix(0.022222222222222223,0,0,0.022222222222222223,86.55555555555556,0)" xlink:href="#V"/><use transform="matrix(0.022222222222222223,0,0,0.022222222222222223,92.2,0)" xlink:href="#ac"/><use transform="matrix(0.022222222222222223,0,0,0.022222222222222223,104.6888888888889,0)" xlink:href="#al"/><use transform="matrix(0.022222222222222223,0,0,0.022222222222222223,117.82222222222225,0)" xlink:href="#am"/><use transform="matrix(0.022222222222222223,0,0,0.022222222222222223,132.71111111111114,0)" xlink:href="#ac"/><use transform="matrix(0.022222222222222223,0,0,0.022222222222222223,145.20000000000002,0)" xlink:href="#ac"/><use transform="matrix(0.022222222222222223,0,0,0.022222222222222223,157.6888888888889,0)" xlink:href="#Y"/></g><path fill="#5e5e5e" d="M332 9c-76 0-127-35-154-80h-4L163 0H90v-740h84v300h4c27-45 78-80 154-80 144 0 216 113 217 264C548-91 466 9 332 9zm-14-75c106 0 146-87 146-190 0-102-40-189-146-189-102 0-146 88-146 189 0 102 44 190 146 190" id="az"/><path fill="#5e5e5e" d="M297-369L621-10V0H516L187-364V0h-87v-700h87v326l320-326h104v10" id="aA"/><g id="u"><use transform="matrix(0.022222222222222223,0,0,0.022222222222222223,0,0)" xlink:href="#W"/><use transform="matrix(0.022222222222222223,0,0,0.022222222222222223,13.088888888888889,0)" xlink:href="#U"/><use transform="matrix(0.022222222222222223,0,0,0.022222222222222223,25.355555555555558,0)" xlink:href="#al"/><use transform="matrix(0.022222222222222223,0,0,0.022222222222222223,38.48888888888889,0)" xlink:href="#U"/><use transform="matrix(0.022222222222222223,0,0,0.022222222222222223,50.75555555555556,0)" xlink:href="#aa"/><use transform="matrix(0.022222222222222223,0,0,0.022222222222222223,59.42222222222222,0)" xlink:href="#R"/><use transform="matrix(0.022222222222222223,0,0,0.022222222222222223,71.62222222222222,0)" xlink:href="#Y"/><use transform="matrix(0.022222222222222223,0,0,0.022222222222222223,80.08888888888889,0)" xlink:href="#ac"/><use transform="matrix(0.022222222222222223,0,0,0.022222222222222223,92.57777777777778,0)" xlink:href="#aa"/><use transform="matrix(0.022222222222222223,0,0,0.022222222222222223,101.24444444444445,0)" xlink:href="#Z"/><use transform="matrix(0.022222222222222223,0,0,0.022222222222222223,115.22222222222223,0)" xlink:href="#ad"/><use transform="matrix(0.022222222222222223,0,0,0.022222222222222223,128.06666666666666,0)" xlink:href="#az"/><use transform="matrix(0.022222222222222223,0,0,0.022222222222222223,141.37777777777777,0)" xlink:href="#af"/><use transform="matrix(0.022222222222222223,0,0,0.022222222222222223,147.0222222222222,0)" xlink:href="#V"/><use transform="matrix(0.022222222222222223,0,0,0.022222222222222223,152.66666666666666,0)" xlink:href="#aq"/><use transform="matrix(0.022222222222222223,0,0,0.022222222222222223,164.73333333333332,0)" xlink:href="#aA"/><use transform="matrix(0.022222222222222223,0,0,0.022222222222222223,178.31111111111107,0)" xlink:href="#U"/><use transform="matrix(0.022222222222222223,0,0,0.022222222222222223,190.35555555555553,0)" xlink:href="#ag"/></g><path fill="#5e5e5e" d="M165 0L20-501v-10h87l102 397h4l120-397h86l120 397h4l102-397h85v10L586 0h-87L379-397h-4L252 0h-87" id="aB"/><g id="v"><use transform="matrix(0.022222222222222223,0,0,0.022222222222222223,0,0)" xlink:href="#aa"/><use transform="matrix(0.022222222222222223,0,0,0.022222222222222223,8.222222222222223,0)" xlink:href="#U"/><use transform="matrix(0.022222222222222223,0,0,0.022222222222222223,20.48888888888889,0)" xlink:href="#aB"/><use transform="matrix(0.022222222222222223,0,0,0.022222222222222223,36.93333333333334,0)" xlink:href="#R"/><use transform="matrix(0.022222222222222223,0,0,0.022222222222222223,49.13333333333333,0)" xlink:href="#aa"/><use transform="matrix(0.022222222222222223,0,0,0.022222222222222223,57.35555555555557,0)" xlink:href="#ai"/></g><g id="w"><use transform="matrix(0.022222222222222223,0,0,0.022222222222222223,0,0)" xlink:href="#R"/><use transform="matrix(0.022222222222222223,0,0,0.022222222222222223,12.200000000000001,0)" xlink:href="#ae"/><use transform="matrix(0.022222222222222223,0,0,0.022222222222222223,23.555555555555557,0)" xlink:href="#ae"/><use transform="matrix(0.022222222222222223,0,0,0.022222222222222223,34.91111111111111,0)" xlink:href="#U"/><use transform="matrix(0.022222222222222223,0,0,0.022222222222222223,47.17777777777778,0)" xlink:href="#Y"/></g><g id="x"><use transform="matrix(0.022222222222222223,0,0,0.022222222222222223,0,0)" xlink:href="#ae"/><use transform="matrix(0.022222222222222223,0,0,0.022222222222222223,11.355555555555556,0)" xlink:href="#V"/><use transform="matrix(0.022222222222222223,0,0,0.022222222222222223,17,0)" xlink:href="#W"/><use transform="matrix(0.022222222222222223,0,0,0.022222222222222223,30.08888888888889,0)" xlink:href="#al"/><use transform="matrix(0.022222222222222223,0,0,0.022222222222222223,43.22222222222222,0)" xlink:href="#R"/><use transform="matrix(0.022222222222222223,0,0,0.022222222222222223,55.422222222222224,0)" xlink:href="#Y"/><use transform="matrix(0.022222222222222223,0,0,0.022222222222222223,63.88888888888889,0)" xlink:href="#ad"/><use transform="matrix(0.022222222222222223,0,0,0.022222222222222223,76.73333333333333,0)" xlink:href="#aa"/><use transform="matrix(0.022222222222222223,0,0,0.022222222222222223,84.95555555555556,0)" xlink:href="#U"/></g><g id="y"><use transform="matrix(0.022222222222222223,0,0,0.022222222222222223,0,0)" xlink:href="#an"/><use transform="matrix(0.022222222222222223,0,0,0.022222222222222223,14.8,0)" xlink:href="#ag"/><use transform="matrix(0.022222222222222223,0,0,0.022222222222222223,26.955555555555556,0)" xlink:href="#Y"/><use transform="matrix(0.022222222222222223,0,0,0.022222222222222223,35.422222222222224,0)" xlink:href="#U"/><use transform="matrix(0.022222222222222223,0,0,0.022222222222222223,47.68888888888889,0)" xlink:href="#ae"/></g><path d="M217 0v-559H15v-141h562v141H375V0H217" id="aC"/><path d="M50 0v-523h138l12 50h4c29-34 75-59 143-59 116 0 194 72 194 188V0H387v-296c0-60-27-96-88-96-55 0-95 39-95 102V0H50" id="aD"/><path d="M128-576c-61 0-93-34-93-90 0-55 32-89 93-89 59 0 93 34 93 89 0 56-34 90-93 90zM50 0v-523h154V0H50" id="aE"/><g id="A"><use transform="matrix(0.022222222222222223,0,0,0.022222222222222223,0,0)" xlink:href="#H"/><use transform="matrix(0.022222222222222223,0,0,0.022222222222222223,14.8,0)" xlink:href="#au"/><use transform="matrix(0.022222222222222223,0,0,0.022222222222222223,26.822222222222223,0)" xlink:href="#N"/><use transform="matrix(0.022222222222222223,0,0,0.022222222222222223,38.17777777777778,0)" xlink:href="#O"/><use transform="matrix(0.022222222222222223,0,0,0.022222222222222223,50.53333333333334,0)" xlink:href="#aC"/><use transform="matrix(0.022222222222222223,0,0,0.022222222222222223,63.68888888888889,0)" xlink:href="#aw"/><use transform="matrix(0.022222222222222223,0,0,0.022222222222222223,72,0)" xlink:href="#au"/><use transform="matrix(0.022222222222222223,0,0,0.022222222222222223,84.02222222222223,0)" xlink:href="#aD"/><use transform="matrix(0.022222222222222223,0,0,0.022222222222222223,96.93333333333334,0)" xlink:href="#N"/><use transform="matrix(0.022222222222222223,0,0,0.022222222222222223,108.28888888888889,0)" xlink:href="#au"/><use transform="matrix(0.022222222222222223,0,0,0.022222222222222223,120.31111111111112,0)" xlink:href="#K"/><use transform="matrix(0.022222222222222223,0,0,0.022222222222222223,132.55555555555557,0)" xlink:href="#P"/><use transform="matrix(0.022222222222222223,0,0,0.022222222222222223,142.13333333333335,0)" xlink:href="#aE"/><use transform="matrix(0.022222222222222223,0,0,0.022222222222222223,147.55555555555557,0)" xlink:href="#J"/><use transform="matrix(0.022222222222222223,0,0,0.022222222222222223,160.26666666666668,0)" xlink:href="#aD"/></g><g id="B"><use transform="matrix(0.022222222222222223,0,0,0.022222222222222223,0,0)" xlink:href="#Y"/><use transform="matrix(0.022222222222222223,0,0,0.022222222222222223,8.466666666666667,0)" xlink:href="#ag"/><use transform="matrix(0.022222222222222223,0,0,0.022222222222222223,20.177777777777777,0)" xlink:href="#ao"/><use transform="matrix(0.022222222222222223,0,0,0.022222222222222223,33.48888888888889,0)" xlink:href="#U"/></g><g id="C"><use transform="matrix(0.022222222222222223,0,0,0.022222222222222223,0,0)" xlink:href="#al"/><use transform="matrix(0.022222222222222223,0,0,0.022222222222222223,13.133333333333335,0)" xlink:href="#ac"/><use transform="matrix(0.022222222222222223,0,0,0.022222222222222223,25.622222222222224,0)" xlink:href="#al"/><use transform="matrix(0.022222222222222223,0,0,0.022222222222222223,38.75555555555556,0)" xlink:href="#aq"/><use transform="matrix(0.022222222222222223,0,0,0.022222222222222223,50.82222222222222,0)" xlink:href="#U"/></g><path fill="#5e5e5e" d="M122 0v-441H31v-70h91v-89c-5-111 97-173 213-143v70c-66-16-129 3-129 73v89h124v70H206V0h-84" id="aF"/><g id="D"><use transform="matrix(0.022222222222222223,0,0,0.022222222222222223,0,0)" xlink:href="#aF"/><use transform="matrix(0.022222222222222223,0,0,0.022222222222222223,8.000000000000002,0)" xlink:href="#U"/><use transform="matrix(0.022222222222222223,0,0,0.022222222222222223,20.26666666666667,0)" xlink:href="#U"/></g><g id="E"><use transform="matrix(0.022222222222222223,0,0,0.022222222222222223,0,0)" xlink:href="#ae"/><use transform="matrix(0.022222222222222223,0,0,0.022222222222222223,11.355555555555556,0)" xlink:href="#U"/><use transform="matrix(0.022222222222222223,0,0,0.022222222222222223,23.622222222222224,0)" xlink:href="#al"/><use transform="matrix(0.022222222222222223,0,0,0.022222222222222223,36.75555555555556,0)" xlink:href="#ai"/><use transform="matrix(0.022222222222222223,0,0,0.022222222222222223,49.84444444444445,0)" xlink:href="#U"/><use transform="matrix(0.022222222222222223,0,0,0.022222222222222223,62.111111111111114,0)" xlink:href="#aa"/><use transform="matrix(0.022222222222222223,0,0,0.022222222222222223,70.77777777777779,0)" xlink:href="#Z"/><use transform="matrix(0.022222222222222223,0,0,0.022222222222222223,84.75555555555556,0)" xlink:href="#ad"/><use transform="matrix(0.022222222222222223,0,0,0.022222222222222223,97.60000000000001,0)" xlink:href="#az"/><use transform="matrix(0.022222222222222223,0,0,0.022222222222222223,110.91111111111114,0)" xlink:href="#af"/><use transform="matrix(0.022222222222222223,0,0,0.022222222222222223,116.55555555555559,0)" xlink:href="#V"/><use transform="matrix(0.022222222222222223,0,0,0.022222222222222223,122.20000000000003,0)" xlink:href="#aq"/><use transform="matrix(0.022222222222222223,0,0,0.022222222222222223,134.26666666666668,0)" xlink:href="#aA"/><use transform="matrix(0.022222222222222223,0,0,0.022222222222222223,147.84444444444443,0)" xlink:href="#U"/><use transform="matrix(0.022222222222222223,0,0,0.022222222222222223,159.88888888888889,0)" xlink:href="#ag"/></g><g id="F"><use transform="matrix(0.022222222222222223,0,0,0.022222222222222223,0,0)" xlink:href="#ae"/><use transform="matrix(0.022222222222222223,0,0,0.022222222222222223,11.355555555555556,0)" xlink:href="#V"/><use transform="matrix(0.022222222222222223,0,0,0.022222222222222223,17,0)" xlink:href="#W"/><use transform="matrix(0.022222222222222223,0,0,0.022222222222222223,30.08888888888889,0)" xlink:href="#al"/><use transform="matrix(0.022222222222222223,0,0,0.022222222222222223,43.22222222222222,0)" xlink:href="#R"/><use transform="matrix(0.022222222222222223,0,0,0.022222222222222223,55.422222222222224,0)" xlink:href="#Y"/><use transform="matrix(0.022222222222222223,0,0,0.022222222222222223,63.88888888888889,0)" xlink:href="#ad"/><use transform="matrix(0.022222222222222223,0,0,0.022222222222222223,76.73333333333333,0)" xlink:href="#aa"/><use transform="matrix(0.022222222222222223,0,0,0.022222222222222223,84.95555555555556,0)" xlink:href="#U"/><use transform="matrix(0.022222222222222223,0,0,0.022222222222222223,97.22222222222223,0)" xlink:href="#ae"/></g><g id="G"><use transform="matrix(0.022222222222222223,0,0,0.022222222222222223,0,0)" xlink:href="#an"/><use transform="matrix(0.022222222222222223,0,0,0.022222222222222223,14.8,0)" xlink:href="#ag"/><use transform="matrix(0.022222222222222223,0,0,0.022222222222222223,26.955555555555556,0)" xlink:href="#Y"/><use transform="matrix(0.022222222222222223,0,0,0.022222222222222223,35.422222222222224,0)" xlink:href="#U"/><use transform="matrix(0.022222222222222223,0,0,0.022222222222222223,47.68888888888889,0)" xlink:href="#ae"/></g></defs></g></svg>