<svg xmlns="http://www.w3.org/2000/svg" xmlns:xlink="http://www.w3.org/1999/xlink" xmlns:lucid="lucid" width="404" height="220"><g transform="translate(0 0)" lucid:page-tab-id="0_0"><path d="M20 20h360v40H20z" stroke="#000" stroke-width="2" fill="#c5cfe4"/><use xlink:href="#a" transform="matrix(1,0,0,1,20,20) translate(32.53333333333336 28.61111111111111)"/><path d="M20 60h360v140H20z" stroke="#000" stroke-width="2" fill="#f7f9fd"/><use xlink:href="#b" transform="matrix(1,0,0,1,25,65) translate(3 41.423611111111114)"/><use xlink:href="#c" transform="matrix(1,0,0,1,25,65) translate(225.95555555555552 41.423611111111114)"/><use xlink:href="#d" transform="matrix(1,0,0,1,25,65) translate(237.91111111111107 41.423611111111114)"/><use xlink:href="#e" transform="matrix(1,0,0,1,25,65) translate(3 73.42361111111111)"/><use xlink:href="#c" transform="matrix(1,0,0,1,25,65) translate(170.66666666666669 73.42361111111111)"/><use xlink:href="#f" transform="matrix(1,0,0,1,25,65) translate(182.62222222222223 73.42361111111111)"/><use xlink:href="#g" transform="matrix(1,0,0,1,25,65) translate(248.33333333333334 73.42361111111111)"/><use xlink:href="#h" transform="matrix(1,0,0,1,25,65) translate(3 105.42361111111111)"/><use xlink:href="#c" transform="matrix(1,0,0,1,25,65) translate(141.73333333333332 105.42361111111111)"/><use xlink:href="#f" transform="matrix(1,0,0,1,25,65) translate(153.68888888888887 105.42361111111111)"/><use xlink:href="#i" transform="matrix(1,0,0,1,25,65) translate(219.39999999999998 105.42361111111111)"/><defs><path d="M50 0v-523h128l12 76h4c27-55 81-94 170-85v141c-106-11-170 29-170 133V0H50" id="j"/><path d="M284 9C119 9 25-111 25-261c0-148 86-271 256-271 180 0 265 131 250 312H182c1 61 32 104 102 104 57 0 82-28 91-52h149C510-74 427 9 284 9zM183-317h191c-3-50-32-89-93-89-66 0-95 39-98 89" id="k"/><path d="M278 238C137 238 43 163 40 45h151c4 35 39 61 87 61 101-2 108-62 102-156h-4C351-20 311 9 237 9 105 9 25-105 25-261c0-157 80-271 212-271 74 0 114 29 139 59h4l16-50h138V25c0 131-110 213-256 213zm6-364c78 0 103-62 103-135s-27-136-103-136-103 63-103 136 25 135 103 135" id="l"/><path d="M128-576c-61 0-93-34-93-90 0-55 32-89 93-89 59 0 93 34 93 89 0 56-34 90-93 90zM50 0v-523h154V0H50" id="m"/><path d="M257 9C94 9 28-70 25-177h154c0 29 23 58 78 58 96 2 96-67 21-79-116-18-235-41-237-179 0-85 75-155 215-155 136 0 218 78 218 175H322c1-24-17-54-69-54-69-5-82 61-22 72 122 22 252 27 255 181C486-50 390 9 257 9" id="n"/><path d="M280 9C159 9 105-63 105-158v-234H20v-131h92v-109c50-9 95-22 147-28v137h125v131H259v197c-7 71 62 81 117 61h10V-6C370 0 329 9 280 9" id="o"/><path d="M70 0v-700h172l197 321h4l197-321h170V0H658v-452h-4L445-116h-10L226-455h-4V0H70" id="p"/><path d="M375-523h154v314C529-98 461 9 289 9 118 9 50-98 50-209v-314h154v291c0 60 25 96 86 96 60 0 85-36 85-96v-291" id="q"/><path d="M50 0v-740h154V0H50" id="r"/><path d="M50 0v-523h138l12 50h4c29-34 75-59 143-59 116 0 194 72 194 188V0H387v-296c0-60-27-96-88-96-55 0-95 39-95 102V0H50" id="s"/><path d="M208 9C90 9 25-62 25-155c0-97 66-161 210-161 39 0 91 8 112 15 4-67-3-104-80-107-48 0-76 26-76 58H47c0-98 71-182 225-182 143 0 229 79 229 188V0H363l-11-47h-4C319-14 273 9 208 9zm39-120c65-1 102-37 100-85-54-26-171-27-170 33 0 30 24 52 70 52" id="t"/><path d="M369 9C144 9 30-150 30-349c0-202 114-360 339-360 179 0 295 115 310 253H519c-11-57-52-111-150-111-116 0-179 77-179 218s63 217 179 217c94 0 137-51 151-107H389v-139h295v79C684-112 552 9 369 9" id="u"/><path d="M286 9C116 9 25-104 25-261s93-271 261-271 261 114 261 271C547-105 456 9 286 9zm0-135c64 0 104-40 104-135s-40-136-104-136-104 42-104 136c0 95 41 135 104 135" id="v"/><path d="M50 229v-752h138l16 50h4c25-30 65-59 139-59 130 0 212 114 212 271C559-105 479 9 347 9c-74 0-114-29-139-59h-4v279H50zm250-355c78 0 103-62 103-135s-27-136-103-136-103 63-103 136 25 135 103 135" id="w"/><g id="a"><use transform="matrix(0.022222222222222223,0,0,0.022222222222222223,0,0)" xlink:href="#j"/><use transform="matrix(0.022222222222222223,0,0,0.022222222222222223,8.644444444444444,0)" xlink:href="#k"/><use transform="matrix(0.022222222222222223,0,0,0.022222222222222223,21,0)" xlink:href="#l"/><use transform="matrix(0.022222222222222223,0,0,0.022222222222222223,33.75555555555556,0)" xlink:href="#m"/><use transform="matrix(0.022222222222222223,0,0,0.022222222222222223,39.177777777777784,0)" xlink:href="#n"/><use transform="matrix(0.022222222222222223,0,0,0.022222222222222223,50.53333333333334,0)" xlink:href="#o"/><use transform="matrix(0.022222222222222223,0,0,0.022222222222222223,60.111111111111114,0)" xlink:href="#k"/><use transform="matrix(0.022222222222222223,0,0,0.022222222222222223,72.46666666666667,0)" xlink:href="#j"/><use transform="matrix(0.022222222222222223,0,0,0.022222222222222223,81.11111111111111,0)" xlink:href="#p"/><use transform="matrix(0.022222222222222223,0,0,0.022222222222222223,100.66666666666667,0)" xlink:href="#q"/><use transform="matrix(0.022222222222222223,0,0,0.022222222222222223,113.53333333333333,0)" xlink:href="#r"/><use transform="matrix(0.022222222222222223,0,0,0.022222222222222223,118.95555555555553,0)" xlink:href="#o"/><use transform="matrix(0.022222222222222223,0,0,0.022222222222222223,128.53333333333333,0)" xlink:href="#m"/><use transform="matrix(0.022222222222222223,0,0,0.022222222222222223,133.95555555555555,0)" xlink:href="#n"/><use transform="matrix(0.022222222222222223,0,0,0.022222222222222223,145.3111111111111,0)" xlink:href="#m"/><use transform="matrix(0.022222222222222223,0,0,0.022222222222222223,150.73333333333332,0)" xlink:href="#l"/><use transform="matrix(0.022222222222222223,0,0,0.022222222222222223,163.48888888888888,0)" xlink:href="#s"/><use transform="matrix(0.022222222222222223,0,0,0.022222222222222223,176.39999999999998,0)" xlink:href="#t"/><use transform="matrix(0.022222222222222223,0,0,0.022222222222222223,188.4222222222222,0)" xlink:href="#o"/><use transform="matrix(0.022222222222222223,0,0,0.022222222222222223,197.99999999999997,0)" xlink:href="#q"/><use transform="matrix(0.022222222222222223,0,0,0.022222222222222223,210.86666666666665,0)" xlink:href="#j"/><use transform="matrix(0.022222222222222223,0,0,0.022222222222222223,219.5111111111111,0)" xlink:href="#k"/><use transform="matrix(0.022222222222222223,0,0,0.022222222222222223,231.86666666666665,0)" xlink:href="#u"/><use transform="matrix(0.022222222222222223,0,0,0.022222222222222223,247.7333333333333,0)" xlink:href="#j"/><use transform="matrix(0.022222222222222223,0,0,0.022222222222222223,256.37777777777774,0)" xlink:href="#v"/><use transform="matrix(0.022222222222222223,0,0,0.022222222222222223,269.08888888888885,0)" xlink:href="#q"/><use transform="matrix(0.022222222222222223,0,0,0.022222222222222223,281.9555555555555,0)" xlink:href="#w"/></g><path fill="#666" d="M90 0v-511h73l7 80h4c27-52 79-89 158-89 113 0 179 71 179 188V0h-84v-319c0-80-37-126-118-126-85 0-135 60-135 163V0H90" id="x"/><path fill="#666" d="M414-511h84v325C498-69 413 8 289 8S80-69 80-186v-325h84v311c0 81 36 133 125 133s125-52 125-133v-311" id="y"/><path fill="#666" d="M650-520c113 0 176 73 176 188V0h-84v-319c0-78-35-126-113-126-80 0-128 60-128 163V0h-84v-319c0-78-35-126-113-126-80 0-130 60-130 163V0H90v-511h73l7 80h4c27-52 74-89 153-89 74 0 127 33 154 89h4c27-52 79-89 165-89" id="z"/><path fill="#666" d="M332 9c-76 0-127-35-154-80h-4L163 0H90v-740h84v300h4c27-45 78-80 154-80 144 0 216 113 217 264C548-91 466 9 332 9zm-14-75c106 0 146-87 146-190 0-102-40-189-146-189-102 0-146 88-146 189 0 102 44 190 146 190" id="A"/><path fill="#666" d="M282 9C131 9 50-105 50-255c0-148 73-265 231-265 158 2 232 123 221 290H138c0 97 49 164 144 164 67 0 115-28 129-82h84C481-54 391 9 282 9zM139-300h276c0-81-43-145-134-145-96 0-139 65-142 145" id="B"/><path fill="#666" d="M90 0v-511h73l7 86h4c28-71 87-100 181-92v81c-128-12-181 52-181 188V0H90" id="C"/><path fill="#666" d="M370 9C154 9 60-150 60-350c0-201 94-359 310-359 215 0 310 158 310 359C680-150 585 9 370 9zm0-82c166 0 220-136 220-277s-54-277-220-277c-167 0-220 136-220 277S204-73 370-73" id="D"/><path fill="#666" d="M122 0v-441H31v-70h91v-89c-5-111 97-173 213-143v70c-66-16-129 3-129 73v89h124v70H206V0h-84" id="E"/><path fill="#666" d="M315 9C145 9 54-78 50-210h89c5 87 66 140 176 140 111 0 171-40 171-122 0-105-134-115-227-136-121-27-186-82-186-189 0-118 88-192 243-192 150 0 248 84 249 208h-89c-4-76-54-128-162-128-90 0-150 33-150 112 0 90 129 107 214 124 130 27 199 94 199 201C577-67 477 9 315 9" id="F"/><path fill="#666" d="M132-609c-39 0-58-23-58-59 0-35 19-58 58-58 38 0 58 23 58 58 0 36-20 59-58 59zM90 0v-511h84V0H90" id="G"/><path fill="#666" d="M283 238C152 238 68 163 65 65h81c4 49 43 101 137 101 98 0 142-61 142-138v-99h-4C394-26 343 9 267 9 123 9 51-104 50-255c1-165 83-265 217-265 76 0 127 35 154 80h4l11-71h73V30c0 117-80 208-226 208zm-2-304c102 0 146-88 146-189 0-102-44-190-146-190-106 0-146 87-146 190 0 102 40 189 146 189" id="H"/><path fill="#666" d="M228 9C117 9 50-60 50-149c0-86 61-160 211-160 54 0 94 9 126 18 7-94-13-152-118-157-75 0-112 42-113 91H75c0-98 82-163 194-163 131 0 200 79 200 176V0h-71l-6-72h-4C357-20 300 9 228 9zm15-70c96-3 152-69 144-163-42-13-81-18-126-18-83 0-126 32-126 92 0 51 34 89 108 89" id="I"/><path fill="#666" d="M260 9C159 9 125-43 125-128v-312H40v-71h87v-109c28-9 49-24 82-28v137h125v71H209v305c0 49 21 70 67 70 30 1 39-6 60-6V1c-16 4-44 8-76 8" id="J"/><path fill="#666" d="M259 9C138 9 53-57 50-169h84c0 68 52 103 125 103 72 0 117-24 117-73 0-69-115-80-180-92-84-16-130-68-130-143 0-85 73-146 186-146 115 0 197 63 197 165h-82c-3-65-51-94-115-94-62 0-105 25-105 75 0 68 106 73 169 87 96 21 145 60 145 148C461-45 369 9 259 9" id="K"/><g id="b"><use transform="matrix(0.022222222222222223,0,0,0.022222222222222223,0,0)" xlink:href="#x"/><use transform="matrix(0.022222222222222223,0,0,0.022222222222222223,13.133333333333335,0)" xlink:href="#y"/><use transform="matrix(0.022222222222222223,0,0,0.022222222222222223,25.977777777777785,0)" xlink:href="#z"/><use transform="matrix(0.022222222222222223,0,0,0.022222222222222223,46.111111111111114,0)" xlink:href="#A"/><use transform="matrix(0.022222222222222223,0,0,0.022222222222222223,59.422222222222224,0)" xlink:href="#B"/><use transform="matrix(0.022222222222222223,0,0,0.022222222222222223,71.6888888888889,0)" xlink:href="#C"/><use transform="matrix(0.022222222222222223,0,0,0.022222222222222223,80.35555555555557,0)" xlink:href="#D"/><use transform="matrix(0.022222222222222223,0,0,0.022222222222222223,96.8,0)" xlink:href="#E"/><use transform="matrix(0.022222222222222223,0,0,0.022222222222222223,105.02222222222224,0)" xlink:href="#F"/><use transform="matrix(0.022222222222222223,0,0,0.022222222222222223,119.06666666666669,0)" xlink:href="#G"/><use transform="matrix(0.022222222222222223,0,0,0.022222222222222223,124.71111111111114,0)" xlink:href="#H"/><use transform="matrix(0.022222222222222223,0,0,0.022222222222222223,137.8,0)" xlink:href="#x"/><use transform="matrix(0.022222222222222223,0,0,0.022222222222222223,150.93333333333334,0)" xlink:href="#I"/><use transform="matrix(0.022222222222222223,0,0,0.022222222222222223,163.13333333333333,0)" xlink:href="#J"/><use transform="matrix(0.022222222222222223,0,0,0.022222222222222223,171.6,0)" xlink:href="#y"/><use transform="matrix(0.022222222222222223,0,0,0.022222222222222223,184.4444444444444,0)" xlink:href="#C"/><use transform="matrix(0.022222222222222223,0,0,0.022222222222222223,192.66666666666663,0)" xlink:href="#B"/><use transform="matrix(0.022222222222222223,0,0,0.022222222222222223,204.9333333333333,0)" xlink:href="#K"/></g><path fill="#666" d="M119-351c-39 0-59-25-59-61 0-35 20-60 59-60 38 0 59 25 59 60 0 36-21 61-59 61zm0 360C80 9 60-16 60-52c0-35 20-60 59-60 38 0 59 25 59 60 0 36-21 61-59 61" id="L"/><use transform="matrix(0.022222222222222223,0,0,0.022222222222222223,0,0)" xlink:href="#L" id="c"/><path fill="#666" d="M100 0v-700h88V0h-88" id="M"/><g id="d"><use transform="matrix(0.022222222222222223,0,0,0.022222222222222223,0,0)" xlink:href="#M"/><use transform="matrix(0.022222222222222223,0,0,0.022222222222222223,6.4,0)" xlink:href="#x"/><use transform="matrix(0.022222222222222223,0,0,0.022222222222222223,19.533333333333335,0)" xlink:href="#J"/><use transform="matrix(0.022222222222222223,0,0,0.022222222222222223,28,0)" xlink:href="#B"/><use transform="matrix(0.022222222222222223,0,0,0.022222222222222223,40.266666666666666,0)" xlink:href="#H"/><use transform="matrix(0.022222222222222223,0,0,0.022222222222222223,53.355555555555554,0)" xlink:href="#B"/><use transform="matrix(0.022222222222222223,0,0,0.022222222222222223,65.62222222222222,0)" xlink:href="#C"/></g><path fill="#666" d="M267 9C133 9 51-91 50-256c1-151 73-264 217-264 76 0 127 35 154 80h4v-300h84V0h-73l-11-71h-4C394-26 343 9 267 9zm14-75c102 0 146-88 146-190 0-101-44-189-146-189-106 0-146 87-146 189 0 103 40 190 146 190" id="N"/><path fill="#666" d="M281 9C121 9 50-108 50-255s73-265 231-265 231 118 231 265C512-109 441 9 281 9zm0-75c104 0 146-79 146-189s-42-190-146-190-146 81-146 190c0 110 43 189 146 189" id="O"/><path fill="#666" d="M139 229v-10c28-75 61-150 86-225L20-501v-10h90l155 401h4l150-401h88v10L224 229h-85" id="P"/><path fill="#666" d="M297-369L621-10V0H516L187-364V0h-87v-700h87v326l320-326h104v10" id="Q"/><g id="e"><use transform="matrix(0.022222222222222223,0,0,0.022222222222222223,0,0)" xlink:href="#z"/><use transform="matrix(0.022222222222222223,0,0,0.022222222222222223,20.133333333333333,0)" xlink:href="#I"/><use transform="matrix(0.022222222222222223,0,0,0.022222222222222223,32.333333333333336,0)" xlink:href="#x"/><use transform="matrix(0.022222222222222223,0,0,0.022222222222222223,45.46666666666667,0)" xlink:href="#N"/><use transform="matrix(0.022222222222222223,0,0,0.022222222222222223,58.55555555555556,0)" xlink:href="#I"/><use transform="matrix(0.022222222222222223,0,0,0.022222222222222223,70.75555555555556,0)" xlink:href="#J"/><use transform="matrix(0.022222222222222223,0,0,0.022222222222222223,79.22222222222223,0)" xlink:href="#O"/><use transform="matrix(0.022222222222222223,0,0,0.022222222222222223,91.71111111111111,0)" xlink:href="#C"/><use transform="matrix(0.022222222222222223,0,0,0.022222222222222223,100.60000000000002,0)" xlink:href="#P"/><use transform="matrix(0.022222222222222223,0,0,0.022222222222222223,112.31111111111113,0)" xlink:href="#Q"/><use transform="matrix(0.022222222222222223,0,0,0.022222222222222223,125.88888888888891,0)" xlink:href="#B"/><use transform="matrix(0.022222222222222223,0,0,0.022222222222222223,137.93333333333337,0)" xlink:href="#P"/><use transform="matrix(0.022222222222222223,0,0,0.022222222222222223,149.64444444444447,0)" xlink:href="#K"/></g><path fill="#666" d="M100 0v-700h281c118 0 204 67 204 182 0 76-36 120-88 143v4c54 22 114 70 114 169C611-74 525 0 388 0H100zm86-400c139-3 315 31 310-118 0-66-45-104-125-104H186v222zm0 321h192c83 0 143-43 143-123 0-82-54-122-143-122H186v245" id="R"/><g id="f"><use transform="matrix(0.022222222222222223,0,0,0.022222222222222223,0,0)" xlink:href="#R"/><use transform="matrix(0.022222222222222223,0,0,0.022222222222222223,14.8,0)" xlink:href="#P"/><use transform="matrix(0.022222222222222223,0,0,0.022222222222222223,26.955555555555556,0)" xlink:href="#J"/><use transform="matrix(0.022222222222222223,0,0,0.022222222222222223,35.422222222222224,0)" xlink:href="#B"/><use transform="matrix(0.022222222222222223,0,0,0.022222222222222223,47.68888888888889,0)" xlink:href="#K"/></g><path fill="#666" d="M50 158v-908h202v64H124V95h131v63H50" id="S"/><path fill="#666" d="M90 158V95h131v-781H93v-64h202v908H90" id="T"/><g id="g"><use transform="matrix(0.022222222222222223,0,0,0.022222222222222223,0,0)" xlink:href="#S"/><use transform="matrix(0.022222222222222223,0,0,0.022222222222222223,7.666666666666667,0)" xlink:href="#T"/></g><path fill="#666" d="M90 229v-740h73l11 71h4c27-45 78-80 154-80 134 0 216 100 217 265C548-104 476 9 332 9c-76 0-127-35-154-80h-4v300H90zM318-66c106 0 146-87 146-189 0-103-40-190-146-190-102 0-146 88-146 190 0 101 44 189 146 189" id="U"/><path fill="#666" d="M90 0v-740h84V0H90" id="V"/><g id="h"><use transform="matrix(0.022222222222222223,0,0,0.022222222222222223,0,0)" xlink:href="#O"/><use transform="matrix(0.022222222222222223,0,0,0.022222222222222223,12.488888888888889,0)" xlink:href="#U"/><use transform="matrix(0.022222222222222223,0,0,0.022222222222222223,25.8,0)" xlink:href="#J"/><use transform="matrix(0.022222222222222223,0,0,0.022222222222222223,34.266666666666666,0)" xlink:href="#G"/><use transform="matrix(0.022222222222222223,0,0,0.022222222222222223,39.91111111111111,0)" xlink:href="#O"/><use transform="matrix(0.022222222222222223,0,0,0.022222222222222223,52.4,0)" xlink:href="#x"/><use transform="matrix(0.022222222222222223,0,0,0.022222222222222223,65.53333333333333,0)" xlink:href="#I"/><use transform="matrix(0.022222222222222223,0,0,0.022222222222222223,77.73333333333333,0)" xlink:href="#V"/><use transform="matrix(0.022222222222222223,0,0,0.022222222222222223,83.37777777777778,0)" xlink:href="#Q"/><use transform="matrix(0.022222222222222223,0,0,0.022222222222222223,96.95555555555556,0)" xlink:href="#B"/><use transform="matrix(0.022222222222222223,0,0,0.022222222222222223,109,0)" xlink:href="#P"/><use transform="matrix(0.022222222222222223,0,0,0.022222222222222223,120.71111111111112,0)" xlink:href="#K"/></g><g id="i"><use transform="matrix(0.022222222222222223,0,0,0.022222222222222223,0,0)" xlink:href="#S"/><use transform="matrix(0.022222222222222223,0,0,0.022222222222222223,7.666666666666667,0)" xlink:href="#T"/></g></defs></g></svg>