<svg xmlns="http://www.w3.org/2000/svg" xmlns:xlink="http://www.w3.org/1999/xlink" xmlns:lucid="lucid" width="360" height="161"><g transform="translate(0 0)" lucid:page-tab-id="0_0"><path d="M20 20h320v40H20z" stroke="#000" stroke-width="2" fill="#c5cfe4"/><use xlink:href="#a" transform="matrix(1,0,0,1,20,20) translate(101.28888888888889 28.61111111111111)"/><path d="M20 60h320v80H20z" stroke="#000" stroke-width="2" fill="#f7f9fd"/><use xlink:href="#b" transform="matrix(1,0,0,1,25,65) translate(3 42.986111111111114)"/><use xlink:href="#c" transform="matrix(1,0,0,1,25,65) translate(88.93333333333335 42.986111111111114)"/><use xlink:href="#d" transform="matrix(1,0,0,1,25,65) translate(100.88888888888891 42.986111111111114)"/><defs><path d="M50 0v-523h128l12 76h4c27-55 81-94 170-85v141c-106-11-170 29-170 133V0H50" id="e"/><path d="M284 9C119 9 25-111 25-261c0-148 86-271 256-271 180 0 265 131 250 312H182c1 61 32 104 102 104 57 0 82-28 91-52h149C510-74 427 9 284 9zM183-317h191c-3-50-32-89-93-89-66 0-95 39-98 89" id="f"/><path d="M288 9C121 9 25-103 25-262c0-158 92-270 259-270 155 0 235 94 242 215H371c-5-46-37-80-87-80-65 0-102 41-102 135 0 95 37 136 102 136 50 0 82-34 87-80h155C519-85 440 9 288 9" id="g"/><path d="M50 0v-740h154V0H50" id="h"/><path d="M208 9C90 9 25-62 25-155c0-97 66-161 210-161 39 0 91 8 112 15 4-67-3-104-80-107-48 0-76 26-76 58H47c0-98 71-182 225-182 143 0 229 79 229 188V0H363l-11-47h-4C319-14 273 9 208 9zm39-120c65-1 102-37 100-85-54-26-171-27-170 33 0 30 24 52 70 52" id="i"/><path d="M128-576c-61 0-93-34-93-90 0-55 32-89 93-89 59 0 93 34 93 89 0 56-34 90-93 90zM50 0v-523h154V0H50" id="j"/><path d="M662-532c116 0 194 72 194 188V0H702v-296c0-60-21-96-82-96-55 0-87 40-87 102V0H381v-296c0-60-21-96-82-96-55 0-95 39-95 102V0H50v-523h138l12 50h4c29-34 75-59 143-59 71 0 125 25 156 71h3c27-34 78-71 156-71" id="k"/><path d="M70 0v-700h157v560h318V0H70" id="l"/><path d="M315 9C128 9 29-89 20-240h159c7 76 60 110 136 110 96 0 131-30 131-72 0-72-123-81-187-96-121-28-216-76-216-210 0-118 108-201 273-201 160 0 278 94 279 228H436c-4-46-39-88-122-88-82 0-110 32-110 61 0 27 14 52 79 65 156 30 329 63 324 237C607-81 525 9 315 9" id="m"/><path d="M353-364L666-10V0H480L227-290V0H70v-700h157v265l243-265h184v10" id="n"/><g id="a"><use transform="matrix(0.022222222222222223,0,0,0.022222222222222223,0,0)" xlink:href="#e"/><use transform="matrix(0.022222222222222223,0,0,0.022222222222222223,8.644444444444444,0)" xlink:href="#f"/><use transform="matrix(0.022222222222222223,0,0,0.022222222222222223,21,0)" xlink:href="#g"/><use transform="matrix(0.022222222222222223,0,0,0.022222222222222223,33.24444444444445,0)" xlink:href="#h"/><use transform="matrix(0.022222222222222223,0,0,0.022222222222222223,38.66666666666667,0)" xlink:href="#i"/><use transform="matrix(0.022222222222222223,0,0,0.022222222222222223,50.688888888888904,0)" xlink:href="#j"/><use transform="matrix(0.022222222222222223,0,0,0.022222222222222223,56.11111111111112,0)" xlink:href="#k"/><use transform="matrix(0.022222222222222223,0,0,0.022222222222222223,76.02222222222224,0)" xlink:href="#l"/><use transform="matrix(0.022222222222222223,0,0,0.022222222222222223,88.35555555555557,0)" xlink:href="#m"/><use transform="matrix(0.022222222222222223,0,0,0.022222222222222223,102.4,0)" xlink:href="#n"/></g><path fill="#666" d="M228 9C117 9 50-60 50-149c0-86 61-160 211-160 54 0 94 9 126 18 7-94-13-152-118-157-75 0-112 42-113 91H75c0-98 82-163 194-163 131 0 200 79 200 176V0h-71l-6-72h-4C357-20 300 9 228 9zm15-70c96-3 152-69 144-163-42-13-81-18-126-18-83 0-126 32-126 92 0 51 34 89 108 89" id="o"/><path fill="#666" d="M650-520c113 0 176 73 176 188V0h-84v-319c0-78-35-126-113-126-80 0-128 60-128 163V0h-84v-319c0-78-35-126-113-126-80 0-130 60-130 163V0H90v-511h73l7 80h4c27-52 74-89 153-89 74 0 127 33 154 89h4c27-52 79-89 165-89" id="p"/><path fill="#666" d="M281 9C121 9 50-108 50-255s73-265 231-265 231 118 231 265C512-109 441 9 281 9zm0-75c104 0 146-79 146-189s-42-190-146-190-146 81-146 190c0 110 43 189 146 189" id="q"/><path fill="#666" d="M414-511h84v325C498-69 413 8 289 8S80-69 80-186v-325h84v311c0 81 36 133 125 133s125-52 125-133v-311" id="r"/><path fill="#666" d="M90 0v-511h73l7 80h4c27-52 79-89 158-89 113 0 179 71 179 188V0h-84v-319c0-80-37-126-118-126-85 0-135 60-135 163V0H90" id="s"/><path fill="#666" d="M260 9C159 9 125-43 125-128v-312H40v-71h87v-109c28-9 49-24 82-28v137h125v71H209v305c0 49 21 70 67 70 30 1 39-6 60-6V1c-16 4-44 8-76 8" id="t"/><g id="b"><use transform="matrix(0.022222222222222223,0,0,0.022222222222222223,0,0)" xlink:href="#o"/><use transform="matrix(0.022222222222222223,0,0,0.022222222222222223,12.200000000000001,0)" xlink:href="#p"/><use transform="matrix(0.022222222222222223,0,0,0.022222222222222223,32.333333333333336,0)" xlink:href="#q"/><use transform="matrix(0.022222222222222223,0,0,0.022222222222222223,44.82222222222222,0)" xlink:href="#r"/><use transform="matrix(0.022222222222222223,0,0,0.022222222222222223,57.66666666666667,0)" xlink:href="#s"/><use transform="matrix(0.022222222222222223,0,0,0.022222222222222223,70.80000000000001,0)" xlink:href="#t"/></g><path fill="#666" d="M119-351c-39 0-59-25-59-61 0-35 20-60 59-60 38 0 59 25 59 60 0 36-21 61-59 61zm0 360C80 9 60-16 60-52c0-35 20-60 59-60 38 0 59 25 59 60 0 36-21 61-59 61" id="u"/><use transform="matrix(0.022222222222222223,0,0,0.022222222222222223,0,0)" xlink:href="#u" id="c"/><path fill="#666" d="M100 0v-700h88V0h-88" id="v"/><path fill="#666" d="M282 9C131 9 50-105 50-255c0-148 73-265 231-265 158 2 232 123 221 290H138c0 97 49 164 144 164 67 0 115-28 129-82h84C481-54 391 9 282 9zM139-300h276c0-81-43-145-134-145-96 0-139 65-142 145" id="w"/><path fill="#666" d="M283 238C152 238 68 163 65 65h81c4 49 43 101 137 101 98 0 142-61 142-138v-99h-4C394-26 343 9 267 9 123 9 51-104 50-255c1-165 83-265 217-265 76 0 127 35 154 80h4l11-71h73V30c0 117-80 208-226 208zm-2-304c102 0 146-88 146-189 0-102-44-190-146-190-106 0-146 87-146 190 0 102 40 189 146 189" id="x"/><path fill="#666" d="M90 0v-511h73l7 86h4c28-71 87-100 181-92v81c-128-12-181 52-181 188V0H90" id="y"/><g id="d"><use transform="matrix(0.022222222222222223,0,0,0.022222222222222223,0,0)" xlink:href="#v"/><use transform="matrix(0.022222222222222223,0,0,0.022222222222222223,6.4,0)" xlink:href="#s"/><use transform="matrix(0.022222222222222223,0,0,0.022222222222222223,19.533333333333335,0)" xlink:href="#t"/><use transform="matrix(0.022222222222222223,0,0,0.022222222222222223,28,0)" xlink:href="#w"/><use transform="matrix(0.022222222222222223,0,0,0.022222222222222223,40.266666666666666,0)" xlink:href="#x"/><use transform="matrix(0.022222222222222223,0,0,0.022222222222222223,53.355555555555554,0)" xlink:href="#w"/><use transform="matrix(0.022222222222222223,0,0,0.022222222222222223,65.62222222222222,0)" xlink:href="#y"/></g></defs></g></svg>