<?xml version="1.0" encoding="UTF-8"?>
<svg width="16px" height="14px" viewBox="0 0 16 14" version="1.1" xmlns="http://www.w3.org/2000/svg" xmlns:xlink="http://www.w3.org/1999/xlink">
    <!-- Generator: sketchtool 58 (101010) - https://sketch.com -->
    <title>D233DAD2-1350-4DCB-8633-0791D63A17D6</title>
    <desc>Created with sketchtool.</desc>
    <g id="Page-1" stroke="none" stroke-width="1" fill="none" fill-rule="evenodd" opacity="0.64">
        <g id="Lisk-Documentation-Page---" transform="translate(-1270.000000, -2098.000000)">
            <g id="o-footer/desktop" transform="translate(0.000000, 1329.000000)">
                <g id="Footer">
                    <g id="Group-17" transform="translate(1059.000000, 766.000000)">
                        <g id="Stacked-Group" transform="translate(131.000000, 2.000000)">
                            <g id="a-icon-sm/reddit/type-blue/16x16" transform="translate(80.000000, 0.000000)">
                                <rect id="Rectangle" fill-opacity="0" fill="#FFFFFF" x="0" y="0" width="16" height="16"></rect>
                                <g id="Group-4">
                                    <rect id="Rectangle" fill-opacity="0.217493444" fill="#FFFFFF" opacity="0" x="0" y="0" width="16" height="16"></rect>
                                    <path d="M16,7.79411765 C16,6.66176471 15.1,5.83823529 14.1,5.83823529 C13.6,5.83823529 13.2,6.04411765 12.9,6.25 C11.7,5.52941176 10.2,5.01470588 8.6,4.91176471 L9.4,2.23529412 L11.7,2.75 C11.8,3.57352941 12.5,4.29411765 13.3,4.29411765 C14.2,4.29411765 14.9,3.57352941 14.9,2.64705882 C14.9,1.72058824 14.2,1 13.3,1 C12.7,1 12.1,1.41176471 11.9,1.92647059 L9.2,1.20588235 C9,1.20588235 8.8,1.30882353 8.7,1.51470588 L7.7,4.91176471 C6,4.91176471 4.4,5.42647059 3.1,6.14705882 C2.8,5.94117647 2.4,5.73529412 1.9,5.73529412 C0.9,5.73529412 0,6.66176471 0,7.79411765 C0,8.51470588 0.3,9.02941176 0.8,9.44117647 C0.8,9.64705882 0.8,9.75 0.8,9.95588235 C0.8,11.2941176 1.6,12.6323529 3,13.5588235 C4.3,14.4852941 6.1,15 8,15 C9.9,15 11.7,14.4852941 13,13.5588235 C14.4,12.6323529 15.2,11.3970588 15.2,9.95588235 C15.2,9.85294118 15.2,9.64705882 15.2,9.54411765 C15.6,9.02941176 16,8.41176471 16,7.79411765 Z M4.5,8.92647059 C4.5,8.30882353 5,7.79411765 5.6,7.79411765 C6.2,7.79411765 6.7,8.30882353 6.7,8.92647059 C6.7,9.54411765 6.2,10.0588235 5.6,10.0588235 C5,10.0588235 4.5,9.54411765 4.5,8.92647059 Z M10.6,12.2205882 C10,12.8382353 9.2,13.0441176 8,13.0441176 C8,13.0441176 8,13.0441176 8,13.0441176 C8,13.0441176 8,13.0441176 8,13.0441176 C6.8,13.0441176 5.9,12.7352941 5.4,12.2205882 C5.2,12.0147059 5.2,11.8088235 5.4,11.6029412 C5.6,11.3970588 5.8,11.3970588 6,11.6029412 C6.4,12.0147059 7,12.2205882 8,12.2205882 C8,12.2205882 8,12.2205882 8,12.2205882 C8,12.2205882 8,12.2205882 8,12.2205882 C9,12.2205882 9.6,12.0147059 10,11.6029412 C10.2,11.3970588 10.4,11.3970588 10.6,11.6029412 C10.8,11.8088235 10.8,12.1176471 10.6,12.2205882 Z M10.4,10.0588235 C9.8,10.0588235 9.3,9.54411765 9.3,8.92647059 C9.3,8.30882353 9.8,7.79411765 10.4,7.79411765 C11,7.79411765 11.5,8.30882353 11.5,8.92647059 C11.5,9.54411765 11,10.0588235 10.4,10.0588235 Z" id="Shape" fill="#C2D2FF" fill-rule="nonzero"></path>
                                </g>
                            </g>
                        </g>
                    </g>
                </g>
            </g>
        </g>
    </g>
</svg>