<?xml version="1.0" encoding="UTF-8"?>
<svg width="16px" height="16px" viewBox="0 0 16 16" version="1.1" xmlns="http://www.w3.org/2000/svg" xmlns:xlink="http://www.w3.org/1999/xlink">
    <!-- Generator: sketchtool 58 (101010) - https://sketch.com -->
    <title>6C5D2B4A-03FD-41A0-8E2D-49DDD6651E75</title>
    <desc>Created with sketchtool.</desc>
    <g id="Page-1" stroke="none" stroke-width="1" fill="none" fill-rule="evenodd" opacity="0.64">
        <g id="Lisk-Documentation-Page---" transform="translate(-1190.000000, -2097.000000)">
            <g id="o-footer/desktop" transform="translate(0.000000, 1329.000000)">
                <g id="Footer">
                    <g id="Group-17" transform="translate(1059.000000, 766.000000)">
                        <g id="Stacked-Group" transform="translate(131.000000, 2.000000)">
                            <g id="a-icon-sm/github/type-blue/16x16">
                                <rect id="Rectangle" fill-opacity="0" fill="#FFFFFF" x="0" y="0" width="16" height="16"></rect>
                                <g id="Group-2">
                                    <rect id="Rectangle" fill-opacity="0.217493444" fill="#FFFFFF" opacity="0" x="0" y="0" width="16" height="16"></rect>
                                    <path d="M7.95031056,0 C3.57763975,0 0,3.68761237 0,8.19469416 C0,11.7798729 2.28571429,14.8528832 5.46583851,15.9796536 C5.86335404,16.0820873 5.96273292,15.7747863 5.96273292,15.5699189 C5.96273292,15.3650516 5.96273292,14.8528832 5.96273292,14.1358474 C3.77639752,14.6480158 3.27950311,13.1115107 3.27950311,13.1115107 C2.88198758,12.1896076 2.38509317,11.8823065 2.38509317,11.8823065 C1.68944099,11.3701382 2.48447205,11.3701382 2.48447205,11.3701382 C3.27950311,11.4725718 3.67701863,12.1896076 3.67701863,12.1896076 C4.37267081,13.5212454 5.56521739,13.1115107 5.96273292,12.9066433 C6.0621118,12.3944749 6.26086957,11.9847402 6.45962733,11.7798729 C4.67080745,11.5750055 2.88198758,10.8579698 2.88198758,7.68252578 C2.88198758,6.76062268 3.18012422,6.04358695 3.67701863,5.53141856 C3.57763975,5.32655121 3.27950311,4.50708179 3.77639752,3.38031134 C3.77639752,3.38031134 4.47204969,3.17544399 5.96273292,4.19978076 C6.55900621,3.9949134 7.25465839,3.89247973 7.95031056,3.89247973 C8.64596273,3.89247973 9.34161491,3.9949134 9.9378882,4.19978076 C11.4285714,3.17544399 12.1242236,3.38031134 12.1242236,3.38031134 C12.5217391,4.50708179 12.3229814,5.32655121 12.2236025,5.53141856 C12.7204969,6.14602062 13.0186335,6.86305636 13.0186335,7.68252578 C13.0186335,10.8579698 11.1304348,11.4725718 9.34161491,11.6774392 C9.63975155,12.0871739 9.9378882,12.5993423 9.9378882,13.316378 C9.9378882,14.4431485 9.9378882,15.2626179 9.9378882,15.5699189 C9.9378882,15.7747863 10.0372671,16.0820873 10.5341615,15.9796536 C13.7142857,14.8528832 16,11.7798729 16,8.19469416 C15.9006211,3.68761237 12.3229814,0 7.95031056,0 Z" id="Path" fill="#C2D2FF"></path>
                                </g>
                            </g>
                        </g>
                    </g>
                </g>
            </g>
        </g>
    </g>
</svg>