<?xml version="1.0" encoding="UTF-8"?>
<svg width="86px" height="35px" viewBox="0 0 86 35" version="1.1" xmlns="http://www.w3.org/2000/svg" xmlns:xlink="http://www.w3.org/1999/xlink">
    <!-- Generator: sketchtool 58 (101010) - https://sketch.com -->
    <title>36C9A396-0E4F-4D3A-9B76-63E5A832EF3E</title>
    <desc>Created with sketchtool.</desc>
    <g id="Page-1" stroke="none" stroke-width="1" fill="none" fill-rule="evenodd">
        <g id="Lisk-Documentation-Page---" transform="translate(-260.000000, -1399.000000)" fill="#FFFFFF" fill-rule="nonzero">
            <g id="o-footer/desktop" transform="translate(0.000000, 1329.000000)">
                <g id="Footer">
                    <g id="a-lisklogo/white/h35" transform="translate(260.000000, 70.000000)">
                        <path d="M11.1247281,34.9230206 C11.1000476,34.9486804 11.0506866,34.9743402 11.0260062,35 L8.26179195,35 C8.21243099,35 8.18775051,34.9743402 8.16307003,34.9486804 L0.0185103629,25.4288857 C-0.00617012096,25.377566 -0.00617012096,25.3262463 0.0185103629,25.2749267 L10.1621893,7.15909092 C10.2115502,7.08211143 10.3349526,7.08211143 10.3843136,7.15909092 L13.2225692,12.2397361 C13.2472497,12.2653959 13.2472497,12.3167155 13.2225692,12.3680352 L6.36139471,24.6077713 C6.33671422,24.6590909 6.36139471,24.7104106 6.38607519,24.7617303 L10.4830355,29.5344575 C10.507716,29.5601173 10.5570769,29.5857771 10.5817574,29.5857771 L15.4191323,29.5857771 C15.5425347,29.5857771 15.5918957,29.7140763 15.5178542,29.7910557 L11.1247281,34.9230206 Z M14.1357471,0.0769794721 C14.1851081,-0.025659824 14.3085105,-0.025659824 14.333191,0.0769794721 L28.4751082,25.2236071 C28.4997887,25.2749267 28.4751082,25.3262463 28.4504277,25.377566 L20.3058681,34.8973607 C20.2811876,34.9230206 20.2318266,34.9486804 20.2071461,34.9486804 L13.5927765,34.9486804 C13.469374,34.9486804 13.4200131,34.8203812 13.4940545,34.7434018 L17.9118611,29.5601173 L22.0581825,24.7360704 C22.1075434,24.6847508 22.1075434,24.6334311 22.0828629,24.5821114 L14.2344691,10.5718475 L11.272811,5.28592376 C11.2481305,5.26026393 11.2481305,5.20894428 11.272811,5.15762464 L14.1357471,0.0769794721 Z M40.6672673,27.8409091 C40.6672673,27.9178886 40.7413087,27.9692082 40.7906697,27.9692082 L47.849288,27.9692082 C47.9233295,27.9692082 47.9726905,28.0205279 47.9726905,28.0975073 L47.9726905,33.101173 C47.9726905,33.1781525 47.9233295,33.2294722 47.849288,33.2294722 L40.6672673,33.2294722 L35.755851,33.2294722 C35.6818095,33.2294722 35.6324486,33.1781525 35.6324486,33.101173 L35.6324486,17.0894428 C35.6324486,17.063783 35.6324486,17.0381232 35.657129,17.0124633 L40.4451429,11.4442815 C40.5191843,11.3416422 40.6672673,11.3929619 40.6672673,11.521261 L40.6672673,27.8409091 Z M54.9325869,33.101173 C54.9325869,33.1524927 54.8832259,33.2294722 54.8091845,33.2294722 L50.0211706,33.2294722 C49.9471292,33.2294722 49.8977682,33.1781525 49.8977682,33.101173 L49.8977682,23.3760997 C49.8977682,23.3504399 49.8977682,23.3247801 49.9224487,23.2991202 L54.7104626,17.7309385 C54.784504,17.6282991 54.9325869,17.6796188 54.9325869,17.8079179 L54.9325869,33.101173 Z M80.8470946,25.4288857 L85.9806356,33.0241936 C86.0299963,33.101173 85.9806356,33.2294722 85.8819135,33.2294722 L80.5509291,33.2294722 C80.5262488,33.2294722 80.4768874,33.2038124 80.452207,33.1781525 L76.4292884,26.8914956 C76.3552467,26.7888564 76.2071639,26.840176 76.2071639,26.9684751 L76.2071639,27.9692082 L76.2071639,33.101173 C76.2071639,33.1781525 76.1578032,33.2294722 76.0837615,33.2294722 L71.2957474,33.2294722 C71.2217064,33.2294722 71.172345,33.1781525 71.172345,33.101173 L71.172345,17.063783 C71.172345,17.0381232 71.172345,17.0124633 71.197026,16.9868036 L75.9850395,11.4186217 C76.0590812,11.3159824 76.2071639,11.3673021 76.2071639,11.4956012 L76.2071639,23.5557185 C76.2071639,23.6840176 76.3552467,23.7353373 76.4292884,23.632698 L80.0573195,17.5256599 C80.0819998,17.5 80.1066802,17.4743402 80.1560415,17.4743402 L85.6597891,17.4743402 C85.7585111,17.4743402 85.8078725,17.6026393 85.7585111,17.6796188 L80.8470946,25.2749267 C80.8224143,25.3262463 80.8224143,25.377566 80.8470946,25.4288857 Z M63.0524661,33.53739 C59.7946422,33.53739 57.6474401,32.4083578 56.5368184,30.0733138 C56.4874574,29.9963344 56.5121379,29.9193549 56.5861793,29.893695 L60.5103763,27.8409091 C60.5844177,27.8152493 60.6584591,27.8409091 60.6831396,27.9178886 C61.1027079,28.9442816 61.9171638,29.457478 63.0524661,29.457478 C64.2864903,29.457478 64.5332951,28.9186217 64.5332951,28.4824047 C64.5332951,27.8152493 63.6201172,27.558651 62.336732,27.2250734 C60.140169,26.6348974 57.12915,25.8394428 57.12915,22.3240469 C57.12915,19.7580646 58.9801862,17.1664223 63.0524661,17.1920821 C65.866041,17.1920821 67.8898408,18.3211144 69.0498238,20.5278592 C69.0991845,20.6048387 69.0745041,20.6818182 69.0004624,20.707478 L65.1996682,22.4780059 C65.1503075,22.5036657 65.0762658,22.4780059 65.0515855,22.4266862 C64.6073366,21.6312317 63.965644,21.2206745 63.1758685,21.2206745 C62.4107735,21.2206745 61.9418443,21.5542523 61.9418443,22.0931085 C61.9418443,22.7859238 62.9290637,23.0168622 64.1630878,23.3247801 C66.4090119,23.8636364 69.4693917,24.5821114 69.4693917,28.3797654 C69.4693917,32.1774194 66.1622071,33.53739 63.0524661,33.53739 Z" id="Shape"></path>
                    </g>
                </g>
            </g>
        </g>
    </g>
</svg>