<?xml version="1.0" encoding="UTF-8"?>
<svg width="16px" height="16px" viewBox="0 0 16 16" version="1.1" xmlns="http://www.w3.org/2000/svg" xmlns:xlink="http://www.w3.org/1999/xlink">
    <!-- Generator: Sketch 52.6 (67491) - http://www.bohemiancoding.com/sketch -->
    <title>Artboard</title>
    <desc>Created with Sketch.</desc>
    <g id="Artboard" stroke="none" stroke-width="1" fill="none" fill-rule="evenodd">
        <g id="icons8-discord" transform="translate(0.000000, 1.920018)" fill="#C2D2FF" fill-rule="nonzero">
            <path d="M13.8181818,1.45454545 C13.8181818,1.45454545 12.1509091,0.149818182 10.1818182,0 L10.0043636,0.354909091 C11.7847273,0.790545455 12.6014545,1.41490909 13.4545455,2.18181818 C11.9836364,1.43090909 10.5312727,0.727272727 8,0.727272727 C5.46872727,0.727272727 4.01636364,1.43090909 2.54545455,2.18181818 C3.39854545,1.41490909 4.37018182,0.721818182 5.99563636,0.354909091 L5.81818182,0 C3.75236364,0.195272727 2.18181818,1.45454545 2.18181818,1.45454545 C2.18181818,1.45454545 0.319636364,4.15454545 0,9.45454545 C1.87709091,11.6192727 4.72727273,11.6363636 4.72727273,11.6363636 L5.32327273,10.8418182 C4.31163636,10.4901818 3.16909091,9.86218182 2.18181818,8.72727273 C3.35927273,9.61818182 5.13636364,10.5454545 8,10.5454545 C10.8636364,10.5454545 12.6407273,9.61818182 13.8181818,8.72727273 C12.8309091,9.86218182 11.6883636,10.4901818 10.6767273,10.8418182 L11.2727273,11.6363636 C11.2727273,11.6363636 14.1229091,11.6192727 16,9.45454545 C15.6803636,4.15454545 13.8181818,1.45454545 13.8181818,1.45454545 Z M5.63636364,8 C4.93345455,8 4.36363636,7.34872727 4.36363636,6.54545455 C4.36363636,5.74218182 4.93345455,5.09090909 5.63636364,5.09090909 C6.33927273,5.09090909 6.90909091,5.74218182 6.90909091,6.54545455 C6.90909091,7.34872727 6.33927273,8 5.63636364,8 Z M10.3636364,8 C9.66072727,8 9.09090909,7.34872727 9.09090909,6.54545455 C9.09090909,5.74218182 9.66072727,5.09090909 10.3636364,5.09090909 C11.0665455,5.09090909 11.6363636,5.74218182 11.6363636,6.54545455 C11.6363636,7.34872727 11.0665455,8 10.3636364,8 Z" id="Shape"></path>
        </g>
    </g>
</svg>