<?xml version="1.0" encoding="UTF-8"?>
<svg width="16px" height="13px" viewBox="0 0 16 13" version="1.1" xmlns="http://www.w3.org/2000/svg" xmlns:xlink="http://www.w3.org/1999/xlink">
    <!-- Generator: sketchtool 58 (101010) - https://sketch.com -->
    <title>8795B040-6B25-4CFD-96B6-BB335AC528CD</title>
    <desc>Created with sketchtool.</desc>
    <g id="Page-1" stroke="none" stroke-width="1" fill="none" fill-rule="evenodd" opacity="0.64">
        <g id="Lisk-Documentation-Page---" transform="translate(-1350.000000, -2099.000000)">
            <g id="o-footer/desktop" transform="translate(0.000000, 1329.000000)">
                <g id="Footer">
                    <g id="Group-17" transform="translate(1059.000000, 766.000000)">
                        <g id="Stacked-Group" transform="translate(131.000000, 2.000000)">
                            <g id="a-icon-sm/twitter/type-blue/16x16" transform="translate(160.000000, 0.000000)">
                                <rect id="Rectangle" fill-opacity="0" fill="#FFFFFF" x="0" y="0" width="16" height="16"></rect>
                                <g id="Group-6">
                                    <rect id="Rectangle" fill-opacity="0.217493444" fill="#FFFFFF" opacity="0" x="0" y="0" width="16" height="16"></rect>
                                    <path d="M16,3.55 C15.4018692,3.8 14.8037383,4 14.105919,4.05 C14.8037383,3.65 15.3021807,3 15.5514019,2.25 C14.9034268,2.65 14.2056075,2.9 13.4579439,3.05 C12.8598131,2.4 12.0124611,2 11.1152648,2 C9.32087227,2 7.82554517,3.45 7.82554517,5.3 C7.82554517,5.55 7.87538941,5.8 7.92523364,6.05 C5.18380062,5.9 2.79127726,4.6 1.14641745,2.6 C0.847352025,3.1 0.697819315,3.65 0.697819315,4.25 C0.697819315,5.4 1.29595016,6.4 2.14330218,7 C1.59501558,7 1.09657321,6.85 0.647975078,6.6 C0.647975078,6.6 0.647975078,6.65 0.647975078,6.65 C0.647975078,8.25 1.79439252,9.55 3.28971963,9.85 C2.99065421,9.9 2.74143302,9.95 2.4423676,9.95 C2.24299065,9.95 2.04361371,9.95 1.84423676,9.9 C2.24299065,11.2 3.48909657,12.15 4.8847352,12.2 C3.78816199,13.1 2.34267913,13.6 0.797507788,13.6 C0.548286604,13.6 0.249221184,13.6 0,13.55 C1.4953271,14.45 3.23987539,15 5.08411215,15 C11.1152648,15 14.4049844,10 14.4049844,5.65 C14.4049844,5.5 14.4049844,5.35 14.4049844,5.25 C15.0031153,4.75 15.5514019,4.2 16,3.55 Z" id="Path" fill="#C2D2FF"></path>
                                </g>
                            </g>
                        </g>
                    </g>
                </g>
            </g>
        </g>
    </g>
</svg>