<?xml version="1.0" encoding="UTF-8"?>
<svg width="16px" height="16px" viewBox="0 0 16 16" version="1.1" xmlns="http://www.w3.org/2000/svg" xmlns:xlink="http://www.w3.org/1999/xlink">
    <!-- Generator: sketchtool 58 (101010) - https://sketch.com -->
    <title>8FC0B620-9182-4E6B-81BD-1D35767F89BF</title>
    <desc>Created with sketchtool.</desc>
    <g id="Page-1" stroke="none" stroke-width="1" fill="none" fill-rule="evenodd" opacity="0.64">
        <g id="Lisk-Documentation-Page---" transform="translate(-1390.000000, -2097.000000)">
            <g id="o-footer/desktop" transform="translate(0.000000, 1329.000000)">
                <g id="Footer">
                    <g id="Group-17" transform="translate(1059.000000, 766.000000)">
                        <g id="Stacked-Group" transform="translate(131.000000, 2.000000)">
                            <g id="a-icon-sm/facebook/type-blue/16x16" transform="translate(200.000000, 0.000000)">
                                <rect id="Rectangle" fill-opacity="0" fill="#FFFFFF" x="0" y="0" width="16" height="16"></rect>
                                <g id="Group-7">
                                    <rect id="Rectangle" fill-opacity="0.217493444" fill="#FFFFFF" opacity="0" x="0" y="0" width="16" height="16"></rect>
                                    <path d="M15.3,0 L0.7,0 C0.3,0 0,0.3 0,0.7 L0,15.4 C0,15.7 0.3,16 0.7,16 L8,16 L8,11 L6,11 L6,8 L8,8 L8,6 C8,3.9 9.2,3 11,3 C11.9,3 12.8,3 13,3 L13,6 L12,6 C11.4,6 11,6.4 11,7 L11,8 L13.6,8 L13,11 L11,11 L11,16 L15.3,16 C15.7,16 16,15.7 16,15.3 L16,0.7 C16,0.3 15.7,0 15.3,0 Z" id="Path" fill="#C2D2FF"></path>
                                </g>
                            </g>
                        </g>
                    </g>
                </g>
            </g>
        </g>
    </g>
</svg>