<svg xmlns="http://www.w3.org/2000/svg" xmlns:xlink="http://www.w3.org/1999/xlink" xmlns:lucid="lucid" width="360" height="340"><g transform="translate(-8.97637795275591 -9.527559055118136)" lucid:page-tab-id="0_0"><path d="M28.98 29.53h320v42.85h-320z" stroke="#000" stroke-width="2" fill="#c5cfe4"/><use xlink:href="#a" transform="matrix(1,0,0,1,28.97637795275591,29.527559055118136) translate(98.67777777777778 29.17361111111111)"/><path d="M28.98 72.38h320v257.15h-320z" stroke="#000" stroke-width="2" fill="#f7f9fd"/><use xlink:href="#b" transform="matrix(1,0,0,1,33.97637795275594,77.38470191226102) translate(3 36.611111111111114)"/><use xlink:href="#c" transform="matrix(1,0,0,1,33.97637795275594,77.38470191226102) translate(108.17777777777779 36.611111111111114)"/><use xlink:href="#d" transform="matrix(1,0,0,1,33.97637795275594,77.38470191226102) translate(120.13333333333335 36.611111111111114)"/><use xlink:href="#e" transform="matrix(1,0,0,1,33.97637795275594,77.38470191226102) translate(3 68.61111111111111)"/><use xlink:href="#d" transform="matrix(1,0,0,1,33.97637795275594,77.38470191226102) translate(92.64444444444446 68.61111111111111)"/><use xlink:href="#f" transform="matrix(1,0,0,1,33.97637795275594,77.38470191226102) translate(3 100.61111111111111)"/><use xlink:href="#c" transform="matrix(1,0,0,1,33.97637795275594,77.38470191226102) translate(72.75555555555556 100.61111111111111)"/><use xlink:href="#d" transform="matrix(1,0,0,1,33.97637795275594,77.38470191226102) translate(84.71111111111111 100.61111111111111)"/><use xlink:href="#g" transform="matrix(1,0,0,1,33.97637795275594,77.38470191226102) translate(3 132.61111111111111)"/><use xlink:href="#c" transform="matrix(1,0,0,1,33.97637795275594,77.38470191226102) translate(42.2 132.61111111111111)"/><use xlink:href="#d" transform="matrix(1,0,0,1,33.97637795275594,77.38470191226102) translate(54.15555555555556 132.61111111111111)"/><use xlink:href="#h" transform="matrix(1,0,0,1,33.97637795275594,77.38470191226102) translate(3 164.61111111111111)"/><use xlink:href="#c" transform="matrix(1,0,0,1,33.97637795275594,77.38470191226102) translate(181.26666666666665 164.61111111111111)"/><use xlink:href="#i" transform="matrix(1,0,0,1,33.97637795275594,77.38470191226102) translate(193.2222222222222 164.61111111111111)"/><use xlink:href="#j" transform="matrix(1,0,0,1,33.97637795275594,77.38470191226102) translate(3 196.61111111111111)"/><use xlink:href="#c" transform="matrix(1,0,0,1,33.97637795275594,77.38470191226102) translate(65.3111111111111 196.61111111111111)"/><use xlink:href="#i" transform="matrix(1,0,0,1,33.97637795275594,77.38470191226102) translate(77.26666666666665 196.61111111111111)"/><use xlink:href="#k" transform="matrix(1,0,0,1,33.97637795275594,77.38470191226102) translate(3 228.61111111111111)"/><use xlink:href="#c" transform="matrix(1,0,0,1,33.97637795275594,77.38470191226102) translate(118.24444444444445 228.61111111111111)"/><use xlink:href="#l" transform="matrix(1,0,0,1,33.97637795275594,77.38470191226102) translate(130.20000000000002 228.61111111111111)"/><use xlink:href="#m" transform="matrix(1,0,0,1,33.97637795275594,77.38470191226102) translate(195.91111111111113 228.61111111111111)"/><defs><path d="M217 0v-559H15v-141h562v141H375V0H217" id="n"/><path d="M50 0v-523h128l12 76h4c27-55 81-94 170-85v141c-106-11-170 29-170 133V0H50" id="o"/><path d="M208 9C90 9 25-62 25-155c0-97 66-161 210-161 39 0 91 8 112 15 4-67-3-104-80-107-48 0-76 26-76 58H47c0-98 71-182 225-182 143 0 229 79 229 188V0H363l-11-47h-4C319-14 273 9 208 9zm39-120c65-1 102-37 100-85-54-26-171-27-170 33 0 30 24 52 70 52" id="p"/><path d="M50 0v-523h138l12 50h4c29-34 75-59 143-59 116 0 194 72 194 188V0H387v-296c0-60-27-96-88-96-55 0-95 39-95 102V0H50" id="q"/><path d="M257 9C94 9 28-70 25-177h154c0 29 23 58 78 58 96 2 96-67 21-79-116-18-235-41-237-179 0-85 75-155 215-155 136 0 218 78 218 175H322c1-24-17-54-69-54-69-5-82 61-22 72 122 22 252 27 255 181C486-50 390 9 257 9" id="r"/><path d="M288 9C121 9 25-103 25-262c0-158 92-270 259-270 155 0 235 94 242 215H371c-5-46-37-80-87-80-65 0-102 41-102 135 0 95 37 136 102 136 50 0 82-34 87-80h155C519-85 440 9 288 9" id="s"/><path d="M280 9C159 9 105-63 105-158v-234H20v-131h92v-109c50-9 95-22 147-28v137h125v131H259v197c-7 71 62 81 117 61h10V-6C370 0 329 9 280 9" id="t"/><path d="M128-576c-61 0-93-34-93-90 0-55 32-89 93-89 59 0 93 34 93 89 0 56-34 90-93 90zM50 0v-523h154V0H50" id="u"/><path d="M286 9C116 9 25-104 25-261s93-271 261-271 261 114 261 271C547-105 456 9 286 9zm0-135c64 0 104-40 104-135s-40-136-104-136-104 42-104 136c0 95 41 135 104 135" id="v"/><g id="a"><use transform="matrix(0.022222222222222223,0,0,0.022222222222222223,0,0)" xlink:href="#n"/><use transform="matrix(0.022222222222222223,0,0,0.022222222222222223,13.155555555555557,0)" xlink:href="#o"/><use transform="matrix(0.022222222222222223,0,0,0.022222222222222223,21.46666666666667,0)" xlink:href="#p"/><use transform="matrix(0.022222222222222223,0,0,0.022222222222222223,33.488888888888894,0)" xlink:href="#q"/><use transform="matrix(0.022222222222222223,0,0,0.022222222222222223,46.4,0)" xlink:href="#r"/><use transform="matrix(0.022222222222222223,0,0,0.022222222222222223,57.75555555555556,0)" xlink:href="#p"/><use transform="matrix(0.022222222222222223,0,0,0.022222222222222223,69.77777777777779,0)" xlink:href="#s"/><use transform="matrix(0.022222222222222223,0,0,0.022222222222222223,82.02222222222223,0)" xlink:href="#t"/><use transform="matrix(0.022222222222222223,0,0,0.022222222222222223,91.60000000000001,0)" xlink:href="#u"/><use transform="matrix(0.022222222222222223,0,0,0.022222222222222223,97.02222222222223,0)" xlink:href="#v"/><use transform="matrix(0.022222222222222223,0,0,0.022222222222222223,109.73333333333333,0)" xlink:href="#q"/></g><path fill="#666" d="M650-520c113 0 176 73 176 188V0h-84v-319c0-78-35-126-113-126-80 0-128 60-128 163V0h-84v-319c0-78-35-126-113-126-80 0-130 60-130 163V0H90v-511h73l7 80h4c27-52 74-89 153-89 74 0 127 33 154 89h4c27-52 79-89 165-89" id="w"/><path fill="#666" d="M281 9C121 9 50-108 50-255s73-265 231-265 231 118 231 265C512-109 441 9 281 9zm0-75c104 0 146-79 146-189s-42-190-146-190-146 81-146 190c0 110 43 189 146 189" id="x"/><path fill="#666" d="M267 9C133 9 51-91 50-256c1-151 73-264 217-264 76 0 127 35 154 80h4v-300h84V0h-73l-11-71h-4C394-26 343 9 267 9zm14-75c102 0 146-88 146-190 0-101-44-189-146-189-106 0-146 87-146 189 0 103 40 190 146 190" id="y"/><path fill="#666" d="M414-511h84v325C498-69 413 8 289 8S80-69 80-186v-325h84v311c0 81 36 133 125 133s125-52 125-133v-311" id="z"/><path fill="#666" d="M90 0v-740h84V0H90" id="A"/><path fill="#666" d="M282 9C131 9 50-105 50-255c0-148 73-265 231-265 158 2 232 123 221 290H138c0 97 49 164 144 164 67 0 115-28 129-82h84C481-54 391 9 282 9zM139-300h276c0-81-43-145-134-145-96 0-139 65-142 145" id="B"/><path fill="#666" d="M100 0v-700h88V0h-88" id="C"/><path fill="#666" d="M100 0v-700h232c199 0 312 140 312 350C644-155 541 0 332 0H100zm87-79h136c161 0 231-125 231-271 0-145-70-270-231-270H187v541" id="D"/><g id="b"><use transform="matrix(0.022222222222222223,0,0,0.022222222222222223,0,0)" xlink:href="#w"/><use transform="matrix(0.022222222222222223,0,0,0.022222222222222223,20.133333333333333,0)" xlink:href="#x"/><use transform="matrix(0.022222222222222223,0,0,0.022222222222222223,32.62222222222222,0)" xlink:href="#y"/><use transform="matrix(0.022222222222222223,0,0,0.022222222222222223,45.711111111111116,0)" xlink:href="#z"/><use transform="matrix(0.022222222222222223,0,0,0.022222222222222223,58.55555555555556,0)" xlink:href="#A"/><use transform="matrix(0.022222222222222223,0,0,0.022222222222222223,64.2,0)" xlink:href="#B"/><use transform="matrix(0.022222222222222223,0,0,0.022222222222222223,76.46666666666667,0)" xlink:href="#C"/><use transform="matrix(0.022222222222222223,0,0,0.022222222222222223,82.86666666666667,0)" xlink:href="#D"/></g><path fill="#666" d="M119-351c-39 0-59-25-59-61 0-35 20-60 59-60 38 0 59 25 59 60 0 36-21 61-59 61zm0 360C80 9 60-16 60-52c0-35 20-60 59-60 38 0 59 25 59 60 0 36-21 61-59 61" id="E"/><use transform="matrix(0.022222222222222223,0,0,0.022222222222222223,0,0)" xlink:href="#E" id="c"/><path fill="#666" d="M90 0v-511h73l7 80h4c27-52 79-89 158-89 113 0 179 71 179 188V0h-84v-319c0-80-37-126-118-126-85 0-135 60-135 163V0H90" id="F"/><path fill="#666" d="M260 9C159 9 125-43 125-128v-312H40v-71h87v-109c28-9 49-24 82-28v137h125v71H209v305c0 49 21 70 67 70 30 1 39-6 60-6V1c-16 4-44 8-76 8" id="G"/><path fill="#666" d="M283 238C152 238 68 163 65 65h81c4 49 43 101 137 101 98 0 142-61 142-138v-99h-4C394-26 343 9 267 9 123 9 51-104 50-255c1-165 83-265 217-265 76 0 127 35 154 80h4l11-71h73V30c0 117-80 208-226 208zm-2-304c102 0 146-88 146-189 0-102-44-190-146-190-106 0-146 87-146 190 0 102 40 189 146 189" id="H"/><path fill="#666" d="M90 0v-511h73l7 86h4c28-71 87-100 181-92v81c-128-12-181 52-181 188V0H90" id="I"/><g id="d"><use transform="matrix(0.022222222222222223,0,0,0.022222222222222223,0,0)" xlink:href="#C"/><use transform="matrix(0.022222222222222223,0,0,0.022222222222222223,6.4,0)" xlink:href="#F"/><use transform="matrix(0.022222222222222223,0,0,0.022222222222222223,19.533333333333335,0)" xlink:href="#G"/><use transform="matrix(0.022222222222222223,0,0,0.022222222222222223,28,0)" xlink:href="#B"/><use transform="matrix(0.022222222222222223,0,0,0.022222222222222223,40.266666666666666,0)" xlink:href="#H"/><use transform="matrix(0.022222222222222223,0,0,0.022222222222222223,53.355555555555554,0)" xlink:href="#B"/><use transform="matrix(0.022222222222222223,0,0,0.022222222222222223,65.62222222222222,0)" xlink:href="#I"/></g><path fill="#666" d="M228 9C117 9 50-60 50-149c0-86 61-160 211-160 54 0 94 9 126 18 7-94-13-152-118-157-75 0-112 42-113 91H75c0-98 82-163 194-163 131 0 200 79 200 176V0h-71l-6-72h-4C357-20 300 9 228 9zm15-70c96-3 152-69 144-163-42-13-81-18-126-18-83 0-126 32-126 92 0 51 34 89 108 89" id="J"/><path fill="#666" d="M259 9C138 9 53-57 50-169h84c0 68 52 103 125 103 72 0 117-24 117-73 0-69-115-80-180-92-84-16-130-68-130-143 0-85 73-146 186-146 115 0 197 63 197 165h-82c-3-65-51-94-115-94-62 0-105 25-105 75 0 68 106 73 169 87 96 21 145 60 145 148C461-45 369 9 259 9" id="K"/><g id="e"><use transform="matrix(0.022222222222222223,0,0,0.022222222222222223,0,0)" xlink:href="#J"/><use transform="matrix(0.022222222222222223,0,0,0.022222222222222223,12.200000000000001,0)" xlink:href="#K"/><use transform="matrix(0.022222222222222223,0,0,0.022222222222222223,23.555555555555557,0)" xlink:href="#K"/><use transform="matrix(0.022222222222222223,0,0,0.022222222222222223,34.91111111111111,0)" xlink:href="#B"/><use transform="matrix(0.022222222222222223,0,0,0.022222222222222223,47.17777777777778,0)" xlink:href="#G"/><use transform="matrix(0.022222222222222223,0,0,0.022222222222222223,55.644444444444446,0)" xlink:href="#C"/><use transform="matrix(0.022222222222222223,0,0,0.022222222222222223,62.044444444444444,0)" xlink:href="#D"/><use transform="matrix(0.022222222222222223,0,0,0.022222222222222223,77.6888888888889,0)" xlink:href="#E"/></g><path fill="#666" d="M282 9C129 9 50-94 50-255c0-159 79-265 231-265 137 0 203 81 210 184h-84c-5-68-52-109-126-109-105 0-146 85-146 190 0 107 41 190 146 190 76 0 121-39 128-107h84C483-64 415 9 282 9" id="L"/><g id="f"><use transform="matrix(0.022222222222222223,0,0,0.022222222222222223,0,0)" xlink:href="#F"/><use transform="matrix(0.022222222222222223,0,0,0.022222222222222223,13.133333333333335,0)" xlink:href="#x"/><use transform="matrix(0.022222222222222223,0,0,0.022222222222222223,25.622222222222224,0)" xlink:href="#F"/><use transform="matrix(0.022222222222222223,0,0,0.022222222222222223,38.75555555555556,0)" xlink:href="#L"/><use transform="matrix(0.022222222222222223,0,0,0.022222222222222223,50.82222222222222,0)" xlink:href="#B"/></g><path fill="#666" d="M122 0v-441H31v-70h91v-89c-5-111 97-173 213-143v70c-66-16-129 3-129 73v89h124v70H206V0h-84" id="M"/><g id="g"><use transform="matrix(0.022222222222222223,0,0,0.022222222222222223,0,0)" xlink:href="#M"/><use transform="matrix(0.022222222222222223,0,0,0.022222222222222223,8.000000000000002,0)" xlink:href="#B"/><use transform="matrix(0.022222222222222223,0,0,0.022222222222222223,20.26666666666667,0)" xlink:href="#B"/></g><path fill="#666" d="M100 0v-700h258c143 0 231 91 231 221 0 134-90 225-231 225H187V0h-87zm87-334h160c97 0 152-51 152-145 0-90-58-142-152-142H187v287" id="N"/><path fill="#666" d="M332 9c-76 0-127-35-154-80h-4L163 0H90v-740h84v300h4c27-45 78-80 154-80 144 0 216 113 217 264C548-91 466 9 332 9zm-14-75c106 0 146-87 146-190 0-102-40-189-146-189-102 0-146 88-146 189 0 102 44 190 146 190" id="O"/><path fill="#666" d="M132-609c-39 0-58-23-58-59 0-35 19-58 58-58 38 0 58 23 58 58 0 36-20 59-58 59zM90 0v-511h84V0H90" id="P"/><path fill="#666" d="M297-369L621-10V0H516L187-364V0h-87v-700h87v326l320-326h104v10" id="Q"/><path fill="#666" d="M139 229v-10c28-75 61-150 86-225L20-501v-10h90l155 401h4l150-401h88v10L224 229h-85" id="R"/><g id="h"><use transform="matrix(0.022222222222222223,0,0,0.022222222222222223,0,0)" xlink:href="#K"/><use transform="matrix(0.022222222222222223,0,0,0.022222222222222223,11.355555555555556,0)" xlink:href="#B"/><use transform="matrix(0.022222222222222223,0,0,0.022222222222222223,23.622222222222224,0)" xlink:href="#F"/><use transform="matrix(0.022222222222222223,0,0,0.022222222222222223,36.75555555555556,0)" xlink:href="#y"/><use transform="matrix(0.022222222222222223,0,0,0.022222222222222223,49.84444444444445,0)" xlink:href="#B"/><use transform="matrix(0.022222222222222223,0,0,0.022222222222222223,62.111111111111114,0)" xlink:href="#I"/><use transform="matrix(0.022222222222222223,0,0,0.022222222222222223,70.77777777777779,0)" xlink:href="#N"/><use transform="matrix(0.022222222222222223,0,0,0.022222222222222223,84.75555555555556,0)" xlink:href="#z"/><use transform="matrix(0.022222222222222223,0,0,0.022222222222222223,97.60000000000001,0)" xlink:href="#O"/><use transform="matrix(0.022222222222222223,0,0,0.022222222222222223,110.91111111111114,0)" xlink:href="#A"/><use transform="matrix(0.022222222222222223,0,0,0.022222222222222223,116.55555555555559,0)" xlink:href="#P"/><use transform="matrix(0.022222222222222223,0,0,0.022222222222222223,122.20000000000003,0)" xlink:href="#L"/><use transform="matrix(0.022222222222222223,0,0,0.022222222222222223,134.26666666666668,0)" xlink:href="#Q"/><use transform="matrix(0.022222222222222223,0,0,0.022222222222222223,147.84444444444443,0)" xlink:href="#B"/><use transform="matrix(0.022222222222222223,0,0,0.022222222222222223,159.88888888888889,0)" xlink:href="#R"/></g><path fill="#666" d="M100 0v-700h281c118 0 204 67 204 182 0 76-36 120-88 143v4c54 22 114 70 114 169C611-74 525 0 388 0H100zm86-400c139-3 315 31 310-118 0-66-45-104-125-104H186v222zm0 321h192c83 0 143-43 143-123 0-82-54-122-143-122H186v245" id="S"/><g id="i"><use transform="matrix(0.022222222222222223,0,0,0.022222222222222223,0,0)" xlink:href="#S"/><use transform="matrix(0.022222222222222223,0,0,0.022222222222222223,14.8,0)" xlink:href="#R"/><use transform="matrix(0.022222222222222223,0,0,0.022222222222222223,26.955555555555556,0)" xlink:href="#G"/><use transform="matrix(0.022222222222222223,0,0,0.022222222222222223,35.422222222222224,0)" xlink:href="#B"/><use transform="matrix(0.022222222222222223,0,0,0.022222222222222223,47.68888888888889,0)" xlink:href="#K"/></g><g id="j"><use transform="matrix(0.022222222222222223,0,0,0.022222222222222223,0,0)" xlink:href="#J"/><use transform="matrix(0.022222222222222223,0,0,0.022222222222222223,12.200000000000001,0)" xlink:href="#K"/><use transform="matrix(0.022222222222222223,0,0,0.022222222222222223,23.555555555555557,0)" xlink:href="#K"/><use transform="matrix(0.022222222222222223,0,0,0.022222222222222223,34.91111111111111,0)" xlink:href="#B"/><use transform="matrix(0.022222222222222223,0,0,0.022222222222222223,47.17777777777778,0)" xlink:href="#G"/></g><g id="k"><use transform="matrix(0.022222222222222223,0,0,0.022222222222222223,0,0)" xlink:href="#K"/><use transform="matrix(0.022222222222222223,0,0,0.022222222222222223,11.355555555555556,0)" xlink:href="#P"/><use transform="matrix(0.022222222222222223,0,0,0.022222222222222223,17,0)" xlink:href="#H"/><use transform="matrix(0.022222222222222223,0,0,0.022222222222222223,30.08888888888889,0)" xlink:href="#F"/><use transform="matrix(0.022222222222222223,0,0,0.022222222222222223,43.22222222222222,0)" xlink:href="#J"/><use transform="matrix(0.022222222222222223,0,0,0.022222222222222223,55.422222222222224,0)" xlink:href="#G"/><use transform="matrix(0.022222222222222223,0,0,0.022222222222222223,63.88888888888889,0)" xlink:href="#z"/><use transform="matrix(0.022222222222222223,0,0,0.022222222222222223,76.73333333333333,0)" xlink:href="#I"/><use transform="matrix(0.022222222222222223,0,0,0.022222222222222223,84.95555555555556,0)" xlink:href="#B"/><use transform="matrix(0.022222222222222223,0,0,0.022222222222222223,97.22222222222223,0)" xlink:href="#K"/></g><g id="l"><use transform="matrix(0.022222222222222223,0,0,0.022222222222222223,0,0)" xlink:href="#S"/><use transform="matrix(0.022222222222222223,0,0,0.022222222222222223,14.8,0)" xlink:href="#R"/><use transform="matrix(0.022222222222222223,0,0,0.022222222222222223,26.955555555555556,0)" xlink:href="#G"/><use transform="matrix(0.022222222222222223,0,0,0.022222222222222223,35.422222222222224,0)" xlink:href="#B"/><use transform="matrix(0.022222222222222223,0,0,0.022222222222222223,47.68888888888889,0)" xlink:href="#K"/></g><path fill="#666" d="M50 158v-908h202v64H124V95h131v63H50" id="T"/><path fill="#666" d="M90 158V95h131v-781H93v-64h202v908H90" id="U"/><g id="m"><use transform="matrix(0.022222222222222223,0,0,0.022222222222222223,0,0)" xlink:href="#T"/><use transform="matrix(0.022222222222222223,0,0,0.022222222222222223,7.666666666666667,0)" xlink:href="#U"/></g></defs></g></svg>