<?xml version="1.0" encoding="UTF-8"?>
<svg width="481px" height="97px" viewBox="0 0 481 97" version="1.1" xmlns="http://www.w3.org/2000/svg" xmlns:xlink="http://www.w3.org/1999/xlink">
    <!-- Generator: Sketch 50.2 (55047) - http://www.bohemiancoding.com/sketch -->
    <title>core-visual</title>
    <desc>Created with Sketch.</desc>
    <defs>
        <linearGradient x1="-5.00281532%" y1="63.4175428%" x2="109.774775%" y2="24.0167445%" id="linearGradient-1">
            <stop stop-color="#0462F5" offset="0%"></stop>
            <stop stop-color="#00ECFF" offset="100%"></stop>
        </linearGradient>
        <polygon id="path-2" points="0 24.0053303 0 72.0165622 41.8428497 96.0213211 83.6862745 72.0165622 83.6862745 24.0053303 41.8428497 0"></polygon>
        <linearGradient x1="19.4762866%" y1="88.4126955%" x2="86.0468234%" y2="18.4958616%" id="linearGradient-4">
            <stop stop-color="#004AFF" offset="0%"></stop>
            <stop stop-color="#93F4FE" offset="100%"></stop>
        </linearGradient>
        <polygon id="path-5" points="0 17.5289377 0 52.5872303 29.4077667 70.1157508 58.8159376 52.5872303 58.8159376 17.5289377 29.4077667 0"></polygon>
        <linearGradient x1="186.952514%" y1="69.6927547%" x2="56.925697%" y2="62.1312534%" id="linearGradient-7">
            <stop stop-color="#FFFFFF" offset="0%"></stop>
            <stop stop-color="#93F4FE" offset="100%"></stop>
        </linearGradient>
    </defs>
    <g id="core-visual" stroke="none" stroke-width="1" fill="none" fill-rule="evenodd">
        <g id="Group">
            <g id="core" transform="translate(0.000000, 0.950980)">
                <g id="Page-1-Copy-7" opacity="0.354846014">
                    <mask id="mask-3" fill="white">
                        <use xlink:href="#path-2"></use>
                    </mask>
                    <use id="Clip-2" fill-opacity="0.9" fill="url(#linearGradient-1)" opacity="0.292912946" xlink:href="#path-2"></use>
                </g>
                <g id="Page-1-Copy-8" transform="translate(12.362745, 12.362745)">
                    <mask id="mask-6" fill="white">
                        <use xlink:href="#path-5"></use>
                    </mask>
                    <use id="Clip-2" fill="url(#linearGradient-4)" xlink:href="#path-5"></use>
                    <polygon id="Fill-7" mask="url(#mask-6)" points="29.4079688 35.1867954 29.4079688 70.1157508 58.8159376 52.4516005 58.7543588 17.5976786"></polygon>
                    <polygon id="Fill-10" fill="url(#linearGradient-7)" opacity="0.122678895" mask="url(#mask-6)" points="29.4079688 34.9101701 29.3418382 69.8407871 0 52.324202 0.0475817952 17.3227149"></polygon>
                </g>
            </g>
        </g>
        <g id="Group-11" transform="translate(102.000000, 8.000000)" fill="#001A3E">
            <path d="M5.12258425,17.1279392 C5.12258425,17.2079604 5.19791637,17.2613078 5.24813778,17.2613078 L12.4298,17.2613078 C12.5051321,17.2613078 12.5553535,17.3146553 12.5553535,17.3946764 L12.5553535,22.5960517 C12.5553535,22.6760729 12.5051321,22.7294203 12.4298,22.7294203 L5.12258425,22.7294203 L0.125553535,22.7294203 C0.0502214142,22.7294203 0,22.6760729 0,22.5960517 L0,5.95165076 C0,5.92497704 0,5.89830332 0.0251107071,5.8716296 L4.89658788,0.0834324762 C4.97192,-0.0232624018 5.12258425,0.0300850372 5.12258425,0.163453635 L5.12258425,17.1279392 Z M19.6365729,22.5960517 C19.6365729,22.6493992 19.5863515,22.7294203 19.5110194,22.7294203 L14.6395422,22.7294203 C14.5642101,22.7294203 14.5139887,22.6760729 14.5139887,22.5960517 L14.5139887,12.486712 C14.5139887,12.4600383 14.5139887,12.4333646 14.5390994,12.4066909 L19.4105766,6.61849375 C19.4859087,6.51179887 19.6365729,6.56514631 19.6365729,6.69851491 L19.6365729,22.5960517 Z M46.0028154,14.6206096 L51.2258425,22.5160306 C51.2760639,22.5960517 51.2258425,22.7294203 51.1253996,22.7294203 L45.7014869,22.7294203 C45.6763762,22.7294203 45.6261548,22.7027466 45.6010441,22.6760729 L41.5079988,16.1410116 C41.4326667,16.0343167 41.2820024,16.0876642 41.2820024,16.2210328 L41.2820024,17.2613078 L41.2820024,22.5960517 C41.2820024,22.6760729 41.231781,22.7294203 41.1564489,22.7294203 L36.2849717,22.7294203 C36.2096396,22.7294203 36.1594182,22.6760729 36.1594182,22.5960517 L36.1594182,5.92497704 C36.1594182,5.89830332 36.1594182,5.8716296 36.1845289,5.84495588 L41.0560061,0.0567587567 C41.1313382,-0.0499361213 41.2820024,0.00341131771 41.2820024,0.136779915 L41.2820024,12.6734281 C41.2820024,12.8067967 41.4326667,12.8601441 41.5079988,12.7534492 L45.1992728,6.40510399 C45.2243835,6.37843027 45.2494942,6.35175655 45.2997156,6.35175655 L50.8994033,6.35175655 C50.9998461,6.35175655 51.0500675,6.48512515 50.9998461,6.56514631 L46.0028154,14.4605673 C45.9777047,14.5139147 45.9777047,14.5672622 46.0028154,14.6206096 Z M27.8979956,23.049505 C24.5833822,23.049505 22.3987507,21.8758613 21.2687689,19.4485528 C21.2185475,19.3685317 21.2436582,19.2885105 21.3189903,19.2618368 L25.3115927,17.1279392 C25.3869249,17.1012655 25.462257,17.1279392 25.4873677,17.2079604 C25.9142497,18.2749092 26.742903,18.8083836 27.8979956,18.8083836 C29.1535309,18.8083836 29.404638,18.2482354 29.404638,17.7947822 C29.404638,17.1012655 28.4755418,16.8345283 27.1697851,16.48777 C24.9349321,15.8742744 21.8714259,15.0473891 21.8714259,11.3930895 C21.8714259,8.72571759 23.7547289,6.03167192 27.8979956,6.05834564 C30.7606162,6.05834564 32.8196942,7.2319893 33.9998974,9.52592917 C34.0501188,9.60595033 34.0250081,9.68597149 33.949676,9.71264521 L30.0826271,11.5531319 C30.0324057,11.5798056 29.9570736,11.5531319 29.9319628,11.4997844 C29.4799701,10.6728991 28.8270917,10.2461196 28.0235491,10.2461196 C27.2451172,10.2461196 26.7680138,10.592878 26.7680138,11.1530261 C26.7680138,11.8732165 27.772442,12.11328 29.0279774,12.4333646 C31.3130517,12.9935127 34.4267794,13.7403769 34.4267794,17.6880873 C34.4267794,21.6357978 31.0619447,23.049505 27.8979956,23.049505 Z" id="Combined-Shape-Copy-23"></path>
            <path d="M22.568,81.136 C9.486,81.136 0,71.34 0,58.568 C0,45.796 9.486,36 22.568,36 C30.442,36 37.386,39.906 41.168,46.044 L32.612,51.004 C30.69,47.656 26.97,45.672 22.568,45.672 C14.88,45.672 9.92,50.818 9.92,58.568 C9.92,66.318 14.88,71.464 22.568,71.464 C26.97,71.464 30.752,69.48 32.612,66.132 L41.168,71.092 C37.448,77.23 30.504,81.136 22.568,81.136 Z M61.008,81.136 C51.894,81.136 44.578,74.006 44.578,64.768 C44.578,55.53 51.894,48.4 61.008,48.4 C70.122,48.4 77.438,55.53 77.438,64.768 C77.438,74.006 70.122,81.136 61.008,81.136 Z M61.008,72.084 C65.038,72.084 68.138,69.17 68.138,64.768 C68.138,60.366 65.038,57.452 61.008,57.452 C56.978,57.452 53.878,60.366 53.878,64.768 C53.878,69.17 56.978,72.084 61.008,72.084 Z M92.008,54.786 C93.248,50.632 97.402,48.648 101.308,48.648 L101.308,59.188 C97.464,58.568 92.008,60.118 92.008,66.256 L92.008,80.268 L82.708,80.268 L82.708,49.268 L92.008,49.268 L92.008,54.786 Z M113.956,68.488 C115.134,71.712 117.986,72.828 121.396,72.828 C123.938,72.828 126.108,71.836 127.348,70.472 L134.788,74.75 C131.75,78.966 127.162,81.136 121.272,81.136 C110.67,81.136 104.098,74.006 104.098,64.768 C104.098,55.53 110.794,48.4 120.59,48.4 C129.642,48.4 136.338,55.406 136.338,64.768 C136.338,66.07 136.214,67.31 135.966,68.488 L113.956,68.488 Z M113.77,61.544 L127.1,61.544 C126.108,57.948 123.318,56.646 120.528,56.646 C116.994,56.646 114.638,58.382 113.77,61.544 Z" id="Core"></path>
        </g>
    </g>
</svg>