<?xml version="1.0" encoding="UTF-8"?>
<svg width="481px" height="97px" viewBox="0 0 481 97" version="1.1" xmlns="http://www.w3.org/2000/svg" xmlns:xlink="http://www.w3.org/1999/xlink">
    <!-- Generator: Sketch 50.2 (55047) - http://www.bohemiancoding.com/sketch -->
    <title>protocol-visual</title>
    <desc>Created with Sketch.</desc>
    <defs>
        <radialGradient cx="47.9485303%" cy="50%" fx="47.9485303%" fy="50%" r="51.258382%" gradientTransform="translate(0.479485,0.500000),rotate(-77.278042),scale(1.000000,0.928010),translate(-0.479485,-0.500000)" id="radialGradient-1">
            <stop stop-color="#FFFFFF" offset="0%"></stop>
            <stop stop-color="#74F8F8" offset="35.6782853%"></stop>
            <stop stop-color="#74F8F8" stop-opacity="0" offset="100%"></stop>
        </radialGradient>
        <linearGradient x1="-95.7747396%" y1="-63.1542969%" x2="110.412991%" y2="107.374463%" id="linearGradient-2">
            <stop stop-color="#008DF1" offset="0%"></stop>
            <stop stop-color="#001A56" offset="100%"></stop>
        </linearGradient>
        <linearGradient x1="-5.00281532%" y1="63.4175428%" x2="109.774775%" y2="24.0167445%" id="linearGradient-3">
            <stop stop-color="#0462F5" offset="0%"></stop>
            <stop stop-color="#00ECFF" offset="100%"></stop>
        </linearGradient>
        <polygon id="path-4" points="0 24.2430068 0 72.7295975 42.2571354 96.9720273 84.5148515 72.7295975 84.5148515 24.2430068 42.2571354 0"></polygon>
        <linearGradient x1="123.413676%" y1="100%" x2="-69.5682767%" y2="-7.74666251%" id="linearGradient-6">
            <stop stop-color="#008DF1" offset="0%"></stop>
            <stop stop-color="#001A56" offset="100%"></stop>
        </linearGradient>
        <linearGradient x1="-84.2686101%" y1="-19.8878896%" x2="148.073937%" y2="160.452304%" id="linearGradient-7">
            <stop stop-color="#008DF1" offset="0%"></stop>
            <stop stop-color="#001A56" offset="100%"></stop>
        </linearGradient>
        <linearGradient x1="0%" y1="-15.5301256%" x2="50%" y2="87.0796066%" id="linearGradient-8">
            <stop stop-color="#021755" stop-opacity="0" offset="0%"></stop>
            <stop stop-color="#0097FF" offset="100%"></stop>
        </linearGradient>
        <linearGradient x1="-73.4733136%" y1="-49.8505942%" x2="133.542526%" y2="74.6825656%" id="linearGradient-9">
            <stop stop-color="#021755" stop-opacity="0" offset="0%"></stop>
            <stop stop-color="#0097FF" offset="100%"></stop>
        </linearGradient>
        <linearGradient x1="150.017685%" y1="175.964488%" x2="0%" y2="-34.2932344%" id="linearGradient-10">
            <stop stop-color="#021755" stop-opacity="0" offset="0%"></stop>
            <stop stop-color="#0097FF" offset="100%"></stop>
        </linearGradient>
        <linearGradient x1="100%" y1="68.2837664%" x2="-19.4463392%" y2="28.8615027%" id="linearGradient-11">
            <stop stop-color="#021755" stop-opacity="0" offset="0%"></stop>
            <stop stop-color="#0097FF" offset="100%"></stop>
        </linearGradient>
        <linearGradient x1="50%" y1="261.063944%" x2="-19.4463392%" y2="28.8615027%" id="linearGradient-12">
            <stop stop-color="#021755" stop-opacity="0" offset="0%"></stop>
            <stop stop-color="#0097FF" offset="100%"></stop>
        </linearGradient>
        <linearGradient x1="12.7073662%" y1="-58.8592249%" x2="71.8584466%" y2="119.408013%" id="linearGradient-13">
            <stop stop-color="#74F8F8" stop-opacity="0" offset="0%"></stop>
            <stop stop-color="#74F8F8" offset="100%"></stop>
        </linearGradient>
    </defs>
    <g id="protocol-visual" stroke="none" stroke-width="1" fill="none" fill-rule="evenodd">
        <g id="Group-3">
            <g id="Group-4">
                <circle id="Oval" fill="url(#radialGradient-1)" opacity="0.515513393" cx="42.7376238" cy="50.4207921" r="23.529703"></circle>
                <path d="M42.1172079,13.4455446 L12.4851485,31.1725347 L12.4861089,66.5736931 L42.1172079,84.2632277 L42.1172079,84.256505 L71.816495,66.4171485 L71.7540693,31.2176733 L42.1172079,13.4455446 Z M42.1172079,31.197505 L42.1191287,31.1955842 L49.5285842,35.6383762 L49.5285842,35.6393366 L42.1191287,40.0715644 L42.1172079,40.070604 L34.3466436,35.409802 L34.7115941,35.6278119 L42.1172079,31.197505 Z M27.3040594,57.7582178 L27.3011782,57.7572574 L27.3011782,57.5094752 L27.3011782,48.888 L34.7087129,53.3317525 L34.7087129,53.35 L34.7087129,53.3538416 L34.7087129,62.1798812 L27.3040594,57.7582178 Z M49.5420297,53.3903366 L49.5842871,53.3653663 L49.557396,53.3490396 L56.9457228,48.9216139 L56.9457228,48.9523465 L56.9514851,48.9494653 L56.9668515,57.7476535 L56.9668515,57.7486139 L49.5420297,62.2086931 L49.5420297,53.3903366 Z M64.3907129,61.7457822 L64.3916733,62.0579109 L64.3916733,62.0771188 L64.2917921,62.0175743 L64.3916733,62.0761584 L64.3907129,61.7457822 Z" id="Fill-1" fill="url(#linearGradient-2)"></path>
                <g id="core" opacity="0.354846014">
                    <g id="Page-1-Copy-7">
                        <mask id="mask-5" fill="white">
                            <use xlink:href="#path-4"></use>
                        </mask>
                        <use id="Clip-2" fill-opacity="0.9" fill="url(#linearGradient-3)" opacity="0.292912946" xlink:href="#path-4"></use>
                    </g>
                </g>
                <g id="Group" transform="translate(12.485149, 12.485149)">
                    <polygon id="Fill-1" fill="url(#linearGradient-6)" opacity="0.203069196" points="14.8159337 45.0239426 14.8159337 45.0239426 14.8159337 36.4034277 7.40743861 31.9596752 7.40839901 49.6607347 7.42568614 49.671299 14.8188149 45.2736455 14.8159337 45.2717248"></polygon>
                    <polygon id="Fill-3" fill="url(#linearGradient-7)" opacity="0.475279018" points="22.2237564 49.6940604 14.8181426 45.2733574 7.42597426 49.6710109 22.2237564 58.5047337"></polygon>
                    <polygon id="Fill-28-Copy" points="29.774198 45.3700693 37.1826931 49.8128614 44.5921485 45.3806337 29.7732376 36.4950495 29.7722772 36.4960099 29.7722772 45.3710297"></polygon>
                    <path d="M29.6336921,27.5859356 L29.6327317,27.5859356 L29.6317713,27.5849752 L14.8176624,18.6984307 L29.6317713,9.83685644 L29.6327317,9.83589604 L44.4516426,18.7214802 L37.0421871,23.1537079 L37.0431475,23.1537079 L29.6336921,27.5859356 Z M29.6317713,0.959915842 L-0.000288118812,18.6869059 L29.6317713,36.4609554 L59.2686327,18.7320446 L29.6317713,0.959915842 Z" id="Fill-11" fill="url(#linearGradient-8)" opacity="0.485658482"></path>
                    <path d="M37.0565931,58.5107842 L37.0565931,49.7231604 L37.0565931,40.904804 L37.0565931,40.8731109 L37.0729198,40.8635069 L51.875504,31.9913683 L51.9062366,49.5723782 L51.9062366,49.5915861 L37.0565931,58.5107842 Z M59.2686327,18.7321406 L29.6317713,36.4629723 L29.6317713,71.7700119 L59.3310584,53.9316158 L59.2686327,18.7321406 Z" id="Fill-20" fill="url(#linearGradient-9)" opacity="0.709430804"></path>
                    <polygon id="Fill-22" fill="url(#linearGradient-6)" opacity="0.319977679" points="51.8751198 31.9918485 44.4608624 36.435601 44.4608624 36.4672941 44.4656644 36.4644129 44.4810307 45.2616406 51.9058525 49.5901455"></polygon>
                    <polygon id="Fill-24" fill="url(#linearGradient-7)" opacity="0.475279018" points="51.7790802 49.5163871 44.4810307 45.2618327 44.4810307 45.2637535 37.0562089 49.7238327 37.0562089 58.510496 51.9058525 49.591298"></polygon>
                    <path d="M22.2237564,49.6940604 L22.2237564,58.5047337 L7.42597426,49.6710109 L7.40772673,49.6604465 L7.40772673,31.9593871 L22.2237564,40.8468921 L22.2237564,40.8651396 L22.2237564,40.8680208 L22.2237564,49.6940604 Z M0.000192079208,18.6867139 L0.000192079208,54.0888327 L29.6312911,71.7774069 L29.6312911,36.4607634 L0.000192079208,18.6867139 Z" id="Fill-26" fill="url(#linearGradient-10)" opacity="0.654185268"></path>
                    <polygon id="Fill-28" fill="url(#linearGradient-11)" opacity="0.295982143" points="29.6301371 18.7094769 37.0386322 23.1522689 44.4480876 18.7200412 29.6291768 9.83445706 29.6282164 9.83541745 29.6282164 18.7104373"></polygon>
                    <polygon id="Fill-30" fill="url(#linearGradient-12)" opacity="0.144308036" points="22.2257733 23.1423752 29.6313871 18.7120683 29.6313871 9.83608812 14.8172782 18.6986228"></polygon>
                    <path d="M29.6336921,27.5859356 L29.6327317,27.5859356 L29.6317713,27.5849752 L14.8176624,18.6984307 L29.6317713,9.83685644 L29.6327317,9.83589604 L44.4516426,18.7214802 L37.0421871,23.1537079 L37.0431475,23.1537079 L29.6336921,27.5859356 Z M29.6317713,0.959915842 L-0.000288118812,18.6869059 L29.6317713,36.4609554 L59.2686327,18.7320446 L29.6317713,0.959915842 Z" id="Fill-11" fill="url(#linearGradient-13)" opacity="0.128069196"></path>
                </g>
            </g>
        </g>
        <g id="Group-10" transform="translate(103.000000, 8.000000)" fill="#001A3E">
            <path d="M5.12258425,17.1279392 C5.12258425,17.2079604 5.19791637,17.2613078 5.24813778,17.2613078 L12.4298,17.2613078 C12.5051321,17.2613078 12.5553535,17.3146553 12.5553535,17.3946764 L12.5553535,22.5960517 C12.5553535,22.6760729 12.5051321,22.7294203 12.4298,22.7294203 L5.12258425,22.7294203 L0.125553535,22.7294203 C0.0502214142,22.7294203 0,22.6760729 0,22.5960517 L0,5.95165076 C0,5.92497704 0,5.89830332 0.0251107071,5.8716296 L4.89658788,0.0834324762 C4.97192,-0.0232624018 5.12258425,0.0300850372 5.12258425,0.163453635 L5.12258425,17.1279392 Z M19.6365729,22.5960517 C19.6365729,22.6493992 19.5863515,22.7294203 19.5110194,22.7294203 L14.6395422,22.7294203 C14.5642101,22.7294203 14.5139887,22.6760729 14.5139887,22.5960517 L14.5139887,12.486712 C14.5139887,12.4600383 14.5139887,12.4333646 14.5390994,12.4066909 L19.4105766,6.61849375 C19.4859087,6.51179887 19.6365729,6.56514631 19.6365729,6.69851491 L19.6365729,22.5960517 Z M46.0028154,14.6206096 L51.2258425,22.5160306 C51.2760639,22.5960517 51.2258425,22.7294203 51.1253996,22.7294203 L45.7014869,22.7294203 C45.6763762,22.7294203 45.6261548,22.7027466 45.6010441,22.6760729 L41.5079988,16.1410116 C41.4326667,16.0343167 41.2820024,16.0876642 41.2820024,16.2210328 L41.2820024,17.2613078 L41.2820024,22.5960517 C41.2820024,22.6760729 41.231781,22.7294203 41.1564489,22.7294203 L36.2849717,22.7294203 C36.2096396,22.7294203 36.1594182,22.6760729 36.1594182,22.5960517 L36.1594182,5.92497704 C36.1594182,5.89830332 36.1594182,5.8716296 36.1845289,5.84495588 L41.0560061,0.0567587567 C41.1313382,-0.0499361213 41.2820024,0.00341131771 41.2820024,0.136779915 L41.2820024,12.6734281 C41.2820024,12.8067967 41.4326667,12.8601441 41.5079988,12.7534492 L45.1992728,6.40510399 C45.2243835,6.37843027 45.2494942,6.35175655 45.2997156,6.35175655 L50.8994033,6.35175655 C50.9998461,6.35175655 51.0500675,6.48512515 50.9998461,6.56514631 L46.0028154,14.4605673 C45.9777047,14.5139147 45.9777047,14.5672622 46.0028154,14.6206096 Z M27.8979956,23.049505 C24.5833822,23.049505 22.3987507,21.8758613 21.2687689,19.4485528 C21.2185475,19.3685317 21.2436582,19.2885105 21.3189903,19.2618368 L25.3115927,17.1279392 C25.3869249,17.1012655 25.462257,17.1279392 25.4873677,17.2079604 C25.9142497,18.2749092 26.742903,18.8083836 27.8979956,18.8083836 C29.1535309,18.8083836 29.404638,18.2482354 29.404638,17.7947822 C29.404638,17.1012655 28.4755418,16.8345283 27.1697851,16.48777 C24.9349321,15.8742744 21.8714259,15.0473891 21.8714259,11.3930895 C21.8714259,8.72571759 23.7547289,6.03167192 27.8979956,6.05834564 C30.7606162,6.05834564 32.8196942,7.2319893 33.9998974,9.52592917 C34.0501188,9.60595033 34.0250081,9.68597149 33.949676,9.71264521 L30.0826271,11.5531319 C30.0324057,11.5798056 29.9570736,11.5531319 29.9319628,11.4997844 C29.4799701,10.6728991 28.8270917,10.2461196 28.0235491,10.2461196 C27.2451172,10.2461196 26.7680138,10.592878 26.7680138,11.1530261 C26.7680138,11.8732165 27.772442,12.11328 29.0279774,12.4333646 C31.3130517,12.9935127 34.4267794,13.7403769 34.4267794,17.6880873 C34.4267794,21.6357978 31.0619447,23.049505 27.8979956,23.049505 Z" id="Combined-Shape-Copy-22"></path>
            <path d="M16.3601529,37.8520928 C24.8797797,37.8520928 31.4855772,44.4578904 31.4855772,52.668835 C31.4855772,60.8797797 24.8797797,67.4855772 16.3601529,67.4855772 L9.87782815,67.4855772 L9.87782815,81.0675909 L0,81.0675909 L0,37.8520928 L16.3601529,37.8520928 Z M16.3601529,58.2251133 C19.3852377,58.2251133 21.6077491,55.8173927 21.6077491,52.668835 C21.6077491,49.5202773 19.3852377,47.1125567 16.3601529,47.1125567 L9.87782815,47.1125567 L9.87782815,58.2251133 L16.3601529,58.2251133 Z M45.3762731,55.6939199 C46.6110016,51.5575793 50.7473421,49.5820137 54.636737,49.5820137 L54.636737,60.0772061 C50.8090785,59.4598419 45.3762731,61.0032525 45.3762731,67.1151587 L45.3762731,81.0675909 L36.1158092,81.0675909 L36.1158092,50.199378 L45.3762731,50.199378 L45.3762731,55.6939199 Z M73.775029,81.9319009 C64.6997744,81.9319009 57.4148761,74.8322119 57.4148761,65.6334844 C57.4148761,56.434757 64.6997744,49.335068 73.775029,49.335068 C82.8502836,49.335068 90.1351819,56.434757 90.1351819,65.6334844 C90.1351819,74.8322119 82.8502836,81.9319009 73.775029,81.9319009 Z M73.775029,72.9183827 C77.7878967,72.9183827 80.874718,70.0167707 80.874718,65.6334844 C80.874718,61.2501982 77.7878967,58.3485862 73.775029,58.3485862 C69.7621613,58.3485862 66.67534,61.2501982 66.67534,65.6334844 C66.67534,70.0167707 69.7621613,72.9183827 73.775029,72.9183827 Z M113.471551,59.0894233 L107.112699,59.0894233 L107.112699,70.0167707 C107.112699,72.671437 109.396947,72.9183827 113.471551,72.671437 L113.471551,81.0675909 C101.371211,82.3023195 97.8522351,78.6598703 97.8522351,70.0167707 L97.8522351,59.0894233 L92.913321,59.0894233 L92.913321,50.199378 L97.8522351,50.199378 L97.8522351,44.3344175 L107.112699,41.5562783 L107.112699,50.199378 L113.471551,50.199378 L113.471551,59.0894233 Z M134.153254,81.9319009 C125.077999,81.9319009 117.793101,74.8322119 117.793101,65.6334844 C117.793101,56.434757 125.077999,49.335068 134.153254,49.335068 C143.228508,49.335068 150.513406,56.434757 150.513406,65.6334844 C150.513406,74.8322119 143.228508,81.9319009 134.153254,81.9319009 Z M134.153254,72.9183827 C138.166121,72.9183827 141.252943,70.0167707 141.252943,65.6334844 C141.252943,61.2501982 138.166121,58.3485862 134.153254,58.3485862 C130.140386,58.3485862 127.053565,61.2501982 127.053565,65.6334844 C127.053565,70.0167707 130.140386,72.9183827 134.153254,72.9183827 Z M170.577745,81.9319009 C161.193808,81.9319009 154.217592,74.8322119 154.217592,65.6334844 C154.217592,56.434757 161.193808,49.335068 170.577745,49.335068 C176.566178,49.335068 181.875511,52.4836257 184.530177,57.2373305 L176.442705,61.9292989 C175.393186,59.768524 173.170675,58.472059 170.454272,58.472059 C166.441404,58.472059 163.478056,61.3736711 163.478056,65.6334844 C163.478056,69.8932978 166.441404,72.7949099 170.454272,72.7949099 C173.170675,72.7949099 175.454923,71.4984449 176.442705,69.33767 L184.530177,73.967902 C181.875511,78.7833432 176.627915,81.9319009 170.577745,81.9319009 Z M203.359787,81.9319009 C194.284532,81.9319009 186.999634,74.8322119 186.999634,65.6334844 C186.999634,56.434757 194.284532,49.335068 203.359787,49.335068 C212.435042,49.335068 219.71994,56.434757 219.71994,65.6334844 C219.71994,74.8322119 212.435042,81.9319009 203.359787,81.9319009 Z M203.359787,72.9183827 C207.372655,72.9183827 210.459476,70.0167707 210.459476,65.6334844 C210.459476,61.2501982 207.372655,58.3485862 203.359787,58.3485862 C199.346919,58.3485862 196.260098,61.2501982 196.260098,65.6334844 C196.260098,70.0167707 199.346919,72.9183827 203.359787,72.9183827 Z M224.967536,81.0675909 L224.967536,36 L234.228,36 L234.228,81.0675909 L224.967536,81.0675909 Z" id="Protocol"></path>
        </g>
    </g>
</svg>