<?xml version="1.0" encoding="UTF-8" standalone="no"?><svg xmlns="http://www.w3.org/2000/svg" xmlns:xlink="http://www.w3.org/1999/xlink" contentScriptType="application/ecmascript" contentStyleType="text/css" height="255px" preserveAspectRatio="none" style="width:310px;height:255px;" version="1.1" viewBox="0 0 310 255" width="310px" zoomAndPan="magnify"><defs><filter height="300%" id="f19nfgyu4a466t" width="300%" x="-1" y="-1"><feGaussianBlur result="blurOut" stdDeviation="2.0"/><feColorMatrix in="blurOut" result="blurOut2" type="matrix" values="0 0 0 0 0 0 0 0 0 0 0 0 0 0 0 0 0 0 .4 0"/><feOffset dx="4.0" dy="4.0" in="blurOut2" result="blurOut3"/><feBlend in="SourceGraphic" in2="blurOut3" mode="normal"/></filter></defs><g><!--MD5=[0ba5ee7700168656dc1b457c6fe9fdac]
entity Client--><rect fill="#FEFECE" filter="url(#f19nfgyu4a466t)" height="36.2969" style="stroke: #A80036; stroke-width: 1.5;" width="59" x="81.5" y="8"/><text fill="#000000" font-family="sans-serif" font-size="14" lengthAdjust="spacingAndGlyphs" textLength="39" x="91.5" y="30.9951">Client</text><!--MD5=[e51296a1580e0172c3b5b7be8520ff5e]
entity seed_node--><rect fill="#FEFECE" filter="url(#f19nfgyu4a466t)" height="36.2969" style="stroke: #A80036; stroke-width: 1.5;" width="98" x="103" y="121"/><text fill="#000000" font-family="sans-serif" font-size="14" lengthAdjust="spacingAndGlyphs" textLength="78" x="113" y="143.9951">seed_node</text><ellipse cx="193.8492" cy="26.0236" fill="#FEFECE" filter="url(#f19nfgyu4a466t)" rx="17.8492" ry="14.5236" style="stroke: #A80036; stroke-width: 1.5;"/><text fill="#000000" font-family="sans-serif" font-size="14" lengthAdjust="spacingAndGlyphs" textLength="21" x="183.3492" y="30.6721">IoT</text><path d="M6,218 L6,243.1328 A0,0 0 0 0 6,243.1328 L298,243.1328 A0,0 0 0 0 298,243.1328 L298,228 L288,218 L156,218 L152,157.0775 L148,218 L6,218 A0,0 0 0 0 6,218 " fill="#FBFB77" filter="url(#f19nfgyu4a466t)" style="stroke: #A80036; stroke-width: 1.0;"/><path d="M288,218 L288,228 L298,228 L288,218 " fill="#FBFB77" style="stroke: #A80036; stroke-width: 1.0;"/><text fill="#000000" font-family="sans-serif" font-size="13" lengthAdjust="spacingAndGlyphs" textLength="271" x="12" y="235.0669">Forging enabled for 101 genesis delegates</text><!--MD5=[afee0a760d834ce6c6cf8a83d61263b3]
link Client to seed_node--><path d="M110.1795,49.4606 C110.4668,62.1292 112.026,77.8269 117,91 C120.4428,100.1179 126.1131,109.0449 131.8973,116.6795 " fill="none" id="Client-seed_node" style="stroke: #A80036; stroke-width: 1.0;"/><polygon fill="#A80036" points="135.109,120.781,132.7095,111.2289,132.0263,116.8444,126.4109,116.1612,135.109,120.781" style="stroke: #A80036; stroke-width: 1.0;"/><polygon fill="#A80036" points="110.1279,44.2329,106.2168,53.2719,110.1772,49.2327,114.2164,53.193,110.1279,44.2329" style="stroke: #A80036; stroke-width: 1.0;"/><text fill="#000000" font-family="sans-serif" font-size="13" lengthAdjust="spacingAndGlyphs" textLength="32" x="118" y="87.0669">HTTP</text><!--MD5=[8496898d2c2580c6d28955b379f418e5]
link IoT to seed_node--><path d="M186.8899,45.1297 C179.6299,64.6624 168.3544,94.999 160.5974,115.869 " fill="none" id="IoT-seed_node" style="stroke: #A80036; stroke-width: 1.0;"/><polygon fill="#A80036" points="158.8035,120.6954,165.6884,113.6528,160.5455,116.0087,158.1896,110.8657,158.8035,120.6954" style="stroke: #A80036; stroke-width: 1.0;"/><polygon fill="#A80036" points="188.6807,40.3115,181.7957,47.354,186.9387,44.9982,189.2945,50.1412,188.6807,40.3115" style="stroke: #A80036; stroke-width: 1.0;"/><text fill="#000000" font-family="sans-serif" font-size="13" lengthAdjust="spacingAndGlyphs" textLength="32" x="176" y="87.0669">HTTP</text><!--MD5=[9171c5ec89897e24964a0f867e100994]
@startuml
agent Client
agent seed_node
usecase IoT

Client <- -> seed_node : HTTP 
IoT <- -> seed_node : HTTP

note bottom of (seed_node)
 Forging enabled for 101 genesis delegates
end note
@enduml

PlantUML version 1.2019.11(Sun Sep 22 10:02:15 UTC 2019)
(GPL source distribution)
Java Runtime: OpenJDK Runtime Environment
JVM: OpenJDK 64-Bit Server VM
Java Version: 1.8.0_222-heroku-b10
Operating System: Linux
Default Encoding: UTF-8
Language: en
Country: US
--></g></svg>