<?xml version="1.0" encoding="UTF-8"?>
<svg width="24px" height="24px" viewBox="0 0 24 24" version="1.1" xmlns="http://www.w3.org/2000/svg" xmlns:xlink="http://www.w3.org/1999/xlink">
    <!-- Generator: Sketch 50.2 (55047) - http://www.bohemiancoding.com/sketch -->
    <title>hub-logo_24px</title>
    <desc>Created with Sketch.</desc>
    <defs>
        <linearGradient x1="76.3263889%" y1="-9.16241497%" x2="28.7951389%" y2="170.711097%" id="linearGradient-1">
            <stop stop-color="#DCFCFF" offset="0%"></stop>
            <stop stop-color="#FFFFFF" offset="28.6644999%"></stop>
            <stop stop-color="#FAFFFF" offset="49.7674645%"></stop>
            <stop stop-color="#93F4FE" offset="100%"></stop>
        </linearGradient>
        <linearGradient x1="117.291206%" y1="145.341196%" x2="-19.4463392%" y2="28.8615027%" id="linearGradient-2">
            <stop stop-color="#021755" stop-opacity="0" offset="0%"></stop>
            <stop stop-color="#0097FF" offset="100%"></stop>
        </linearGradient>
        <linearGradient x1="117.291206%" y1="145.341196%" x2="-41.1504425%" y2="-56.0785976%" id="linearGradient-3">
            <stop stop-color="#021755" stop-opacity="0" offset="0%"></stop>
            <stop stop-color="#0097FF" offset="100%"></stop>
        </linearGradient>
        <linearGradient x1="96.2611607%" y1="3.73883929%" x2="3.03310138%" y2="96.9668986%" id="linearGradient-4">
            <stop stop-color="#7192B9" offset="0%"></stop>
            <stop stop-color="#3A5E89" offset="100%"></stop>
        </linearGradient>
        <path d="M9.33221271,5.11986958 C8.55429818,5.71593273 7.46674576,6.15953226 6.15554496,6.31073062 C4.1356005,6.54353813 2.18070921,6.13751677 1.05157743,5.31320104 C0.523019727,4.9264116 0.176176882,4.44751136 0.0886176513,3.8994015 C-0.0563655593,2.99006041 0.466969079,2.05933646 1.40596466,1.36268529 C2.23697721,0.744480118 3.38994954,0.316822838 4.76916716,0.156008518 C6.82393916,-0.0837579156 8.72362101,0.279371195 9.78196068,1.10900101 C10.2346719,1.46302026 10.5339958,1.90193834 10.625974,2.4152536 C10.7979412,3.3726745 10.3111316,4.36767357 9.33221271,5.11986958 Z" id="path-5"></path>
        <linearGradient x1="3.14094388%" y1="96.8590561%" x2="94.8897856%" y2="5.11021442%" id="linearGradient-7">
            <stop stop-color="#122037" offset="0%"></stop>
            <stop stop-color="#243847" offset="100%"></stop>
        </linearGradient>
        <linearGradient x1="96.2392379%" y1="3.76076212%" x2="1.92522321%" y2="98.0747768%" id="linearGradient-8">
            <stop stop-color="#95D425" offset="0%"></stop>
            <stop stop-color="#33B200" offset="100%"></stop>
        </linearGradient>
        <linearGradient x1="100%" y1="0%" x2="0%" y2="100%" id="linearGradient-9">
            <stop stop-color="#00EDFF" offset="0%"></stop>
            <stop stop-color="#008BFF" offset="100%"></stop>
        </linearGradient>
    </defs>
    <g id="hub-logo_24px" stroke="none" stroke-width="1" fill="none" fill-rule="evenodd">
        <g id="Group" transform="translate(0.000000, 3.000000)">
            <g id="lisk-hub">
                <g id="Group-21-Copy">
                    <g id="Page-1">
                        <polygon id="Fill-1" fill="url(#linearGradient-1)" points="11.999904 4.20591457e-05 1.06666667e-05 7.01855685 1.06666667e-05 10.4360727 11.999904 17.4545875 24.0000107 10.4360727 24.0000107 7.01855685"></polygon>
                        <polygon id="Fill-2" fill="url(#linearGradient-2)" opacity="0.104619565" points="12.053376 14.0880683 12.053376 17.4545875 24.0000427 10.3813958 23.974976 7.04494896"></polygon>
                        <polygon id="Fill-3" fill="url(#linearGradient-3)" opacity="0.0828238225" points="0 10.4404364 12.02624 17.4545349 12.0533333 14.0873849 0.01952 7.04489639"></polygon>
                    </g>
                </g>
                <path d="M11.4513099,11.3083853 L4.72234631,7.33612798 C4.50497486,7.20755385 4.24355725,7.20416868 4.02290058,7.32716353 C3.96595693,7.35900929 3.91874723,7.4064018 3.88650349,7.4642633 C3.84008468,7.54757632 3.82791723,7.64455544 3.85225213,7.73733444 C3.87658702,7.83005074 3.93450408,7.90753374 4.01535677,7.95536507 L10.7443204,11.9276224 C10.8557133,11.993508 10.9786046,12.0266075 11.1016783,12.0266075 C11.2188508,12.0266075 11.336145,11.9966424 11.4437052,11.9366495 C11.5007097,11.9048038 11.5478586,11.8573486 11.5801632,11.7994871 C11.626582,11.716174 11.6387494,11.6191949 11.6144145,11.5264786 C11.5900796,11.4337623 11.5321626,11.3562793 11.4513099,11.3083853 Z" id="Fill-1" fill="url(#linearGradient-4)"></path>
                <g id="Group-3" transform="translate(7.573333, 3.192905)">
                    <g id="Group-2">
                        <g id="sd">
                            <mask id="mask-6" fill="white">
                                <use xlink:href="#path-5"></use>
                            </mask>
                            <use fill="url(#linearGradient-4)" xlink:href="#path-5"></use>
                            <path d="M8.83474575,5.45469821 C8.71228947,5.38369425 8.59672337,5.3086697 8.48871328,5.2298176 C7.96015558,4.84302816 7.61331274,4.36412792 7.52575351,3.81601806 C7.38077029,2.90667697 7.90410493,1.97595303 8.84310051,1.27930185 C9.03263849,1.13830114 9.23892508,1.0072129 9.46082464,0.886942352 C9.57496242,0.956740728 9.68219936,1.03079836 9.78196068,1.10900101 C10.2346719,1.46302026 10.5339958,1.90193834 10.625974,2.4152536 C10.7979412,3.3726745 10.3111316,4.36767357 9.33221271,5.11986958 C9.17829082,5.23780949 9.01224646,5.34978037 8.83474575,5.45469821 Z" id="Combined-Shape" fill="url(#linearGradient-7)"></path>
                        </g>
                        <polygon id="Fill-6" fill="url(#linearGradient-8)" points="6.99223655 5.43837178 4.70974359 3.5180004 8.22622711 3.5180004"></polygon>
                        <path d="M5.46418786,2.33798126 C5.23182397,2.51688901 4.90697091,2.65003497 4.51531384,2.695417 C3.91195429,2.76529394 3.32802619,2.64342704 2.99075333,2.3960095 C2.83287258,2.27991504 2.72927026,2.13617362 2.70311622,1.971659 C2.65980959,1.69872119 2.8161302,1.41936533 3.09660917,1.21026618 C3.3448335,1.02471252 3.68922756,0.896351624 4.10120132,0.848083367 C4.7149639,0.776117714 5.28240088,0.885110551 5.59852806,1.1341231 C5.73375337,1.24038162 5.82316176,1.37212244 5.85063574,1.5261935 C5.90200253,1.81356242 5.75659196,2.11221038 5.46418786,2.33798126 Z" id="sd" fill="url(#linearGradient-9)"></path>
                    </g>
                </g>
            </g>
        </g>
    </g>
</svg>