<?xml version="1.0" encoding="UTF-8"?>
<svg width="201px" height="147px" viewBox="0 0 201 147" version="1.1" xmlns="http://www.w3.org/2000/svg" xmlns:xlink="http://www.w3.org/1999/xlink">
    <!-- Generator: Sketch 48.2 (47327) - http://www.bohemiancoding.com/sketch -->
    <title>Group 8</title>
    <desc>Created with Sketch.</desc>
    <defs>
        <linearGradient x1="76.3263889%" y1="-9.16241497%" x2="28.7951389%" y2="170.711097%" id="linearGradient-1">
            <stop stop-color="#DCFCFF" offset="0%"></stop>
            <stop stop-color="#FFFFFF" offset="28.6644999%"></stop>
            <stop stop-color="#FAFFFF" offset="49.7674645%"></stop>
            <stop stop-color="#93F4FE" offset="100%"></stop>
        </linearGradient>
        <linearGradient x1="117.291206%" y1="145.341196%" x2="-19.4463392%" y2="28.8615027%" id="linearGradient-2">
            <stop stop-color="#021755" stop-opacity="0" offset="0%"></stop>
            <stop stop-color="#0097FF" offset="100%"></stop>
        </linearGradient>
        <linearGradient x1="117.291206%" y1="145.341196%" x2="-41.1504425%" y2="-56.0785976%" id="linearGradient-3">
            <stop stop-color="#021755" stop-opacity="0" offset="0%"></stop>
            <stop stop-color="#0097FF" offset="100%"></stop>
        </linearGradient>
        <linearGradient x1="96.2611607%" y1="3.73883929%" x2="3.03310138%" y2="96.9668986%" id="linearGradient-4">
            <stop stop-color="#7192B9" offset="0%"></stop>
            <stop stop-color="#3A5E89" offset="100%"></stop>
        </linearGradient>
        <path d="M77.6894557,42.7218323 C71.2134185,47.6955742 62.1596862,51.3971109 51.2441103,52.6587584 C34.4283356,54.6013789 18.1541202,51.2134065 8.75424514,44.3350519 C4.35407113,41.1075569 1.46664961,37.1114599 0.737730408,32.5378556 C-0.469235942,24.9500222 3.88745678,17.1837633 11.7044727,11.3706827 C18.622544,6.21218065 28.2208886,2.64367128 39.7026956,1.30178506 C56.808405,-0.698902886 72.623009,2.33116276 81.433549,9.25385979 C85.2023106,12.2079099 87.6941438,15.8703829 88.4598501,20.15365 C89.8914547,28.1426767 85.8388276,36.4452677 77.6894557,42.7218323 Z" id="path-5"></path>
        <linearGradient x1="3.14094388%" y1="96.8590561%" x2="94.8897856%" y2="5.11021442%" id="linearGradient-7">
            <stop stop-color="#122037" offset="0%"></stop>
            <stop stop-color="#243847" offset="100%"></stop>
        </linearGradient>
        <linearGradient x1="96.2392379%" y1="3.76076212%" x2="1.92522321%" y2="98.0747768%" id="linearGradient-8">
            <stop stop-color="#95D425" offset="0%"></stop>
            <stop stop-color="#33B200" offset="100%"></stop>
        </linearGradient>
        <linearGradient x1="100%" y1="0%" x2="0%" y2="100%" id="linearGradient-9">
            <stop stop-color="#00EDFF" offset="0%"></stop>
            <stop stop-color="#008BFF" offset="100%"></stop>
        </linearGradient>
    </defs>
    <g id="Page-1" stroke="none" stroke-width="1" fill="none" fill-rule="evenodd">
        <g id="Lisked" transform="translate(0.913456, -602.000000)">
            <g id="Hub" transform="translate(0.000000, 580.003156)">
                <g id="Group-8" transform="translate(0.000000, 22.000000)">
                    <g id="Group-21-Copy" transform="translate(0.000000, 0.500000)">
                        <g id="Page-1">
                            <polygon id="Fill-1" fill="url(#linearGradient-1)" points="99.8976383 0.000350954988 8.87986111e-05 58.5650872 8.87986111e-05 87.0819348 99.8976383 145.646671 199.796964 87.0819348 199.796964 58.5650872"></polygon>
                            <polygon id="Fill-2" fill="url(#linearGradient-2)" opacity="0.104619565" points="100.342786 117.555356 100.342786 145.646671 199.79723 86.6256933 199.588553 58.7853115"></polygon>
                            <polygon id="Fill-3" fill="url(#linearGradient-3)" opacity="0.0828238225" points="0 87.1183464 100.116882 145.646232 100.342431 117.549653 0.162501458 58.7848728"></polygon>
                        </g>
                    </g>
                    <path d="M95.3306639,100.36079 L39.3129182,67.2150026 C37.5033291,66.1421388 35.3270615,66.1138918 33.4901235,67.1402003 C33.016075,67.4059315 32.6230604,67.8013898 32.3546355,68.2842047 C31.968205,68.9793952 31.8669125,69.7886201 32.0694974,70.5627978 C32.2720822,71.3364523 32.7542341,71.9829952 33.4273222,72.3821152 L89.4450679,105.527903 C90.3724,106.077674 91.3954534,106.353867 92.4200263,106.353867 C93.3954722,106.353867 94.3719311,106.103828 95.2673561,105.603228 C95.7419111,105.337497 96.1344192,104.941516 96.4033506,104.458701 C96.7897811,103.76351 96.8910736,102.954285 96.6884887,102.180631 C96.4859039,101.406976 96.003752,100.760433 95.3306639,100.36079 Z" id="Fill-1" fill="url(#linearGradient-4)"></path>
                    <g id="Group-3" transform="translate(63.047014, 32.642620)">
                        <g id="Group-2">
                            <g id="sd">
                                <mask id="mask-6" fill="white">
                                    <use xlink:href="#path-5"></use>
                                </mask>
                                <use fill="url(#linearGradient-4)" xlink:href="#path-5"></use>
                                <path d="M73.548108,45.5157496 C72.5286754,44.9232699 71.5666027,44.297241 70.6674327,43.6392738 C66.2672587,40.4117788 63.3798372,36.4156817 62.650918,31.8420774 C61.4439517,24.254244 65.8006444,16.4879852 73.6176603,10.6749045 C75.1955393,9.49834948 76.9128483,8.40450716 78.7601332,7.40093118 C79.7103154,7.98335119 80.6030489,8.60131181 81.433549,9.25385979 C85.2023106,12.2079099 87.6941438,15.8703829 88.4598501,20.15365 C89.8914547,28.1426767 85.8388276,36.4452677 77.6894557,42.7218323 C76.408076,43.7059607 75.0257783,44.6402816 73.548108,45.5157496 Z" id="Combined-Shape" fill="url(#linearGradient-7)"></path>
                            </g>
                            <polygon id="Fill-6" fill="url(#linearGradient-8)" points="58.2094589 45.3795167 39.2080021 29.3553226 68.4822695 29.3553226"></polygon>
                            <path d="M45.4886525,19.5088648 C43.5542533,21.0017284 40.8498939,22.1127409 37.5893998,22.4914231 C32.5665101,23.0744987 27.7053847,22.0576022 24.897632,19.993071 C23.5832954,19.0243416 22.7208195,17.8249171 22.5030906,16.4521544 C22.1425685,14.1746739 23.4439172,11.8436391 25.7788681,10.0988488 C27.8453034,8.55052965 30.7123391,7.47944516 34.141967,7.07667936 C39.2514605,6.47617489 43.9752995,7.38564604 46.6070171,9.46348657 C47.7327502,10.3501417 48.4770634,11.4494293 48.7057807,12.7350476 C49.1334025,15.1329459 47.9228785,17.6249603 45.4886525,19.5088648 Z" id="sd" fill="url(#linearGradient-9)"></path>
                        </g>
                    </g>
                </g>
            </g>
        </g>
    </g>
</svg>