<?xml version="1.0" encoding="UTF-8"?>
<svg width="201px" height="147px" viewBox="0 0 201 147" version="1.1" xmlns="http://www.w3.org/2000/svg" xmlns:xlink="http://www.w3.org/1999/xlink">
    <!-- Generator: Sketch 48.2 (47327) - http://www.bohemiancoding.com/sketch -->
    <title>Group 7</title>
    <desc>Created with Sketch.</desc>
    <defs>
        <linearGradient x1="54.6079478%" y1="72.6230648%" x2="137.883667%" y2="-30.7372515%" id="linearGradient-1">
            <stop stop-color="#FFFFFF" offset="0%"></stop>
            <stop stop-color="#93F4FE" offset="100%"></stop>
        </linearGradient>
        <linearGradient x1="-83.547373%" y1="74.2898737%" x2="100%" y2="36.6478283%" id="linearGradient-2">
            <stop stop-color="#FFFFFF" offset="0%"></stop>
            <stop stop-color="#93F4FE" offset="100%"></stop>
        </linearGradient>
        <linearGradient x1="100%" y1="36.6478283%" x2="-83.547373%" y2="74.2898737%" id="linearGradient-3">
            <stop stop-color="#FFFFFF" offset="0%"></stop>
            <stop stop-color="#93F4FE" offset="100%"></stop>
        </linearGradient>
        <linearGradient x1="100%" y1="23.2700899%" x2="-45.3567005%" y2="50%" id="linearGradient-4">
            <stop stop-color="#FF6236" offset="0%"></stop>
            <stop stop-color="#C80039" offset="100%"></stop>
        </linearGradient>
        <linearGradient x1="100%" y1="100%" x2="16.2605782%" y2="23.2700899%" id="linearGradient-5">
            <stop stop-color="#FF6236" offset="0%"></stop>
            <stop stop-color="#C80039" offset="100%"></stop>
        </linearGradient>
        <linearGradient x1="-52.5060119%" y1="-9.54799107%" x2="100%" y2="95.0482094%" id="linearGradient-6">
            <stop stop-color="#00457D" offset="0%"></stop>
            <stop stop-color="#001A56" offset="100%"></stop>
        </linearGradient>
    </defs>
    <g id="Page-1" stroke="none" stroke-width="1" fill="none" fill-rule="evenodd">
        <g id="Lisked" transform="translate(0.913456, -866.000000)">
            <g id="Commander" transform="translate(0.000000, 843.000000)">
                <g id="Group-7" transform="translate(0.000000, 23.500000)">
                    <g id="Page-1" fill-opacity="0.98999995">
                        <polygon id="Fill-1" fill="url(#linearGradient-1)" points="99.9054507 0.000350982434 8.88055555e-05 58.5696673 8.88055555e-05 87.088745 99.9054507 145.658061 199.812589 87.088745 199.812589 58.5696673"></polygon>
                        <polygon id="Fill-2" fill="url(#linearGradient-2)" opacity="0.45165308" points="100.350633 117.56455 100.350633 145.658061 199.812855 86.6324678 199.604162 58.7899087"></polygon>
                        <polygon id="Fill-3" fill="url(#linearGradient-3)" opacity="0.541949728" points="0 87.1251594 100.124712 145.657623 100.350278 117.558846 0.162514167 58.78947"></polygon>
                    </g>
                    <g id="Group-19-Copy-2" transform="translate(27.529722, 13.161841)"></g>
                    <polygon id="&gt;" fill="url(#linearGradient-4)" transform="translate(95.081148, 24.217788) rotate(60.000000) translate(-95.081148, -24.217788) " points="101.297537 18.7305552 89.4978139 35.2737347 89.6071277 28.1413158 95.8233773 19.445902 95.8233773 19.3180793 89.5443199 18.6249851 88.8647593 13.1618413 101.297537 15.4710757"></polygon>
                    <path d="M145.120502,45.823881 C144.909604,45.0469118 144.407665,44.3975987 143.706955,43.9962435 L115.575209,27.9131382 C113.691359,26.8351525 111.425782,26.8067845 109.51346,27.8380154 C109.019958,28.1048852 108.610815,28.5020378 108.331375,28.9869212 C107.929086,29.6850903 107.823637,30.4977822 108.034535,31.2752768 C108.245433,32.052246 108.747372,32.701559 109.448082,33.102389 L137.579828,49.1854943 C138.545215,49.7376205 139.610253,50.0149969 140.676871,50.0149969 C141.692348,50.0149969 142.708878,49.7638872 143.641049,49.2611424 C144.135079,48.9942726 144.543695,48.5965947 144.823662,48.1117112 C145.225951,47.4135422 145.331401,46.6008502 145.120502,45.823881" id="Fill-3" fill="url(#linearGradient-5)"></path>
                    <path d="M125.201571,80.0201272 C124.938067,79.0542525 124.310925,78.2470711 123.435431,77.7481338 L85.1574117,55.9588094 C82.8036554,54.6193848 79.9729555,54.5841196 77.5836261,55.865422 C76.967025,56.1971761 76.4558257,56.6908889 76.1066819,57.2936627 C75.6040466,58.1615785 75.4722942,59.1718613 75.735799,60.1383891 C75.9993037,61.1042639 76.6264451,61.9114452 77.5019396,62.4097295 L115.779959,84.1990538 C116.986152,84.8854192 118.316851,85.2302345 119.649526,85.2302345 C120.918302,85.2302345 122.188394,84.9180721 123.353086,84.2930944 C123.970345,83.9613402 124.480886,83.4669743 124.830688,82.8642006 C125.333324,81.9962847 125.465076,80.9860019 125.201571,80.0201272" id="Fill-1" fill="url(#linearGradient-6)"></path>
                    <path d="M151.724474,73.4618516 C151.46026,72.4947527 150.831432,71.6865483 149.953583,71.1869786 L76.8945905,29.7534265 C74.5345035,28.4123042 71.6961902,28.3769943 69.3004344,29.6599207 C68.6821748,29.9920953 68.1696006,30.4864339 67.8195178,31.0899716 C67.3155305,31.9589875 67.1834238,32.9705508 67.4476373,33.9383036 C67.7118508,34.9054025 68.3406789,35.7136069 69.2185282,36.2125227 L142.277521,77.6460747 C143.486958,78.33331 144.821236,78.6785624 146.157496,78.6785624 C147.429684,78.6785624 148.703193,78.3660044 149.871016,77.7402345 C150.489936,77.4080599 151.00185,76.9130674 151.352593,76.3095296 C151.856581,75.4405138 151.988687,74.4289505 151.724474,73.4618516" id="Fill-1" fill="url(#linearGradient-6)"></path>
                    <path d="M111.939585,93.9358269 C111.675371,92.968728 111.046543,92.1605236 110.168694,91.6609539 L37.1097016,50.2274019 C34.7496147,48.8862796 31.9113013,48.8509697 29.5155455,50.133896 C28.8972859,50.4660707 28.3847117,50.9604093 28.0346289,51.563947 C27.5306416,52.4329629 27.3985349,53.4445261 27.6627484,54.4122789 C27.9269619,55.3793778 28.55579,56.1875822 29.4336393,56.686498 L102.492632,98.1200501 C103.702069,98.8072854 105.036347,99.1525377 106.372607,99.1525377 C107.644795,99.1525377 108.918304,98.8399797 110.086127,98.2142098 C110.705047,97.8820352 111.216961,97.3870427 111.567704,96.783505 C112.071692,95.9144891 112.203798,94.9029259 111.939585,93.9358269" id="Fill-1-Copy-12" fill="url(#linearGradient-6)"></path>
                    <path d="M69.6655858,48.8001033 C69.3962982,47.8157677 68.7553937,46.9931586 67.8606857,46.484685 L57.1861255,40.4182758 C54.780714,39.0532506 51.8878921,39.0173113 49.4461268,40.3231034 C48.8159938,40.6611984 48.2935759,41.1643476 47.9367698,41.7786423 C47.4231037,42.6631467 47.28846,43.6927391 47.5577475,44.6777403 C47.8270351,45.6620759 48.4679396,46.484685 49.3626476,46.992493 L60.0372079,53.0589022 C61.2698718,53.7583862 62.6297742,54.109792 63.9916962,54.109792 C65.2883159,54.109792 66.5862822,53.7916632 67.7765333,53.1547402 C68.4073395,52.8166452 68.9290842,52.3128304 69.2865635,51.6985357 C69.8002296,50.8140313 69.9348734,49.7844389 69.6655858,48.8001033" id="Fill-1" fill="url(#linearGradient-6)"></path>
                </g>
            </g>
        </g>
    </g>
</svg>