<?xml version="1.0" encoding="UTF-8"?>
<svg width="24px" height="24px" viewBox="0 0 24 24" version="1.1" xmlns="http://www.w3.org/2000/svg" xmlns:xlink="http://www.w3.org/1999/xlink">
    <!-- Generator: Sketch 50.2 (55047) - http://www.bohemiancoding.com/sketch -->
    <title>protocol-logo_24px</title>
    <desc>Created with Sketch.</desc>
    <defs>
        <linearGradient x1="-5.00281532%" y1="63.4175428%" x2="109.774775%" y2="24.0167445%" id="linearGradient-1">
            <stop stop-color="#0462F5" offset="0%"></stop>
            <stop stop-color="#00ECFF" offset="100%"></stop>
        </linearGradient>
        <polygon id="path-2" points="0 5.99826973 0 17.9949519 10.4999279 23.9930789 21 17.9949519 21 5.99826973 10.4999279 0"></polygon>
        <linearGradient x1="-95.7747396%" y1="-63.1542969%" x2="110.412991%" y2="107.374463%" id="linearGradient-4">
            <stop stop-color="#008DF1" offset="0%"></stop>
            <stop stop-color="#001A56" offset="100%"></stop>
        </linearGradient>
        <linearGradient x1="123.413676%" y1="100%" x2="-69.5682767%" y2="-7.74666251%" id="linearGradient-5">
            <stop stop-color="#008DF1" offset="0%"></stop>
            <stop stop-color="#001A56" offset="100%"></stop>
        </linearGradient>
        <linearGradient x1="-73.4733136%" y1="-49.8505942%" x2="133.542526%" y2="74.6825656%" id="linearGradient-6">
            <stop stop-color="#021755" stop-opacity="0" offset="0%"></stop>
            <stop stop-color="#0097FF" offset="100%"></stop>
        </linearGradient>
        <linearGradient x1="-84.2686101%" y1="-19.8878896%" x2="148.073937%" y2="160.452304%" id="linearGradient-7">
            <stop stop-color="#008DF1" offset="0%"></stop>
            <stop stop-color="#001A56" offset="100%"></stop>
        </linearGradient>
        <linearGradient x1="150.017685%" y1="175.964488%" x2="0%" y2="-34.2932344%" id="linearGradient-8">
            <stop stop-color="#021755" stop-opacity="0" offset="0%"></stop>
            <stop stop-color="#0097FF" offset="100%"></stop>
        </linearGradient>
        <linearGradient x1="50%" y1="261.063944%" x2="-19.4463392%" y2="28.8615027%" id="linearGradient-9">
            <stop stop-color="#021755" stop-opacity="0" offset="0%"></stop>
            <stop stop-color="#0097FF" offset="100%"></stop>
        </linearGradient>
        <linearGradient x1="100%" y1="68.2837664%" x2="-19.4463392%" y2="28.8615027%" id="linearGradient-10">
            <stop stop-color="#021755" stop-opacity="0" offset="0%"></stop>
            <stop stop-color="#0097FF" offset="100%"></stop>
        </linearGradient>
        <linearGradient x1="0%" y1="-15.5301256%" x2="50%" y2="87.0796066%" id="linearGradient-11">
            <stop stop-color="#021755" stop-opacity="0" offset="0%"></stop>
            <stop stop-color="#0097FF" offset="100%"></stop>
        </linearGradient>
        <linearGradient x1="12.7073662%" y1="-58.8592249%" x2="71.8584466%" y2="119.408013%" id="linearGradient-12">
            <stop stop-color="#74F8F8" stop-opacity="0" offset="0%"></stop>
            <stop stop-color="#74F8F8" offset="100%"></stop>
        </linearGradient>
    </defs>
    <g id="protocol-logo_24px" stroke="none" stroke-width="1" fill="none" fill-rule="evenodd">
        <g id="Group-6" transform="translate(1.500000, 0.000000)">
            <mask id="mask-3" fill="white">
                <use xlink:href="#path-2"></use>
            </mask>
            <use id="Clip-2" fill-opacity="0.9" fill="url(#linearGradient-1)" opacity="0.117912946" xlink:href="#path-2"></use>
            <g id="Group" mask="url(#mask-3)">
                <g transform="translate(3.102273, 3.089109)">
                    <path d="M7.36288636,0.237623762 L0,4.62368317 L0.000238636364,13.3827327 L7.36288636,17.7595248 L7.36288636,16.7527129 L7.36288636,17.7578614 L14.7424773,13.344 L14.7269659,4.63485149 L7.36288636,0.237623762 Z M4.64935227,5.45940594 L7.36288636,3.98114851 L7.36336364,3.98091089 L10.0735568,5.56586139 L10.0718864,5.56657426 L10.0778523,5.57013861 L10.0783295,5.57013861 L7.39367045,7.0360396 L7.38102273,7.0360396 L7.368375,7.04316832 L4.64935227,5.45940594 Z M13.8540341,5.1550099 L14.7269659,4.63485149 L13.8540341,5.15572277 L13.8540341,5.1550099 Z M3.13019318,8.38431683 L5.77452273,9.96237624 L5.76831818,9.96570297 L5.77452273,9.96926733 L5.77452273,13.105901 L3.13377273,11.5264158 L3.13019318,11.5285545 L3.13019318,11.5240396 L3.12255682,11.5197624 L3.12828409,8.3900198 L3.13019318,8.39120792 L3.13019318,8.38431683 Z M8.95960227,9.97425743 L8.96867045,9.96879208 L8.96294318,9.96522772 L11.6056023,8.38788119 L11.6056023,8.3950099 L11.6058409,8.39477228 L11.6113295,11.5133465 L11.6115682,11.5245149 L8.95960227,13.1108911 L8.95960227,9.97425743 Z" id="Fill-1" fill="url(#linearGradient-4)"></path>
                    <polygon id="Fill-1" fill="url(#linearGradient-5)" opacity="0.319977679" points="13.137075 7.47388515 11.6074159 8.38683564 11.6057455 8.38778614 11.6057455 8.39467723 11.6057455 8.39467723 11.6114727 11.5134891 13.1459045 12.4105188"></polygon>
                    <path d="M13.145833,12.4145584 L8.95943523,14.9186376 L8.95943523,13.1105584 L8.95943523,9.97416238 L8.95943523,9.96727129 L8.96277614,9.96513267 L13.1370034,7.47388515 L13.145833,12.4105188 L13.145833,12.4145584 Z M14.7270375,4.63475644 L7.36271932,9.02984554 L7.36271932,17.7575287 L14.7423102,13.343905 L14.7270375,4.63475644 Z" id="Fill-3" fill="url(#linearGradient-6)" opacity="0.709430804"></path>
                    <polygon id="Fill-5" fill="url(#linearGradient-7)" opacity="0.475279018" points="11.6113773 11.5244436 8.95941136 13.1105822 8.95941136 14.9184238 13.1458091 12.4145822 13.1458091 12.4105426 11.6113773 11.5135129"></polygon>
                    <path d="M5.77461818,9.9694099 L5.77461818,13.1058059 L5.77461818,14.9138851 L1.61518636,12.4259644 L1.58822045,12.4098059 L1.59705,7.46913267 L5.77437955,9.96228119 L5.77461818,9.96251881 L5.77461818,9.9694099 Z M9.54545455e-05,4.62358812 L9.54545455e-05,13.3826376 L7.36274318,17.7594297 L7.36274318,9.02129109 L9.54545455e-05,4.62358812 Z" id="Fill-13" fill="url(#linearGradient-8)" opacity="0.654185268"></path>
                    <polygon id="Fill-15" fill="url(#linearGradient-5)" opacity="0.203069196" points="3.12260455 11.5196198 3.12809318 8.38987723 1.59700227 7.46908515 1.58817273 12.4097584 1.61513864 12.4259168 3.13000227 11.5286495"></polygon>
                    <polygon id="Fill-23" fill="url(#linearGradient-7)" opacity="0.475279018" points="1.61518636 12.4259881 5.77461818 14.9139089 5.77461818 13.1058297 3.13386818 11.5263446"></polygon>
                    <g id="Group-27" stroke-width="1" fill="none" transform="translate(0.000000, 0.175271)"></g>
                    <polygon id="Fill-40" fill="url(#linearGradient-9)" opacity="0.144308036" points="3.08210795 4.54676436 4.64923295 5.45947723 7.36276705 3.98098218 7.36276705 2.21448713"></polygon>
                    <polygon id="Fill-42" fill="url(#linearGradient-10)" opacity="0.295982143" points="7.366275 2.21246733 7.36269545 2.21436832 7.36269545 3.98110099 7.36317273 3.98086337 10.0736045 5.56557624 10.0724114 5.56628911 10.0783773 5.56985347 11.6447864 4.71440792"></polygon>
                    <path d="M7.36830341,7.04297822 L4.64928068,5.45945347 L3.08215568,4.54674059 L7.36639432,2.21256238 L11.6449057,4.71426535 L7.37426932,7.04654257 L7.36830341,7.04297822 Z M7.36281477,0.237671287 L-7.15909091e-05,4.62349307 L7.36281477,9.02143366 L14.7268943,4.63489901 L7.36281477,0.237671287 Z" id="Fill-25" fill="url(#linearGradient-11)" opacity="0.485658482"></path>
                    <path d="M7.36830341,7.04297822 L4.64928068,5.45945347 L3.08215568,4.54674059 L7.36639432,2.21256238 L11.6449057,4.71426535 L7.37426932,7.04654257 L7.36830341,7.04297822 Z M7.36281477,0.237671287 L-7.1590909e-05,4.62349307 L7.36281477,9.02143366 L14.7268943,4.63489901 L7.36281477,0.237671287 Z" id="Fill-25" fill="url(#linearGradient-12)" opacity="0.128069196"></path>
                </g>
            </g>
        </g>
    </g>
</svg>