<svg width="18" height="19" viewBox="0 0 18 19" fill="none" xmlns="http://www.w3.org/2000/svg"><path d="M9.077.834C4.15.834 0 4.829 0 9.759V19l9.075-.009c4.928 0 8.925-4.149 8.925-9.077 0-4.927-4-9.08-8.923-9.08z" fill="#000"/><path d="M9.165 4.288a5.533 5.533 0 00-4.863 8.167L3.3 15.675l3.594-.812A5.531 5.531 0 109.17 4.288h-.005z" fill="#FFF9AE"/><path d="M13.49 13.244a5.53 5.53 0 01-6.595 1.61l-3.594.823 3.659-.432a5.53 5.53 0 006.594-8.79 5.53 5.53 0 01-.064 6.789z" fill="#00AEEF"/><path d="M13.18 12.193a5.53 5.53 0 01-6.39 2.29L3.3 15.678l3.595-.814a5.53 5.53 0 005.64-9.428 5.53 5.53 0 01.646 6.758z" fill="#00A94F"/><path d="M4.633 12.578a5.532 5.532 0 018.924-6.125 5.532 5.532 0 00-9.255 6.002L3.3 15.675l1.332-3.097z" fill="#F15D22"/><path d="M4.302 12.456a5.532 5.532 0 018.233-7.02A5.532 5.532 0 003.96 12.37l-.658 3.308 1-3.222z" fill="#D0232B"/></svg>