<svg width="18" height="14" viewBox="0 0 18 14" fill="none" xmlns="http://www.w3.org/2000/svg"><path d="M15.29 1.301A14.687 14.687 0 0011.608.167a9.358 9.358 0 00-.469.954 14.071 14.071 0 00-4.077 0 11.705 11.705 0 00-.468-.954 14.48 14.48 0 00-3.682 1.134C.583 4.74-.047 8.096.267 11.408a15 15 0 004.51 2.259c.36-.486.684-1.008.963-1.557a9.444 9.444 0 01-1.521-.73 5.75 5.75 0 00.369-.287c2.934 1.34 6.112 1.34 9.01 0 .125.099.242.198.368.288a9.56 9.56 0 01-1.52.729c.278.549.602 1.07.962 1.557a14.918 14.918 0 004.51-2.26c.387-3.833-.613-7.163-2.629-10.106zM6.144 9.365c-.882 0-1.602-.801-1.602-1.782 0-.98.702-1.782 1.602-1.782.89 0 1.62.801 1.602 1.782 0 .981-.711 1.782-1.602 1.782zm5.914 0c-.882 0-1.603-.801-1.603-1.782 0-.98.703-1.782 1.603-1.782.89 0 1.62.801 1.601 1.782 0 .981-.702 1.782-1.601 1.782z" fill="#0C152E"/></svg>