<svg width="18" height="18" viewBox="0 0 18 18" fill="none" xmlns="http://www.w3.org/2000/svg"><path fill-rule="evenodd" clip-rule="evenodd" d="M9 .14c-4.972 0-9 4.027-9 9a8.994 8.994 0 006.154 8.538c.45.079.619-.191.619-.428 0-.213-.012-.922-.012-1.676-2.26.416-2.846-.551-3.026-1.057-.101-.26-.54-1.058-.922-1.272-.315-.168-.765-.585-.012-.596.71-.011 1.215.653 1.384.923.81 1.36 2.104.978 2.621.742.08-.585.315-.979.574-1.204-2.002-.225-4.095-1-4.095-4.443 0-.98.349-1.79.923-2.42-.09-.224-.405-1.147.09-2.384 0 0 .753-.236 2.475.922a8.351 8.351 0 012.25-.303c.765 0 1.53.1 2.25.303 1.72-1.17 2.475-.922 2.475-.922.495 1.237.18 2.16.09 2.385.573.63.922 1.429.922 2.419 0 3.453-2.104 4.218-4.106 4.443.326.282.607.822.607 1.665 0 1.204-.01 2.172-.01 2.475 0 .237.168.518.618.428A9.014 9.014 0 0018 9.139c0-4.972-4.027-9-9-9z" fill="#fff"/></svg>