<svg width="32" height="32" viewBox="0 0 32 32" fill="none" xmlns="http://www.w3.org/2000/svg">
<circle cx="16" cy="16" r="15.5" stroke="#DFE6F2"/>
<path d="M11.2 12.28C10.9128 12.28 10.68 12.5128 10.68 12.8C10.68 13.0872 10.9128 13.32 11.2 13.32H12.8C13.0872 13.32 13.32 13.0872 13.32 12.8C13.32 12.5128 13.0872 12.28 12.8 12.28H11.2Z" fill="#4070F4"/>
<path d="M10.68 15.2C10.68 14.9128 10.9128 14.68 11.2 14.68H12.8C13.0872 14.68 13.32 14.9128 13.32 15.2C13.32 15.4872 13.0872 15.72 12.8 15.72H11.2C10.9128 15.72 10.68 15.4872 10.68 15.2Z" fill="#4070F4"/>
<path d="M11.2 17.08C10.9128 17.08 10.68 17.3128 10.68 17.6C10.68 17.8872 10.9128 18.12 11.2 18.12H12.8C13.0872 18.12 13.32 17.8872 13.32 17.6C13.32 17.3128 13.0872 17.08 12.8 17.08H11.2Z" fill="#4070F4"/>
<path fill-rule="evenodd" clip-rule="evenodd" d="M11.2 9.59998C9.8745 9.59998 8.79999 10.6745 8.79999 12V20C8.79999 21.3255 9.8745 22.4 11.2 22.4H20.8C22.1255 22.4 23.2 21.3255 23.2 20V12C23.2 10.6745 22.1255 9.59998 20.8 9.59998H11.2ZM20.8 10.64H15.72V21.36H20.8C21.5511 21.36 22.16 20.7511 22.16 20V12C22.16 11.2489 21.5511 10.64 20.8 10.64ZM11.2 21.36H14.68V10.64H11.2C10.4489 10.64 9.83999 11.2489 9.83999 12V20C9.83999 20.7511 10.4489 21.36 11.2 21.36Z" fill="#4070F4"/>
</svg>
