<svg width="32" height="32" viewBox="0 0 32 32" fill="none" xmlns="http://www.w3.org/2000/svg">
<circle cx="16" cy="16" r="15.5" stroke="#DFE6F2"/>
<mask id="path-2-inside-1_1_594" fill="white">
<path fill-rule="evenodd" clip-rule="evenodd" d="M8.79999 12.6C8.79999 10.9431 10.1431 9.59998 11.8 9.59998H20.2C21.8568 9.59998 23.2 10.9431 23.2 12.6V19.4C23.2 21.0568 21.8568 22.4 20.2 22.4H11.8C10.1431 22.4 8.79999 21.0568 8.79999 19.4V12.6ZM15.2 10.5094C15.559 10.5094 15.85 10.8004 15.85 11.1594V20.8406C15.85 21.1996 15.559 21.4906 15.2 21.4906C14.841 21.4906 14.55 21.1996 14.55 20.8406V11.1594C14.55 10.8004 14.841 10.5094 15.2 10.5094ZM11.2 12.15C10.841 12.15 10.55 12.441 10.55 12.8C10.55 13.159 10.841 13.45 11.2 13.45H12.8C13.159 13.45 13.45 13.159 13.45 12.8C13.45 12.441 13.159 12.15 12.8 12.15H11.2ZM10.55 15.2C10.55 14.841 10.841 14.55 11.2 14.55H12.8C13.159 14.55 13.45 14.841 13.45 15.2C13.45 15.559 13.159 15.85 12.8 15.85H11.2C10.841 15.85 10.55 15.559 10.55 15.2ZM11.2 16.95C10.841 16.95 10.55 17.241 10.55 17.6C10.55 17.959 10.841 18.25 11.2 18.25H12.8C13.159 18.25 13.45 17.959 13.45 17.6C13.45 17.241 13.159 16.95 12.8 16.95H11.2Z"/>
</mask>
<path fill-rule="evenodd" clip-rule="evenodd" d="M8.79999 12.6C8.79999 10.9431 10.1431 9.59998 11.8 9.59998H20.2C21.8568 9.59998 23.2 10.9431 23.2 12.6V19.4C23.2 21.0568 21.8568 22.4 20.2 22.4H11.8C10.1431 22.4 8.79999 21.0568 8.79999 19.4V12.6ZM15.2 10.5094C15.559 10.5094 15.85 10.8004 15.85 11.1594V20.8406C15.85 21.1996 15.559 21.4906 15.2 21.4906C14.841 21.4906 14.55 21.1996 14.55 20.8406V11.1594C14.55 10.8004 14.841 10.5094 15.2 10.5094ZM11.2 12.15C10.841 12.15 10.55 12.441 10.55 12.8C10.55 13.159 10.841 13.45 11.2 13.45H12.8C13.159 13.45 13.45 13.159 13.45 12.8C13.45 12.441 13.159 12.15 12.8 12.15H11.2ZM10.55 15.2C10.55 14.841 10.841 14.55 11.2 14.55H12.8C13.159 14.55 13.45 14.841 13.45 15.2C13.45 15.559 13.159 15.85 12.8 15.85H11.2C10.841 15.85 10.55 15.559 10.55 15.2ZM11.2 16.95C10.841 16.95 10.55 17.241 10.55 17.6C10.55 17.959 10.841 18.25 11.2 18.25H12.8C13.159 18.25 13.45 17.959 13.45 17.6C13.45 17.241 13.159 16.95 12.8 16.95H11.2Z" fill="#4070F4"/>
<path d="M11.8 8.29998C9.42516 8.29998 7.49999 10.2252 7.49999 12.6H10.1C10.1 11.6611 10.8611 10.9 11.8 10.9V8.29998ZM20.2 8.29998H11.8V10.9H20.2V8.29998ZM24.5 12.6C24.5 10.2252 22.5748 8.29998 20.2 8.29998V10.9C21.1389 10.9 21.9 11.6611 21.9 12.6H24.5ZM24.5 19.4V12.6H21.9V19.4H24.5ZM20.2 23.7C22.5748 23.7 24.5 21.7748 24.5 19.4H21.9C21.9 20.3389 21.1389 21.1 20.2 21.1V23.7ZM11.8 23.7H20.2V21.1H11.8V23.7ZM7.49999 19.4C7.49999 21.7748 9.42517 23.7 11.8 23.7V21.1C10.8611 21.1 10.1 20.3389 10.1 19.4H7.49999ZM7.49999 12.6V19.4H10.1V12.6H7.49999ZM17.15 11.1594C17.15 10.0824 16.2769 9.20937 15.2 9.20937V11.8094C14.841 11.8094 14.55 11.5184 14.55 11.1594H17.15ZM17.15 20.8406V11.1594H14.55V20.8406H17.15ZM15.2 22.7906C16.2769 22.7906 17.15 21.9176 17.15 20.8406H14.55C14.55 20.4816 14.841 20.1906 15.2 20.1906V22.7906ZM13.25 20.8406C13.25 21.9176 14.123 22.7906 15.2 22.7906V20.1906C15.559 20.1906 15.85 20.4816 15.85 20.8406H13.25ZM13.25 11.1594V20.8406H15.85V11.1594H13.25ZM15.2 9.20937C14.123 9.20937 13.25 10.0824 13.25 11.1594H15.85C15.85 11.5184 15.559 11.8094 15.2 11.8094V9.20937ZM11.85 12.8C11.85 13.159 11.559 13.45 11.2 13.45V10.85C10.123 10.85 9.24999 11.723 9.24999 12.8H11.85ZM11.2 12.15C11.559 12.15 11.85 12.441 11.85 12.8H9.24999C9.24999 13.8769 10.123 14.75 11.2 14.75V12.15ZM12.8 12.15H11.2V14.75H12.8V12.15ZM12.15 12.8C12.15 12.441 12.441 12.15 12.8 12.15V14.75C13.8769 14.75 14.75 13.8769 14.75 12.8H12.15ZM12.8 13.45C12.441 13.45 12.15 13.159 12.15 12.8H14.75C14.75 11.723 13.8769 10.85 12.8 10.85V13.45ZM11.2 13.45H12.8V10.85H11.2V13.45ZM11.2 13.25C10.123 13.25 9.24999 14.123 9.24999 15.2H11.85C11.85 15.559 11.559 15.85 11.2 15.85V13.25ZM12.8 13.25H11.2V15.85H12.8V13.25ZM14.75 15.2C14.75 14.123 13.8769 13.25 12.8 13.25V15.85C12.441 15.85 12.15 15.559 12.15 15.2H14.75ZM12.8 17.15C13.8769 17.15 14.75 16.2769 14.75 15.2H12.15C12.15 14.841 12.441 14.55 12.8 14.55V17.15ZM11.2 17.15H12.8V14.55H11.2V17.15ZM9.24999 15.2C9.24999 16.2769 10.123 17.15 11.2 17.15V14.55C11.559 14.55 11.85 14.841 11.85 15.2H9.24999ZM11.85 17.6C11.85 17.959 11.559 18.25 11.2 18.25V15.65C10.123 15.65 9.24999 16.523 9.24999 17.6H11.85ZM11.2 16.95C11.559 16.95 11.85 17.241 11.85 17.6H9.24999C9.24999 18.6769 10.123 19.55 11.2 19.55V16.95ZM12.8 16.95H11.2V19.55H12.8V16.95ZM12.15 17.6C12.15 17.241 12.441 16.95 12.8 16.95V19.55C13.8769 19.55 14.75 18.6769 14.75 17.6H12.15ZM12.8 18.25C12.441 18.25 12.15 17.959 12.15 17.6H14.75C14.75 16.523 13.8769 15.65 12.8 15.65V18.25ZM11.2 18.25H12.8V15.65H11.2V18.25Z" fill="#4070F4" mask="url(#path-2-inside-1_1_594)"/>
</svg>
