<?xml version="1.0" encoding="UTF-8"?>
<svg width="16px" height="16px" viewBox="0 0 16 16" version="1.1" xmlns="http://www.w3.org/2000/svg" xmlns:xlink="http://www.w3.org/1999/xlink">
    <!-- Generator: sketchtool 58 (101010) - https://sketch.com -->
    <title>4B2B71D4-07AE-435D-A5C7-A65540A28599</title>
    <desc>Created with sketchtool.</desc>
    <g id="Page-1" stroke="none" stroke-width="1" fill="none" fill-rule="evenodd" opacity="0.64">
        <g id="Lisk-Documentation-Page---" transform="translate(-1310.000000, -2097.000000)">
            <g id="o-footer/desktop" transform="translate(0.000000, 1329.000000)">
                <g id="Footer">
                    <g id="Group-17" transform="translate(1059.000000, 766.000000)">
                        <g id="Stacked-Group" transform="translate(131.000000, 2.000000)">
                            <g id="a-icon-sm/linkedin/type-blue/16x16" transform="translate(120.000000, 0.000000)">
                                <rect id="Rectangle" fill-opacity="0" fill="#FFFFFF" x="0" y="0" width="16" height="16"></rect>
                                <g id="Group-5">
                                    <rect id="Rectangle" fill-opacity="0.217493444" fill="#FFFFFF" opacity="0" x="0" y="0" width="16" height="16"></rect>
                                    <path d="M15.2049689,0 L0.695652174,0 C0.298136646,0 0,0.3 0,0.7 L0,15.4 C0,15.7 0.298136646,16 0.695652174,16 L15.3043478,16 C15.7018634,16 16,15.7 16,15.3 L16,0.7 C15.9006211,0.3 15.6024845,0 15.2049689,0 Z M4.67080745,13.6 L2.38509317,13.6 L2.38509317,6 L4.77018634,6 L4.77018634,13.6 L4.67080745,13.6 Z M3.57763975,5 C2.7826087,5 2.1863354,4.3 2.1863354,3.6 C2.1863354,2.8 2.7826087,2.2 3.57763975,2.2 C4.37267081,2.2 4.9689441,2.8 4.9689441,3.6 C4.86956522,4.3 4.27329193,5 3.57763975,5 Z M13.515528,13.6 L11.1304348,13.6 L11.1304348,9.9 C11.1304348,9 11.1304348,7.9 9.9378882,7.9 C8.74534161,7.9 8.54658385,8.9 8.54658385,9.9 L8.54658385,13.7 L6.16149068,13.7 L6.16149068,6 L8.44720497,6 L8.44720497,7 L8.44720497,7 C8.74534161,6.4 9.54037267,5.8 10.6335404,5.8 C13.0186335,5.8 13.4161491,7.4 13.4161491,9.4 L13.4161491,13.6 L13.515528,13.6 Z" id="Shape" fill="#C2D2FF" fill-rule="nonzero"></path>
                                </g>
                            </g>
                        </g>
                    </g>
                </g>
            </g>
        </g>
    </g>
</svg>