<svg width="20" height="18" viewBox="0 0 20 18" fill="none" xmlns="http://www.w3.org/2000/svg">
<path d="M9.28509 6.415C9.28509 6.02011 9.6052 5.7 10.0001 5.7C10.395 5.7 10.7151 6.02011 10.7151 6.415V11.585C10.7151 11.9799 10.395 12.3 10.0001 12.3C9.6052 12.3 9.28509 11.9799 9.28509 11.585V6.415Z" fill="#0C152E"/>
<path d="M9.28509 14.115C9.28509 13.7201 9.6052 13.4 10.0001 13.4C10.395 13.4 10.7151 13.7201 10.7151 14.115C10.7151 14.5099 10.395 14.83 10.0001 14.83C9.6052 14.83 9.28509 14.5099 9.28509 14.115Z" fill="#0C152E"/>
<path fill-rule="evenodd" clip-rule="evenodd" d="M8.15584 1.3C9.00915 -0.16667 11.1424 -0.16667 11.9957 1.3L19.6755 14.5C20.5288 15.9667 19.4621 17.8 17.7555 17.8H2.39604C0.68943 17.8 -0.377201 15.9667 0.476104 14.5L8.15584 1.3ZM10.7478 2.015L18.4275 15.215C18.7262 15.7283 18.3528 16.37 17.7555 16.37H2.39604C1.79873 16.37 1.42541 15.7283 1.72406 15.215L9.4038 2.015C9.70246 1.50166 10.4491 1.50166 10.7478 2.015Z" fill="#0C152E"/>
</svg>
