<svg id="Layer_1" data-name="Layer 1" xmlns="http://www.w3.org/2000/svg" xmlns:xlink="http://www.w3.org/1999/xlink" viewBox="0 0 804.77 495.46"><defs><linearGradient id="linear-gradient" x1="-530.99" y1="6.65" x2="-531.23" y2="42.1" gradientTransform="matrix(-0.07, -0.91, 1.61, -0.12, 245.91, -334.45)" gradientUnits="userSpaceOnUse"><stop offset="0" stop-color="#0a1630" stop-opacity="0"/><stop offset="0.11" stop-color="#152959" stop-opacity="0.1"/><stop offset="0.28" stop-color="#254290" stop-opacity="0.25"/><stop offset="0.45" stop-color="#3156bc" stop-opacity="0.36"/><stop offset="0.63" stop-color="#3965db" stop-opacity="0.44"/><stop offset="0.81" stop-color="#3e6dee" stop-opacity="0.48"/><stop offset="1" stop-color="#4070f4" stop-opacity="0.5"/></linearGradient></defs><path d="M381,196.1a50.51,50.51,0,0,1,4-22.35l-36.89,5.91a4.52,4.52,0,0,0-3,2,21.93,21.93,0,0,0-2.85,6.36,17.23,17.23,0,0,1,6-2C359.21,184.42,381,196.1,381,196.1Z" style="fill:#c5cfe4"/><path d="M651.87,465.6a58.37,58.37,0,0,0,58.37-58.37h0a58.37,58.37,0,0,0-58.37-58.37H527.41a58.66,58.66,0,0,0-7.66.5" style="fill:none;stroke:#254898;stroke-miterlimit:10"/><path d="M474.53,382.47A58.25,58.25,0,0,0,469,407.23h0a58.39,58.39,0,0,0,39.1,55.12" style="fill:none;stroke:#254898;stroke-miterlimit:10"/><path d="M668.54,348.86H651.87a58.37,58.37,0,0,1,58.37,58.37h0a58.37,58.37,0,0,1-58.37,58.37h28.91A52.25,52.25,0,0,0,733,413.35h0A64.49,64.49,0,0,0,668.54,348.86Z" style="fill:#254898;stroke:#254898;stroke-miterlimit:10;stroke-width:0.5px"/><rect x="534.7" y="336.76" width="124.67" height="12.11" style="fill:none;stroke:#254898;stroke-miterlimit:10"/><polygon points="666.59 337.16 612.38 337.01 655.67 293.67 709.97 293.73 666.59 337.16" style="fill:none;stroke:#254898;stroke-miterlimit:10"/><polygon points="612.38 337.16 600.5 337.01 643.79 293.67 655.76 293.73 612.38 337.16" style="fill:#254898;stroke:#254898;stroke-miterlimit:10"/><rect x="196.02" y="119.39" width="93.12" height="58.6" rx="3.99" style="fill:none;stroke:#254898;stroke-miterlimit:10"/><polygon points="325.78 405.09 274.05 405.09 214.27 464.87 265.16 465.71 325.78 405.09" style="fill:#2bd67b"/><polygon points="108.28 242.52 137.94 242.52 172.21 276.79 143.04 277.28 108.28 242.52" style="fill:#4070f4"/><line x1="170.02" y1="367.86" x2="34.49" y2="367.92" style="fill:none;stroke:#254898;stroke-miterlimit:10"/><line x1="28.48" y1="465.71" x2="770.85" y2="465.71" style="fill:none;stroke:#254898;stroke-miterlimit:10"/><path d="M396.14,218.94l-4.06,103.12a136.31,136.31,0,0,0-1.37,22.39L393,451.22l-7,13.83h65.53l-.77-120,2.54-7.27" style="fill:none;stroke:#254898;stroke-miterlimit:10"/><circle cx="415.8" cy="112.52" r="20.33" style="fill:#fff"/><path d="M478,207.94l31.45,125.25,72.49,131.86H508l.77-11.34L456.91,345.76c-6-11.61-31.31-91.77-31.31-91.77" style="fill:none;stroke:#254898;stroke-miterlimit:10"/><polygon points="448.42 180.31 428.56 215.48 456.45 175.95 448.42 180.31" style="fill:#2e407d"/><path d="M396,107.66c0,.2-.06.48-.12.71l37.3,14.72a19.89,19.89,0,0,0,2.51-6.31Z" style="fill:#254898"/><polyline points="449 210.86 492.38 333.91 575.19 465.01 582.5 465.01 510.01 333.16 477.95 207.94" style="fill:#254898"/><polygon points="349.87 122.58 356.83 162.04 282.37 163.03 281.07 141.06 349.87 122.58" style="opacity:0.42;fill:url(#linear-gradient)"/><polygon points="451.47 345.88 451.51 465.05 445.37 465.05 450.74 345 453.6 337.84 451.47 345.88" style="fill:#254898;stroke:#254898;stroke-miterlimit:10;stroke-width:2px"/><path d="M357.81,157.49l-7-34A17.32,17.32,0,0,0,337.33,144h0A17.33,17.33,0,0,0,357.81,157.49Z" style="fill:#fff"/><path d="M336.9,144.1a17.78,17.78,0,0,1,13.81-21l.43-.09,7.19,34.82-.43.08A17.78,17.78,0,0,1,338,147.48,18.42,18.42,0,0,1,336.9,144.1Zm13.56-20A16.9,16.9,0,0,0,345,154.63a16.75,16.75,0,0,0,12.28,2.51Z" style="fill:#4070f4"/><rect x="341.83" y="122.29" width="12.8" height="40.95" transform="translate(718.14 212.21) rotate(168.34)" style="fill:#254898"/><path d="M337.31,123.67l13.4-2.76,8.45,41-13.39,2.77ZM350,121.94l-11.69,2.41,8.1,39.25,11.69-2.41Z" style="fill:#4070f4"/><rect x="354.21" y="162.24" width="7.71" height="56.35" transform="translate(747.23 304.53) rotate(168.34)" style="fill:#254898"/><path d="M348.08,163.26l8.41-1.73,11.57,56-8.41,1.74Zm7.73-.7-6.7,1.38,11.21,54.33,6.71-1.38Z" style="fill:#4070f4"/><path d="M420.8,89a23.7,23.7,0,0,0-28.42,17.8l46.23,10.62A23.72,23.72,0,0,0,420.8,89Z" style="fill:#2bd67b"/><path d="M416,247.31c-13.51,0-28.86-8.22-45.11-16.93-6.42-3.44-15.95-8.54-19.74-9.58a17.5,17.5,0,0,1-3-34.82c11-1.56,22.86,4.78,39.23,13.55,7.13,3.82,19.56,10.48,26,12.31,3.86-5.23,8.93-18.72,11.52-25.62,4.29-11.39,7.67-20.38,12.93-26.21a17.5,17.5,0,0,1,26.26,23.14c-1.49,2.27-4.45,10.15-6.43,15.39C449.56,220.27,439.39,247.31,416,247.31Zm47.9-63.85h0Z" style="fill:#dfe6f2"/><path d="M457.73,198.54c-1.41,3.76-2.88,7.67-4.47,11.58L478,207.94l-6.12-26.53-7.94,2.1C462.4,186.15,459.62,193.54,457.73,198.54Z" style="fill:#4070f4"/><path d="M413.45,211.84c2.59-3.51,5.72-10.73,8.29-17.19l-29.08,7.67S407,210.22,413.45,211.84Z" style="fill:#4070f4"/><path d="M463.94,183.5c-1.54,2.64-4.32,10-6.21,15-4.54,12.09-9.71,25.81-17.42,35.62h0c8.69,0,32-53.23,32-53.23Z" style="fill:#254898"/><path d="M416.67,145.6c-22.58,6-37.35,27.85-36.1,50.29l12.09,6.43,83-21.93C468.89,154.59,442.47,138.81,416.67,145.6Z" style="fill:#4070f4"/><ellipse cx="419.05" cy="148.54" rx="14.65" ry="3.45" transform="translate(-22.53 96.87) rotate(-12.84)" style="fill:#254898"/><path d="M406.51,150.58c-2.14.27-20.53,22.25-12.54,51.67" style="fill:none;stroke:#254898;stroke-miterlimit:10"/><path d="M413.45,211.84c1.91-2.59,4.12-7.21,6.18-12.05L400,206.07A90.43,90.43,0,0,0,413.45,211.84Z" style="fill:none"/><path d="M421.3,195.73l-1.66,4C420.21,198.42,420.77,197.06,421.3,195.73Z" style="fill:none"/><path d="M419.63,199.79v0l1.66-4,.44-1.08L415,196.42l-22.36,5.9s2.72,1.48,7.3,3.75Z" style="fill:#254898"/><path d="M419.63,199.79v0Z" style="fill:#254898"/><path d="M421.31,195.71h0v0Z" style="fill:#254898"/><path d="M582.15,177.21v-5.33a2,2,0,0,1,2-2h80.75" style="fill:none;stroke:#254898;stroke-miterlimit:10"/><path d="M561.86,245.09H528a2,2,0,0,0-2,2l.62,101.67" style="fill:none;stroke:#254898;stroke-miterlimit:10"/><path d="M390.73,337.84H352.61a2,2,0,0,1-2-2v-56a2,2,0,0,1,2-2h41.21" style="fill:none;stroke:#254898;stroke-miterlimit:10"/><path d="M710.81,185.58v11.27a1.92,1.92,0,0,0,1.92,1.92h56.2a1.92,1.92,0,0,0,1.92-1.92V140.66a1.92,1.92,0,0,0-1.92-1.92h-56.2a1.92,1.92,0,0,0-1.92,1.92v11.42" style="fill:none;stroke:#254898;stroke-miterlimit:10"/><path d="M110.47,68.35l-71.84-.64a2,2,0,0,0-2,2L34.49,367.92" style="fill:none;stroke:#254898;stroke-miterlimit:10"/><path d="M34.49,210.9H238.84a2,2,0,0,0,2-2V190.53" style="fill:none;stroke:#254898;stroke-miterlimit:10"/><path d="M662.55,67.69H584.41a2,2,0,0,0-2,2L582,243.15a2,2,0,0,1-2,2l-18.9,0" style="fill:none;stroke:#254898;stroke-miterlimit:10"/><path d="M162.8,357.12H79.61" style="fill:none;stroke:#254898;stroke-linejoin:round;stroke-dasharray:4"/><circle cx="739.83" cy="168.32" r="14.34" style="fill:#f7e36d"/><circle cx="739.83" cy="168.32" r="14.34" style="fill:none;stroke:#0c152e;stroke-miterlimit:10"/><circle cx="739.83" cy="168.32" r="12.41" style="fill:none;stroke:#0c152e;stroke-linecap:round;stroke-miterlimit:10"/><rect x="736.69" y="165.69" width="5.26" height="5.26" rx="2" transform="translate(97.52 572.08) rotate(-45)" style="fill:#0c152e"/><path d="M739.83,182.66a14.34,14.34,0,0,0,0-28.68h-.17a1.59,1.59,0,0,1-.34,0l2-.16s16.11-1.25,15.87,14.5-15.87,14.5-15.87,14.5l-2-.17h.51Z" style="fill:#254898"/><line x1="678.45" y1="171.92" x2="705.61" y2="171.92" style="fill:none;stroke:#254898;stroke-miterlimit:10"/><line x1="690.52" y1="167.23" x2="717.68" y2="167.23" style="fill:none;stroke:#254898;stroke-miterlimit:10"/><circle cx="739.83" cy="67.32" r="14.34" style="fill:#f7e36d"/><circle cx="739.83" cy="67.32" r="14.34" style="fill:none;stroke:#0c152e;stroke-miterlimit:10"/><circle cx="739.83" cy="67.32" r="12.41" style="fill:none;stroke:#0c152e;stroke-linecap:round;stroke-miterlimit:10"/><rect x="736.69" y="64.69" width="5.26" height="5.26" rx="2" transform="translate(168.94 542.49) rotate(-45)" style="fill:#0c152e"/><path d="M739.83,81.66a14.34,14.34,0,0,0,0-28.68h-.17a1.59,1.59,0,0,1-.34,0l2-.16s16.11-1.25,15.87,14.5-15.87,14.5-15.87,14.5l-2-.17h.51Z" style="fill:#254898"/><line x1="678.45" y1="70.92" x2="705.61" y2="70.92" style="fill:none;stroke:#254898;stroke-miterlimit:10"/><line x1="690.52" y1="66.23" x2="717.68" y2="66.23" style="fill:none;stroke:#254898;stroke-miterlimit:10"/><rect x="202.54" y="359.88" width="34.88" height="5.52" rx="2.76" style="fill:none;stroke:#254898;stroke-miterlimit:10"/><rect x="241.5" y="359.65" width="25.61" height="5.52" rx="2.76" style="fill:none;stroke:#254898;stroke-miterlimit:10"/><rect x="213.5" y="370.65" width="33.61" height="5.52" rx="2.76" style="fill:none;stroke:#254898;stroke-miterlimit:10"/><rect x="252.54" y="370.88" width="14.88" height="5.52" rx="2.76" style="fill:none;stroke:#254898;stroke-miterlimit:10"/><rect x="193.5" y="370.65" width="13.61" height="5.52" rx="2.76" style="fill:none;stroke:#254898;stroke-miterlimit:10"/><path d="M170,50.54V39.91a2,2,0,0,0-2-2H112.47a2,2,0,0,0-2,2V95.46a2,2,0,0,0,2,2H168a2,2,0,0,0,2-2V84.84" style="fill:none;stroke:#254898;stroke-miterlimit:10"/><path d="M230.54,351.2V339.84a2,2,0,0,0-2-2h-56a2,2,0,0,0-2,2v56a2,2,0,0,0,2,2h56a2,2,0,0,0,2-2V385.5" style="fill:none;stroke:#254898;stroke-miterlimit:10"/><path d="M710.81,84.58V95.71a2,2,0,0,0,2,2h56a2,2,0,0,0,2-2v-56a2,2,0,0,0-2-2h-56a2,2,0,0,0-2,2V51.08" style="fill:none;stroke:#254898;stroke-miterlimit:10"/><rect x="159.76" y="59.43" width="34.88" height="5.52" rx="2.76" style="fill:none;stroke:#254898;stroke-miterlimit:10"/><rect x="130.06" y="59.2" width="25.61" height="5.52" rx="2.76" style="fill:none;stroke:#254898;stroke-miterlimit:10"/><rect x="150.06" y="70.2" width="33.61" height="5.52" rx="2.76" style="fill:none;stroke:#254898;stroke-miterlimit:10"/><rect x="129.76" y="70.43" width="14.88" height="5.52" rx="2.76" style="fill:none;stroke:#254898;stroke-miterlimit:10"/><rect x="190.06" y="70.2" width="13.61" height="5.52" rx="2.76" style="fill:none;stroke:#254898;stroke-miterlimit:10"/><g style="opacity:0.52"><rect x="207.46" y="134.54" width="54.25" height="5.52" rx="2.76" style="fill:#254898"/></g><g style="opacity:0.52"><rect x="268.22" y="134.54" width="9.33" height="5.52" rx="2.76" style="fill:#254898"/></g><g style="opacity:0.52"><rect x="207.46" y="146.08" width="25.61" height="5.52" rx="2.76" style="fill:#254898"/></g><rect x="238.15" y="146.32" width="16.88" height="5.52" rx="2.76" style="fill:#2bd67b"/><g style="opacity:0.52"><rect x="221.46" y="157.08" width="35.61" height="5.52" rx="2.76" style="fill:#254898"/></g><g style="opacity:0.52"><rect x="207.46" y="157.08" width="9.33" height="5.52" rx="2.76" style="fill:#254898"/></g><g style="opacity:0.52"><rect x="262.6" y="157.08" width="14.61" height="5.52" rx="2.76" style="fill:#254898"/></g><g style="opacity:0.52"><rect x="260.6" y="146.08" width="16.61" height="5.52" rx="2.76" style="fill:#254898"/></g></svg>