<svg id="Isolation_Mode" data-name="Isolation Mode" xmlns="http://www.w3.org/2000/svg" viewBox="0 0 2004.79 934.83"><rect x="632.1" y="488.26" width="270" height="100" style="fill:#a7e8c2"/><rect x="632.1" y="388.26" width="270" height="100" style="fill:#2bd67b"/><rect x="632.1" y="288.26" width="270" height="100" style="fill:#2bd67b"/><rect x="902.1" y="288.26" width="270" height="100" style="fill:#f7e36d"/><rect x="902.1" y="388.26" width="270" height="100" style="fill:#f7e36d"/><rect x="902.1" y="488.26" width="270" height="100" style="fill:#2bd67b"/><rect x="1442.1" y="488.26" width="270" height="100" style="fill:#ed566c"/><rect x="1442.1" y="388.26" width="270" height="100" style="fill:#992836"/><rect x="1442.1" y="288.26" width="270" height="100" style="fill:#992836"/><rect x="284.1" y="178.66" width="348" height="409.6" style="fill:#fff"/><rect x="1172.1" y="488.26" width="270" height="100" style="fill:#f7e36d"/><rect x="1172.1" y="388.26" width="270" height="100" style="fill:#f7e36d"/><rect x="1172.1" y="288.26" width="270" height="100" style="fill:#ed566c"/><path d="M424.68,326.77h13.5v2.4H427.29v6.57h10v2.4h-10v7.25h10.89v2.37h-13.5Z"/><path d="M441.48,343.29c0-2.58,1.83-4.79,6.33-4.79a13.35,13.35,0,0,1,3.78.54V337.5c0-1.71-1-3.17-3.54-3.17-2.25,0-3.36,1.25-3.39,2.73h-2.43c0-2.94,2.46-4.89,5.82-4.89,3.93,0,6,2.37,6,5.28v10.31h-2.13l-.18-2.15h-.12a5.33,5.33,0,0,1-4.8,2.43C443.49,348,441.48,346,441.48,343.29Zm10.11-1.46V341a12.57,12.57,0,0,0-3.78-.54c-2.49,0-3.78,1-3.78,2.76,0,1.53,1,2.67,3.24,2.67A4.11,4.11,0,0,0,451.59,341.83Z"/><path d="M458,342.7h2.52c0,2,1.56,3.09,3.75,3.09s3.51-.72,3.51-2.2c0-1-.69-1.82-2.34-2.18l-3.06-.58c-2.52-.5-3.9-2-3.9-4.29,0-2.54,2.19-4.37,5.58-4.37s5.91,1.89,5.91,4.95h-2.46c-.09-2-1.53-2.82-3.45-2.82s-3.15.75-3.15,2.24c0,1.21,1,1.9,2.67,2.17l2.4.45c2.88.66,4.35,1.8,4.35,4.43,0,2.82-2.76,4.45-6.06,4.45C460.59,348,458,346.05,458,342.7Z"/><path d="M476,354.33l2.61-6.69,0-.06-6.15-14.84v-.3h2.7l4.65,12h.12l4.5-12H487v.3l-8.49,21.89H476Z"/><line x1="284.1" y1="588.26" x2="284.1" y2="178.66" style="fill:#0c152e;stroke:#0c152e;stroke-miterlimit:10"/><rect x="632.1" y="178.66" width="1080" height="110" style="fill:#f8f9fb"/><rect x="632.1" y="47.78" width="1080" height="130.88" style="fill:#f8f9fb"/><line x1="284.1" y1="488.26" x2="1712.1" y2="488.26" style="fill:none;stroke:#0c152e;stroke-miterlimit:10"/><line x1="284.1" y1="588.26" x2="1712.1" y2="588.26" style="fill:none;stroke:#0c152e;stroke-miterlimit:10"/><line x1="284.1" y1="388.26" x2="1712.1" y2="388.26" style="fill:none;stroke:#0c152e;stroke-miterlimit:10"/><path d="M729.08,221.16h3.09L739.25,234h.12l7.08-12.81h3v21H747V225.33h-.12l-7.44,13.23h-.3l-7.44-13.32h-.12v16.92h-2.49Z"/><path d="M754.7,222.12a1.74,1.74,0,0,1,3.48,0,1.74,1.74,0,1,1-3.48,0Zm.48,4.71h2.52v15.33h-2.52Z"/><path d="M762.8,226.83H765l.21,2.4h.12a5,5,0,0,1,4.74-2.67c3.39,0,5.37,2.13,5.37,5.64v10h-2.52v-9.57c0-2.4-1.11-3.78-3.54-3.78s-4,1.8-4,4.89v8.46H762.8Z"/><path d="M779.33,234.51c0-4.41,2.19-7.95,6.93-7.95s6.93,3.54,6.93,7.95-2.13,7.92-6.93,7.92S779.33,238.92,779.33,234.51Zm11.31,0c0-3.3-1.26-5.7-4.38-5.7s-4.38,2.43-4.38,5.7,1.29,5.67,4.38,5.67S790.64,237.81,790.64,234.51Z"/><path d="M797.39,226.83h2.19l.21,2.58h.12a4.17,4.17,0,0,1,4.05-2.76h1.38v2.43h-1.2c-2.91,0-4.23,2-4.23,5.64v7.44h-2.52Z"/><path d="M973.15,221.16h3.09L983.32,234h.12l7.08-12.81h3v21h-2.49V225.33h-.12l-7.44,13.23h-.3l-7.44-13.32h-.12v16.92h-2.49Z"/><path d="M998.05,234.51c0-4.41,2.19-7.95,6.93-7.95s6.93,3.54,6.93,7.95-2.13,7.92-6.93,7.92S998.05,238.92,998.05,234.51Zm11.31,0c0-3.3-1.26-5.7-4.38-5.7s-4.38,2.43-4.38,5.7,1.29,5.67,4.38,5.67S1009.36,237.81,1009.36,234.51Z"/><path d="M1014.91,234.48c0-4.53,2.19-7.92,6.51-7.92A5.13,5.13,0,0,1,1026,229h.12v-9h2.52v22.2h-2.19l-.33-2.13H1026a5.13,5.13,0,0,1-4.62,2.4C1017.4,242.43,1014.94,239.43,1014.91,234.48Zm11.31,0c0-3-1.32-5.67-4.38-5.67s-4.38,2.61-4.38,5.67,1.2,5.7,4.38,5.7S1026.22,237.54,1026.22,234.48Z"/><path d="M1032.58,234.51c0-4.44,2.19-7.95,6.93-7.95,4.32,0,6.63,3.21,6.63,7.47v1.23h-10.92c0,2.91,1.47,4.92,4.32,4.92,2,0,3.45-.84,3.87-2.46h2.52c-.42,2.82-3.12,4.71-6.39,4.71C1035,242.43,1032.58,239,1032.58,234.51Zm11-1.35c0-2.43-1.29-4.35-4-4.35s-4.17,1.95-4.26,4.35Z"/><path d="M1050.34,226.83h2.19l.21,2.58h.12a4.17,4.17,0,0,1,4.05-2.76h1.38v2.43h-1.2c-2.91,0-4.23,2-4.23,5.64v7.44h-2.52Z"/><path d="M1060.84,237.69c0-2.58,1.83-4.8,6.33-4.8a13.35,13.35,0,0,1,3.78.54V231.9c0-1.71-1-3.18-3.54-3.18-2.25,0-3.36,1.26-3.39,2.73h-2.43c0-2.94,2.46-4.89,5.82-4.89,3.93,0,6,2.37,6,5.28v10.32h-2.13l-.18-2.16H1071a5.31,5.31,0,0,1-4.8,2.43C1062.85,242.43,1060.84,240.36,1060.84,237.69Zm10.11-1.47v-.78a12.26,12.26,0,0,0-3.78-.54c-2.49,0-3.78,1-3.78,2.76,0,1.53,1,2.67,3.24,2.67A4.11,4.11,0,0,0,1071,236.22Z"/><path d="M1079.56,238.32V229H1077v-2.13h2.61v-3.27l2.16-.84h.3v4.11h3.75V229h-3.75v9.15c0,1.47.63,2.1,2,2.1a5.43,5.43,0,0,0,1.5-.18h.3v2.16a10.13,10.13,0,0,1-2.28.24C1080.58,242.43,1079.56,240.87,1079.56,238.32Z"/><path d="M1088.74,234.51c0-4.44,2.19-7.95,6.93-7.95,4.32,0,6.63,3.21,6.63,7.47v1.23h-10.92c0,2.91,1.47,4.92,4.32,4.92,2,0,3.45-.84,3.87-2.46h2.52c-.42,2.82-3.12,4.71-6.39,4.71C1091.17,242.43,1088.74,239,1088.74,234.51Zm11-1.35c0-2.43-1.29-4.35-4-4.35-2.88,0-4.17,1.95-4.26,4.35Z"/><path d="M1267.24,221.16h3.09l7.08,12.81h.12l7.08-12.81h3v21h-2.49V225.33H1285l-7.44,13.23h-.3l-7.44-13.32h-.12v16.92h-2.49Z"/><path d="M1292.14,237.69c0-2.58,1.83-4.8,6.33-4.8a13.35,13.35,0,0,1,3.78.54V231.9c0-1.71-1-3.18-3.54-3.18-2.25,0-3.36,1.26-3.39,2.73h-2.43c0-2.94,2.46-4.89,5.82-4.89,3.93,0,6,2.37,6,5.28v10.32h-2.13l-.18-2.16h-.12a5.31,5.31,0,0,1-4.8,2.43C1294.15,242.43,1292.14,240.36,1292.14,237.69Zm10.11-1.47v-.78a12.26,12.26,0,0,0-3.78-.54c-2.49,0-3.78,1-3.78,2.76,0,1.53,1,2.67,3.24,2.67A4.11,4.11,0,0,0,1302.25,236.22Z"/><path d="M1307.11,249.12V247a7.3,7.3,0,0,0,1.14.09c1.41,0,2-.78,2-2.19V226.83h2.52v18c0,2.94-1.35,4.44-4.44,4.44A4.31,4.31,0,0,1,1307.11,249.12Zm2.64-27a1.74,1.74,0,0,1,3.48,0,1.74,1.74,0,1,1-3.48,0Z"/><path d="M1316.65,234.51c0-4.41,2.19-7.95,6.93-7.95s6.93,3.54,6.93,7.95-2.13,7.92-6.93,7.92S1316.65,238.92,1316.65,234.51Zm11.31,0c0-3.3-1.26-5.7-4.38-5.7s-4.38,2.43-4.38,5.7,1.29,5.67,4.38,5.67S1328,237.81,1328,234.51Z"/><path d="M1334.71,226.83h2.19l.21,2.58h.12a4.17,4.17,0,0,1,4-2.76h1.38v2.43h-1.2c-2.91,0-4.23,2-4.23,5.64v7.44h-2.52Z"/><path d="M1531.16,235.86h2.67c.15,2.61,2,4.2,5.28,4.2s5.13-1.2,5.13-3.66c0-2-1.47-2.94-3.75-3.42l-3.06-.66c-3.63-.78-5.58-2.46-5.58-5.67,0-3.54,2.64-5.76,7.29-5.76,4.5,0,7.44,2.52,7.47,6.24h-2.67c-.12-2.28-1.62-3.84-4.86-3.84-2.7,0-4.5,1-4.5,3.36,0,1.71,1.35,2.64,3.57,3.12l2.85.6c3.9.81,6,2.82,6,6,0,3.75-3,6-7.86,6C1534,242.43,1531.28,239.82,1531.16,235.86Z"/><path d="M1550.12,234.51c0-4.44,2.19-7.95,6.93-7.95,4.32,0,6.63,3.21,6.63,7.47v1.23h-10.92c0,2.91,1.47,4.92,4.32,4.92,2,0,3.45-.84,3.87-2.46h2.52c-.42,2.82-3.12,4.71-6.39,4.71C1552.55,242.43,1550.12,239,1550.12,234.51Zm11-1.35c0-2.43-1.29-4.35-4-4.35s-4.17,1.95-4.26,4.35Z"/><path d="M1565.33,227.13v-.3h2.61l4.71,12.39h.12l4.53-12.39h2.61v.3l-5.94,15h-2.61Z"/><path d="M1581.56,234.51c0-4.44,2.19-7.95,6.93-7.95,4.32,0,6.63,3.21,6.63,7.47v1.23H1584.2c0,2.91,1.47,4.92,4.32,4.92,2,0,3.45-.84,3.87-2.46h2.52c-.42,2.82-3.12,4.71-6.39,4.71C1584,242.43,1581.56,239,1581.56,234.51Zm11-1.35c0-2.43-1.29-4.35-4-4.35-2.88,0-4.17,1.95-4.26,4.35Z"/><path d="M1599.32,226.83h2.19l.21,2.58h.12a4.17,4.17,0,0,1,4.05-2.76h1.38v2.43h-1.2c-2.91,0-4.23,2-4.23,5.64v7.44h-2.52Z"/><path d="M1609.22,234.51c0-4.44,2.19-7.95,6.93-7.95,4.32,0,6.63,3.21,6.63,7.47v1.23h-10.92c0,2.91,1.47,4.92,4.32,4.92,2,0,3.45-.84,3.87-2.46h2.52c-.42,2.82-3.12,4.71-6.39,4.71C1611.65,242.43,1609.22,239,1609.22,234.51Zm11-1.35c0-2.43-1.29-4.35-4-4.35-2.88,0-4.17,1.95-4.26,4.35Z"/><line x1="284.1" y1="288.26" x2="1712.1" y2="288.26" style="fill:none;stroke:#0c152e;stroke-miterlimit:10"/><line x1="632.1" y1="588.26" x2="632.1" y2="47.78" style="fill:#0c152e;stroke:#0c152e;stroke-miterlimit:10"/><line x1="902.1" y1="588.26" x2="902.1" y2="178.66" style="fill:#0c152e;stroke:#0c152e;stroke-miterlimit:10"/><line x1="1172.1" y1="588.26" x2="1172.1" y2="178.66" style="fill:none;stroke:#0c152e;stroke-miterlimit:10"/><line x1="1442.1" y1="588.26" x2="1442.1" y2="178.66" style="fill:none;stroke:#0c152e;stroke-miterlimit:10"/><line x1="1712.1" y1="588.26" x2="1712.1" y2="49.73" style="fill:none;stroke:#0c152e;stroke-miterlimit:10"/><path d="M390.81,427.77h3.09L401,440.58h.12l7.08-12.81h3v21h-2.49V431.94h-.12l-7.44,13.22h-.3l-7.44-13.31h-.12v16.91h-2.49Z"/><path d="M415.71,441.12c0-4.41,2.19-7.95,6.93-7.95s6.93,3.54,6.93,7.95-2.13,7.92-6.93,7.92S415.71,445.53,415.71,441.12Zm11.31,0c0-3.3-1.26-5.71-4.38-5.71s-4.38,2.44-4.38,5.71,1.29,5.67,4.38,5.67S427,444.41,427,441.12Z"/><path d="M432.57,441.08c0-4.52,2.19-7.91,6.51-7.91a5.13,5.13,0,0,1,4.62,2.4h.12v-9h2.52v22.19h-2.19l-.33-2.13h-.12a5.11,5.11,0,0,1-4.62,2.41C435.06,449,432.6,446,432.57,441.08Zm11.31,0c0-3-1.32-5.67-4.38-5.67s-4.38,2.62-4.38,5.67,1.2,5.71,4.38,5.71S443.88,444.15,443.88,441.08Z"/><path d="M450.24,441.12c0-4.44,2.19-7.95,6.93-7.95,4.32,0,6.63,3.2,6.63,7.46v1.24H452.88c0,2.91,1.47,4.92,4.32,4.92,2,0,3.45-.84,3.87-2.46h2.52c-.42,2.81-3.12,4.71-6.39,4.71C452.67,449,450.24,445.62,450.24,441.12Zm10.95-1.35c0-2.44-1.29-4.36-4-4.36-2.88,0-4.17,2-4.26,4.36Z"/><path d="M468,433.44h2.19l.21,2.58h.12a4.17,4.17,0,0,1,4.05-2.76H476v2.43h-1.2c-2.91,0-4.23,2-4.23,5.64v7.43H468Z"/><path d="M478.5,444.29c0-2.58,1.83-4.79,6.33-4.79a13.35,13.35,0,0,1,3.78.54V438.5c0-1.71-1.05-3.17-3.54-3.17-2.25,0-3.36,1.25-3.39,2.73h-2.43c0-2.94,2.46-4.89,5.82-4.89,3.93,0,6,2.37,6,5.28v10.31h-2.13l-.18-2.15h-.12a5.33,5.33,0,0,1-4.8,2.43C480.51,449,478.5,447,478.5,444.29Zm10.11-1.46V442a12.57,12.57,0,0,0-3.78-.54c-2.49,0-3.78,1-3.78,2.76,0,1.53,1,2.67,3.24,2.67A4.11,4.11,0,0,0,488.61,442.83Z"/><path d="M497.22,444.92v-9.35h-2.55v-2.13h2.61v-3.27l2.16-.84h.3v4.11h3.75v2.13h-3.75v9.14c0,1.47.63,2.11,2,2.11a5.35,5.35,0,0,0,1.5-.19h.3v2.16a10,10,0,0,1-2.28.25C498.24,449,497.22,447.47,497.22,444.92Z"/><path d="M506.4,441.12c0-4.44,2.19-7.95,6.93-7.95,4.32,0,6.63,3.2,6.63,7.46v1.24H509c0,2.91,1.47,4.92,4.32,4.92,2,0,3.45-.84,3.87-2.46h2.52c-.42,2.81-3.12,4.71-6.39,4.71C508.83,449,506.4,445.62,506.4,441.12Zm11-1.35c0-2.44-1.29-4.36-4-4.36-2.88,0-4.17,2-4.26,4.36Z"/><path d="M401,528.77h7c6,0,9.36,4.2,9.36,10.5,0,5.85-3.09,10.49-9.36,10.49h-7Zm6.69,18.62c4.83,0,6.93-3.74,6.93-8.12s-2.1-8.1-6.93-8.1h-4.08v16.22Z"/><path d="M421.36,529.73a1.74,1.74,0,1,1,3.48,0,1.74,1.74,0,1,1-3.48,0Zm.48,4.71h2.52v15.32h-2.52Z"/><path d="M430.42,536.54h-2.73v-2.1h2.73v-2.67a4.23,4.23,0,0,1,4.47-4.5,8.31,8.31,0,0,1,1.92.21v2.1a7.94,7.94,0,0,0-1.5-.15,2.14,2.14,0,0,0-2.37,2.34v2.67h3.72v2.1h-3.72v13.22h-2.52Z"/><path d="M441.52,536.54h-2.73v-2.1h2.73v-2.67a4.23,4.23,0,0,1,4.47-4.5,8.31,8.31,0,0,1,1.92.21v2.1a7.94,7.94,0,0,0-1.5-.15,2.14,2.14,0,0,0-2.37,2.34v2.67h3.72v2.1H444v13.22h-2.52Z"/><path d="M451.18,529.73a1.74,1.74,0,0,1,3.48,0,1.74,1.74,0,1,1-3.48,0Zm.48,4.71h2.52v15.32h-2.52Z"/><path d="M458.08,542.12c0-4.77,2.37-8,6.93-8,4.1,0,6.09,2.43,6.3,5.52h-2.52a3.43,3.43,0,0,0-3.78-3.28c-3.16,0-4.38,2.56-4.38,5.71s1.22,5.7,4.38,5.7c2.28,0,3.63-1.17,3.84-3.21h2.51c-.3,3.23-2.34,5.43-6.32,5.43C460.45,550,458.08,547,458.08,542.12Z"/><path d="M487.81,534.44v9.75c0,3.51-2.55,5.81-6.27,5.81s-6.28-2.3-6.28-5.81v-9.75h2.53v9.33c0,2.43,1.08,4,3.75,4s3.75-1.55,3.75-4v-9.33Z"/><path d="M492.91,527.57h2.52v22.19h-2.52Z"/><path d="M501.58,545.92v-9.35H499v-2.13h2.61v-3.27l2.16-.84h.3v4.11h3.75v2.13H504.1v9.14c0,1.47.62,2.11,2,2.11a5.29,5.29,0,0,0,1.5-.19h.31v2.16a10,10,0,0,1-2.28.25C502.6,550,501.58,548.47,501.58,545.92Z"/><path d="M1115.28,102.28h4.56v23.1h-4.56Z"/><path d="M1150.36,114.13v11.25h-4.42v-10c0-2.14-.82-3.43-3-3.43s-3.27,1.52-3.27,3.93v9.5h-4.39v-10c0-2.14-.82-3.43-3-3.43s-3.47,1.49-3.47,3.93v9.5h-4.42V108.22h4l.33,2h.13a6.39,6.39,0,0,1,10,.29h.1a6.05,6.05,0,0,1,5.25-2.54A5.79,5.79,0,0,1,1150.36,114.13Z"/><path d="M1154.09,108.22h4l.46,1.85h.13a5.6,5.6,0,0,1,4.76-2.15c4.32,0,7,3.63,7,8.91,0,5.09-2.58,8.85-7,8.85a5.6,5.6,0,0,1-4.76-2.14h-.13v9.4h-4.42Zm11.85,8.61c0-2.7-1-5-3.8-5s-3.79,2.31-3.79,5,1,5,3.79,5S1165.94,119.51,1165.94,116.83Z"/><path d="M1172.54,120.33c0-3.1,2.14-5.31,6.93-5.31a13.85,13.85,0,0,1,3.83.53v-1.49c0-1.38-.86-2.51-3-2.51-1.85,0-2.88,1-2.88,2.22h-4.15c0-3.24,2.44-5.85,7.12-5.85s7.3,2.61,7.3,6.11v11.35h-3.93l-.33-1.78h-.13a5.79,5.79,0,0,1-4.79,2.08C1174.71,125.68,1172.54,123.37,1172.54,120.33ZM1183.3,119v-.36a9.34,9.34,0,0,0-3.4-.56c-2,0-3,.82-3,2s.89,2,2.67,2C1181.91,122.18,1183.3,120.73,1183.3,119Z"/><path d="M1190.46,116.8c0-5.21,2.9-8.88,8.28-8.88,5,0,7.46,3,7.69,6.84H1202a3.05,3.05,0,0,0-3.23-2.94c-2.51,0-3.76,1.78-3.76,5s1.25,5,3.76,5a3.07,3.07,0,0,0,3.27-2.88h4.45c-.26,3.87-2.77,6.77-7.62,6.77C1193.46,125.68,1190.46,122.08,1190.46,116.8Z"/><path d="M1211.18,120.47V112h-2.81v-3.76h3v-3.6l3.93-.92h.33v4.52h4.13V112h-4.13v7.53c0,1.61.7,2.31,2.21,2.31a4.92,4.92,0,0,0,1.65-.27h.33v3.7a11.69,11.69,0,0,1-3.23.43C1212.76,125.68,1211.18,123.5,1211.18,120.47Z"/><line x1="284.1" y1="178.26" x2="1712.1" y2="178.26" style="fill:none;stroke:#0c152e;stroke-miterlimit:10"/><line x1="632.1" y1="48.26" x2="1712.1" y2="48.26" style="fill:none;stroke:#0c152e;stroke-miterlimit:10"/><path d="M361.13,245.41v.33h-5.22l-5.31-8.45h-3.9v8.45h-4.52v-23.1h10.14c4.88,0,7.72,3.3,7.72,7.23a7,7,0,0,1-4.65,6.9ZM346.7,233.27h5.38a3.07,3.07,0,0,0,3.31-3.37,3,3,0,0,0-3.31-3.2H346.7Z"/><path d="M362.74,237.19c0-4.88,2.71-8.91,8.22-8.91,5.12,0,8,3.7,8,8.39v1.71H367.26c0,2.35,1.22,4,3.77,4,2,0,3-.93,3.36-2h4.33c-.47,3.1-3.27,5.64-7.69,5.64C365.71,246,362.74,242.15,362.74,237.19Zm11.69-1.74A3.26,3.26,0,0,0,371,232a3.34,3.34,0,0,0-3.66,3.47Z"/><path d="M382,228.58h4l.47,1.85h.13a5.6,5.6,0,0,1,4.75-2.15c4.32,0,7,3.63,7,8.91,0,5.09-2.57,8.85-7,8.85a5.57,5.57,0,0,1-4.75-2.15h-.13v9.41H382Zm11.85,8.61c0-2.7-1-5-3.79-5s-3.8,2.31-3.8,5,1,5,3.8,5S393.86,239.87,393.86,237.19Z"/><path d="M401.42,228.58h3.73l.33,2.61h.13a4.79,4.79,0,0,1,4.45-2.87h1.26v4.09h-1.55c-2.64,0-4.16,1.81-4.16,4.92v8.41h-4.19Z"/><path d="M413.1,237.19c0-5.08,2.87-8.91,8.35-8.91s8.32,3.83,8.32,8.91S427,246,421.45,246,413.1,242.28,413.1,237.19Zm12.18,0c0-3.3-1.35-5-3.83-5s-3.83,1.75-3.83,5,1.35,5,3.83,5S425.28,240.46,425.28,237.19Z"/><path d="M431.88,237.16c0-5.11,2.57-8.88,7.06-8.88a5.58,5.58,0,0,1,4.72,2.15h.13v-9.11h4.42v24.42h-4l-.46-1.85h-.13a5.55,5.55,0,0,1-4.72,2.15C434.55,246,431.88,242.41,431.88,237.16Zm12.08,0c0-2.67-1-5-3.8-5s-3.8,2.28-3.8,5,1,5,3.8,5S444,239.83,444,237.16Z"/><path d="M467.06,228.58v10.5c0,3.69-2.41,7-7.6,7h0c-5.21,0-7.59-3.27-7.59-7v-10.5h4.42v9.8c0,2.18.93,3.53,3.2,3.53s3.17-1.35,3.17-3.53v-9.8Z"/><path d="M470.06,237.16c0-5.21,2.9-8.88,8.28-8.88,5,0,7.46,3,7.69,6.84h-4.46a3.05,3.05,0,0,0-3.23-2.94c-2.51,0-3.76,1.78-3.76,5s1.25,5,3.76,5a3.07,3.07,0,0,0,3.27-2.88h4.45c-.26,3.87-2.77,6.77-7.62,6.77C473.06,246,470.06,242.44,470.06,237.16Z"/><path d="M488.64,223.73a2.44,2.44,0,0,1,2.73-2.64,2.68,2.68,0,1,1-2.73,2.64Zm.49,4.85h4.42v17.16h-4.42Z"/><path d="M501.84,243.89h-.14l-.46,1.85h-4V221.32h4.42v9.11h.14a5.57,5.57,0,0,1,4.75-2.15c4.45,0,7,3.77,7,8.88s-2.68,8.88-7,8.88A5.54,5.54,0,0,1,501.84,243.89Zm7.29-6.73c0-2.7-1-5-3.8-5s-3.79,2.31-3.79,5,1,5,3.79,5S509.13,239.83,509.13,237.16Z"/><path d="M516.19,223.73a2.44,2.44,0,0,1,2.74-2.64,2.68,2.68,0,1,1-2.74,2.64Zm.49,4.85h4.43v17.16h-4.43Z"/><path d="M524.84,221.32h4.42v24.42h-4.42Z"/><path d="M532.49,223.73a2.44,2.44,0,0,1,2.74-2.64,2.68,2.68,0,1,1-2.74,2.64Zm.5,4.85h4.42v17.16H533Z"/><path d="M542.79,240.83v-8.49H540v-3.76h3V225l3.93-.92h.33v4.52h4.12v3.76h-4.12v7.53c0,1.62.69,2.31,2.21,2.31a4.92,4.92,0,0,0,1.65-.27h.33v3.7a11.76,11.76,0,0,1-3.23.43C544.37,246,542.79,243.86,542.79,240.83Z"/><path d="M557.17,253l2.61-7.26-.63,0-5.84-16.77v-.33h4.56l4,12.54H562l4.09-12.54h4.76v.33l-8.88,24.39h-4.76Z"/><rect x="576.1" y="733.67" width="44.74" height="44.74" style="fill:#2bd67b"/><path d="M646.45,744.34H650v17.82h9.9v3.18H646.45Z"/><path d="M661.57,757.6c0-4.53,2.46-8,7.32-8s7.32,3.48,7.32,8-2.4,8-7.32,8S661.57,762.16,661.57,757.6Zm11.16,0c0-3.09-1.23-5-3.84-5s-3.84,1.92-3.84,5,1.26,5,3.84,5S672.73,760.72,672.73,757.6Z"/><path d="M677.86,750.16v-.3h3.42l2.76,11.4h.12l3-11.4h4.11l3,11.4h.12l2.76-11.4h3.39v.3l-4.11,15.18h-4.11l-3-11.4h-.12l-3.09,11.4H682Z"/><rect x="294.1" y="733.67" width="44.74" height="44.74" style="fill:#a7e8c2"/><path d="M366.47,744.64v-.3h3.87l5.7,16.59h.12l5.58-16.59h3.93v.3l-7.62,20.7h-4Z"/><path d="M385.37,757.6c0-4.44,2.37-8,7.26-8,4.53,0,7,3.27,7,7.53v1.44H388.91c0,2.46,1.26,4.17,3.78,4.17,1.89,0,3-.84,3.39-2.1h3.33c-.42,2.82-3,5-6.72,5C388,765.61,385.37,762.1,385.37,757.6Zm10.74-1.47c0-2-1.14-3.63-3.48-3.63a3.45,3.45,0,0,0-3.69,3.63Z"/><path d="M403,749.86h2.88l.3,2.46h.12a4.16,4.16,0,0,1,4-2.67h1.26v3.18h-1.32c-2.61,0-4,1.8-4,4.95v7.56H403Z"/><path d="M416.72,771.91l2.46-6.63-.36,0-5.64-15.09v-.3h3.57l4,11.64h.12l4-11.64h3.63v.3l-8.22,22.05h-3.6Z"/><path d="M440.36,744.34h3.51v17.82h9.9v3.18H440.36Z"/><path d="M455.48,757.6c0-4.53,2.46-8,7.32-8s7.32,3.48,7.32,8-2.4,8-7.32,8S455.48,762.16,455.48,757.6Zm11.16,0c0-3.09-1.23-5-3.84-5s-3.84,1.92-3.84,5,1.26,5,3.84,5S466.64,760.72,466.64,757.6Z"/><path d="M471.77,750.16v-.3h3.42l2.76,11.4h.12l3-11.4h4.11l3,11.4h.12l2.76-11.4h3.39v.3l-4.11,15.18h-4.11l-3-11.4h-.12L480,765.34h-4.11Z"/><rect x="1167.1" y="733.67" width="44.74" height="44.74" style="fill:#ed566c"/><path d="M1258.28,744.34v21h-3.51V756.1H1245v9.24h-3.51v-21H1245v8.55h9.81v-8.55Z"/><path d="M1262.87,745.33a2.19,2.19,0,0,1,4.38,0,2.19,2.19,0,0,1-4.38,0Zm.48,4.53h3.42v15.48h-3.42Z"/><path d="M1270.28,767h3.33c.12,1.29,1.26,2.52,3.48,2.52,2.55,0,3.75-1.5,3.75-3.42v-2.64h-.12a5,5,0,0,1-4.44,2.13c-4.17,0-6.42-3.39-6.45-8,0-4.83,2.46-8,6.45-8a5,5,0,0,1,4.44,2.13h.12l.39-1.86h3v16.32c0,3.69-2.79,6.3-7.17,6.3C1273,772.48,1270.37,770.23,1270.28,767ZM1281,757.6c0-2.67-1.11-5-3.84-5s-3.81,2.28-3.81,5,1,5,3.81,5S1281,760.27,1281,757.6Z"/><path d="M1288.34,743.14h3.42v8.73h.12a5,5,0,0,1,4.5-2.28c3.45,0,5.61,2.13,5.61,5.64v10.11h-3.42v-9.27c0-2.16-1-3.39-3.18-3.39s-3.63,1.56-3.63,4.14v8.52h-3.42Z"/><rect x="857.1" y="733.67" width="44.74" height="44.74" style="fill:#f7e36d"/><path d="M931.45,744.34h4L942,755.8h.12l6.57-11.46h3.93v21h-3.39V749.92h-.12l-6.93,11.88h-.3l-6.93-12h-.12v15.51h-3.39Z"/><path d="M956.41,757.6c0-4.44,2.37-8,7.26-8,4.53,0,7,3.27,7,7.53v1.44H960c0,2.46,1.26,4.17,3.78,4.17,1.89,0,3-.84,3.39-2.1h3.33c-.42,2.82-3,5-6.72,5C959,765.61,956.41,762.1,956.41,757.6Zm10.74-1.47c0-2-1.14-3.63-3.48-3.63a3.45,3.45,0,0,0-3.69,3.63Z"/><path d="M973,757.57c0-4.59,2.28-8,6.45-8a5,5,0,0,1,4.44,2.13H984v-8.58h3.42v22.2h-3l-.39-1.86h-.12a5,5,0,0,1-4.44,2.13C975.49,765.61,973.06,762.43,973,757.57Zm11.13,0c0-2.67-1.08-5-3.84-5s-3.81,2.28-3.81,5,1,5,3.81,5S984.16,760.27,984.16,757.57Z"/><path d="M991.06,745.33a2.19,2.19,0,0,1,4.38,0,2.19,2.19,0,0,1-4.38,0Zm.48,4.53H995v15.48h-3.42Z"/><path d="M1012.18,749.86v9.6c0,3.45-2.31,6.12-6.66,6.12s-6.66-2.67-6.66-6.12v-9.6h3.42v9.06c0,2.16.93,3.51,3.24,3.51s3.24-1.35,3.24-3.51v-9.06Z"/><path d="M1039.36,755.23v10.11h-3.42v-9.27c0-2.1-.87-3.39-3-3.39s-3.3,1.53-3.3,4.11v8.55h-3.39v-9.27c0-2.1-.87-3.39-3-3.39s-3.45,1.53-3.45,4.11v8.55h-3.42V749.86h3l.27,2h.12a4.92,4.92,0,0,1,4.47-2.28,5,5,0,0,1,4.65,2.43h.09a5.37,5.37,0,0,1,4.83-2.43C1037.26,749.59,1039.36,751.75,1039.36,755.23Z"/><rect x="1478.1" y="733.67" width="44.74" height="44.74" style="fill:#751a1f"/><path d="M1550.47,744.64v-.3h3.87l5.7,16.59h.12l5.58-16.59h3.93v.3l-7.62,20.7h-4Z"/><path d="M1569.37,757.6c0-4.44,2.37-8,7.26-8,4.53,0,7,3.27,7,7.53v1.44h-10.71c0,2.46,1.26,4.17,3.78,4.17,1.89,0,3-.84,3.39-2.1h3.33c-.42,2.82-3,5-6.72,5C1572,765.61,1569.37,762.1,1569.37,757.6Zm10.74-1.47c0-2-1.14-3.63-3.48-3.63a3.45,3.45,0,0,0-3.69,3.63Z"/><path d="M1587,749.86h2.88l.3,2.46h.12a4.16,4.16,0,0,1,4-2.67h1.26v3.18h-1.32c-2.61,0-4,1.8-4,4.95v7.56H1587Z"/><path d="M1600.72,771.91l2.46-6.63-.36,0-5.64-15.09v-.3h3.57l4,11.64h.12l4-11.64h3.63v.3l-8.22,22.05h-3.6Z"/><path d="M1641.19,744.34v21h-3.51V756.1h-9.81v9.24h-3.51v-21h3.51v8.55h9.81v-8.55Z"/><path d="M1645.78,745.33a2.19,2.19,0,0,1,4.38,0,2.19,2.19,0,0,1-4.38,0Zm.48,4.53h3.42v15.48h-3.42Z"/><path d="M1653.19,767h3.33c.12,1.29,1.26,2.52,3.48,2.52,2.55,0,3.75-1.5,3.75-3.42v-2.64h-.12a5,5,0,0,1-4.44,2.13c-4.17,0-6.42-3.39-6.45-8,0-4.83,2.46-8,6.45-8a5,5,0,0,1,4.44,2.13h.12l.39-1.86h3v16.32c0,3.69-2.79,6.3-7.17,6.3C1656,772.48,1653.28,770.23,1653.19,767Zm10.68-9.42c0-2.67-1.11-5-3.84-5s-3.81,2.28-3.81,5,1,5,3.81,5S1663.87,760.27,1663.87,757.6Z"/><path d="M1671.25,743.14h3.42v8.73h.12a5,5,0,0,1,4.5-2.28c3.45,0,5.61,2.13,5.61,5.64v10.11h-3.42v-9.27c0-2.16-1-3.39-3.18-3.39s-3.63,1.56-3.63,4.14v8.52h-3.42Z"/><path d="M289.89,679.94h4.58c.2,2.6,2,3.89,4.86,3.89,3.3,0,4.68-1.09,4.68-2.84,0-1.55-1-2.37-3.16-2.83l-3.37-.73c-4-.86-6.83-2.54-6.83-6.73,0-3.9,3.36-6.54,8.71-6.54,5.18,0,8.88,3,8.91,7.33h-4.59c-.13-1.78-1.42-3.27-4.39-3.27-2.77,0-4,1.06-4,2.48,0,1.18.73,2,3,2.54l3.14.66c4.29.89,7.26,2.77,7.26,7s-2.87,7-9.34,7C293.32,687.86,290.12,684.72,289.89,679.94Z"/><path d="M310.84,679c0-4.88,2.71-8.91,8.22-8.91,5.12,0,8,3.7,8,8.39v1.71H315.36c0,2.34,1.22,4,3.77,4,2,0,3-.93,3.36-2h4.33c-.47,3.11-3.27,5.65-7.69,5.65C313.81,687.86,310.84,684,310.84,679Zm11.69-1.75a3.26,3.26,0,0,0-3.47-3.46,3.34,3.34,0,0,0-3.66,3.46Z"/><path d="M327.9,670.73v-.33h4.56l4,12.81h.13l3.86-12.81h4.49v.33l-5.74,16.83h-5.45Z"/><path d="M345.75,679c0-4.88,2.71-8.91,8.22-8.91,5.12,0,8,3.7,8,8.39v1.71H350.28c0,2.34,1.22,4,3.76,4,2,0,3-.93,3.37-2h4.32c-.46,3.11-3.27,5.65-7.69,5.65C348.72,687.86,345.75,684,345.75,679Zm11.69-1.75A3.26,3.26,0,0,0,354,673.8a3.35,3.35,0,0,0-3.66,3.46Z"/><path d="M365,670.4h3.73l.33,2.61h.13a4.8,4.8,0,0,1,4.45-2.88h1.26v4.1h-1.55c-2.64,0-4.16,1.81-4.16,4.92v8.41H365Z"/><path d="M377.37,665.55a2.44,2.44,0,0,1,2.74-2.64,2.67,2.67,0,1,1-2.74,2.64Zm.49,4.85h4.43v17.16h-4.43Z"/><path d="M387.66,682.64v-8.48h-2.8V670.4h3v-3.6l3.93-.92h.33v4.52h4.12v3.76h-4.12v7.53c0,1.61.69,2.31,2.21,2.31a5,5,0,0,0,1.65-.27h.33v3.7a12.19,12.19,0,0,1-3.24.43C389.25,687.86,387.66,685.68,387.66,682.64Z"/><path d="M402.05,694.79l2.61-7.26-.63,0-5.84-16.77v-.33h4.55l4,12.54h.13l4.09-12.54h4.75v.33l-8.88,24.39h-4.75Z"/><g style="opacity:0"><rect x="1584.16" y="359.2" width="368.77" height="272.13" style="fill:#fff"/></g><rect x="1685.45" y="538.63" width="178.32" height="49.84" style="fill:#f7f9fb"/><rect x="1685.45" y="538.63" width="29.63" height="49.84" style="fill:#c5cfe4"/><polyline points="1744.7 588.47 1715.08 588.47 1715.08 538.63 1744.7 538.63" style="fill:#dfe6f2"/><rect x="1774.36" y="538.63" width="0.5" height="49.84" style="fill:#dfe6f2"/><path d="M1864,588.72H1685.2V538.38H1864Zm-178.32-.5h177.82V538.88H1685.7Z" style="fill:#0c152e"/><rect x="1725.26" y="489.32" width="178.32" height="49.31" style="fill:#f7f9fb"/><rect x="1725.26" y="489.32" width="29.63" height="49.31" style="fill:#c5cfe4"/><polyline points="1784.52 538.63 1754.89 538.63 1754.89 489.32 1784.52 489.32" style="fill:#dfe6f2"/><rect x="1814.17" y="489.32" width="0.5" height="49.31" style="fill:#dfe6f2"/><path d="M1903.83,538.88H1725V489.07h178.81Zm-178.31-.5h177.81V489.57H1725.52Z" style="fill:#0c152e"/><rect x="1700.27" y="440.01" width="178.32" height="49.31" style="fill:#f7f9fb"/><rect x="1700.27" y="440.01" width="29.63" height="49.31" style="fill:#c5cfe4"/><polyline points="1759.52 489.32 1729.89 489.32 1729.89 440.01 1759.52 440.01" style="fill:#dfe6f2"/><rect x="1789.18" y="440.01" width="0.5" height="49.31" style="fill:#dfe6f2"/><path d="M1878.83,489.57H1700V439.76h178.81Zm-178.31-.5h177.81V440.26H1700.52Z" style="fill:#0c152e"/><path d="M1816.06,538.3l-12.72.2,2.16-49.3H1805c3.08-2.89,64.47-42.6,56.62-42.25-36.5,1.65-64.5,35.25-66,42.37l2.49,0c-.69,1.63-6.58,16.41-7.73,49.28H1795l1.34,49.31h71.38Z" style="fill:#0c152e"/><path d="M1868.31,588.19h-72.24v-.25l-1.33-49.06h-4.59v-.26c1.09-31.27,6.49-46.23,7.61-49l-2.43,0,.07-.3c.77-3.66,8.15-13.83,20-23.38,10.22-8.26,26.54-18.3,46.26-19.19.53,0,.83.12.93.42.77,2.31-19.21,16.12-43.43,32.57-6.41,4.36-11.64,7.91-13.4,9.26h0v.26l-2.14,49,12.55-.2.08.07Zm-71.75-.5h70.51L1816,538.56l-12.88.19,2.16-49.3h-.84l.46-.43c.89-.84,6.38-4.57,14-9.74,15.36-10.43,44-29.86,43.24-32,0,0-.11-.08-.43-.07-19.59.88-35.82,10.86-46,19.08-11.26,9.1-18.65,19-19.72,22.8l2.55,0-.15.34c-.67,1.57-6.53,16.27-7.7,48.93h4.55v.24Z" style="fill:#0c152e"/><path d="M1868.66,446.69a70.75,70.75,0,0,0-57.58,111.88l.13.18a70.68,70.68,0,0,0,57.45,29.45h37.62V446.69Z" style="fill:#f7f9fb"/><path d="M1883.91,558.84h13.48v29.63H1868.7A70.66,70.66,0,0,1,1811.25,559h72.66Z" style="fill:#c5cfe4"/><path d="M1798.88,529.22l0,.17a70.35,70.35,0,0,0,12.21,29.45h32.14A70.4,70.4,0,0,1,1831,529.22Z" style="fill:#dfe6f2"/><circle cx="1900.88" cy="517.44" r="70.76" style="fill:#f7f9fb"/><path d="M1900.88,588.45a71,71,0,1,1,71-71A71.08,71.08,0,0,1,1900.88,588.45Zm0-141.51a70.51,70.51,0,1,0,70.51,70.5A70.58,70.58,0,0,0,1900.88,446.94Z" style="fill:#0c152e"/><circle cx="1902.5" cy="517.44" r="61.05" style="fill:#dfe6f2"/><path d="M1945.12,474a61,61,0,0,1-89.57,82.78A61,61,0,1,0,1945.12,474Z" style="fill:#c5cfe4"/><path d="M1900.92,535.83l4.82-5.41a.14.14,0,0,0-.11-.23h-5.29a.13.13,0,0,1-.1,0l-4.5-5a.13.13,0,0,1,0-.16l7.51-12.89a.15.15,0,0,0,0-.13l-3.13-5.38a.14.14,0,0,0-.24,0l-11.12,19.11a.12.12,0,0,0,0,.15l8.93,10a.14.14,0,0,0,.1,0h3A.12.12,0,0,0,1900.92,535.83Z" style="fill:#4070f4"/><path d="M1904.22,499.08l-3.13,5.37a.17.17,0,0,0,0,.14l3.25,5.57h0l8.6,14.78a.13.13,0,0,1,0,.16l-4.54,5.09h0l-4.85,5.46a.13.13,0,0,0,.1.22h7.24a.13.13,0,0,0,.1,0l8.93-10a.12.12,0,0,0,0-.15l-15.48-26.57A.13.13,0,0,0,1904.22,499.08Z" style="fill:#4070f4"/><rect x="1799.45" y="503.14" width="32.07" height="0.5" style="fill:#dfe6f2"/><rect x="1810.38" y="477.3" width="31.42" height="0.5" style="fill:#dfe6f2"/><path d="M1896.59,447.07H1861.1a.25.25,0,0,1-.25-.25.25.25,0,0,1,.25-.25h35.49a.25.25,0,0,1,.25.25A.25.25,0,0,1,1896.59,447.07Z" style="fill:#0c152e"/><rect x="82.83" y="588.09" width="1891.95" height="0.63" style="fill:#0c152e"/><path d="M705.72,528.53h4l7.15,12.14h.1V528.53h3.4V546h-4L709.19,534h-.1V546h-3.37Z"/><path d="M723.12,539.55c0-3.85,2.17-6.75,6.32-6.75s6.3,2.9,6.3,6.75-2.13,6.7-6.3,6.7S723.12,543.4,723.12,539.55Zm9.22,0c0-2.5-1-3.8-2.9-3.8s-2.9,1.32-2.9,3.8,1,3.75,2.9,3.75S732.34,542,732.34,539.55Z"/><path d="M748.14,544.25H748l-.28,1.77h-1.82V527.53H748V535h.1a4.28,4.28,0,0,1,3.85-2c3.6,0,5.4,2.83,5.42,6.6,0,4.13-2.07,6.63-5.42,6.63A4.28,4.28,0,0,1,748.14,544.25Zm7.15-4.63c0-2.55-1-4.72-3.65-4.72s-3.65,2.2-3.65,4.72,1.1,4.75,3.65,4.75S755.29,542.2,755.29,539.62Z"/><path d="M759.91,539.65c0-3.68,1.83-6.63,5.78-6.63s5.77,3,5.77,6.63-1.77,6.6-5.77,6.6S759.91,543.32,759.91,539.65Zm9.43,0c0-2.75-1.05-4.75-3.65-4.75s-3.65,2-3.65,4.75,1.07,4.72,3.65,4.72S769.34,542.4,769.34,539.65Z"/><path d="M785.16,533.25v8.12c0,2.93-2.12,4.85-5.22,4.85s-5.23-1.92-5.23-4.85v-8.12h2.1V541c0,2,.9,3.33,3.13,3.33s3.12-1.3,3.12-3.33v-7.77Z"/><path d="M789.41,533.25h1.83l.17,2h.1a4.19,4.19,0,0,1,4-2.23c2.83,0,4.47,1.78,4.47,4.7V546h-2.09v-8c0-2-.93-3.15-3-3.15s-3.38,1.5-3.38,4.07v7h-2.1Z"/><path d="M805.06,542.82V535h-2.12v-1.77h2.17v-2.73l1.8-.7h.25v3.43h3.13V535h-3.13v7.63c0,1.22.53,1.75,1.68,1.75a4.76,4.76,0,0,0,1.25-.15h.25v1.8a8.44,8.44,0,0,1-1.9.2C805.91,546.25,805.06,545,805.06,542.82Z"/><path d="M814.94,551.49l2.17-5.57,0,0L812,533.5v-.25h2.25l3.88,10h.1l3.75-10h2.2v.25l-7.08,18.24h-2.12Z"/><path d="M954.69,538.82V528h3.42v10.75c0,2.15.93,3.89,3.75,3.89s3.78-1.74,3.78-3.89V528h3.45v10.8c0,4.55-3.05,6.92-7.23,6.92S954.69,543.37,954.69,538.82Z"/><path d="M972.34,532.52h3l.35,1.4h.1a4.23,4.23,0,0,1,3.6-1.63c3.27,0,5.32,2.75,5.32,6.75s-2,6.7-5.32,6.7a4.25,4.25,0,0,1-3.6-1.62h-.1v7.12h-3.35Zm9,6.52c0-2-.75-3.8-2.87-3.8s-2.88,1.75-2.88,3.8.75,3.75,2.88,3.75S981.31,541.07,981.31,539Z"/><path d="M995.44,541.79v-6.42h-2.13v-2.85h2.25v-2.73l3-.7h.25v3.43h3.12v2.85h-3.12v5.7c0,1.22.52,1.74,1.67,1.74a4,4,0,0,0,1.25-.19h.25v2.79a8.82,8.82,0,0,1-2.45.33C996.64,545.74,995.44,544.09,995.44,541.79Z"/><path d="M1003.89,539c0-3.85,2.17-6.75,6.32-6.75s6.3,2.9,6.3,6.75-2.12,6.7-6.3,6.7S1003.89,542.89,1003.89,539Zm9.22,0c0-2.5-1-3.8-2.9-3.8s-2.9,1.33-2.9,3.8,1,3.75,2.9,3.75S1013.11,541.52,1013.11,539Z"/><path d="M1025.61,542.79l5.78-5.9c1.8-1.8,2.5-2.7,2.5-4a2.13,2.13,0,0,0-2.4-2.18,2.46,2.46,0,0,0-2.65,2.75h-3.28c0-3.57,2.33-5.72,5.93-5.72s5.82,2.1,5.82,5c0,1.85-.92,3.32-3,5.45l-4.18,4.17v.1h7.48v3h-12Z"/><path d="M1039.81,540.39h3.38a2.6,2.6,0,0,0,2.9,2.37,2.83,2.83,0,0,0,3-3.12,2.76,2.76,0,0,0-3-2.95,3.27,3.27,0,0,0-2.73,1.35h-3.27l.67-10h10.5v3h-7.72l-.33,4h.1a5,5,0,0,1,3.3-1.07,5.52,5.52,0,0,1,5.82,5.72c0,3.5-2.25,6.1-6.34,6.1C1042.34,545.74,1039.81,543.31,1039.81,540.39Z"/><path d="M1054.76,536.72c0-5.2,1.93-9,6.63-9s6.62,3.8,6.62,9-1.93,9-6.62,9S1054.76,541.94,1054.76,536.72Zm9.82,0c0-3.8-.77-6-3.19-6s-3.2,2.23-3.2,6,.75,6,3.2,6S1064.58,540.54,1064.58,536.72Z"/><path d="M1077.36,536.79c0-5.15,2.8-9,8.25-9,4.4,0,7.25,2.9,7.52,6.6h-3.5a3.68,3.68,0,0,0-4-3.47c-3.22,0-4.75,2.35-4.75,5.87s1.53,5.85,4.75,5.85a3.78,3.78,0,0,0,4.05-3.32h3.47c-.37,3.59-3.15,6.42-7.52,6.42C1080.16,545.74,1077.36,541.87,1077.36,536.79Z"/><path d="M1110.51,528v17.49h-3.43V538h-7.57v7.49h-3.42V528h3.42v6.92h7.57V528Z"/><path d="M1114.46,528h12v3.07h-8.62v4.33h7.82v3.07h-7.82v7h-3.43Z"/><path d="M680.48,439.05v-10.8h3.42V439c0,2.15.93,3.9,3.75,3.9s3.78-1.75,3.78-3.9V428.25h3.44v10.8c0,4.55-3,6.92-7.22,6.92S680.48,443.6,680.48,439.05Z"/><path d="M698.13,432.75h3l.35,1.4h.1a4.22,4.22,0,0,1,3.6-1.62c3.27,0,5.32,2.75,5.32,6.74s-2,6.7-5.32,6.7a4.22,4.22,0,0,1-3.6-1.62h-.1v7.12h-3.35Zm9,6.52c0-2-.75-3.8-2.87-3.8s-2.88,1.75-2.88,3.8.75,3.75,2.88,3.75S707.1,441.3,707.1,439.27Z"/><path d="M721.23,442V435.6H719.1v-2.85h2.25V430l3-.7h.25v3.42h3.12v2.85h-3.12v5.7c0,1.22.52,1.75,1.67,1.75a4,4,0,0,0,1.25-.2h.25v2.8a9.34,9.34,0,0,1-2.45.32C722.43,446,721.23,444.32,721.23,442Z"/><path d="M729.68,439.27c0-3.84,2.17-6.74,6.32-6.74s6.3,2.9,6.3,6.74-2.13,6.7-6.3,6.7S729.68,443.12,729.68,439.27Zm9.22,0c0-2.49-1-3.8-2.9-3.8s-2.9,1.33-2.9,3.8,1,3.75,2.9,3.75S738.9,441.75,738.9,439.27Z"/><path d="M751.4,443l5.77-5.9c1.8-1.79,2.5-2.69,2.5-4a2.13,2.13,0,0,0-2.4-2.17,2.46,2.46,0,0,0-2.64,2.75h-3.28c0-3.58,2.33-5.73,5.92-5.73s5.83,2.1,5.83,5.05c0,1.85-.93,3.32-3,5.45l-4.17,4.17v.1h7.47v3h-12Z"/><path d="M765.6,440.62H769a2.62,2.62,0,0,0,2.9,2.38,2.83,2.83,0,0,0,3-3.13,2.76,2.76,0,0,0-3-2.95,3.25,3.25,0,0,0-2.72,1.35h-3.27l.67-10h10.5v3h-7.73l-.32,4h.1a5,5,0,0,1,3.3-1.07,5.52,5.52,0,0,1,5.82,5.72c0,3.5-2.25,6.1-6.35,6.1C768.13,446,765.6,443.55,765.6,440.62Z"/><path d="M780.55,437c0-5.2,1.92-9,6.62-9s6.63,3.8,6.63,9-1.93,9-6.63,9S780.55,442.17,780.55,437Zm9.82,0c0-3.8-.77-6-3.2-6s-3.2,2.22-3.2,6,.75,6.05,3.2,6.05S790.37,440.77,790.37,437Z"/><path d="M803.15,437c0-5.15,2.8-9,8.25-9,4.4,0,7.25,2.9,7.52,6.59h-3.5a3.68,3.68,0,0,0-4-3.47c-3.23,0-4.75,2.35-4.75,5.88s1.52,5.84,4.75,5.84a3.77,3.77,0,0,0,4.05-3.32h3.47c-.37,3.6-3.15,6.42-7.52,6.42C806,446,803.15,442.1,803.15,437Z"/><path d="M836.3,428.25v17.5h-3.43v-7.5H825.3v7.5h-3.43v-17.5h3.43v6.93h7.57v-6.93Z"/><path d="M840.25,428.25h12v3.08h-8.63v4.32h7.83v3.07h-7.83v7h-3.42Z"/><path d="M682.48,336.05v-10.8h3.42V336c0,2.15.93,3.9,3.75,3.9s3.78-1.75,3.78-3.9V325.25h3.44v10.8c0,4.55-3,6.92-7.22,6.92S682.48,340.6,682.48,336.05Z"/><path d="M700.13,329.75h3l.35,1.4h.1a4.22,4.22,0,0,1,3.6-1.62c3.27,0,5.32,2.75,5.32,6.74s-2,6.7-5.32,6.7a4.22,4.22,0,0,1-3.6-1.62h-.1v7.12h-3.35Zm9,6.52c0-2-.75-3.8-2.87-3.8s-2.88,1.75-2.88,3.8.75,3.75,2.88,3.75S709.1,338.3,709.1,336.27Z"/><path d="M723.23,339V332.6H721.1v-2.85h2.25V327l3-.7h.25v3.42h3.12v2.85h-3.12v5.7c0,1.22.52,1.75,1.67,1.75a4,4,0,0,0,1.25-.2h.25v2.8a9.34,9.34,0,0,1-2.45.32C724.43,343,723.23,341.32,723.23,339Z"/><path d="M731.68,336.27c0-3.84,2.17-6.74,6.32-6.74s6.3,2.9,6.3,6.74-2.13,6.7-6.3,6.7S731.68,340.12,731.68,336.27Zm9.22,0c0-2.49-1-3.8-2.9-3.8s-2.9,1.33-2.9,3.8,1,3.75,2.9,3.75S740.9,338.75,740.9,336.27Z"/><path d="M753.4,340l5.77-5.9c1.8-1.79,2.5-2.69,2.5-4a2.13,2.13,0,0,0-2.4-2.17,2.46,2.46,0,0,0-2.64,2.75h-3.28c0-3.58,2.33-5.73,5.92-5.73s5.83,2.1,5.83,5.05c0,1.85-.93,3.32-3,5.45l-4.17,4.17v.1h7.47v3h-12Z"/><path d="M767.6,337.62H771a2.62,2.62,0,0,0,2.9,2.38,2.83,2.83,0,0,0,3-3.13,2.76,2.76,0,0,0-3-2.95,3.25,3.25,0,0,0-2.72,1.35h-3.27l.67-10h10.5v3h-7.73l-.32,4h.1a5,5,0,0,1,3.3-1.07,5.52,5.52,0,0,1,5.82,5.72c0,3.5-2.25,6.1-6.35,6.1C770.13,343,767.6,340.55,767.6,337.62Z"/><path d="M782.55,334c0-5.2,1.92-9,6.62-9s6.63,3.8,6.63,9-1.93,9-6.63,9S782.55,339.17,782.55,334Zm9.82,0c0-3.8-.77-6-3.2-6s-3.2,2.22-3.2,6,.75,6.05,3.2,6.05S792.37,337.77,792.37,334Z"/><path d="M805.15,334c0-5.15,2.8-9,8.25-9,4.4,0,7.25,2.9,7.52,6.59h-3.5a3.68,3.68,0,0,0-4-3.47c-3.23,0-4.75,2.35-4.75,5.88s1.52,5.84,4.75,5.84a3.77,3.77,0,0,0,4.05-3.32h3.47c-.37,3.6-3.15,6.42-7.52,6.42C808,343,805.15,339.1,805.15,334Z"/><path d="M838.3,325.25v17.5h-3.43v-7.5H827.3v7.5h-3.43v-17.5h3.43v6.93h7.57v-6.93Z"/><path d="M842.25,325.25h12v3.08h-8.63v4.32h7.83v3.07h-7.83v7h-3.42Z"/><path d="M1214.16,540.06v-10.8h3.42V540c0,2.15.93,3.9,3.75,3.9s3.78-1.75,3.78-3.9V529.26h3.45v10.8c0,4.55-3,6.93-7.23,6.93S1214.16,544.61,1214.16,540.06Z"/><path d="M1231.81,533.76h3l.35,1.4h.1a4.22,4.22,0,0,1,3.6-1.62c3.27,0,5.32,2.75,5.32,6.75s-2,6.7-5.32,6.7a4.23,4.23,0,0,1-3.6-1.63h-.1v7.12h-3.35Zm9,6.53c0-2-.75-3.8-2.87-3.8s-2.88,1.75-2.88,3.8.75,3.75,2.88,3.75S1240.78,542.31,1240.78,540.29Z"/><path d="M1254.91,543v-6.43h-2.13v-2.85H1255V531l3-.7h.25v3.42h3.12v2.85h-3.12v5.7c0,1.23.52,1.75,1.67,1.75a3.68,3.68,0,0,0,1.25-.2h.25v2.8a8.82,8.82,0,0,1-2.45.33C1256.11,547,1254.91,545.34,1254.91,543Z"/><path d="M1263.36,540.29c0-3.85,2.17-6.75,6.32-6.75s6.3,2.9,6.3,6.75-2.12,6.7-6.3,6.7S1263.36,544.14,1263.36,540.29Zm9.22,0c0-2.5-1-3.8-2.9-3.8s-2.9,1.32-2.9,3.8,1,3.75,2.9,3.75S1272.58,542.76,1272.58,540.29Z"/><path d="M1289.33,532.71h-.1l-4,3H1285v-3.25l4.35-3.25h3.4v17.5h-3.38Z"/><path d="M1295.08,550l.78-6h3.72v.25l-1.92,6h-2.58Z"/><path d="M1301.63,541.64H1305a2.6,2.6,0,0,0,2.9,2.37,2.83,2.83,0,0,0,2.95-3.12,2.76,2.76,0,0,0-2.95-2.95,3.25,3.25,0,0,0-2.73,1.35h-3.27l.67-10h10.5v3h-7.72l-.33,4h.1a4.92,4.92,0,0,1,3.3-1.08,5.53,5.53,0,0,1,5.83,5.73c0,3.5-2.25,6.1-6.35,6.1C1304.16,547,1301.63,544.56,1301.63,541.64Z"/><path d="M1316.58,538c0-5.2,1.93-9,6.63-9s6.62,3.8,6.62,9-1.93,9-6.62,9S1316.58,543.19,1316.58,538Zm9.82,0c0-3.8-.77-6-3.19-6s-3.2,2.22-3.2,6,.75,6,3.2,6S1326.4,541.79,1326.4,538Z"/><path d="M1332.28,538c0-5.2,1.93-9,6.63-9s6.62,3.8,6.62,9-1.93,9-6.62,9S1332.28,543.19,1332.28,538Zm9.82,0c0-3.8-.77-6-3.19-6s-3.2,2.22-3.2,6,.75,6,3.2,6S1342.1,541.79,1342.1,538Z"/><path d="M1354.88,538c0-5.15,2.8-9,8.25-9,4.4,0,7.25,2.9,7.52,6.6h-3.5a3.68,3.68,0,0,0-4-3.48c-3.22,0-4.75,2.35-4.75,5.88s1.53,5.85,4.75,5.85a3.78,3.78,0,0,0,4-3.33h3.47c-.37,3.6-3.15,6.43-7.52,6.43C1357.68,547,1354.88,543.11,1354.88,538Z"/><path d="M1388,529.26v17.5h-3.43v-7.5H1377v7.5h-3.42v-17.5H1377v6.93h7.57v-6.93Z"/><path d="M1392,529.26h12v3.08h-8.62v4.32h7.82v3.08h-7.82v7H1392Z"/><path d="M1214.16,438.06v-10.8h3.42V438c0,2.15.93,3.9,3.75,3.9s3.78-1.75,3.78-3.9V427.26h3.45v10.8c0,4.55-3,6.93-7.23,6.93S1214.16,442.61,1214.16,438.06Z"/><path d="M1231.81,431.76h3l.35,1.4h.1a4.22,4.22,0,0,1,3.6-1.62c3.27,0,5.32,2.75,5.32,6.75,0,3.85-2,6.7-5.32,6.7a4.23,4.23,0,0,1-3.6-1.63h-.1v7.12h-3.35Zm9,6.53c0-2.05-.75-3.8-2.87-3.8s-2.88,1.75-2.88,3.8.75,3.75,2.88,3.75S1240.78,440.31,1240.78,438.29Z"/><path d="M1254.91,441v-6.43h-2.13v-2.85H1255V429l3-.7h.25v3.42h3.12v2.85h-3.12v5.7c0,1.23.52,1.75,1.67,1.75a3.68,3.68,0,0,0,1.25-.2h.25v2.8a8.82,8.82,0,0,1-2.45.33C1256.11,445,1254.91,443.34,1254.91,441Z"/><path d="M1263.36,438.29c0-3.85,2.17-6.75,6.32-6.75s6.3,2.9,6.3,6.75-2.12,6.7-6.3,6.7S1263.36,442.14,1263.36,438.29Zm9.22,0c0-2.5-1-3.8-2.9-3.8s-2.9,1.32-2.9,3.8,1,3.75,2.9,3.75S1272.58,440.76,1272.58,438.29Z"/><path d="M1289.33,430.71h-.1l-4,3.05H1285v-3.25l4.35-3.25h3.4v17.5h-3.38Z"/><path d="M1295.08,448l.78-6h3.72v.25l-1.92,6h-2.58Z"/><path d="M1301.63,439.64H1305a2.6,2.6,0,0,0,2.9,2.37,2.83,2.83,0,0,0,2.95-3.12,2.76,2.76,0,0,0-2.95-2.95,3.25,3.25,0,0,0-2.73,1.35h-3.27l.67-10h10.5v3h-7.72l-.33,4h.1a4.92,4.92,0,0,1,3.3-1.08,5.53,5.53,0,0,1,5.83,5.73c0,3.5-2.25,6.1-6.35,6.1C1304.16,445,1301.63,442.56,1301.63,439.64Z"/><path d="M1316.58,436c0-5.2,1.93-9,6.63-9s6.62,3.8,6.62,9-1.93,9-6.62,9S1316.58,441.19,1316.58,436Zm9.82,0c0-3.8-.77-6-3.19-6s-3.2,2.22-3.2,6,.75,6.05,3.2,6.05S1326.4,439.79,1326.4,436Z"/><path d="M1332.28,436c0-5.2,1.93-9,6.63-9s6.62,3.8,6.62,9-1.93,9-6.62,9S1332.28,441.19,1332.28,436Zm9.82,0c0-3.8-.77-6-3.19-6s-3.2,2.22-3.2,6,.75,6.05,3.2,6.05S1342.1,439.79,1342.1,436Z"/><path d="M1354.88,436c0-5.15,2.8-9,8.25-9,4.4,0,7.25,2.9,7.52,6.6h-3.5a3.68,3.68,0,0,0-4-3.48c-3.22,0-4.75,2.35-4.75,5.88s1.53,5.85,4.75,5.85a3.78,3.78,0,0,0,4-3.33h3.47c-.37,3.6-3.15,6.43-7.52,6.43C1357.68,445,1354.88,441.11,1354.88,436Z"/><path d="M1388,427.26v17.5h-3.43v-7.5H1377v7.5h-3.42v-17.5H1377v6.93h7.57v-6.93Z"/><path d="M1392,427.26h12v3.08h-8.62v4.32h7.82v3.08h-7.82v7H1392Z"/><path d="M947.16,439.06v-10.8h3.42V439c0,2.15.93,3.9,3.75,3.9s3.78-1.75,3.78-3.9V428.26h3.45v10.8c0,4.55-3,6.93-7.23,6.93S947.16,443.61,947.16,439.06Z"/><path d="M964.81,432.76h3l.35,1.4h.1a4.22,4.22,0,0,1,3.6-1.62c3.27,0,5.32,2.75,5.32,6.75,0,3.85-1.95,6.7-5.32,6.7a4.23,4.23,0,0,1-3.6-1.63h-.1v7.12h-3.35Zm9,6.53c0-2.05-.75-3.8-2.87-3.8s-2.88,1.75-2.88,3.8.75,3.75,2.88,3.75S973.78,441.31,973.78,439.29Z"/><path d="M987.91,442v-6.43h-2.13v-2.85H988V430l3-.7h.25v3.42h3.12v2.85h-3.12v5.7c0,1.23.52,1.75,1.67,1.75a3.68,3.68,0,0,0,1.25-.2h.25v2.8A8.82,8.82,0,0,1,992,446C989.11,446,987.91,444.34,987.91,442Z"/><path d="M996.36,439.29c0-3.85,2.17-6.75,6.32-6.75s6.3,2.9,6.3,6.75-2.12,6.7-6.3,6.7S996.36,443.14,996.36,439.29Zm9.22,0c0-2.5-1-3.8-2.9-3.8s-2.9,1.32-2.9,3.8,1,3.75,2.9,3.75S1005.58,441.76,1005.58,439.29Z"/><path d="M1022.33,431.71h-.1l-4,3.05H1018v-3.25l4.35-3.25h3.4v17.5h-3.38Z"/><path d="M1028.08,449l.78-6h3.72v.25l-1.92,6h-2.58Z"/><path d="M1034.63,440.64H1038a2.6,2.6,0,0,0,2.9,2.37,2.83,2.83,0,0,0,2.95-3.12,2.76,2.76,0,0,0-2.95-2.95,3.25,3.25,0,0,0-2.73,1.35h-3.27l.67-10h10.5v3h-7.72l-.33,4h.1a4.92,4.92,0,0,1,3.3-1.08,5.53,5.53,0,0,1,5.83,5.73c0,3.5-2.25,6.1-6.35,6.1C1037.16,446,1034.63,443.56,1034.63,440.64Z"/><path d="M1049.58,437c0-5.2,1.93-9,6.63-9s6.62,3.8,6.62,9-1.93,9-6.62,9S1049.58,442.19,1049.58,437Zm9.82,0c0-3.8-.77-6-3.19-6s-3.2,2.22-3.2,6,.75,6.05,3.2,6.05S1059.4,440.79,1059.4,437Z"/><path d="M1065.28,437c0-5.2,1.93-9,6.63-9s6.62,3.8,6.62,9-1.93,9-6.62,9S1065.28,442.19,1065.28,437Zm9.82,0c0-3.8-.77-6-3.19-6s-3.2,2.22-3.2,6,.75,6.05,3.2,6.05S1075.1,440.79,1075.1,437Z"/><path d="M1087.88,437c0-5.15,2.8-9,8.25-9,4.4,0,7.25,2.9,7.52,6.6h-3.5a3.68,3.68,0,0,0-4-3.48c-3.22,0-4.75,2.35-4.75,5.88s1.53,5.85,4.75,5.85a3.78,3.78,0,0,0,4-3.33h3.47c-.37,3.6-3.15,6.43-7.52,6.43C1090.68,446,1087.88,442.11,1087.88,437Z"/><path d="M1121,428.26v17.5h-3.43v-7.5H1110v7.5h-3.42v-17.5H1110v6.93h7.57v-6.93Z"/><path d="M1125,428.26h12v3.08h-8.62v4.32h7.82v3.08h-7.82v7H1125Z"/><path d="M947.16,337.06v-10.8h3.42V337c0,2.15.93,3.9,3.75,3.9s3.78-1.75,3.78-3.9V326.26h3.45v10.8c0,4.55-3,6.93-7.23,6.93S947.16,341.61,947.16,337.06Z"/><path d="M964.81,330.76h3l.35,1.4h.1a4.22,4.22,0,0,1,3.6-1.62c3.27,0,5.32,2.75,5.32,6.75,0,3.85-1.95,6.7-5.32,6.7a4.23,4.23,0,0,1-3.6-1.63h-.1v7.12h-3.35Zm9,6.53c0-2.05-.75-3.8-2.87-3.8s-2.88,1.75-2.88,3.8.75,3.75,2.88,3.75S973.78,339.31,973.78,337.29Z"/><path d="M987.91,340v-6.43h-2.13v-2.85H988V328l3-.7h.25v3.42h3.12v2.85h-3.12v5.7c0,1.23.52,1.75,1.67,1.75a3.68,3.68,0,0,0,1.25-.2h.25v2.8A8.82,8.82,0,0,1,992,344C989.11,344,987.91,342.34,987.91,340Z"/><path d="M996.36,337.29c0-3.85,2.17-6.75,6.32-6.75s6.3,2.9,6.3,6.75-2.12,6.7-6.3,6.7S996.36,341.14,996.36,337.29Zm9.22,0c0-2.5-1-3.8-2.9-3.8s-2.9,1.32-2.9,3.8,1,3.75,2.9,3.75S1005.58,339.76,1005.58,337.29Z"/><path d="M1022.33,329.71h-.1l-4,3.05H1018v-3.25l4.35-3.25h3.4v17.5h-3.38Z"/><path d="M1028.08,347l.78-6h3.72v.25l-1.92,6h-2.58Z"/><path d="M1034.63,338.64H1038a2.6,2.6,0,0,0,2.9,2.37,2.83,2.83,0,0,0,2.95-3.12,2.76,2.76,0,0,0-2.95-2.95,3.25,3.25,0,0,0-2.73,1.35h-3.27l.67-10h10.5v3h-7.72l-.33,4h.1a4.92,4.92,0,0,1,3.3-1.08,5.53,5.53,0,0,1,5.83,5.73c0,3.5-2.25,6.1-6.35,6.1C1037.16,344,1034.63,341.56,1034.63,338.64Z"/><path d="M1049.58,335c0-5.2,1.93-9,6.63-9s6.62,3.8,6.62,9-1.93,9-6.62,9S1049.58,340.19,1049.58,335Zm9.82,0c0-3.8-.77-6-3.19-6s-3.2,2.22-3.2,6,.75,6.05,3.2,6.05S1059.4,338.79,1059.4,335Z"/><path d="M1065.28,335c0-5.2,1.93-9,6.63-9s6.62,3.8,6.62,9-1.93,9-6.62,9S1065.28,340.19,1065.28,335Zm9.82,0c0-3.8-.77-6-3.19-6s-3.2,2.22-3.2,6,.75,6.05,3.2,6.05S1075.1,338.79,1075.1,335Z"/><path d="M1087.88,335c0-5.15,2.8-9,8.25-9,4.4,0,7.25,2.9,7.52,6.6h-3.5a3.68,3.68,0,0,0-4-3.48c-3.22,0-4.75,2.35-4.75,5.88s1.53,5.85,4.75,5.85a3.78,3.78,0,0,0,4-3.33h3.47c-.37,3.6-3.15,6.43-7.52,6.43C1090.68,344,1087.88,340.11,1087.88,335Z"/><path d="M1121,326.26v17.5h-3.43v-7.5H1110v7.5h-3.42v-17.5H1110v6.93h7.57v-6.93Z"/><path d="M1125,326.26h12v3.08h-8.62v4.32h7.82v3.08h-7.82v7H1125Z"/><path d="M1211.62,339.06v-10.8h3.43V339c0,2.15.92,3.9,3.75,3.9s3.77-1.75,3.77-3.9V328.26H1226v10.8c0,4.55-3,6.93-7.22,6.93S1211.62,343.61,1211.62,339.06Z"/><path d="M1229.27,332.76h3l.35,1.4h.1a4.24,4.24,0,0,1,3.6-1.62c3.27,0,5.32,2.75,5.32,6.75,0,3.85-2,6.7-5.32,6.7a4.24,4.24,0,0,1-3.6-1.63h-.1v7.12h-3.35Zm9,6.53c0-2.05-.74-3.8-2.87-3.8s-2.87,1.75-2.87,3.8.75,3.75,2.87,3.75S1238.24,341.31,1238.24,339.29Z"/><path d="M1252.37,342v-6.43h-2.12v-2.85h2.25V330l3-.7h.25v3.42h3.13v2.85h-3.13v5.7c0,1.23.53,1.75,1.67,1.75a3.68,3.68,0,0,0,1.25-.2h.25v2.8a8.74,8.74,0,0,1-2.44.33C1253.57,346,1252.37,344.34,1252.37,342Z"/><path d="M1260.82,339.29c0-3.85,2.18-6.75,6.32-6.75s6.3,2.9,6.3,6.75-2.12,6.7-6.3,6.7S1260.82,343.14,1260.82,339.29Zm9.22,0c0-2.5-1-3.8-2.9-3.8s-2.89,1.32-2.89,3.8,1,3.75,2.89,3.75S1270,341.76,1270,339.29Z"/><path d="M1282.52,340.64h3.37a2.61,2.61,0,0,0,2.9,2.37,2.83,2.83,0,0,0,3-3.12,2.76,2.76,0,0,0-3-2.95,3.23,3.23,0,0,0-2.72,1.35h-3.27l.67-10H1294v3h-7.73l-.32,4h.1a4.9,4.9,0,0,1,3.3-1.08,5.53,5.53,0,0,1,5.82,5.73c0,3.5-2.25,6.1-6.35,6.1C1285.05,346,1282.52,343.56,1282.52,340.64Z"/><path d="M1296.77,349l.78-6h3.72v.25l-1.92,6h-2.58Z"/><path d="M1303.42,337c0-5.2,1.93-9,6.62-9s6.63,3.8,6.63,9-1.93,9-6.63,9S1303.42,342.19,1303.42,337Zm9.82,0c0-3.8-.77-6-3.2-6s-3.2,2.22-3.2,6,.75,6.05,3.2,6.05S1313.24,340.79,1313.24,337Z"/><path d="M1319.12,337c0-5.2,1.93-9,6.62-9s6.63,3.8,6.63,9-1.93,9-6.63,9S1319.12,342.19,1319.12,337Zm9.82,0c0-3.8-.77-6-3.2-6s-3.2,2.22-3.2,6,.75,6.05,3.2,6.05S1328.94,340.79,1328.94,337Z"/><path d="M1334.82,337c0-5.2,1.93-9,6.62-9s6.63,3.8,6.63,9-1.93,9-6.63,9S1334.82,342.19,1334.82,337Zm9.82,0c0-3.8-.77-6-3.2-6s-3.2,2.22-3.2,6,.75,6.05,3.2,6.05S1344.64,340.79,1344.64,337Z"/><path d="M1357.42,337c0-5.15,2.8-9,8.25-9,4.4,0,7.25,2.9,7.52,6.6h-3.5a3.68,3.68,0,0,0-4-3.48c-3.23,0-4.75,2.35-4.75,5.88s1.52,5.85,4.75,5.85a3.78,3.78,0,0,0,4-3.33h3.47c-.37,3.6-3.15,6.43-7.52,6.43C1360.22,346,1357.42,342.11,1357.42,337Z"/><path d="M1390.57,328.26v17.5h-3.43v-7.5h-7.57v7.5h-3.43v-17.5h3.43v6.93h7.57v-6.93Z"/><path d="M1394.52,328.26h12v3.08h-8.63v4.32h7.83v3.08h-7.83v7h-3.42Z"/><path d="M1485.43,543.11v-10.8h3.43v10.75c0,2.15.92,3.9,3.75,3.9s3.77-1.75,3.77-3.9V532.31h3.45v10.8c0,4.55-3,6.92-7.22,6.92S1485.43,547.66,1485.43,543.11Z"/><path d="M1503.08,536.81h3l.35,1.4h.1a4.24,4.24,0,0,1,3.6-1.63c3.27,0,5.32,2.75,5.32,6.75,0,3.85-1.94,6.7-5.32,6.7a4.24,4.24,0,0,1-3.6-1.62h-.1v7.12h-3.35Zm9,6.52c0-2.05-.75-3.8-2.88-3.8s-2.87,1.75-2.87,3.8.75,3.75,2.87,3.75S1512.06,545.36,1512.06,543.33Z"/><path d="M1526.18,546.08v-6.42h-2.12v-2.85h2.25v-2.73l3-.69h.25v3.42h3.13v2.85h-3.13v5.7c0,1.22.53,1.75,1.68,1.75a4,4,0,0,0,1.25-.2h.25v2.8a9.34,9.34,0,0,1-2.45.32C1527.38,550,1526.18,548.38,1526.18,546.08Z"/><path d="M1534.63,543.33c0-3.85,2.18-6.75,6.33-6.75s6.29,2.9,6.29,6.75-2.12,6.7-6.29,6.7S1534.63,547.18,1534.63,543.33Zm9.22,0c0-2.5-1-3.8-2.89-3.8s-2.9,1.33-2.9,3.8,1,3.75,2.9,3.75S1543.85,545.81,1543.85,543.33Z"/><path d="M1556.33,544.68h3.38a2.61,2.61,0,0,0,2.89,2.38,2.83,2.83,0,0,0,3-3.13,2.76,2.76,0,0,0-3-2.95,3.25,3.25,0,0,0-2.72,1.35h-3.27l.67-10h10.5v3h-7.72l-.33,4h.1a5,5,0,0,1,3.3-1.07,5.52,5.52,0,0,1,5.82,5.72c0,3.5-2.25,6.1-6.35,6.1C1558.86,550,1556.33,547.61,1556.33,544.68Z"/><path d="M1570.58,553.08l.78-6h3.72v.25l-1.92,6h-2.58Z"/><path d="M1577.23,541c0-5.2,1.93-9,6.62-9s6.63,3.8,6.63,9-1.93,9-6.63,9S1577.23,546.23,1577.23,541Zm9.82,0c0-3.8-.77-6-3.2-6s-3.2,2.22-3.2,6,.75,6,3.2,6S1587.05,544.83,1587.05,541Z"/><path d="M1592.93,541c0-5.2,1.93-9,6.62-9s6.63,3.8,6.63,9-1.93,9-6.63,9S1592.93,546.23,1592.93,541Zm9.82,0c0-3.8-.77-6-3.2-6s-3.2,2.22-3.2,6,.75,6,3.2,6S1602.75,544.83,1602.75,541Z"/><path d="M1608.63,541c0-5.2,1.93-9,6.62-9s6.63,3.8,6.63,9-1.93,9-6.63,9S1608.63,546.23,1608.63,541Zm9.82,0c0-3.8-.77-6-3.2-6s-3.19,2.22-3.19,6,.75,6,3.19,6S1618.45,544.83,1618.45,541Z"/><path d="M1631.23,541.08c0-5.15,2.8-9,8.25-9,4.4,0,7.25,2.9,7.52,6.59h-3.5a3.68,3.68,0,0,0-4-3.47c-3.22,0-4.75,2.35-4.75,5.87s1.53,5.85,4.75,5.85a3.77,3.77,0,0,0,4-3.32H1647c-.37,3.6-3.15,6.42-7.52,6.42C1634,550,1631.23,546.16,1631.23,541.08Z"/><path d="M1664.38,532.31v17.5H1661v-7.5h-7.57v7.5H1650v-17.5h3.42v6.92H1661v-6.92Z"/><path d="M1668.33,532.31h12.05v3.07h-8.63v4.33h7.83v3.07h-7.83v7h-3.42Z"/><path d="M1506.37,440.08c0-5.15,2.8-9,8.25-9,4.4,0,7.25,2.9,7.52,6.59h-3.5a3.68,3.68,0,0,0-4-3.47c-3.23,0-4.75,2.35-4.75,5.87s1.52,5.85,4.75,5.85a3.77,3.77,0,0,0,4.05-3.32h3.47c-.37,3.6-3.15,6.42-7.52,6.42C1509.17,449,1506.37,445.16,1506.37,440.08Z"/><path d="M1523.92,445c0-2.35,1.62-4,5.25-4a10.62,10.62,0,0,1,2.9.4v-1.13c0-1.05-.65-1.9-2.25-1.9-1.4,0-2.18.75-2.18,1.68h-3.15c0-2.45,1.85-4.43,5.4-4.43s5.53,2,5.53,4.63v8.6h-3l-.25-1.35h-.1a4.35,4.35,0,0,1-3.62,1.57C1525.57,449,1523.92,447.28,1523.92,445Zm8.15-1v-.27a7,7,0,0,0-2.58-.43c-1.47,0-2.25.63-2.25,1.55s.68,1.55,2,1.55A2.52,2.52,0,0,0,1532.07,444Z"/><path d="M1537.49,444.43h3.35c0,1,.78,1.78,2.3,1.78s2.15-.53,2.15-1.2-.47-1.05-1.5-1.25l-2.1-.4c-2.1-.4-3.8-1.55-3.8-3.95,0-2.13,1.88-3.83,5.18-3.83s5.3,1.85,5.3,4.33h-3.3c0-.9-.68-1.65-2-1.65-1.13,0-1.85.47-1.85,1.17s.5,1,1.32,1.18l2.38.42c2.1.43,3.8,1.38,3.8,4s-2.38,4-5.53,4C1539.37,449,1537.57,447.16,1537.49,444.43Z"/><path d="M1550.27,442.33c0-3.7,2-6.75,6.22-6.75,3.88,0,6,2.8,6,6.35v1.3h-8.85c0,1.78.93,3,2.85,3a2.4,2.4,0,0,0,2.55-1.5h3.28c-.35,2.35-2.48,4.27-5.83,4.27C1552.52,449,1550.27,446.08,1550.27,442.33Zm8.85-1.32a2.47,2.47,0,0,0-2.63-2.63,2.53,2.53,0,0,0-2.77,2.63Z"/><path d="M1575.47,447.41h-.1l-.35,1.4h-3v-18.5h3.35v6.9h.1a4.23,4.23,0,0,1,3.6-1.63c3.37,0,5.32,2.85,5.32,6.73s-2,6.72-5.32,6.72A4.22,4.22,0,0,1,1575.47,447.41Zm5.52-5.1c0-2.05-.72-3.78-2.87-3.78s-2.88,1.75-2.88,3.78.8,3.77,2.88,3.77S1581,444.33,1581,442.31Z"/><path d="M1588.09,454.28l2-5.5-.48,0-4.42-12.7v-.25h3.45l3,9.5h.1l3.1-9.5h3.6v.25l-6.73,18.47h-3.6Z"/><path d="M1606.69,442.31c0-3.95,2.2-6.73,6.28-6.73,3.75,0,5.65,2.28,5.82,5.18h-3.37a2.32,2.32,0,0,0-2.45-2.23c-1.9,0-2.85,1.35-2.85,3.78s1,3.77,2.85,3.77a2.31,2.31,0,0,0,2.47-2.17h3.38c-.2,2.92-2.1,5.12-5.78,5.12C1609,449,1606.69,446.31,1606.69,442.31Z"/><path d="M1620.42,445c0-2.35,1.62-4,5.25-4a10.62,10.62,0,0,1,2.9.4v-1.13c0-1.05-.65-1.9-2.25-1.9-1.4,0-2.18.75-2.18,1.68H1621c0-2.45,1.85-4.43,5.4-4.43s5.53,2,5.53,4.63v8.6h-3l-.25-1.35h-.1A4.35,4.35,0,0,1,1625,449C1622.07,449,1620.42,447.28,1620.42,445Zm8.15-1v-.27a7,7,0,0,0-2.58-.43c-1.47,0-2.25.63-2.25,1.55s.68,1.55,2,1.55A2.52,2.52,0,0,0,1628.57,444Z"/><path d="M1634,444.43h3.35c0,1,.78,1.78,2.3,1.78s2.15-.53,2.15-1.2-.47-1.05-1.5-1.25l-2.1-.4c-2.1-.4-3.8-1.55-3.8-3.95,0-2.13,1.88-3.83,5.18-3.83s5.3,1.85,5.3,4.33h-3.3c0-.9-.68-1.65-2-1.65-1.13,0-1.85.47-1.85,1.17s.5,1,1.32,1.18l2.38.42c2.1.43,3.8,1.38,3.8,4s-2.38,4-5.53,4C1635.87,449,1634.07,447.16,1634,444.43Z"/><path d="M1646.77,442.33c0-3.7,2-6.75,6.22-6.75,3.88,0,6,2.8,6,6.35v1.3h-8.85c0,1.78.93,3,2.85,3a2.4,2.4,0,0,0,2.55-1.5h3.27c-.35,2.35-2.47,4.27-5.82,4.27C1649,449,1646.77,446.08,1646.77,442.33Zm8.85-1.32a2.47,2.47,0,0,0-2.63-2.63,2.53,2.53,0,0,0-2.77,2.63Z"/><path d="M1506.37,340.08c0-5.15,2.8-9,8.25-9,4.4,0,7.25,2.9,7.52,6.59h-3.5a3.68,3.68,0,0,0-4-3.47c-3.23,0-4.75,2.35-4.75,5.87s1.52,5.85,4.75,5.85a3.77,3.77,0,0,0,4.05-3.32h3.47c-.37,3.6-3.15,6.42-7.52,6.42C1509.17,349,1506.37,345.16,1506.37,340.08Z"/><path d="M1523.92,345c0-2.35,1.62-4,5.25-4a10.62,10.62,0,0,1,2.9.4v-1.13c0-1.05-.65-1.9-2.25-1.9-1.4,0-2.18.75-2.18,1.68h-3.15c0-2.45,1.85-4.43,5.4-4.43s5.53,2,5.53,4.63v8.6h-3l-.25-1.35h-.1a4.35,4.35,0,0,1-3.62,1.57C1525.57,349,1523.92,347.28,1523.92,345Zm8.15-1v-.27a7,7,0,0,0-2.58-.43c-1.47,0-2.25.63-2.25,1.55s.68,1.55,2,1.55A2.52,2.52,0,0,0,1532.07,344Z"/><path d="M1537.49,344.43h3.35c0,1,.78,1.78,2.3,1.78s2.15-.53,2.15-1.2-.47-1.05-1.5-1.25l-2.1-.4c-2.1-.4-3.8-1.55-3.8-3.95,0-2.13,1.88-3.83,5.18-3.83s5.3,1.85,5.3,4.33h-3.3c0-.9-.68-1.65-2-1.65-1.13,0-1.85.47-1.85,1.17s.5,1,1.32,1.18l2.38.42c2.1.43,3.8,1.38,3.8,4s-2.38,4-5.53,4C1539.37,349,1537.57,347.16,1537.49,344.43Z"/><path d="M1550.27,342.33c0-3.7,2-6.75,6.22-6.75,3.88,0,6,2.8,6,6.35v1.3h-8.85c0,1.78.93,3,2.85,3a2.4,2.4,0,0,0,2.55-1.5h3.28c-.35,2.35-2.48,4.27-5.83,4.27C1552.52,349,1550.27,346.08,1550.27,342.33Zm8.85-1.32a2.47,2.47,0,0,0-2.63-2.63,2.53,2.53,0,0,0-2.77,2.63Z"/><path d="M1575.47,347.41h-.1l-.35,1.4h-3v-18.5h3.35v6.9h.1a4.23,4.23,0,0,1,3.6-1.63c3.37,0,5.32,2.85,5.32,6.73s-2,6.72-5.32,6.72A4.22,4.22,0,0,1,1575.47,347.41Zm5.52-5.1c0-2.05-.72-3.78-2.87-3.78s-2.88,1.75-2.88,3.78.8,3.77,2.88,3.77S1581,344.33,1581,342.31Z"/><path d="M1588.09,354.28l2-5.5-.48,0-4.42-12.7v-.25h3.45l3,9.5h.1l3.1-9.5h3.6v.25l-6.73,18.47h-3.6Z"/><path d="M1606.69,342.31c0-3.95,2.2-6.73,6.28-6.73,3.75,0,5.65,2.28,5.82,5.18h-3.37a2.32,2.32,0,0,0-2.45-2.23c-1.9,0-2.85,1.35-2.85,3.78s1,3.77,2.85,3.77a2.31,2.31,0,0,0,2.47-2.17h3.38c-.2,2.92-2.1,5.12-5.78,5.12C1609,349,1606.69,346.31,1606.69,342.31Z"/><path d="M1620.42,345c0-2.35,1.62-4,5.25-4a10.62,10.62,0,0,1,2.9.4v-1.13c0-1.05-.65-1.9-2.25-1.9-1.4,0-2.18.75-2.18,1.68H1621c0-2.45,1.85-4.43,5.4-4.43s5.53,2,5.53,4.63v8.6h-3l-.25-1.35h-.1A4.35,4.35,0,0,1,1625,349C1622.07,349,1620.42,347.28,1620.42,345Zm8.15-1v-.27a7,7,0,0,0-2.58-.43c-1.47,0-2.25.63-2.25,1.55s.68,1.55,2,1.55A2.52,2.52,0,0,0,1628.57,344Z"/><path d="M1634,344.43h3.35c0,1,.78,1.78,2.3,1.78s2.15-.53,2.15-1.2-.47-1.05-1.5-1.25l-2.1-.4c-2.1-.4-3.8-1.55-3.8-3.95,0-2.13,1.88-3.83,5.18-3.83s5.3,1.85,5.3,4.33h-3.3c0-.9-.68-1.65-2-1.65-1.13,0-1.85.47-1.85,1.17s.5,1,1.32,1.18l2.38.42c2.1.43,3.8,1.38,3.8,4s-2.38,4-5.53,4C1635.87,349,1634.07,347.16,1634,344.43Z"/><path d="M1646.77,342.33c0-3.7,2-6.75,6.22-6.75,3.88,0,6,2.8,6,6.35v1.3h-8.85c0,1.78.93,3,2.85,3a2.4,2.4,0,0,0,2.55-1.5h3.27c-.35,2.35-2.47,4.27-5.82,4.27C1649,349,1646.77,346.08,1646.77,342.33Zm8.85-1.32a2.47,2.47,0,0,0-2.63-2.63,2.53,2.53,0,0,0-2.77,2.63Z"/></svg>