<?xml version="1.0" encoding="UTF-8" standalone="no"?><svg xmlns="http://www.w3.org/2000/svg" xmlns:xlink="http://www.w3.org/1999/xlink" contentScriptType="application/ecmascript" contentStyleType="text/css" height="255px" preserveAspectRatio="none" style="width:374px;height:255px;" version="1.1" viewBox="0 0 374 255" width="374px" zoomAndPan="magnify"><defs><filter height="300%" id="f1jvqb28dudcfa" width="300%" x="-1" y="-1"><feGaussianBlur result="blurOut" stdDeviation="2.0"/><feColorMatrix in="blurOut" result="blurOut2" type="matrix" values="0 0 0 0 0 0 0 0 0 0 0 0 0 0 0 0 0 0 .4 0"/><feOffset dx="4.0" dy="4.0" in="blurOut2" result="blurOut3"/><feBlend in="SourceGraphic" in2="blurOut3" mode="normal"/></filter></defs><g><!--MD5=[4a65e84059005d12693a083370a06717]
entity client--><rect fill="#FEFECE" filter="url(#f1jvqb28dudcfa)" height="36.2969" style="stroke: #A80036; stroke-width: 1.5;" width="57" x="99.5" y="8"/><text fill="#000000" font-family="sans-serif" font-size="14" lengthAdjust="spacingAndGlyphs" textLength="37" x="109.5" y="30.9951">client</text><!--MD5=[e51296a1580e0172c3b5b7be8520ff5e]
entity seed_node--><rect fill="#FEFECE" filter="url(#f1jvqb28dudcfa)" height="36.2969" style="stroke: #A80036; stroke-width: 1.5;" width="98" x="135" y="121"/><text fill="#000000" font-family="sans-serif" font-size="14" lengthAdjust="spacingAndGlyphs" textLength="78" x="145" y="143.9951">seed_node</text><ellipse cx="240.8492" cy="26.0236" fill="#FEFECE" filter="url(#f1jvqb28dudcfa)" rx="17.8492" ry="14.5236" style="stroke: #A80036; stroke-width: 1.5;"/><text fill="#000000" font-family="sans-serif" font-size="14" lengthAdjust="spacingAndGlyphs" textLength="21" x="230.3492" y="30.6721">IoT</text><path d="M6,218 L6,243.1328 A0,0 0 0 0 6,243.1328 L362,243.1328 A0,0 0 0 0 362,243.1328 L362,228 L352,218 L188,218 L184,157.0775 L180,218 L6,218 A0,0 0 0 0 6,218 " fill="#FBFB77" filter="url(#f1jvqb28dudcfa)" style="stroke: #A80036; stroke-width: 1.0;"/><path d="M352,218 L352,228 L362,228 L352,218 " fill="#FBFB77" style="stroke: #A80036; stroke-width: 1.0;"/><text fill="#000000" font-family="sans-serif" font-size="13" lengthAdjust="spacingAndGlyphs" textLength="335" x="12" y="235.0669">Node with forging enabled for 101 genesis delegates</text><!--MD5=[5ddc868b76cdf86593f478520dd5c7d0]
link client to seed_node--><path d="M121.7953,48.973 C119.5298,61.9137 118.8322,78.031 125,91 C129.9712,101.4529 138.4553,110.3751 147.4639,117.5894 " fill="none" id="client-seed_node" style="stroke: #A80036; stroke-width: 1.0;"/><polygon fill="#A80036" points="151.9153,120.993,147.1953,112.3488,147.9433,117.956,142.3361,118.704,151.9153,120.993" style="stroke: #A80036; stroke-width: 1.0;"/><polygon fill="#A80036" points="122.768,44.0024,117.1139,52.0666,121.8077,48.9093,124.965,53.6031,122.768,44.0024" style="stroke: #A80036; stroke-width: 1.0;"/><text fill="#000000" font-family="sans-serif" font-size="13" lengthAdjust="spacingAndGlyphs" textLength="71" x="126" y="87.0669">WebSocket</text><!--MD5=[8496898d2c2580c6d28955b379f418e5]
link IoT to seed_node--><path d="M231.7143,44.4085 C221.8095,64.0443 206.1096,95.1687 195.4467,116.3074 " fill="none" id="IoT-seed_node" style="stroke: #A80036; stroke-width: 1.0;"/><polygon fill="#A80036" points="193.1185,120.9229,200.7434,114.6891,195.3705,116.4588,193.6008,111.0859,193.1185,120.9229" style="stroke: #A80036; stroke-width: 1.0;"/><polygon fill="#A80036" points="234.0107,39.856,226.386,46.09,231.7588,44.3202,233.5287,49.6931,234.0107,39.856" style="stroke: #A80036; stroke-width: 1.0;"/><text fill="#000000" font-family="sans-serif" font-size="13" lengthAdjust="spacingAndGlyphs" textLength="32" x="216" y="87.0669">HTTP</text><!--MD5=[afc1c5266e43f30ae98e8bcd8beff2f7]
@startuml
agent client
agent seed_node
usecase IoT

client <- -> seed_node : WebSocket 
IoT <- -> seed_node : HTTP

note bottom of (seed_node)
 Node with forging enabled for 101 genesis delegates
end note
@enduml

PlantUML version 1.2019.11(Sun Sep 22 10:02:15 UTC 2019)
(GPL source distribution)
Java Runtime: OpenJDK Runtime Environment
JVM: OpenJDK 64-Bit Server VM
Java Version: 1.8.0_222-heroku-b10
Operating System: Linux
Default Encoding: UTF-8
Language: en
Country: US
--></g></svg>