<svg xmlns="http://www.w3.org/2000/svg" xmlns:xlink="http://www.w3.org/1999/xlink" xmlns:lucid="lucid" width="1480" height="380"><g transform="translate(0 0)" lucid:page-tab-id="0_0"><path d="M1200 270c0 49.7-40.3 90-90 90s-90-40.3-90-90 40.3-90 90-90 90 40.3 90 90z" stroke="#000" stroke-width="2" fill="#f7f9fd"/><use xlink:href="#a" transform="matrix(1,0,0,1,1040,180) translate(25.52222222222222 97.77777777777779)"/><path d="M1020 20h180v100h-180z" stroke="#000" stroke-width="2" fill="#f7f9fd"/><use xlink:href="#b" transform="matrix(1,0,0,1,1040,20) translate(10.044444444444444 57.777777777777786)"/><path d="M940 270c0 49.7-40.3 90-90 90s-90-40.3-90-90 40.3-90 90-90 90 40.3 90 90z" stroke="#000" stroke-width="2" fill="#f7f9fd"/><use xlink:href="#c" transform="matrix(1,0,0,1,779.9999999999999,180) translate(3.7777777777777715 97.77777777777779)"/><path d="M942 270h58.5" stroke="#000" stroke-width="2" fill="none"/><path d="M942.03 271h-1.06l.03-1v-1h1.03z"/><path d="M1015.76 270l-14.26 4.64v-9.28z" stroke="#000" stroke-width="2"/><path d="M1110 122v38.5" stroke="#000" stroke-width="2" fill="none"/><path d="M1111 122.03h-2V121h2z"/><path d="M1110 175.76l-4.64-14.26h9.28z" stroke="#000" stroke-width="2"/><path d="M698 270h42.5" stroke="#000" stroke-width="2" fill="none"/><path d="M698.03 271H697v-2h1.03z"/><path d="M755.76 270l-14.26 4.64v-9.28z" stroke="#000" stroke-width="2"/><path d="M850 122v38.5" stroke="#000" stroke-width="2" fill="none"/><path d="M851 122.03h-2V121h2z"/><path d="M850 175.76l-4.64-14.26h9.28z" stroke="#000" stroke-width="2"/><path d="M20 200h180v140H20z" stroke="#000" stroke-width="2" fill="#f7f9fd"/><use xlink:href="#d" transform="matrix(1,0,0,1,40,200) translate(21.21111111111111 51.111111111111114)"/><use xlink:href="#e" transform="matrix(1,0,0,1,40,200) translate(27.866666666666667 77.77777777777777)"/><use xlink:href="#f" transform="matrix(1,0,0,1,40,200) translate(90.97777777777777 77.77777777777777)"/><use xlink:href="#g" transform="matrix(1,0,0,1,40,200) translate(9.29999999999999 104.44444444444444)"/><path d="M460 270c0 49.7-40.3 90-90 90s-90-40.3-90-90 40.3-90 90-90 90 40.3 90 90z" stroke="#000" stroke-width="2" fill="#f7f9fd"/><use xlink:href="#h" transform="matrix(1,0,0,1,300,180) translate(6.566666666666656 97.77777777777779)"/><path d="M202 270h58.5" stroke="#000" stroke-width="2" fill="none"/><path d="M202.03 271H201v-2h1.03z"/><path d="M275.76 270l-14.26 4.64v-9.28z" stroke="#000" stroke-width="2"/><path d="M462 270h36" stroke="#000" stroke-width="2" fill="none"/><path d="M462.03 271h-1.06l.03-1v-1h1.03zM499 271h-1.03v-2H499z"/><path d="M1202 270h58.5" stroke="#000" stroke-width="2" fill="none"/><path d="M1202.03 271h-1.06l.03-1v-1h1.03z"/><path d="M1275.76 270l-14.26 4.64v-9.28z" stroke="#000" stroke-width="2"/><path d="M499 245c0-2.76 2.24-5 5-5h188c2.76 0 5 2.24 5 5v50c0 2.76-2.24 5-5 5H504c-2.76 0-5-2.24-5-5z" stroke="#000" stroke-opacity="0" stroke-width="2" fill="#fff" fill-opacity="0"/><use xlink:href="#i" transform="matrix(1,0,0,1,503.9999710573232,245) translate(11.433333333333337 33.611111111111114)"/><use xlink:href="#j" transform="matrix(1,0,0,1,503.9999710573232,245) translate(84.47777777777779 33.611111111111114)"/><path d="M735 25c0-2.76 2.24-5 5-5h220c2.76 0 5 2.24 5 5v90c0 2.76-2.24 5-5 5H740c-2.76 0-5-2.24-5-5z" fill="#f7f9fd"/><path d="M735 20h230m0 100H735" stroke="#000" stroke-width="2" fill="#f7f9fd"/><g><use xlink:href="#k" transform="matrix(1,0,0,1,754.9999999999999,20) translate(1.5111111111110915 57.777777777777786)"/><use xlink:href="#l" transform="matrix(1,0,0,1,754.9999999999999,20) translate(94.68888888888888 57.777777777777786)"/></g><path d="M1280 200h180v140h-180z" stroke="#000" stroke-width="2" fill="#f7f9fd"/><g><use xlink:href="#m" transform="matrix(1,0,0,1,1300,200) translate(20.044444444444437 77.77777777777779)"/></g><defs><path d="M100 0v-700h450v80H187v219h332v80H187v242h363V0H100" id="n"/><path d="M267 9C133 9 51-91 50-256c1-151 73-264 217-264 76 0 127 35 154 80h4v-300h84V0h-73l-11-71h-4C394-26 343 9 267 9zm14-75c102 0 146-88 146-190 0-101-44-189-146-189-106 0-146 87-146 189 0 103 40 190 146 190" id="o"/><path d="M67 0v-66l239-279c72-84 100-116 100-175 0-68-41-116-125-116-82 0-131 47-131 132H65c0-122 79-208 216-208 133 0 212 82 212 189 0 78-42 130-129 231L183-82v4h321V0H67" id="p"/><path d="M296 9C153 9 65-81 65-198h85c0 72 53 131 146 131 106 0 147-68 147-159 0-88-45-156-146-156-67 0-105 32-132 69H77l27-387h392v77H178l-16 223h4c26-28 70-57 144-57 141 0 219 98 219 228C529-88 453 9 296 9" id="q"/><path d="M230 0v-605h-4L65-479H55v-86l174-135h86V0h-85" id="r"/><path d="M295 9C174 9 91-64 78-172h87c7 64 58 104 130 104 127 0 172-128 172-274h-4c-30 57-84 96-170 96-144 0-223-103-223-230 0-133 88-236 235-236 180 0 247 150 247 348C552-168 484 9 295 9zm9-330c99 0 148-69 148-156s-52-159-148-159-147 71-147 158c0 88 50 157 147 157" id="s"/><g id="a"><use transform="matrix(0.022222222222222223,0,0,0.022222222222222223,0,0)" xlink:href="#n"/><use transform="matrix(0.022222222222222223,0,0,0.022222222222222223,13.555555555555555,0)" xlink:href="#o"/><use transform="matrix(0.022222222222222223,0,0,0.022222222222222223,26.644444444444446,0)" xlink:href="#p"/><use transform="matrix(0.022222222222222223,0,0,0.022222222222222223,39.28888888888889,0)" xlink:href="#q"/><use transform="matrix(0.022222222222222223,0,0,0.022222222222222223,52.488888888888894,0)" xlink:href="#q"/><use transform="matrix(0.022222222222222223,0,0,0.022222222222222223,65.6888888888889,0)" xlink:href="#r"/><use transform="matrix(0.022222222222222223,0,0,0.022222222222222223,75.13333333333334,0)" xlink:href="#s"/></g><path d="M100 0v-700h258c143 0 231 91 231 221 0 134-90 225-231 225H187V0h-87zm87-334h160c97 0 152-51 152-145 0-90-58-142-152-142H187v287" id="t"/><path d="M228 9C117 9 50-60 50-149c0-86 61-160 211-160 54 0 94 9 126 18 7-94-13-152-118-157-75 0-112 42-113 91H75c0-98 82-163 194-163 131 0 200 79 200 176V0h-71l-6-72h-4C357-20 300 9 228 9zm15-70c96-3 152-69 144-163-42-13-81-18-126-18-83 0-126 32-126 92 0 51 34 89 108 89" id="u"/><path d="M259 9C138 9 53-57 50-169h84c0 68 52 103 125 103 72 0 117-24 117-73 0-69-115-80-180-92-84-16-130-68-130-143 0-85 73-146 186-146 115 0 197 63 197 165h-82c-3-65-51-94-115-94-62 0-105 25-105 75 0 68 106 73 169 87 96 21 145 60 145 148C461-45 369 9 259 9" id="v"/><path d="M90 229v-740h73l11 71h4c27-45 78-80 154-80 134 0 216 100 217 265C548-104 476 9 332 9c-76 0-127-35-154-80h-4v300H90zM318-66c106 0 146-87 146-189 0-103-40-190-146-190-102 0-146 88-146 190 0 101 44 189 146 189" id="w"/><path d="M90 0v-740h84v309h4c27-52 77-89 156-89 113 0 181 71 181 188V0h-84v-319c0-80-39-126-120-126-83 0-137 62-137 165V0H90" id="x"/><path d="M90 0v-511h73l7 86h4c28-71 87-100 181-92v81c-128-12-181 52-181 188V0H90" id="y"/><path d="M282 9C131 9 50-105 50-255c0-148 73-265 231-265 158 2 232 123 221 290H138c0 97 49 164 144 164 67 0 115-28 129-82h84C481-54 391 9 282 9zM139-300h276c0-81-43-145-134-145-96 0-139 65-142 145" id="z"/><g id="b"><use transform="matrix(0.022222222222222223,0,0,0.022222222222222223,0,0)" xlink:href="#t"/><use transform="matrix(0.022222222222222223,0,0,0.022222222222222223,13.977777777777778,0)" xlink:href="#u"/><use transform="matrix(0.022222222222222223,0,0,0.022222222222222223,26.177777777777777,0)" xlink:href="#v"/><use transform="matrix(0.022222222222222223,0,0,0.022222222222222223,37.53333333333333,0)" xlink:href="#v"/><use transform="matrix(0.022222222222222223,0,0,0.022222222222222223,48.88888888888889,0)" xlink:href="#w"/><use transform="matrix(0.022222222222222223,0,0,0.022222222222222223,62.199999999999996,0)" xlink:href="#x"/><use transform="matrix(0.022222222222222223,0,0,0.022222222222222223,75.42222222222222,0)" xlink:href="#y"/><use transform="matrix(0.022222222222222223,0,0,0.022222222222222223,84.08888888888889,0)" xlink:href="#u"/><use transform="matrix(0.022222222222222223,0,0,0.022222222222222223,96.28888888888889,0)" xlink:href="#v"/><use transform="matrix(0.022222222222222223,0,0,0.022222222222222223,107.64444444444445,0)" xlink:href="#z"/></g><path d="M369 9C167 9 60-136 60-349c0-216 109-360 309-360 169 0 265 95 280 243h-90c-11-97-72-161-190-161-163 0-219 137-219 278S206-72 369-72c114 0 174-59 191-155h89C630-83 537 9 369 9" id="A"/><path d="M281 9C121 9 50-108 50-255s73-265 231-265 231 118 231 265C512-109 441 9 281 9zm0-75c104 0 146-79 146-189s-42-190-146-190-146 81-146 190c0 110 43 189 146 189" id="B"/><path d="M90 0v-511h73l7 80h4c27-52 79-89 158-89 113 0 179 71 179 188V0h-84v-319c0-80-37-126-118-126-85 0-135 60-135 163V0H90" id="C"/><path d="M282 9C129 9 50-94 50-255c0-159 79-265 231-265 137 0 203 81 210 184h-84c-5-68-52-109-126-109-105 0-146 85-146 190 0 107 41 190 146 190 76 0 121-39 128-107h84C483-64 415 9 282 9" id="D"/><path d="M260 9C159 9 125-43 125-128v-312H40v-71h87v-109c28-9 49-24 82-28v137h125v71H209v305c0 49 21 70 67 70 30 1 39-6 60-6V1c-16 4-44 8-76 8" id="E"/><g id="c"><use transform="matrix(0.022222222222222223,0,0,0.022222222222222223,0,0)" xlink:href="#A"/><use transform="matrix(0.022222222222222223,0,0,0.022222222222222223,15.755555555555556,0)" xlink:href="#B"/><use transform="matrix(0.022222222222222223,0,0,0.022222222222222223,28.244444444444447,0)" xlink:href="#C"/><use transform="matrix(0.022222222222222223,0,0,0.022222222222222223,41.37777777777778,0)" xlink:href="#D"/><use transform="matrix(0.022222222222222223,0,0,0.022222222222222223,53.44444444444445,0)" xlink:href="#u"/><use transform="matrix(0.022222222222222223,0,0,0.022222222222222223,65.64444444444445,0)" xlink:href="#E"/><use transform="matrix(0.022222222222222223,0,0,0.022222222222222223,74.11111111111111,0)" xlink:href="#z"/><use transform="matrix(0.022222222222222223,0,0,0.022222222222222223,86.37777777777778,0)" xlink:href="#C"/><use transform="matrix(0.022222222222222223,0,0,0.022222222222222223,99.51111111111112,0)" xlink:href="#u"/><use transform="matrix(0.022222222222222223,0,0,0.022222222222222223,111.71111111111111,0)" xlink:href="#E"/><use transform="matrix(0.022222222222222223,0,0,0.022222222222222223,120.17777777777778,0)" xlink:href="#z"/></g><path d="M356 9C192 9 90-86 90-247v-453h87v451c0 108 59 178 179 178 122 0 180-70 180-178v-451h88v453C624-86 523 9 356 9" id="F"/><path d="M132-609c-39 0-58-23-58-59 0-35 19-58 58-58 38 0 58 23 58 58 0 36-20 59-58 59zM90 0v-511h84V0H90" id="G"/><path d="M283 238C152 238 68 163 65 65h81c4 49 43 101 137 101 98 0 142-61 142-138v-99h-4C394-26 343 9 267 9 123 9 51-104 50-255c1-165 83-265 217-265 76 0 127 35 154 80h4l11-71h73V30c0 117-80 208-226 208zm-2-304c102 0 146-88 146-189 0-102-44-190-146-190-106 0-146 87-146 190 0 102 40 189 146 189" id="H"/><g id="d"><use transform="matrix(0.022222222222222223,0,0,0.022222222222222223,0,0)" xlink:href="#F"/><use transform="matrix(0.022222222222222223,0,0,0.022222222222222223,15.866666666666667,0)" xlink:href="#C"/><use transform="matrix(0.022222222222222223,0,0,0.022222222222222223,29,0)" xlink:href="#v"/><use transform="matrix(0.022222222222222223,0,0,0.022222222222222223,40.355555555555554,0)" xlink:href="#G"/><use transform="matrix(0.022222222222222223,0,0,0.022222222222222223,46,0)" xlink:href="#H"/><use transform="matrix(0.022222222222222223,0,0,0.022222222222222223,59.08888888888889,0)" xlink:href="#C"/><use transform="matrix(0.022222222222222223,0,0,0.022222222222222223,72.22222222222223,0)" xlink:href="#z"/><use transform="matrix(0.022222222222222223,0,0,0.022222222222222223,84.4888888888889,0)" xlink:href="#o"/></g><path d="M100 0v-700h281c118 0 204 67 204 182 0 76-36 120-88 143v4c54 22 114 70 114 169C611-74 525 0 388 0H100zm86-400c139-3 315 31 310-118 0-66-45-104-125-104H186v222zm0 321h192c83 0 143-43 143-123 0-82-54-122-143-122H186v245" id="I"/><path d="M90 0v-740h84V0H90" id="J"/><path d="M90-740h84V0H90v-740zm192 453L495-10V0h-97L174-287l216-224h99v10" id="K"/><g id="e"><use transform="matrix(0.022222222222222223,0,0,0.022222222222222223,0,0)" xlink:href="#I"/><use transform="matrix(0.022222222222222223,0,0,0.022222222222222223,14.8,0)" xlink:href="#J"/><use transform="matrix(0.022222222222222223,0,0,0.022222222222222223,20.444444444444446,0)" xlink:href="#B"/><use transform="matrix(0.022222222222222223,0,0,0.022222222222222223,32.93333333333334,0)" xlink:href="#D"/><use transform="matrix(0.022222222222222223,0,0,0.022222222222222223,45,0)" xlink:href="#K"/></g><g id="f"><use transform="matrix(0.022222222222222223,0,0,0.022222222222222223,0,0)" xlink:href="#B"/><use transform="matrix(0.022222222222222223,0,0,0.022222222222222223,12.488888888888889,0)" xlink:href="#y"/></g><path d="M252 0v-620H35v-80h522v80H340V0h-88" id="L"/><g id="g"><use transform="matrix(0.022222222222222223,0,0,0.022222222222222223,0,0)" xlink:href="#L"/><use transform="matrix(0.022222222222222223,0,0,0.022222222222222223,12.044444444444444,0)" xlink:href="#y"/><use transform="matrix(0.022222222222222223,0,0,0.022222222222222223,20.711111111111116,0)" xlink:href="#u"/><use transform="matrix(0.022222222222222223,0,0,0.022222222222222223,32.91111111111112,0)" xlink:href="#C"/><use transform="matrix(0.022222222222222223,0,0,0.022222222222222223,46.04444444444446,0)" xlink:href="#v"/><use transform="matrix(0.022222222222222223,0,0,0.022222222222222223,57.400000000000006,0)" xlink:href="#u"/><use transform="matrix(0.022222222222222223,0,0,0.022222222222222223,69.60000000000001,0)" xlink:href="#D"/><use transform="matrix(0.022222222222222223,0,0,0.022222222222222223,81.66666666666667,0)" xlink:href="#E"/><use transform="matrix(0.022222222222222223,0,0,0.022222222222222223,90.13333333333334,0)" xlink:href="#G"/><use transform="matrix(0.022222222222222223,0,0,0.022222222222222223,95.77777777777779,0)" xlink:href="#B"/><use transform="matrix(0.022222222222222223,0,0,0.022222222222222223,108.26666666666667,0)" xlink:href="#C"/></g><path d="M315 9C145 9 54-78 50-210h89c5 87 66 140 176 140 111 0 171-40 171-122 0-105-134-115-227-136-121-27-186-82-186-189 0-118 88-192 243-192 150 0 248 84 249 208h-89c-4-76-54-128-162-128-90 0-150 33-150 112 0 90 129 107 214 124 130 27 199 94 199 201C577-67 477 9 315 9" id="M"/><path d="M55 0v-69l291-367v-4H56v-71h389v70L155-75v4h292V0H55" id="N"/><g id="h"><use transform="matrix(0.022222222222222223,0,0,0.022222222222222223,0,0)" xlink:href="#M"/><use transform="matrix(0.022222222222222223,0,0,0.022222222222222223,14.044444444444444,0)" xlink:href="#z"/><use transform="matrix(0.022222222222222223,0,0,0.022222222222222223,26.311111111111114,0)" xlink:href="#y"/><use transform="matrix(0.022222222222222223,0,0,0.022222222222222223,34.977777777777774,0)" xlink:href="#G"/><use transform="matrix(0.022222222222222223,0,0,0.022222222222222223,40.62222222222222,0)" xlink:href="#u"/><use transform="matrix(0.022222222222222223,0,0,0.022222222222222223,52.82222222222222,0)" xlink:href="#J"/><use transform="matrix(0.022222222222222223,0,0,0.022222222222222223,58.46666666666667,0)" xlink:href="#G"/><use transform="matrix(0.022222222222222223,0,0,0.022222222222222223,64.11111111111111,0)" xlink:href="#N"/><use transform="matrix(0.022222222222222223,0,0,0.022222222222222223,74.93333333333334,0)" xlink:href="#u"/><use transform="matrix(0.022222222222222223,0,0,0.022222222222222223,87.13333333333334,0)" xlink:href="#E"/><use transform="matrix(0.022222222222222223,0,0,0.022222222222222223,95.60000000000001,0)" xlink:href="#G"/><use transform="matrix(0.022222222222222223,0,0,0.022222222222222223,101.24444444444445,0)" xlink:href="#B"/><use transform="matrix(0.022222222222222223,0,0,0.022222222222222223,113.73333333333336,0)" xlink:href="#C"/></g><path d="M139 229v-10c28-75 61-150 86-225L20-501v-10h90l155 401h4l150-401h88v10L224 229h-85" id="O"/><g id="i"><use transform="matrix(0.022222222222222223,0,0,0.022222222222222223,0,0)" xlink:href="#I"/><use transform="matrix(0.022222222222222223,0,0,0.022222222222222223,14.8,0)" xlink:href="#G"/><use transform="matrix(0.022222222222222223,0,0,0.022222222222222223,20.444444444444446,0)" xlink:href="#C"/><use transform="matrix(0.022222222222222223,0,0,0.022222222222222223,33.57777777777778,0)" xlink:href="#u"/><use transform="matrix(0.022222222222222223,0,0,0.022222222222222223,45.77777777777779,0)" xlink:href="#y"/><use transform="matrix(0.022222222222222223,0,0,0.022222222222222223,54.66666666666667,0)" xlink:href="#O"/></g><path d="M100 0v-700h103l236 427h4l236-427h101V0h-83v-561h-4L445-120h-10L187-564h-4V0h-83" id="P"/><g id="j"><use transform="matrix(0.022222222222222223,0,0,0.022222222222222223,0,0)" xlink:href="#P"/><use transform="matrix(0.022222222222222223,0,0,0.022222222222222223,19.555555555555557,0)" xlink:href="#z"/><use transform="matrix(0.022222222222222223,0,0,0.022222222222222223,31.822222222222223,0)" xlink:href="#v"/><use transform="matrix(0.022222222222222223,0,0,0.022222222222222223,43.17777777777778,0)" xlink:href="#v"/><use transform="matrix(0.022222222222222223,0,0,0.022222222222222223,54.53333333333334,0)" xlink:href="#u"/><use transform="matrix(0.022222222222222223,0,0,0.022222222222222223,66.73333333333333,0)" xlink:href="#H"/><use transform="matrix(0.022222222222222223,0,0,0.022222222222222223,79.82222222222222,0)" xlink:href="#z"/></g><path d="M100 0v-700h95l358 557h4v-557h86V0h-96L189-554h-4V0h-85" id="Q"/><path d="M165 0L20-501v-10h87l102 397h4l120-397h86l120 397h4l102-397h85v10L586 0h-87L379-397h-4L252 0h-87" id="R"/><g id="k"><use transform="matrix(0.022222222222222223,0,0,0.022222222222222223,0,0)" xlink:href="#Q"/><use transform="matrix(0.022222222222222223,0,0,0.022222222222222223,16.511111111111113,0)" xlink:href="#z"/><use transform="matrix(0.022222222222222223,0,0,0.022222222222222223,28.77777777777778,0)" xlink:href="#E"/><use transform="matrix(0.022222222222222223,0,0,0.022222222222222223,37.24444444444445,0)" xlink:href="#R"/><use transform="matrix(0.022222222222222223,0,0,0.022222222222222223,53.91111111111111,0)" xlink:href="#B"/><use transform="matrix(0.022222222222222223,0,0,0.022222222222222223,66.4,0)" xlink:href="#y"/><use transform="matrix(0.022222222222222223,0,0,0.022222222222222223,75.06666666666668,0)" xlink:href="#K"/></g><path d="M100 0v-700h88V0h-88" id="S"/><path d="M122 0v-441H31v-70h91v-89c-5-111 97-173 213-143v70c-66-16-129 3-129 73v89h124v70H206V0h-84" id="T"/><g id="l"><use transform="matrix(0.022222222222222223,0,0,0.022222222222222223,0,0)" xlink:href="#S"/><use transform="matrix(0.022222222222222223,0,0,0.022222222222222223,6.4,0)" xlink:href="#o"/><use transform="matrix(0.022222222222222223,0,0,0.022222222222222223,19.488888888888887,0)" xlink:href="#z"/><use transform="matrix(0.022222222222222223,0,0,0.022222222222222223,31.755555555555553,0)" xlink:href="#C"/><use transform="matrix(0.022222222222222223,0,0,0.022222222222222223,44.888888888888886,0)" xlink:href="#E"/><use transform="matrix(0.022222222222222223,0,0,0.022222222222222223,53.355555555555554,0)" xlink:href="#G"/><use transform="matrix(0.022222222222222223,0,0,0.022222222222222223,59,0)" xlink:href="#T"/><use transform="matrix(0.022222222222222223,0,0,0.022222222222222223,67.22222222222223,0)" xlink:href="#G"/><use transform="matrix(0.022222222222222223,0,0,0.022222222222222223,72.86666666666667,0)" xlink:href="#z"/><use transform="matrix(0.022222222222222223,0,0,0.022222222222222223,85.13333333333334,0)" xlink:href="#y"/></g><path d="M414-511h84v325C498-69 413 8 289 8S80-69 80-186v-325h84v311c0 81 36 133 125 133s125-52 125-133v-311" id="U"/><g id="m"><use transform="matrix(0.022222222222222223,0,0,0.022222222222222223,0,0)" xlink:href="#M"/><use transform="matrix(0.022222222222222223,0,0,0.022222222222222223,14.044444444444444,0)" xlink:href="#G"/><use transform="matrix(0.022222222222222223,0,0,0.022222222222222223,19.68888888888889,0)" xlink:href="#H"/><use transform="matrix(0.022222222222222223,0,0,0.022222222222222223,32.77777777777778,0)" xlink:href="#C"/><use transform="matrix(0.022222222222222223,0,0,0.022222222222222223,45.91111111111111,0)" xlink:href="#u"/><use transform="matrix(0.022222222222222223,0,0,0.022222222222222223,58.111111111111114,0)" xlink:href="#E"/><use transform="matrix(0.022222222222222223,0,0,0.022222222222222223,66.57777777777778,0)" xlink:href="#U"/><use transform="matrix(0.022222222222222223,0,0,0.022222222222222223,79.42222222222223,0)" xlink:href="#y"/><use transform="matrix(0.022222222222222223,0,0,0.022222222222222223,87.64444444444446,0)" xlink:href="#z"/></g></defs></g></svg>