<?xml version="1.0" encoding="UTF-8"?>
<svg width="24px" height="24px" viewBox="0 0 24 24" version="1.1" xmlns="http://www.w3.org/2000/svg" xmlns:xlink="http://www.w3.org/1999/xlink">
    <!-- Generator: Sketch 50.2 (55047) - http://www.bohemiancoding.com/sketch -->
    <title>commander-logo_24px</title>
    <desc>Created with Sketch.</desc>
    <defs>
        <linearGradient x1="76.3263889%" y1="-9.16241497%" x2="28.7951389%" y2="170.711097%" id="linearGradient-1">
            <stop stop-color="#DCFCFF" offset="0%"></stop>
            <stop stop-color="#FFFFFF" offset="28.6644999%"></stop>
            <stop stop-color="#FAFFFF" offset="49.7674645%"></stop>
            <stop stop-color="#93F4FE" offset="100%"></stop>
        </linearGradient>
        <linearGradient x1="117.291206%" y1="145.341196%" x2="-19.4463392%" y2="28.8615027%" id="linearGradient-2">
            <stop stop-color="#021755" stop-opacity="0" offset="0%"></stop>
            <stop stop-color="#0097FF" offset="100%"></stop>
        </linearGradient>
        <linearGradient x1="117.291206%" y1="145.341196%" x2="-41.1504425%" y2="-56.0785976%" id="linearGradient-3">
            <stop stop-color="#021755" stop-opacity="0" offset="0%"></stop>
            <stop stop-color="#0097FF" offset="100%"></stop>
        </linearGradient>
        <linearGradient x1="100%" y1="23.2700899%" x2="-45.3567005%" y2="50%" id="linearGradient-4">
            <stop stop-color="#FF6236" offset="0%"></stop>
            <stop stop-color="#C80039" offset="100%"></stop>
        </linearGradient>
        <linearGradient x1="100%" y1="100%" x2="16.2605782%" y2="23.2700899%" id="linearGradient-5">
            <stop stop-color="#FF6236" offset="0%"></stop>
            <stop stop-color="#C80039" offset="100%"></stop>
        </linearGradient>
        <linearGradient x1="-52.5060119%" y1="-9.54799107%" x2="100%" y2="95.0482094%" id="linearGradient-6">
            <stop stop-color="#00457D" offset="0%"></stop>
            <stop stop-color="#001A56" offset="100%"></stop>
        </linearGradient>
    </defs>
    <g id="commander-logo_24px" stroke="none" stroke-width="1" fill="none" fill-rule="evenodd">
        <g id="lisk-commander-copy" transform="translate(0.000000, 3.000000)">
            <g id="Page-1">
                <polygon id="Fill-1" fill="url(#linearGradient-1)" points="11.9998933 0 0 7.01851479 0 10.4360307 11.9998933 17.4545455 24 10.4360307 24 7.01851479"></polygon>
                <polygon id="Fill-2" fill="url(#linearGradient-2)" opacity="0.0644409938" points="12.053376 14.0880683 12.053376 17.4545875 24.0000427 10.3813958 23.974976 7.04494896"></polygon>
                <polygon id="Fill-3" fill="url(#linearGradient-3)" opacity="0.0828238225" points="0 10.4404364 12.02624 17.4545349 12.0533333 14.0873849 0.01952 7.04489639"></polygon>
            </g>
            <g id="Group-19-Copy-2" transform="translate(3.306667, 1.577218)">
                <polygon id="&gt;" fill="url(#linearGradient-4)" transform="translate(8.113778, 1.324863) rotate(60.000000) translate(-8.113778, -1.324863) " points="8.86044444 0.667313593 7.44314895 2.64972618 7.45627892 1.79502972 8.20292886 0.753035475 8.20292886 0.737718142 7.44873491 0.654662853 7.36711111 2.84e-14 8.86044444 0.276721613"></polygon>
                <path d="M14.124135,3.91397788 C14.0988034,3.82087162 14.0385143,3.74306274 13.9543502,3.69496728 L10.5753729,1.7676866 C10.3490987,1.63850874 10.0769744,1.63510933 9.84728041,1.75868444 C9.78800455,1.79066414 9.73886132,1.83825598 9.705297,1.89636083 C9.65697704,1.98002427 9.64431126,2.07741127 9.66964282,2.17058049 C9.69497438,2.26368675 9.75526351,2.34149563 9.83942763,2.38952813 L13.2184049,4.31680882 C13.3343601,4.38297155 13.4622845,4.4162103 13.5903989,4.4162103 C13.7123704,4.4162103 13.8344685,4.38611916 13.946434,4.32587393 C14.0057732,4.29389423 14.0548531,4.24623944 14.0884808,4.18813458 C14.1368007,4.10447115 14.1494665,4.00708414 14.124135,3.91397788" id="Fill-3" fill="url(#linearGradient-5)"></path>
                <path d="M11.7316203,8.01180376 C11.6999701,7.89606045 11.6246425,7.7993338 11.5194845,7.73954483 L6.92181193,5.12847294 C6.63909614,4.96796617 6.2990934,4.96374025 6.01210481,5.11728207 C5.93804324,5.15703704 5.87664177,5.21619995 5.8347052,5.28843191 C5.77433236,5.39243654 5.75850724,5.51350138 5.79015748,5.62932294 C5.82180773,5.74506624 5.8971353,5.8417929 6.00229324,5.90150361 L10.5999658,8.51257549 C10.7448448,8.59482445 10.9046786,8.63614458 11.0647497,8.63614458 C11.2171456,8.63614458 11.3696998,8.59873734 11.5095938,8.52384462 C11.5837345,8.48408965 11.6450569,8.42484849 11.6870726,8.35261653 C11.7474454,8.24861189 11.7632705,8.12754706 11.7316203,8.01180376" id="Fill-1" fill="url(#linearGradient-6)"></path>
                <path d="M14.9173552,7.22590839 C14.8856198,7.11001839 14.8100897,7.01316914 14.7046489,6.95330439 L5.92934295,1.98821318 C5.64586676,1.82750297 5.30494954,1.8232717 5.01718907,1.97700813 C4.9429283,2.01681348 4.88136169,2.07605137 4.83931232,2.14837488 C4.7787771,2.25251133 4.76290942,2.37372961 4.79464479,2.48969797 C4.82638016,2.60558797 4.90191034,2.70243722 5.00735111,2.76222361 L13.782657,7.72731482 C13.9279257,7.80966803 14.0881893,7.85104053 14.248691,7.85104053 C14.4014968,7.85104053 14.5544613,7.81358588 14.6947316,7.73859823 C14.7690717,7.69879288 14.830559,7.63947663 14.8726877,7.56715312 C14.9332229,7.46301667 14.9490906,7.34179839 14.9173552,7.22590839" id="Fill-1" fill="url(#linearGradient-6)"></path>
                <path d="M10.1386885,9.67935856 C10.1069532,9.56346855 10.031423,9.4666193 9.92598223,9.40675456 L1.15067629,4.44166334 C0.867200092,4.28095314 0.526282875,4.27672186 0.238522404,4.43045829 C0.164261638,4.47026365 0.102695019,4.52950154 0.0606456535,4.60182505 C0.000110434478,4.7059615 -0.0157572507,4.82717977 0.0159781197,4.94314813 C0.04771349,5.05903813 0.123243672,5.15588738 0.22868444,5.21567377 L9.00399038,10.180765 C9.14925904,10.2631182 9.30952266,10.3044907 9.47002429,10.3044907 C9.6228301,10.3044907 9.77579459,10.267036 9.91606492,10.1920484 C9.99040503,10.152243 10.0518923,10.0929268 10.094021,10.0206033 C10.1545562,9.91646683 10.1704239,9.79524856 10.1386885,9.67935856" id="Fill-1-Copy-12" fill="url(#linearGradient-6)"></path>
                <path d="M5.06104836,4.27062641 C5.02870353,4.15267089 4.95172282,4.05409548 4.84425711,3.99316376 L3.56210787,3.26621004 C3.27318763,3.10263548 2.92572325,3.09832879 2.63243646,3.25480528 C2.55674955,3.29532009 2.49400057,3.35561378 2.45114366,3.42922632 C2.38944589,3.5352188 2.37327347,3.65859757 2.40561831,3.77663284 C2.43796314,3.89458836 2.51494385,3.99316376 2.62240956,4.05401573 L3.9045588,4.78096945 C4.05261728,4.86479045 4.2159587,4.90690033 4.3795427,4.90690033 C4.53528308,4.90690033 4.69118518,4.86877813 4.83414935,4.79245397 C4.90991712,4.75193916 4.97258524,4.69156571 5.01552301,4.61795317 C5.07722078,4.51196069 5.0933932,4.38858192 5.06104836,4.27062641" id="Fill-1" fill="url(#linearGradient-6)"></path>
            </g>
        </g>
    </g>
</svg>